<?xml version="1.0" encoding="utf-8"?>
<!-- Generator: Adobe Illustrator 26.1.0, SVG Export Plug-In . SVG Version: 6.00 Build 0)  -->
<svg version="1.1" id="Layer_1" xmlns="http://www.w3.org/2000/svg" xmlns:xlink="http://www.w3.org/1999/xlink" x="0px" y="0px"
	 viewBox="0 0 500 500" style="enable-background:new 0 0 500 500;" xml:space="preserve">
<style type="text/css">
	.st0{fill:#FFFFF0;}
</style>
<g>
	<path class="st0" d="M448.1,334.7c0.3-1.6,0-2.8-0.8-3.6c0.4-0.3,0.8-0.9,0.9-1.6v-0.2v-0.2c-0.2-2.2-0.2-4.6-0.2-6.8
		c-0.1-5.6-0.2-11.3-2-16.9c1-1.6,0.9-3.8,0.9-5.9c0-1.8,0-4,0.6-4.9l0.7-0.9l-0.5-1.1c-0.3-0.6-0.4-1.3-0.6-1.9
		c-0.3-1.1-0.6-2.3-1.5-3.3c0.4-13.8,0-27.8-0.5-42.2l-0.2-5.1c-0.5-12.6-0.9-25.6-1-38.5v-0.3l-0.1-0.3c-1.9-6.9-1.7-14.5-1.3-21.6
		c0.1-1.1,0.1-2.3,0.2-3.4c0.3-4.9,0.6-10,0.5-15.1l-0.5-0.9l0.4-3.6h0.3c0.1-0.6,0-1.1-0.1-1.5c-0.7-4-1-9.1-1.1-13.8l0.6-1
		l0.7-1.1c0.4-0.5,0.4-1.1,0.4-1.3v-0.1c0-1.1,0.1-2.1,0.2-3.1v-0.4l-0.7-2.1l-0.4-1.2c-0.1-0.7-0.5-1.5-1.1-2.2
		c-0.5-0.5-1-0.9-1.6-1.3c-2.1-2.4-5-3.9-7.9-5.1c-0.4-0.2-0.8-0.3-1.1-0.5l-1-0.4l-1.8-0.7c-1.2-0.4-2.4-0.9-3.6-1.3
		c-4.5-1.5-9.2-2.7-14.5-3.7c-2.2-0.4-4.4-0.8-6.6-1.2c0.7,3.6,1.1,7.2,1.1,11c0.7,0.1,1.4,0.1,2.1,0.2l3.2,1.5l-0.6,0.5
		c1-0.2,2.1-0.2,3.2-0.2c3.2,0,6.6,0.6,10.9,2c1.1,0.4,2.3,0.8,3.5,1.2l0.1,0.1c0.5,0.2,1,0.4,1.4,0.5l1.5,0.6
		c1,0.5,1.9,0.8,2.6,1.3c-0.3,0.6-0.3,1.3-0.3,1.6c0,0.1,0,0.1,0,0.2v0.1v1.6v3c0,13.7,0.9,27.2,1.8,40.3c0.6,9.2,1.3,18.7,1.6,28.3
		l-0.6,0.2c0.1,0.4,0.3,0.8,0.5,1.1c0,0.1,0,0.1,0.1,0.2c-0.2,0.4-0.2,0.8-0.2,1.1c-1.2,3.3-0.7,7.8-0.2,11.7c0.3,2.5,0.7,6,0.2,7
		l-0.3,0.6l0.1,0.7c0.2,1.5,1,2.7,2,3.2l0.1,4.3c0.6,18.2,1.2,36.9,3.2,55.1l0.4,1.6l-2.1,1.1c3.8,15.4,3.2,31.6,2.6,47.2
		c-0.1,2.1-0.2,4.2-0.2,6.4v1.2l0.8,0.5l-0.9,1.5c-0.1-0.1-0.2-0.2-0.2-0.3c0,0.1,0,0.5,0,0.7c0,0.6-0.1,1.3,0.2,2
		c-0.2,0.2-0.3,0.4-0.4,0.6l-0.3,0.2v0.5l-0.4-0.2l0.1,1.9l-0.9,5c-0.4-0.6-1-1.2-1.9-1.9l-1.9-1.4l-0.2,0.4l-0.9-0.1
		c-2.4-0.4-3.4-1.3-4.7-2.5c-0.9-0.8-1.9-1.8-3.3-2.5c-0.4-0.4-1.1-0.7-1.9-0.8c-0.1,0-0.1,0-0.2,0l-0.4,1.4l-1.4,0.4
		c-0.2,0-0.4,0.1-0.7,0.1c-1,0-2.1-0.4-3-0.7c-0.1,0-0.3-0.1-0.4-0.1l-0.3-0.5c-0.5-1.1-1.4-1.7-2.6-1.7c-0.8,0-1.7,0.4-2.4,0.8
		h-1.2c-1.3,0-2.6,0-4,0c-7.4,0-15.6-0.5-23.6-0.9c-2.1-0.1-4.2-0.2-6.3-0.3h-0.8l-0.5,0.5c-0.4,0.2-1.8,0.2-2.5,0.2
		c-1.3,0-2.7,0-3.7,0.5c-3.5-2.2-8.7-3.2-11.7-3.5l0.1-0.2c-1.7-1.3-3.3-2-4.9-2c-1.5,0-2.8,0.6-3.8,1.1c-0.7,0.3-1.4,0.6-1.9,0.6
		c-0.6,0-1.5-0.5-2.4-1.5l-1.6-0.6l-1.8,1.4c-0.1,0-0.4,0.1-0.9,0.1c-0.7,0-1.6-0.1-2.6-0.2c-1.2-0.1-2.4-0.3-3.7-0.3
		c-0.6,0-1.7,0-3,0.4l0.3-0.7l-2.8-0.1c-5-0.2-10.2-0.6-15.3-1.1c-5.7-0.5-11.2-1-16-1h-0.5l-0.4,0.2c-1.5,0.7-3.2,1-5.5,1.1
		c-0.7,0-1.3,0-2,0c-1.2,0-2.4,0-3.6-0.1h-1c-0.9,0-1.7-0.1-2.5-0.1c-3.1,0-7,0.3-10.2,2.4c-3.5-0.6-6.7-0.9-9.7-1
		c-0.7,0-1.4,0-2.1,0c-1.1,0-2.3,0-3.4,0.1l0,0l-6.1,0.7c-2.2,0.2-4.5,0.6-6.8,0.9l-0.9,0.1c-1,0.2-1.9,0.3-2.9,0.5
		c-1.2,0.2-2.4,0.5-3.5,0.8c-4.1,1-7.9,2.5-10.7,4.2c-2-1.6-4.1-1.9-5.8-1.9h-0.3c-0.8,0-1.5,0-2.3,0.1h-0.6c-0.4,0-0.8,0-1.2,0
		c-0.5,0-0.9,0-1.2-0.1l-0.8-0.1l-0.6,0.5c-2.1,1.6-5.8,3-10.1,4.5l-6.5,2.4c-2.2,0.7-4,1.4-5.6,2.1c-0.4-0.1-0.8-0.2-1.4-0.2
		c-1,0-2,0.3-3,0.6c-0.6,0.2-1.2,0.3-1.6,0.4l-0.7-1.8l-2,1c-1.2,0.6-2.7,1.3-4,1.9c-1.4,0.5-2.8,1-4.3,1.5c-2.9,1-5.9,1.9-9.1,2.7
		l-2.4,0.6c-0.5,0.1-1,0.2-1.5,0.3c-0.3,0-0.5,0.1-0.8,0.1c-1.6,0.3-3.2,0.5-4.9,0.7c-1.6,0.2-3.3,0.4-4.9,0.6l-2.5,0.2
		c-0.9,0.1-1.6,0.1-2.4,0.1c-1.6,0.1-3.3,0.1-5,0.1c-11.4,0-22.9-1.6-33.4-4.7l-0.4,1.2l-0.6-1.3c-1.8,0.7-3.6,1.8-5.8,3.1l-0.3,0.2
		c-0.9,0.5-1.7,1.1-2.6,1.6c-0.3,0.2-0.6,0.3-1,0.5c-0.1,0-0.3,0-0.4,0l0,0c-1.9-0.2-3.7-1.1-5.5-2l-1.5-0.7l-0.5-0.2
		c-0.4-0.2-0.7-0.4-1.1-0.5c-1-0.5-2-0.8-3-1l-0.2-0.9c-0.1,0-0.2,0-0.3,0c-0.6,0-1.3-0.1-2.1-0.5c-0.6-0.2-1.2-0.5-1.8-0.9
		c-0.3-0.2-0.6-0.4-0.9-0.5c-1.1-0.6-2.2-1.2-3.5-1.6c-0.6-0.2-1.3-0.4-2.1-0.5v-0.9h-2c-0.1,0-0.2,0-0.3,0l0.6-1.1
		c-0.3-0.2-0.5-0.3-0.8-0.4c-0.5-0.2-1-0.4-1.5-0.7c-0.3-0.2-0.7-0.3-1-0.5l-0.8-0.4v-0.2l-0.1-4.2l-0.2-7.7
		c-0.1-2.2-0.2-4.3-0.2-6.5l0.1-0.2c0.2-0.2,0.4-0.5,0.5-0.9c0.1,0,0.1,0,0.2,0l2.3-0.9l0.1-0.8l0.4-2.8h1.5c0-0.9,0.4-1.5,1.1-1.9
		c0.1-0.1,0.3-0.1,0.4-0.2l-0.1,1.7l1.3-2c0.2,0,0.4,0,0.6,0c0.4,0,0.8,0,1.2,0.1l0.2-1.4l2.2-0.9l1.2-0.2l0.4-0.3h0.6l0.2-0.5
		c1.9-1,3.4-2.4,4.9-3.7c1.5-1.4,3-2.8,4.7-3.3c0.2,0,0.3,0,0.5,0c0.9,0,1.5-0.3,2-0.8l0.8,0.7l0.8,0.8l1.4-1l-0.2-0.4l0.5-0.7
		c0.2-0.1,0.3-0.3,0.5-0.5c0.1-0.1,0.2-0.3,0.2-0.4c1.1-1.2,2.5-1.9,4.6-2.1l1.5-0.1l0.3-1.5c0.1-0.8,0.2-0.8,1-1.1
		c0.2-0.1,0.5-0.1,0.7-0.3l1-0.8l1.8-1.3c0.4-0.6,0.8-0.9,1.9-1l2.1-0.2c0.8-0.1,1.6-0.3,2.1-0.5c0.9-0.1,1.5-0.6,2-0.9
		c0.2-0.2,0.5-0.3,0.6-0.4l-0.2-0.5l0.4,0.1c0.3,0.4,0.9,1,1.9,1h0.2l0.1,0.1h0.9c0.7,0,1.2-0.4,1.4-0.5l5.5-0.7l0.3-1.3
		c0.2-0.9,0.4-1.9,0.7-2.9c0.4-0.3,0.8-0.7,0.9-1.3l-0.5-0.1c0.2-0.7,0.4-1.3,0.4-1.3l0.4-1.3c-0.1-0.3-0.2-0.5-0.4-0.7l0.3-1.8h-1
		c-0.1-1.3-0.1-2.7-0.1-4.2v-2h-0.1c0.3-0.4,0.5-0.8,0.7-1.1c0.6-0.3,1.5-1,1.6-2.1c0.1-1.4-1-2.2-1.5-2.5c0,0-0.1,0-0.1-0.1V287
		l0.7,0.1c0,0.1,0,0.2,0,0.3c0,0,0-0.1,0-0.2v-0.1h0.3l0.1-2.2c0.1-1,0.3-2.1,0.6-3.2c0.3-1,0.5-2.1,0.6-3.1v-1.1l-0.8-0.6
		c0-0.1,0-0.4,0.1-0.5c0.1-0.8,0.4-2.3-0.6-3.6c0.1-0.3,0.2-0.5,0.4-0.9l0.5,0.2l-0.1-1.8c0-0.3,0-0.7-0.1-1l-0.1-0.7
		c-0.1-1.1-0.2-2.6-0.8-4c0.5-0.3,0.8-0.7,1.1-1.2c0.1-0.1,0.1-0.2,0.1-0.2l1.8-1.5l-1.7-1.6c-0.2-0.2-0.4-1-0.5-1.6
		s-0.2-1.2-0.5-1.9l0.7-1.7l-0.1-1.5c-3.3-4.7-1.3-10.5,0.9-14.5L131,238l1.1-1.7c-0.2-0.1-0.5-0.3-0.8-0.5l0.4-4.1l1.9-0.2
		l-1.7-1.7c0-0.1,0-0.2,0-0.2c0.4-4.4-0.2-8.9-0.8-13.2v-0.2l-0.1-7.4l-0.6,0.9c-0.1-0.8-0.1-1.6-0.1-2.4l0.3-4.2
		c0.7-1.7,0.2-3.4-0.1-4.6c0-0.1,0-0.2-0.1-0.3c0.1-0.1,0.2-0.1,0.3-0.2l1.3-1l0.6,0.3l-0.2-0.6l0.1-0.1l-0.2-0.2l-0.6-2.3
		c0-0.3,0-0.6-0.2-0.9c0-0.1-0.1-0.2-0.2-0.3v-0.1c-0.9-3.6-1-7.4-0.2-12.2l0.2-0.9l-0.6-0.7c-1.1-1.3-1.1-2.5-1.1-4.6
		c0-1,0.1-2.1-0.1-3.3h0.9l-1.3-3c-1.1-2.5-0.7-5.2-0.2-8.1c0.3-1.9,0.6-3.9,0.5-6c0.2-1.4,0-2.6-0.2-3.6c0,0,0-0.1,0-0.2l0.6-1.4
		l0.3-0.9c0.8,0,1.3,0.1,2.1,0.3c1.3,0.3,3.2,0.6,7.8,1.2l0.6,0.1c11.5,1.5,23.3,3,35.1,3h1c1.8,0.1,3.6,0.2,5.4,0.2
		c4.6,0,8.6-0.3,12.9-0.7c2.3-0.2,4.6-0.4,7.2-0.5l0.4,1.8l2.1-0.7c1.9-0.7,3.9-1.1,6.1-1.5c2-0.4,4.1-0.6,6.3-0.7
		c3.9-0.2,8.1-0.2,12.3-0.2h1.1h1.8l1.7-0.1l3.5-0.2l0.8-0.1c2-0.2,4.1-0.3,6.2-0.7c4-0.8,8.2-1.9,12.2-4.1l1.2,0.6
		c0.5-0.8,2.3-1.2,3.8-1.6c0.3-0.1,0.6-0.2,0.9-0.2c1.6-0.4,3.5-1.1,4.2-2.8c0-0.1,0.1-0.2,0.1-0.3l1.9,0.2l0.7-0.7
		c0.3-0.3,0.6-0.6,0.9-0.9c-0.8-4-1.2-8.1-1.2-12.2c-0.6,0.2-1.3,0.4-2,0.6c-0.5,0.1-0.9,0.3-1.3,0.4c-1,0.3-2,0.6-3,0.9
		c-1.3,0.4-2.7,0.8-4,1.2c-9,2.4-18.1,4.3-27.6,6.2l-1.1,0.2c-10.7,2-19.8,3.7-29.4,5.6l-0.1-0.8c-3,0.3-6.1,0.5-9.7,0.5
		c-3.4,0-6.8-0.1-10.1-0.3c-3.3-0.1-6.7-0.3-10.1-0.3c-0.8,0-1.6,0-2.3,0l0.1-0.6l-2.5,0.2c-3.8,0.4-7.8,0.6-12,0.6
		c-6.9,0-14.5-0.5-23.8-1.6c0-1.2-0.3-2.5-1.4-3.8l0.1-0.2l0.2-0.2c0.2,0.2,0.5,0.6,0.5,0.9v-0.1c0-0.2,0-0.6-0.1-1.1l-0.1-0.8
		l-1.4-1.5c-0.3-0.2-0.4-0.3-0.5-0.4c0.1-0.2,0.3-0.6,0.4-0.8c0.3-0.5,0.6-1.1,0.8-1.9l1-1.9l-1-1.6c2.5-2.4,1.5-5.2,0.9-7.1
		c-0.3-0.8-0.5-1.6-0.5-2.1h-0.1l0.7-1.3c-0.1-0.2,0-0.9,0.1-1.3c0-0.1,0-0.1,0-0.2l0.9-2.7v-0.3c0.1-1.5-0.2-3-0.5-4.2v-0.1
		l-0.4-2.9l0.5-0.7c-0.4-0.4-0.4-0.7-0.2-2c0-0.1,0-0.1,0-0.1h0.1l0.3-2.6c0.4-4-0.3-7.8-1-11.4c-0.2-1.3-0.5-2.6-0.7-3.9l1.5-0.8
		l-2.1-1.8l-0.3-0.3l0.2-1.4l-3.4-0.1h-0.7l-1,0.2c-1.1,0.3-2.1,0.6-3.1,1c-2.1,0.8-4,1.9-5.6,3.1l-0.2-0.3
		c-0.7,0.4-1.2,0.5-2.1,0.6c-0.3,0-0.6,0.1-0.9,0.1l0.2-1.2l-3.3,2.4c-0.7,1-1.6,1.4-3.2,1.8c-1.7,0.5-3.7,1.1-5.2,3.2
		c-3,0.9-6,2.3-8.8,4.1L90,94.4L89.4,95c-0.7,0.7-1.6,0.9-3.2,1.1h-0.1c-1.5,0.2-3.6,0.4-5.3,1.8c-2.2,0.5-3.5,2.5-4.6,4
		c0,0-0.2,0.2-0.2,0.3V102l-0.9,1.4c-0.5,0.6-0.9,1-1.4,1.1c-0.2,0-0.5-0.1-0.7-0.1c-2.5,0-3.4,2.3-3.9,3.6
		c-0.1,0.3-0.3,0.7-0.4,0.9h-0.2c-0.3,0-0.5,0-0.8,0c-2,0-4.7,0.7-6.7,3.9c-1.2,2-1.7,4.3-2.2,6.3c-1.5,1.5-2.1,3.5-2.7,5.1v0.1
		c-0.5,1.5-1,3.1-1.9,4.7l-0.4,0.7l0.2,0.8c0,0,0,0.1,0,0.3v0.1c0,0.3-0.2,0.6-0.3,0.9l-0.1,0.3c-0.4,1.5-0.5,2.8-0.2,3.9l0.3,1.4
		c0,0.3,0,0.6,0.2,0.9v3.9l0.1,11.3c0,7,0.1,14.3,0.3,21.5c0.2,13.9,0.6,27.6,1.1,41l-1.1-0.1l0.2,2.3c1.1,14.7,0.2,29.5-0.7,43.7
		c-0.8,13.3-1.7,27.2-0.9,41c-1.1,14.3,0.2,29.1,1.5,43.5l0.1,1.7c0.3,3.6,0.7,7.5,1,11.3l0.4,5.6l0.2,2.5L57,368
		c0.5,0.3,0.9,0.5,1.4,0.7l1.3,0.7L61,370c3.1,1.4,6.3,2.7,9.5,3.9l0.9,0.3c0.9,0.4,1.7,0.7,2.7,1l2.6,1l2.7,1l2.5,0.9
		c1,0.6,2.1,1.1,3.3,1.6c0.6,0.2,1.2,0.5,1.8,0.7c0.5,0.2,1.1,0.4,1.6,0.5l0.3,0.1c2.3,0.6,4.8,1.1,7.7,1.6c2.7,0.3,5.5,0.4,8,0.4h1
		c0.6,0,1.1,0,1.7,0c0.5,0,0.9,0,1.4,0l4-0.2c2.8-0.2,5.3-0.3,7.8-0.4h0.1c2.9-0.3,5.2-0.5,7.4-0.5c0.7,0,1.3,0,2,0c0.5,0,1,0,1.5,0
		s0.9,0,1.4,0c0.8,0,1.5,0.1,2.2,0.1c2.3,0.1,4.4,0.4,6.4,0.9h0.1h0.1c2.4,0.4,4.6,0.7,6.8,1h0.1c2.2,0.2,4.5,0.3,6.8,0.3
		c1.6,0,3.2,0.1,4.8,0.1c0.7,0,1.3,0,2,0h0.8c0.9,0,1.8,0,2.7-0.1l3.3-0.3c4.3-0.4,8.7-1,13.2-1.8c1-0.1,1.9-0.4,2.8-0.6l0.6-0.1
		l3.2-0.8c2.1-0.5,4.3-1.1,6.4-1.7c2.1-0.6,4.2-1.2,6.4-1.8c1.6-0.5,3.1-1,4.6-1.6c0.6-0.2,1.2-0.4,1.8-0.6c3.9-1.5,7.9-3,12.4-4.8
		l6.1-2.4c0.4-0.1,0.8-0.3,1.2-0.5c0.6-0.3,1.2-0.5,1.9-0.7l3.2-1l3.1-1l3.2-0.9c0.8-0.2,1.5-0.4,2.3-0.6c1.3-0.4,2.6-0.8,3.9-1
		c2,0,4-0.1,6-0.2l6.2-0.3c1.6-0.1,3.1-0.2,4.7-0.3c2.5-0.1,5.1-0.3,7.6-0.5l12.2-0.9l12.2-0.8c6.2-0.3,11.3-0.5,16.1-0.5
		c11.9,0,22.2,1,31.4,3l0.4,0.1l0.4-0.1c2-0.4,4.1-0.6,6.3-0.6c6.2,0,12.6,1.5,19.4,3.1c1.8,0.4,3.7,0.9,5.5,1.3H373l1.6,1.1
		c0,0.2-0.1,0.4-0.1,0.6l-0.4,1.2l0.8,0.7c-0.1,0.1-0.2,0.2-0.3,0.4c-0.1,0.2-0.3,0.4-0.5,0.7l0.3,0.4l-0.5,0.3l-1,0.7l0.1,1.2
		l0.2,1.2l-0.9,1.1l1.1,0.8c-1.1,1.7-1.7,3.5-2.1,4.9c-0.1,0.5-0.2,0.9-0.3,1.3c-0.1,0.6-0.3,1.1-0.4,1.7c-0.1,0.5-0.3,0.9-0.4,1.3
		l-0.9,2.2c-0.3,0.8-0.6,1.6-0.9,2.5c-0.6,1.5-1.2,3.1-1.7,4.7c-0.5,1.4-0.9,2.7-1.2,3.8c-0.2,0.6-0.3,1.3-0.5,1.9v0.2
		c0,0.2-0.1,0.6-0.1,0.9v0.1l0.2,2.9l2.1-0.3c3.8-0.6,7.1-1.7,10-3.1l0.1,0.3c0.7-0.3,1.3-0.3,2-0.3h0.5c0.2,0,0.4,0,0.6,0v1.5
		l3.2-2c1.3-0.8,1.6-1,2.2-1.2c0.5-0.2,1.2-0.3,1.8-0.4h0.2c1.4-0.2,3.4-0.5,5.2-2c2.9-0.4,6-1.2,9.1-2.2l0.2,0.9l2.4-1.5
		c0.9-0.5,2-0.6,3.3-0.7h0.3c1.7-0.1,3.4-0.2,5.1-1c2-0.2,3.5-1.4,4.8-2.5l0.3-0.2c1.1-0.8,2.1-1.6,3.1-1.8c0.2,0,0.4,0,0.6,0
		c1.9,0,3-1.3,3.9-2.2c0.3-0.3,0.8-0.9,1-0.9h0.2h0.4c2.4,0,4.6-1,6.6-2.9c1.5-1.5,2.7-3.3,3.6-4.9c1.6-1.3,2.6-2.9,3.5-4.5l0.6-1.1
		c0.6-1.1,1.2-2.2,1.9-3.3l0.3-0.5v-0.6c0-0.1,0-0.2,0.1-0.5v-0.1c0.1-0.3,0.2-0.6,0.4-1l0.1-0.1c0.4-1,0.8-2.2,0.8-3.5V360
		c0-0.2,0-0.3,0-0.5l1.6-1.2l-2-0.8c0,0,0,0,0-0.1h0.4c0-0.3,0-0.6-0.1-0.9h0.3l0.4-0.9c0.3-0.7,0.5-1.3,0.5-1.9l0.3,0.4l1-4.2
		c0.8-3.3,0-6.2-0.7-8.8c-0.4-1.6-0.8-3-0.8-4.4l1.2,0.7L448.1,334.7z M130.6,234.2l0.5,1.2c-0.3-0.1-0.6-0.3-0.9-0.4
		C130.4,234.8,130.5,234.5,130.6,234.2z M67.1,316.6v-0.9C66,296,65,275.6,65.2,255.6l1-0.4l-1-4.8l0.3-1.8
		c1.1-6.3,0.5-12.6-0.1-18.8c-0.3-3.4-0.6-6.7-0.6-9.9c0.6-0.1,1.5-0.5,2-1.8l0.3-0.7l-0.3-0.7c-1.1-2.8-0.5-5.1-0.1-7.3
		c0.5-2.3,1.1-5-0.7-7.4l0.8-0.3c-0.9-9.8-1.4-20-1.5-31.2c-0.1-5,0-10.3,0.1-15.7l0.2-7.8c0-0.6,0.2-1.2,0.3-1.9
		c0.1-0.6,0.3-1.2,0.3-1.9l0.1-0.5l-0.1-0.3c-0.2-1.2-0.5-7.1-0.8-11.4c-0.2-3.4-0.4-6.7-0.5-8.4c0.1-0.1,0.2-0.3,0.2-0.5
		c0.1,0,0.1,0,0.2,0l0.3-1.2l2.1-0.7l1.5-1.5l0.6-1.1c0-1,0.4-1.7,1.2-2.2c0.2-0.1,0.3-0.2,0.5-0.2l1-0.6l0.2,0.3c0.2,0,0.4,0,0.6,0
		c0.4,0,0.8,0,1.3,0.1l0.2-1.5l2.3-1l1.2-0.5h1.1l0.2-0.5c2-1,3.6-2.5,5.1-4c1.5-1.4,3.1-3,4.9-3.6c0.2,0,0.4,0,0.5,0
		c0.9,0,1.6-0.4,2.1-0.8l0.9,0.8l0.6,0.2l0.2,0.6l0.3-1.4l0.9-0.1l0.5-0.6c0.2-0.1,0.3-0.3,0.5-0.5c0.1-0.2,0.2-0.3,0.3-0.5
		c1.1-1.3,2.6-2.1,4.8-2.3l1.5-0.1l0.2-1.5c0.2-0.9,0.2-1,1.1-1.3c0.2-0.1,0.5-0.2,0.8-0.3h2l0.9-2.2c0.4-0.7,0.9-1,2-1.1l2.1-0.2
		c0.6-0.1,1.5-0.2,2.2-0.5c0.9-0.2,1.6-0.7,2-1c0.2-0.2,0.5-0.4,0.6-0.4l-0.1-0.4l0.5,0.2c0.3,0.4,0.8,0.9,1.7,0.9l1,1.1l1.8,0.3
		l1.1,1.6c0.1,0.2,0.2,0.4,0.3,0.5c0.4,0.6,0.5,1.5,0.3,2.1l-0.4,1.3l1.3,1.1c-1.4,4.6-1.5,9.2-1.6,13.7c-0.1,3.2-0.1,6.2-0.6,9.2
		v0.1c-0.2,1.8-0.4,3.5-0.7,5.2c-1,7-2,13.6,1,21l-0.4,0.2c0.2,0.9,0.1,1.9-0.1,3c-0.1,0.5-0.1,1.1-0.2,1.8l-1.2-0.1l1.2,2.9
		c1,2.6,0.9,5.3,0.8,8.2c-0.1,3.2-0.3,6.4,1.1,9.7c-0.4,6.3-0.3,13.2,0.1,19.9h-0.9l0.5,2.5c0.5,2.7,0,5.4-0.7,8.3
		c-0.6,2.8-1.2,5.7-0.8,8.8c-0.7,3.3,0,6.5,0.8,9.6c0.7,3,1.4,5.8,0.7,8.3c-2,2.7-0.8,5.7,0,7.9c0.9,2.4,1.1,3.3,0.4,4l-0.1,0.1
		l-0.1,0.1c-5.4,7.8-2.6,15.5,0.1,22.9l0.1,0.2c-0.7,3.1-0.4,6.1,0,9c0.4,3.5,0.8,6.9-0.9,10L122,287l0.7,1c0.4,0.6,0.1,1.3-1,3.3
		c-1,1.7-2.1,3.6-1.7,5.9l0.3,1.9h0.1c-0.4,0.5-0.5,1.1-0.5,1.3c0,0.5,0.1,0.9,0.3,1.2c-0.9,0.5-1.7,1-2.5,1.6l-0.2-0.3
		c-0.6,0.3-1.2,0.4-2,0.5c-0.2,0-0.5,0.1-0.8,0.1l-1.2,0.5l-1.9,0.7c-0.7,1-1.6,1.2-3.1,1.7c-1.6,0.5-3.6,1-5,3
		c-2.9,0.9-5.8,2.2-8.5,3.8l-0.5-1.2l-2.1,2.2c-0.6,0.7-1.6,0.8-3,1h-0.1c-1.5,0.2-3.5,0.4-5.1,1.7c-2.2,0.5-3.4,2.3-4.5,3.8
		l-0.1,0.1v-0.2l-1,1.5c-0.5,0.5-0.9,0.9-1.3,1c-0.2,0-0.5-0.1-0.7-0.1c-2.4,0-3.3,2.2-3.8,3.4c-0.1,0.2-0.2,0.6-0.4,0.8h-0.1
		c-0.2,0-0.5,0-0.7,0c-1.5,0-2.8,0.4-3.9,1.1C67.5,324.5,67.3,320.5,67.1,316.6z M428.1,376.9c-0.5,1-1.3,1.6-2,1.9
		c-0.8,0.3-1.7,0.5-2.6,0.5c-0.3,0-0.6,0-0.9,0l-0.1,0.9l-2.6,0.7l-1,0.1l-1.2,0.3l0,0l-0.2,0.3c-2,0.6-3.9,1.6-5.7,2.5
		c-1.9,1-3.7,1.9-5.6,2.2l0,0c-0.3-0.1-0.5-0.1-0.8-0.1c-0.7,0-1.3,0.2-1.8,0.5l-0.3-0.3l0.2-1.6l-1.1,0.7l-0.7-0.8l-0.5,1.6
		l-0.6,0.4c-0.3,0.1-0.6,0.3-0.8,0.5c-1.3,0.8-2.8,1.2-4.7,1.2c-0.2,0-0.4,0-0.6,0l-1.3-0.1l-0.6,1.2c-0.2,0.5-0.4,0.6-1.2,0.7h-0.2
		c-0.2,0-0.5,0.1-0.7,0.1l-0.2-1.6l-2.9,2.9c-0.5,0.5-1,0.7-1.8,0.7c-0.1,0-0.3,0-0.4,0c-0.3,0-0.7,0-1-0.1c-0.3,0-0.6-0.1-1-0.1
		c-0.2,0-0.5,0-0.7,0c-0.5,0-0.9,0-1.3,0.1l0,0c-0.8,0-1.5,0.3-2,0.5c-0.3,0.1-0.6,0.3-0.8,0.3v0.3l-0.3-0.2c-0.4-0.7-1-0.9-1.4-1
		l0.3-2l1.3-0.5c0.5-0.7,0.8-1.6,0.3-2.8c-0.1-0.2-0.2-0.4-0.3-0.6c-0.1-0.2-0.3-0.6-0.3-0.7c0,0,0,0.1,0,0.3l-0.4-0.1l0.6-1.1
		l0.5,0.1c0,0.1,0,0.2,0,0.3c0-0.1,0.1-0.1,0.1-0.2l0,0l0.8,0.2l0.5-1.8c0.3-1.1,0-2.1-0.2-3c-0.1-0.3-0.2-0.8-0.2-1h-0.4l0.4-0.7
		l0.5,0.2l0.7-2.1c0.7-2.2,0.3-4.4,0.1-6.3c-0.1-0.6-0.2-1.3-0.2-1.9c0.2-0.2,0.3-0.4,0.4-0.6c0.1-0.3,0.2-0.5,0.2-0.8
		c3,0.4,5.7,0.6,8.3,0.6h3v-0.1c0.1,0,0.3,0,0.4,0c2,0,4-0.6,5.7-1c1.4-0.4,2.7-0.8,3.7-0.8l1.7,1.7c0.8,0.8,1.8,1.3,2.8,1.3
		c2,0,3.7-1.4,5.2-2.7c0.4-0.3,0.9-0.8,1.3-1.1l2,1.5l0.8-1.1c0.5,0.6,1.3,0.9,2,1.1l0.3,0.1h0.3c0.7,0,1.2-0.3,1.5-0.6
		c1.3,1.9,4,1.9,5,1.9h1.4c1.3,0,1.7,0.1,1.8,0.2c0,0.1-0.1,0.1-0.1,0.2c-0.6,1-0.1,2,0.2,2.6l-0.4,1.4l-0.4,2.3
		c0.3,0.2,0.6,0.3,1,0.4L428.1,376.9z M430.7,375c0,0-0.1,0.1-0.2,0.2l-0.2-0.3C430.4,374.9,430.5,374.9,430.7,375L430.7,375z
		 M440.1,363.2c-0.1,0.1-0.1,0.2-0.2,0.3c-0.1,0.1-0.1,0.1-0.2,0.2c0,0,0-0.1-0.1-0.1l0.5-0.5L440.1,363.2z"/>
	<path class="st0" d="M274.8,152.7c1,1,2.7,1.8,3.9,2.6c0,0.2-0.2,0.2-0.3,0c0.8,1.5,0.4,3.4,1.3,4.9c-0.2,0.1-0.2,0.1-0.5-0.1
		c0.6,0.6,0.8,1.5,1,2.3c0.2,0.9,0.5,1.8,1.4,2.4l-0.2,0.2l1,0.9c-0.3,0.1-0.7,0.3-0.9,0c1.8,3.2,3.9,6.2,6.2,9.1
		c0.6,0.7,1.2,1.4,1.9,2.1l1.9,2c1.2,1.4,2.5,2.7,3.7,4.1c5,5.4,10,10.9,14.5,16.7l-0.6-0.2l2.3,1.8c-0.2,0.1-0.3,0.1-0.5,0
		c1.8,3.2,5,5.5,7.1,8.3c-0.1,0.1-0.8-0.1-0.6,0.5c2.5,1.4,1.6,4.1,4.1,3.8c0,0.2-0.3,0.5-0.6,0.4c2.6,2.6,5.1,5.4,7.4,8.2
		c1.2,1.4,2.4,2.9,3.5,4.3c1.3,1.7,2.5,3.3,3.8,5c1.5,1.2,2.7,2.3,3.9,3.5c1-1.5,1.9-2.9,2.9-4.2c0.8-1.2,1.7-2.3,2.6-3.5
		c1.5-2.1,3-4.2,4-6.6l0.3,0.3c3.8-7.4,10.2-13.6,15.1-20.6c2.2-2.8,3.3-5,5.4-7.8l0.4,0.2c2.1-5.9,8.9-9.1,11-15.4l0.3,0.7
		c-0.2-1.3,2.2-2.6,1.2-3.4l0.3-0.5l0.5-0.3c0-0.2,0.1-0.4,0.1-0.6l4.3-5.8c1-1,1.9-2.1,2.6-3.5l0.4-0.5l0.1,0.3
		c0.1-0.3,0.3-0.7,0.4-1c0.5-0.9,1-1.7,1.4-2.6l0,0c0,0.2,0.1,0.2,0.1,0.5c1.8-1.5,2.7-3.7,3.4-6c0.6-2.3,1-4.7,1.6-6.9l0.6,0.7
		c-0.1-1.2,0.2-2.7,0.6-4.4c0.4-1.6,0.8-3.4,0.7-4.8l0.3,0.2l-0.3-1.5h0.7c0.5-3.8-0.1-7.5-0.5-11.2l0.7,0.2
		c-0.7-1.7-0.9-3.5-1.1-5.4c-0.1-0.9-0.2-1.9-0.4-2.8c-0.2-0.9-0.4-1.8-0.8-2.7l0.3,0.2c-1-4.6-2.8-8.8-5-12.6
		c-0.9-1.6-2-3.2-3.1-4.7C380,81.9,360.5,70,338.2,69.8c0.1-0.5-0.1-0.9-0.8-1.3l-0.3,0.8c-0.5-0.8-0.4-0.4-0.5-1
		c-1.8-0.1-2.1-1.2-3.5-1.6c0,0,0,0,0,0.1c-0.9,1-2.2,0.5-2.9,0.5l-0.3-0.4c-0.6-0.9-1.9,2.1-1.5,0.4c-3.8,0.9-8,1.9-12,3.4
		c-0.4,0.7-3.1,1.1-1.8,1.9c-1.5-0.9-4.6,0.1-5.6,0.7c0-0.1,0-0.3,0.2-0.3c-1.4-0.2-1.9,0.4-2.3,1.1c-0.4,0.6-0.8,1.2-2.3,0.8
		c0.5,1.4-3.7,1.7-3.7,3.9c-0.4-0.1-0.7-0.3-0.7-0.6c-3.2,2.2-6.9,4.6-9.3,7c-0.5,1.5-1.8,2.6-3,3.8c-1.2,1.2-2.2,2.5-2.2,4
		c-0.7,0.7-1.7,1.6-2.7,2.7c-0.9,1.1-1.7,2.4-2.1,3.8l-0.1-0.4c-0.8,1.4-1.5,3-2.1,4.6c-0.5,1.6-0.9,3.1-0.7,4.3
		c-1.9,0.2-2.1,1.6-3.1,2.8c0,2.2-1.3,6.3-1.2,9.7c-0.9,0.3-0.1,2.7-1.3,2.7c0.5,4.7,0.7,9.6,1,14.6
		C273.6,142.6,274.1,147.8,274.8,152.7z M282.4,160.5c1.3,2.5,2.7,5,4.2,7.3C284.9,165.5,283.5,163.1,282.4,160.5z M302.3,138
		c0,0.1-0.1,0.2-0.1,0.3c-0.1-0.8-0.1-1.6-0.1-2.5c0-1.1,0.1-2.2,0.2-3.3v0.1c0.2,1,0.4,1.9,0.5,2.8
		C302.8,136.4,302.8,137.2,302.3,138z M303.3,126.6c0.4-1.5,0.8-2.9,1.4-4.2c-0.1,0.3-0.1,0.6-0.2,0.9c-0.2,0.7-0.4,1.3-0.6,2
		C303.7,125.7,303.5,126.2,303.3,126.6z M306.7,153.5c0.2,0.2,0.3,0.4,0.5,0.5c0.6,0.6,1.2,1.2,1.8,1.7c0.3,0.7,0.7,1.3,1.1,1.9
		c0.2,0.3,0.4,0.6,0.6,0.9c0.2,0.3,0.5,0.5,0.8,0.8c0.5,0.5,1,1,1.6,1.5s1.2,0.9,1.7,1.3c1.1,0.9,2.4,1.6,3.5,2.6
		c0.5,0.5,1.1,0.9,1.7,1.4c0.5,0.5,1,1.1,1.6,1.6c0.8,0,1.4,0.2,2,0.6c0.3,0.2,0.6,0.4,0.9,0.7c0.3,0.2,0.6,0.5,0.9,0.7
		c0.1,0.1,0.2,0.1,0.3,0.2C317.5,166.9,310.8,161,306.7,153.5z M331.5,171.7c0.3-0.1,0.6-0.1,0.8,0.2
		C332,171.8,331.8,171.7,331.5,171.7z M333.3,172c0.4-0.6,0.8-1.2,0.9-0.5l0.2-0.5c0.7-0.1,0,0.6,0.5,0.9c0.2,0,0.2-1,0.6-0.6
		c-0.1,1.7,1,0.5,1.5,1.1C335.7,172.3,334.5,172.2,333.3,172z M334,69.9c0.3-0.1,0.7-0.1,1,0C334.7,69.9,334.3,69.9,334,69.9
		L334,69.9z M329.9,69.8l0.1-0.6c1.4-0.3,0.2,0.6,1.3,0.7c0.4-0.1,0.1-1,0.9-0.7c0.1,0.6,0.4,0.8,0.8,0.8c-1.5,0.1-3,0.3-4.5,0.5
		C329,69.8,329.5,69.2,329.9,69.8z M326.2,70.9c-0.3,0.1-0.6,0.1-0.9,0.2C325.6,70.9,325.9,70.8,326.2,70.9z M314.2,111.6
		c0.6-0.7,1.2-1.3,1.9-2c0.6-0.7,1.4-1.1,2.1-1.7v0.5l0.7-1.4c0.1,0.2,0.1,0.3,0.1,0.4c0.9-0.2,1.6-0.8,2.3-1.4
		c0.7-0.7,1.4-1.2,2.2-1.5c0.1,0.2,0,0.6,0.3,0.7c0.4-0.7,1-0.7,1.4-0.7c0.5,0,0.8,0,0.7-1.2c0.1,0.1,0.3,0.5,0.2,0.7
		c0.4-0.2,0.8-0.5,1.2-0.7l0.6-0.3l0.6-0.2c0.8-0.3,1.7-0.6,2.6-0.9c0.9-0.2,1.8-0.3,2.7-0.4l0.7-0.1h0.7h1.3c1.5-1.2,3.1-1,4.8-0.9
		c0.8,0.1,1.6,0.3,2.5,0.3c0.4,0,0.8,0,1.3,0c0.4,0,0.8,0,1.3-0.1l-0.1,0.4c2.2-0.2,4.3,0.6,6.3,1.7c1,0.6,1.9,1.1,2.8,1.8
		c0.9,0.7,1.8,1.2,2.8,1.8c1.3,1.2,2.6,1.5,4,2.8l-0.3,0.4c1.8,0.3,2.6,1.9,3.4,3.4c0.4,0.8,0.7,1.5,1.1,2.2
		c0.2,0.3,0.5,0.6,0.8,0.9s0.6,0.5,1.1,0.8l-0.7,0.2c1.1-0.1,0.7,1.6,1.9,0.9c0,0.1,0.1,0.2,0.1,0.2l-0.1,0.4c0.1,0,0.2,0.1,0.4,0.1
		c0.6,1.1,1.1,2.2,1.6,3.3c0.1,0.8,0.2,1.6,0.9,2.3c0,0.1,0.1,0.2,0.1,0.3h-0.3c0.2,0.2,0.3,0.3,0.5,0.5c0.1,0.4,0.2,0.8,0.4,1.2
		c0,0.1,0,0.1,0,0.2c-0.1-0.1-0.2,0-0.3-0.1c-0.5,1.3-0.2,2.4,0.2,3.5c0.4,1.1,1.1,2.3,1.1,3.5l-0.8-0.2c0.5,0.5,0.5,1.3,0.5,2.2
		s-0.2,1.7,0,2.5l-0.4-0.1l0.5,0.8h-0.7c0,1-0.1,1.9,0,2.8c0,1,0.1,2-0.1,2.9l-0.6-0.2c0.4,1,0.1,1.9-0.2,2.8
		c-0.4,0.9-0.9,1.7-1,2.7l-0.2-0.2c-0.5,1.1-1,2.1-1.4,3.2c-0.4,1.1-1,2.1-1.4,3.1s-1,2-1.5,3c-6.6,8.4-16.7,13.9-28.2,14.1
		c0-0.5,0-0.9-0.4-1.4l-0.2,0.8c-0.2-0.8-0.2-0.4-0.2-1c-0.9-0.2-1-1.3-1.5-1.8c0-0.1-0.1-0.1-0.2-0.1c0.1,0,0.1,0.1,0.2,0.1
		c0,0,0,0,0,0.1c-0.5,0.9-1,0.3-1.4,0.2l-0.1-0.5c-0.1-1-1.2,1.6-0.7,0.1c-0.9,0-1.9,0-2.8-0.1c-1-0.2-1.9-0.5-2.9-0.7
		c-0.5,0.5-1.4-0.6-1.4,0.7c0-1.5-1.2-2.2-1.8-2.4c0.1-0.1,0.1-0.2,0.2-0.1c-0.2-2-1.8,0.9-1.7-1.4c-0.4,0.6-0.8,0.3-1.1,0
		c-0.4-0.3-0.8-0.7-1.5-0.1c0.1-0.3,0.2-0.6,0.4-0.8c-0.4-0.2-0.7-0.5-1.1-0.8s-0.6-0.6-1-1c-0.6-0.7-1.2-1.2-1.7-1.8
		c-0.9,0.1-1.3-0.6-1.8-1.1s-0.9-1.1-2-0.9c-0.2-0.5-0.4-1.1-0.7-1.7c-0.3-0.6-0.6-1.1-1.3-1.4h0.2c-1-1-1.9-2.5-3.4-2.8
		c1.3-1.2,0.7-1.6,1-2.4c-0.6-0.2-1-0.8-1.5-1.5c-0.4-0.7-0.8-1.4-1.4-2c0.7-0.5-0.7-1,0.4-1.5c-0.8-0.8-1.5-1.8-1.9-2.8
		c-0.4-1.1-0.7-2.2-0.7-3.4s0.1-2.4,0.4-3.5c0.4-1.1,0.7-2.3,1.3-3.3l0.1,0.1c-0.5-0.6-1.8-1.5-2.6-2.2c0.1,0,0.3,0,0.3,0.1
		c0-0.4,0.2-0.8,0.5-1.1s0.7-0.7,0.6-1.1c0.2,0,0.2,0,0.3,0.2c-0.3-0.9,1.3-1.3,0.6-2.4h0.3l-0.2-0.7c0.3,0.1,0.7,0.3,0.7,0.5
		c1.2-3.1,2.4-6.3,4.1-9.4c0.5-0.8,0.8-1.6,1.4-2.3C313.1,113,313.6,112.3,314.2,111.6z M281.8,103c1.6-2.5,3.1-4.9,4.8-7.3
		c0.8-1.2,1.7-2.4,2.5-3.6c0.9-1.1,1.8-2.3,2.7-3.4c3.8-4.4,8.4-8.2,13.7-10.2c2-1.9,4.7-2.9,7.5-3.5l0,0
		c-14.9,6.4-26.8,18.5-32.9,33.5C280.6,106.6,281.2,104.8,281.8,103z M275.8,139.3c0-0.1,0-0.3,0-0.4c0.4,3.7,1.2,7.2,2.2,10.7
		c0,0,0-0.1-0.1-0.1C276.5,146.1,275.2,142.5,275.8,139.3z"/>
</g>
</svg>
