<?xml version="1.0" encoding="utf-8"?>
<!-- Generator: Adobe Illustrator 26.0.2, SVG Export Plug-In . SVG Version: 6.00 Build 0)  -->
<svg version="1.1" id="Layer_1" xmlns="http://www.w3.org/2000/svg" xmlns:xlink="http://www.w3.org/1999/xlink" x="0px" y="0px"
	 viewBox="0 0 500 500" style="enable-background:new 0 0 500 500;" xml:space="preserve">
<style type="text/css">
	.st0{fill:#8C3712;}
</style>
<g>
	<g>
		<path class="st0" d="M425.3,319.5l-1.3-0.2c-1-1.5-1-1.3-1.1-1.7l2.7-0.3l-0.9-0.2l-1.8,0.4c0-0.1,0-0.1-0.1-0.2
			c-6-4.7-6.2-6.1-10.2-9.7c0,0,0.1,0.1,0,0.1c-3.4-1.6-7.2-5.1-9.5-7l-0.7-1c-0.9-1.7-7.8-4-5.1-3.7c-12.4-9.1-26.4-19.8-40.1-30.3
			c-2.2-1.1-10.4-8-8-5c-2.7-3.5-12.7-11.5-16.5-14.4c0.2,0,0.4,0.1,1,0.5c-6.4-6.7-9.5-5.6-15.3-12.2c-1.8,0.2-12.2-9.8-17-11.7
			c-0.7-0.9-0.8-1.3-0.4-1.2c-5.9-4.6-12.1-9.4-18.1-14.1c-5.5-4.3-10.7-8.5-15.3-12.1c-1.1-11.2,0.5-27.2-1-36.9
			c0.3-8,0.9-21,0.3-32.2l0.2,1.1c0-3.8-0.1-7.8-0.1-11.8c0-2-0.1-4-0.1-6c0-0.5,0-1,0-1.5v-0.7v-0.2c0-0.2-0.1-0.5-0.1-0.7
			c0.1,0,0.3,0,0.4-0.1h0.2c0.1,0,0.1,0,0.5,0c1.2-0.1,2.4-0.1,3.6-0.2c2.3-0.1,4.3-0.3,6.1-0.5c3.7,1.4,9.2,1.2,14.6,1.6
			c2.9-0.2,6.8-0.4,11.1-0.4c2.2,0,4.5-0.1,6.8-0.1c3.3,0,6.7-0.1,10-0.1c0-2.1,0-4.1-0.1-6.2c0-1.2-0.1-2.3-0.1-3.4
			c-0.1-2.2-0.1-4.3-0.2-6.4c0.3-0.9,0.3-3,0.2-5.2c0-0.5,0-1.1,0-1.6c0-0.8,0-1.7,0-2.4c0-1.7,0.1-3.2,0.2-4.3
			c-0.5-0.1-0.8-0.2-0.9-0.3c-1.9,0.1-3.7,0.1-5.6,0.2c-1,0-2.1,0.1-3.1,0.1c-2.1,0.1-4.2,0.2-6.3,0.2c-4.3,0.1-8.6,0.3-13,0.4
			c-4.4,0.1-8.9,0.2-13.4,0.2c-3.9,0-7.8,0-11.7,0.1c0-3.8,0-7.6,0.1-11.4c0.1-4.5,0.1-8.9,0.2-13.4c0.2-9.9,0.4-19.7,0.6-29.3
			c-2,0-4.1-0.1-6.1-0.1c-1.2,0-2.3-0.1-3.5-0.1c-2.2-0.1-4.4-0.2-6.5-0.2l0.6-0.1c-2.4,0.3-5,0.7-7.6,1.1c-1.3,0.2-2.6,0.4-3.9,0.6
			c-1.7,0.2-3.3,0.4-4.9,0.6c0,0.2,0,0.5,0.1,0.7c-0.1,0.5-0.2,0.4-0.2-0.9c0,1.2,0,2.4,0,3.5v1.6v1.3c-0.1,1.7-0.2,3.4-0.3,5.1
			c-0.2,3.4-0.4,6.7-0.3,10.2c-0.2-0.1-0.2-0.1-0.3-1.2c0.4,6.6-0.8,13.6,0,21.4l-0.3,0.4l0.4,4.9c-0.2-0.1-0.6-0.2-0.7-1.8
			c0,2,0,4,0,6.1c-7.5,0-15,0-22.5,0c-9.4,0.1-18.8,0.1-28.3,0.2c0.1,9.5,0.2,19,0.2,28.7c17.1-0.2,34.3-0.3,51.6-0.5
			c0,3.4,0.1,6.9,0.1,10.3l0.1,12.1c0,8.1,0,16.2,0,24.2l-0.3-2.3l0.5,12c-0.2-0.1-0.2-0.6-0.3-1.2c-0.2,6.1-0.2,12.2-0.1,18.3
			c0.1,5.9,0.2,11.7,0.3,17.5c-1.1,0.8-2.2,1.7-3.2,2.5c-1.3,1-2.5,1.9-3.7,2.8c0-0.2,1.6-1.8-0.2-0.7c-8.2,7.4-14.8,9.9-18.1,14.7
			c-0.5,0.2-1,0.1-0.2-0.7c-24,19.1-49.1,38.2-73.8,56.8C126.3,280,116,288,105.5,296c-5.2,4-10.5,8-15.7,12
			c-2.6,2.1-5.3,4.1-7.9,6.2c-3.2,2.5-6.1,4.9-8.7,7c1.4-0.1,2.8-0.1,4.2-0.1l-0.8,0.3c4.7-0.1,9.3-0.2,14-0.3
			c4.2-0.1,8.5-0.1,12.7-0.2c4.3,0,8.6,0,12.9,0c4.2,0,8.3,0,12.6,0.1v10.1c-0.1,5.9-0.1,11.8-0.1,17.7c-0.1,9.4-0.1,18.7,0,28.1
			c0,7.1,0,13.1,0.1,19.1v21.1l-0.2,0.2c0.1,1.5,0.1,3.1,0.2,4.6v31.9c0,1.6-0.1,3.1-0.1,4.7c-0.1,2.3-0.1,4.7-0.2,7l-0.1,3.5v4.4
			c2.3,0,4.6,0,7,0c2,0,4,0,6-0.1c4-0.1,8-0.2,11.9-0.5l-1.8,0.6c3.8-0.8,14.1,0.1,14.5-0.9h3.3l1.1,0.1c0.3,0,0.7-0.1,1-0.1h36.3
			h2.9h2.4c0.2,0,0.5,0,0.7,0c0-3.8-0.1-7.4-0.3-11.4l0.3,1.4c-0.3-5.8-0.5-12.6-0.2-16.9c0.1,0.7,0.2,0.4,0.2,1.7
			c0.7-9.1,0.7-18.8,0.5-28.5c-0.1-4.9-0.2-9.8-0.4-14.7c0-2.4-0.1-4.9-0.1-7.3c0-1.2,0-2.4,0-3.6s0-2.4,0.1-3.6
			c0.2,0.7,0.3,1.4,0.6,2.2c-0.1-1.2-0.1-2.4-0.1-3.8c0-0.7,0.2-1.4,0.3-2.1c0.1-0.7,0.2-1.5,0.4-2.2s0.4-1.5,0.6-2.3
			c0.3-0.7,0.6-1.5,0.9-2.3s0.7-1.5,1.1-2.2c0.4-0.7,0.8-1.5,1.3-2.2c1.8-2.9,4.3-5.5,6.9-7.6c1.3-1.1,2.7-2,4.1-2.9
			c0.7-0.4,1.4-0.8,2.1-1.2c0.3-0.2,0.7-0.4,1-0.6c0.4-0.2,0.7-0.3,1-0.5l-0.5,0.6l2.7-1.4l2.8-1.2l0.3,0.5c3.7-1,7.6-1.5,11.4-1.6
			c3.8,0,7.6,0.6,11.2,1.6c3.6,1,7.1,2.6,10.3,4.7c2.7,2.3,5.5,4.8,7.9,7.9c-0.3-0.1-0.6-0.2-0.9-0.3c2.2,2.5,4.1,5.5,5.4,8.9
			c0.3,0.9,0.5,1.7,0.8,2.6c0.2,0.9,0.3,1.8,0.5,2.7c0.2,0.9,0.2,1.8,0.3,2.7l0.1,1.4c0,0.4,0,1,0.2,1.5c-0.1,8-0.2,16.3,0,24.1
			l-0.2-1c-0.1,9.7,0,19.3,0,28.7c0.1,9.6,0.2,19,0.3,28.5c6.8-0.1,13.7-0.2,20.5-0.3h65.9v-1.6c0-0.2,0.1-0.4,0.1-0.6
			c0-0.5-0.1-1-0.1-1.4V320.7h48.6c1.8,1.2,3.2,2,3.1,1.5C426,322,429.4,323.6,425.3,319.5z M235.9,79.9L235.9,79.9
			c0-2.6,0-5.1,0-7.6c0-2.7,0-5.3,0-8c0,0,0,0,0,0V79.9z M263.9,27c0.1,0,0.1,0,0.2,0c0.1,3.6,0.2,7.1,0.3,10.6
			c0.1,3.4,0.1,6.8,0.1,10.1c0,6.6-0.1,12.9-0.4,18.7c-0.1,1.5-0.1,3.1-0.2,4.7V27z M263.9,196.9v-93.3h32.8c-2,0-4,0.1-6,0.1
			c-8.7,0.2-17.5,0.5-26.3,0.7c0.1,3.7,0.2,7.5,0.3,11.4c-0.2,13.7-0.2,27.3-0.2,40.9c0.1,13.5,0.2,26.9,0.4,40.2
			c4.1,3.1,8.1,6.1,12.1,9.2c4.1,3.2,8.2,6.3,12.3,9.5c7.3,5.6,14.5,11.4,21.5,17.2L263.9,196.9z M315.7,236.5c5.7,4,11.3,8.4,17,13
			L315.7,236.5z M403,303.4l-6-4.6c1.3,0.7,2.3,1.4,2.8,2.1l0.9,0.1C404.2,303.6,402.5,302.7,403,303.4z M405.2,305
			c0.5,0.1,0.9,0,2.7,1.6c0,0.2,0,0.4,0.2,0.7L405.2,305z"/>
	</g>
	<g>
		<path class="st0" d="M233.5,71.1c0-0.4,0-0.8,0-1.2C233.5,70.4,233.5,70.8,233.5,71.1z"/>
	</g>
	<g>
		<path class="st0" d="M411.5,306.4c0.3,0.3,0.6,0.6,1,0.8C412.4,307.1,412,306.7,411.5,306.4z"/>
	</g>
	<g>
		<path class="st0" d="M411,305.9c0.1,0.1,0.3,0.3,0.5,0.5C411.4,306.2,411.2,306.1,411,305.9z"/>
	</g>
</g>
</svg>
