<?xml version="1.0" encoding="utf-8"?>
<!-- Generator: Adobe Illustrator 26.1.0, SVG Export Plug-In . SVG Version: 6.00 Build 0)  -->
<svg version="1.1" id="Layer_1" xmlns="http://www.w3.org/2000/svg" xmlns:xlink="http://www.w3.org/1999/xlink" x="0px" y="0px"
	 viewBox="0 0 500 500" style="enable-background:new 0 0 500 500;" xml:space="preserve">
<style type="text/css">
	.st0{fill:#8C391E;}
</style>
<path d="M285.2,258.5h0.53c-0.12-0.02-0.26-0.05-0.42-0.09C285.27,258.44,285.24,258.47,285.2,258.5z"/>
<path d="M293.55,258.5h0.63c0.15-0.04,0.29-0.1,0.54-0.18c0.02,0.07,0.03,0.13,0.02,0.18h1.28c-0.01-0.04-0.03-0.09-0.09-0.14
	C295.52,257.99,293.88,258.09,293.55,258.5z"/>
<path d="M217.16,297.79c-0.15-0.02-0.33,0.01-0.54,0.07C216.82,297.83,217,297.81,217.16,297.79z"/>
<path d="M214.37,297.9c-0.27,0.13-0.17,0.17,0.12,0.17c0.03,0,0.05-0.01,0.08-0.01C214.47,298.02,214.39,297.98,214.37,297.9z"/>
<path d="M215.45,297.97c-0.3,0-0.59,0.04-0.88,0.09c0.01,0,0.02,0.01,0.03,0.01c0.22-0.01,0.52-0.04,0.85-0.07
	C215.45,297.98,215.45,297.98,215.45,297.97z"/>
<path d="M201.65,182.23c0.17-0.06,0.33-0.15,0.49-0.23l-2.12,0.74C200.58,182.58,201.14,182.43,201.65,182.23z"/>
<g>
	<path class="st0" d="M89.4,356.25c0.24-0.77,0.06-0.43,0.33-0.94c-0.81-0.76-0.24-1.72-0.57-2.56c-0.01,0.02-0.01,0.04-0.05,0.07
		c-0.38,0.14-0.65,0.1-0.85-0.02c-1.86-6.77-5.62-20.93-8.32-33.74c0.49,1.45,0.99,2.92,1.46,4.41c-0.08-0.07-0.27-0.06-0.36-0.13
		c0.11,0.09,0.25,0.17,0.38,0.27l4.7-86.52c0.57-2.11,0.93-3.32,0.93-3.32s-0.3,0.64-0.85,1.82l0.05-0.97l-0.28-0.09
		c-0.01,0.63-0.07,1.25-0.15,1.86c-0.15,0.32-0.31,0.66-0.48,1.03l0.54-4.19c-0.59,1.47-1.07,2.96-1.33,4.5
		c-3.23,6.61-6.47,14.27-9.11,21.6l-0.32-0.16c-1.76,6.01-5.83,10.84-7.61,16.84c-2.15,3.88-2.69,8.54-3.82,12.93
		c-0.64,1.74-1.25,3.46-1.84,5.16c-0.1,0.2-0.19,0.4-0.3,0.6c-1.46,1.56-1.73,3.87-1.94,6.14c-0.72,2.28-1.37,4.47-1.94,6.55
		c-2.22,3.27-3.32,6.92-3.45,10.75c-0.01,1.96,0.16,4.01,0.99,5.89c0.34,0.65,0.76,1.21,1.21,1.74c3.04,5.45,12.8,14.39,20.93,21.29
		c0.99,1.5,1.96,3.09,3.45,4.08l0.18-0.43c0.1,1.21,1.5,1.02,2.31,1.28c0.18,0.14,0.34,0.28,0.51,0.42
		c0.07,0.18,0.08,0.41-0.02,0.74l-0.16-0.02c-0.05,0.62,0.65,0.4,1.3,0.18c0.83,0.67,1.57,1.26,2.2,1.76
		c0.08,0.1,0.2,0.19,0.33,0.26c0.23,0.18,0.45,0.35,0.64,0.5c0.11,0.22,0.07,0.52-0.31,1.03c-0.36-0.28,0.01,1.15-1.1,0.89
		c0.08,0.37,1.27,1.15,1.77,0.3c0.73-0.75,1.71-1.13,1.54-2.29L89.4,356.25z M77.69,279.63c0.06-0.52,0.12-1.05,0.18-1.57
		C77.94,278.65,77.91,279.22,77.69,279.63z M77.94,277.43c0.02-0.13,0.03-0.25,0.05-0.38c0.03,0.16,0.06,0.32,0.11,0.49
		L77.94,277.43z M78.72,273.38c-0.12,0.29-0.25,0.58-0.37,0.88c0.2-1.44,0.41-2.88,0.64-4.31
		C79.61,271.24,79.22,272.28,78.72,273.38z M79.1,269.3c0.02-0.11,0.04-0.22,0.05-0.33c0.08,0.01,0.16,0.02,0.26,0.02L79.1,269.3z"
		/>
	<path class="st0" d="M442.32,307.36c-0.57-2.08-1.22-4.27-1.94-6.55c-0.21-2.27-0.48-4.57-1.94-6.14c-0.11-0.2-0.2-0.4-0.3-0.6
		c-0.59-1.7-1.21-3.42-1.84-5.16c-1.13-4.39-1.67-9.05-3.82-12.93c-1.78-6-5.85-10.83-7.61-16.84l-0.32,0.16
		c-2.64-7.33-5.88-15-9.11-21.6c-0.27-1.54-0.74-3.02-1.33-4.5l0.54,4.19c-0.17-0.37-0.33-0.71-0.48-1.03
		c-0.08-0.62-0.14-1.24-0.15-1.86l-0.28,0.09l0.05,0.97c-0.55-1.17-0.85-1.82-0.85-1.82s0.36,1.21,0.93,3.32l4.7,86.52
		c0.13-0.09,0.27-0.18,0.38-0.27c-0.09,0.07-0.28,0.06-0.36,0.13c0.47-1.5,0.97-2.96,1.46-4.41c-2.7,12.82-6.46,26.97-8.32,33.74
		c-0.2,0.13-0.47,0.17-0.85,0.02c-0.03-0.02-0.04-0.04-0.05-0.07c-0.33,0.85,0.23,1.8-0.57,2.56c0.27,0.51,0.09,0.17,0.33,0.94
		l-0.6-0.49c-0.17,1.15,0.81,1.54,1.54,2.29c0.5,0.85,1.69,0.07,1.77-0.3c-1.11,0.26-0.74-1.17-1.1-0.89
		c-0.38-0.5-0.42-0.81-0.31-1.03c0.19-0.15,0.41-0.32,0.64-0.5c0.13-0.08,0.25-0.16,0.33-0.26c0.63-0.5,1.37-1.09,2.2-1.76
		c0.65,0.22,1.35,0.44,1.3-0.18l-0.16,0.02c-0.1-0.33-0.09-0.56-0.02-0.74c0.17-0.14,0.34-0.27,0.51-0.42
		c0.81-0.27,2.21-0.07,2.31-1.28l0.18,0.43c1.49-1,2.46-2.58,3.45-4.08c8.12-6.9,17.89-15.84,20.93-21.29
		c0.45-0.53,0.87-1.09,1.21-1.74c0.83-1.88,0.99-3.93,0.99-5.89C445.64,314.28,444.54,310.63,442.32,307.36z M420.85,268.97
		c0.02,0.11,0.04,0.22,0.05,0.33l-0.31-0.3C420.69,268.99,420.77,268.98,420.85,268.97z M421.28,273.38
		c-0.49-1.1-0.89-2.14-0.27-3.43c0.22,1.43,0.44,2.86,0.64,4.31C421.52,273.96,421.4,273.67,421.28,273.38z M421.9,277.54
		c0.05-0.17,0.08-0.33,0.11-0.49c0.02,0.13,0.03,0.25,0.05,0.38L421.9,277.54z M422.13,278.06c0.06,0.52,0.12,1.05,0.18,1.57
		C422.09,279.22,422.06,278.65,422.13,278.06z"/>
	<path class="st0" d="M410.39,349.77c3.01-9.26,4.31-18.62,4.67-27.88c0.17-4.18,0.16-8.35,0.06-12.54
		c0.15-4.59,0.2-9.44,0.16-14.66c-0.38-43.39-19.07-101.22-40.92-102.82c0.13-0.71-0.15-1.38-1.55-2.01l-0.58,1.21
		c-0.97-1.21-0.74-0.61-1.08-1.51c-3.76-0.16-4.26-1.92-6.96-2.65c0.03,0.04,0.05,0.07,0.01,0.13c-1.84,1.45-4.39,0.59-5.85,0.39
		l-0.59-0.67c-0.89-1.41-4.27,2.76-3.13,0.34c-7.64,0.6-16.4,0.59-24.94,0.63c-1.19,0.92-6.54-0.07-4.67,1.7
		c-2.14-2.02-8.5-2.52-10.86-2.44c0.09-0.19,0.19-0.41,0.56-0.33c-4.58-2.62-5.42,2.44-9.72-0.76c-0.66,2.27-7.79-0.7-10.21,1.97
		c-0.53-0.5-0.71-0.96-0.52-1.36c-7.72-0.03-16.26-0.81-22.79-0.89c-5.57,2.01-13.52-0.85-18.31,1.92
		c-3.98-0.57-10.42-1.69-15.96-0.57l0.54-0.34c-6.26,0.18-14.08,0.33-18.38,2.06c-1.85-2.63-4.56-2.1-7.26-2.94
		c-4.18,1.22-12.62,0.85-19,1.94c-0.97-1.21-5.26,0.5-5.59-1.26c-8.94,1.67-18.94,2.18-29.08,1.93c-5.07-0.13-10.18-0.44-15.22-0.89
		c-2.52-0.23-5.01-0.49-7.48-0.78c-2.5-0.31-4.97-0.62-7.39-0.92l0.39-0.14c-0.89,0.28-1.84,0.67-2.71,1.11
		c-0.86,0.47-1.64,1.12-2.37,1.71c-1.41,1.3-2.5,2.7-3.35,3.96c-0.31,0-0.44-0.26,0.08-0.55c-0.4,0.28-0.82,0.53-1.24,0.76
		c-0.39,0.26-0.79,0.51-1.2,0.74l-1.25,0.68l-1.2,0.73c-0.4,0.24-0.81,0.49-1.21,0.75c-0.37,0.28-0.74,0.56-1.1,0.86
		c-0.73,0.59-1.4,1.25-1.91,2.04c-0.2-0.21-0.21-0.21-0.03-0.86c-0.41,0.82-0.98,1.51-1.61,2.19c-0.59,0.69-1.26,1.35-1.92,2.04
		c-1.27,1.4-2.54,2.96-2.94,5.07l-0.52-0.03c-0.25,0.86-0.48,1.71-0.67,2.57c-0.39-0.27-0.96-0.67-0.68-1.43
		c-3.79,6.74-6.57,13.88-8.78,21.16c-2.29,7.47-3.91,15.12-5.21,22.81c-2.5,15.41-3.6,31.03-3.48,46.68l-0.58-1.13
		c0.39,2.01,0.74,4.02,1.19,6.01c-0.3-0.02-0.45-0.3-0.6-0.58c-0.34,3.87,0.12,7.8,0.73,11.66c0.64,3.87,1.48,7.66,1.94,11.39
		c-0.29,0.01-1.02-1.03-1.17,0.06c1.23,2.64,1.14,4.92,1.21,6.86c0.11,1.92,0.34,3.49,2.28,4.47c-0.09,0.29-0.77,0.64-1.16,0.14
		c1.18,3.75,2.45,7.51,3.94,11.23c0.39,0.93,0.75,1.86,1.18,2.79l0.62,1.39c0.26,0.5,0.56,1.04,0.84,1.55
		c1.2,2.02,2.8,3.87,4.66,5.2c1.84,1.36,3.83,2.43,5.84,3.17c1,0.43,2.02,0.68,3.04,1.02c1.01,0.24,2.03,0.54,3.04,0.72
		c4.06,0.83,8.07,1.17,12.01,1.38c12.91-2.93,27.11-0.27,40.42-2.63l-0.07,0.59c17.19-2.09,35.43,0.14,53.26-0.28
		c7.4,0.24,12.4-0.46,19.84-0.5l0.19,0.74c12.52-2.82,26.31,2.54,39.37-0.57l-0.9,1.01c1.91-1.48,7.24,0.32,7.19-1.72h1.08
		l1.16,0.41c0.4-0.16,0.79-0.28,1.19-0.41h14.61c3,0.36,6.18,0.55,9.75,0h1.19l-0.43,0.38c0.84-0.14,1.72-0.27,2.6-0.38h5.42
		c0.13,0.03,0.26,0.05,0.38,0.08c-0.33,0.09-0.18,0.28-0.87,0.45c9.05,2.51,19.13-0.26,28.68-0.17l-1.08,1.18
		c4.62-1.39,13.09-0.1,19.16-0.73l-0.37,0.55l3.07-0.78l0.08,1.12c3.96,0.02,7.75-0.15,11.62-0.47c3.85-0.36,7.65-0.9,11.48-1.69
		l-0.22,1.08c3.47-1.56,7.2-2.58,10.79-4.49c1.75-1.02,3.46-2.26,4.78-3.93c1.26-1.66,2.09-3.8,2.35-5.63L410.39,349.77z
		 M103.59,218.22c0.43-1.12,0.88-2.23,1.36-3.33c1.9-4.3,4.22-8.48,7.19-12.05C109.06,207.04,106.19,212.26,103.59,218.22z
		 M132.44,191.86l0.39-0.04c7.71-0.74,15.32-1.47,21.66,0.03c0.34,0.06,0.67,0.1,1.01,0.16
		C148.36,191.97,140.71,191.92,132.44,191.86z M229.99,302.71c-0.03-0.66,0.36,0.24,0.32-0.63
		C230.49,302.81,230.03,302.59,229.99,302.71z M234.82,329.21l-0.26,0.01l0.34-0.6C234.87,328.81,234.84,329.01,234.82,329.21z
		 M302.67,288.17c0,1.54-0.08,3.25-0.2,4.85v3.07h-24.08c-0.65,0.05-1.31,0.09-1.98,0.12c-1.97,0.07-4.01,0.14-5.99,0.22
		c0.03,0.84,0.07,1.65,0.12,2.42c-0.12-0.15-0.29-0.33-0.46-0.41v0.44c0.12,0.25,0.21,0.55,0.29,0.88c0.12,0.53,0.18,1.23,0.24,1.9
		c-0.58,0.59,0.53,2.26,0.21,3.81l-0.13-0.13c0.61,1.14-0.35,1.7,0.38,2.62l-0.46,0.73c0.82,0.5-0.42,1.65-0.01,2.6l0.17-0.03
		c0.2,0.89-0.21,1.36-0.07,2.18l-0.1,0.08c0.22,1.94-0.24,3.06,0.4,3.01c-0.5,0.66-0.25-1.72-0.92-0.89v0.73
		c0.38,4.02,0.47,7.87,0.48,12.59c-2.37,0-4.72,0-7.07,0c-0.62-0.22-1.03-0.31-1.25-0.48h-0.99c-0.77,0.06-1.71,0.13-2.11,0.35
		c0.2-0.01-0.34-0.29-0.69-0.35h-0.79c-0.57,0.16-0.87,0.62-1.82,0.41c0.35-0.12,0.53-0.26,0.56-0.41h-0.71
		c-0.98,0.25-2.14,0.24-3.18,0.37c0.2-0.11,0.51-0.17,0.46-0.37c-1.41,0.57-2.58-0.12-3.81,0.24l0.3-0.24h-1.06
		c-0.14,0.23-0.15,0.52-1.09,0.38c0.38-0.11,0.29-0.24,0.33-0.38h-0.1c-1.61,0.62-4.13,0.42-5.7,0.64c0.1-0.05,0.07-0.15,0.07-0.15
		c-0.87,0.04-1.77,0.01-2.68,0.01c-0.46,0-0.92,0-1.39,0.02c-0.49,0.02-0.9,0.06-1.49,0.14c-0.5-0.11-0.2-0.47-0.46-0.66h-1.11
		c-0.52,0.59-3.43,0.24-3,1.04c-0.09-0.01-0.19-0.01-0.31-0.02c0.13-2.06,0.37-4.9,0.13-5.88c0.23,0.58,0.7-0.31,0.89,0.08v-4.35
		c-0.37-0.8-0.73-1.71-0.79-2.95c0.22,0.7,0.58,0.04,0.79-0.05v-0.15l-1.27-2.45c-0.04-0.66,0.59-0.14,0.39-1.09
		c-0.2,0.05-0.32-0.36-0.48-0.65c0.08-0.25-0.19-2.73,0.55-3.01c0.29-0.29,0.15,1.07,0.41,0.34c-0.01-1.21-0.26-1.27-0.27-2.48
		l0.1-0.02c0.11-0.8-0.31-2.36-0.72-1.49c-0.02,0.56,0.44-0.21,0.23,0.61c-0.43-0.56-0.54-1.97-0.55-3.19
		c0.12,0.41,0.31,0.36,0.52,0.53c-0.29-0.81-0.48-1.65-0.62-2.52l-0.05-0.32l-0.05-0.2l-0.09-0.36c-0.05-0.19-0.1-0.38-0.15-0.57
		c-0.1-0.02-0.15-0.03-0.02-0.09c0.01,0.03,0.02,0.06,0.02,0.09c0.04,0.01,0.09,0.01,0.14,0.02c0.13,0.02,0.27,0.08,0.3,0.15
		c0.17-0.66,0.09-1.31-0.02-1.77c-0.99,0.15-1.66,0.35-2.26,0.02c0.04,0.13-0.07,0.42-0.06,0.35c-0.15-0.01-0.26-0.05-0.35-0.1
		c-0.11-0.05-0.27-0.11-0.37-0.17c-0.22-0.11-0.39-0.19-0.76-0.09c-0.07-0.3-0.92,0.09-1.67,0.18c-0.28,0.16-0.25,0.01,0.03-0.09
		c-1.48,0.25-5.07,0.58-7.25,0.19c0.05,0.2-1.49,0.72-2.05,0.7l0.22-0.46c-0.16-0.09-0.41-0.11-0.68-0.12
		c-0.12,0.02-0.21,0.03-0.24-0.01c-0.32,0-0.62,0-0.82-0.06c-0.04,0-0.07,0-0.11,0c-0.78,0.13-1.55,0.3-2.32,0
		c0.31,0.07,0.91-0.63,0-0.6c-1.59,0.08-0.45,0.22-1.74,0.37l-0.81,0.19c-0.05,0.44-1.42-0.06-0.83,0.44
		c-0.2-0.37-2.32,0.23-2.15-0.51l0.22-0.58c-0.69,0.04-1.13,0.61-1.67,0.87c-0.09-0.05-0.27-0.17-0.24-0.27
		c0.08,0.89-2.08-0.07-3.58,0.61c-1.04-0.15-2.39-0.16-3.59-0.2c0.04-1.33,0.1-2.54,0.39-3.19c-0.13-0.72-0.28-1.47-0.37-2.29
		c-0.04-0.39-0.08-0.89-0.08-1.25c-0.01-0.29,0.01-0.59,0.06-0.91c0.08,0.25,0.11,0.6,0.3,0.67c0.26-0.79,0.03-0.99-0.12-1.72
		c0.13,0.16,0.52-1.59,0.84-2.47c-0.27-1.1-0.75-0.73-1.04-0.84c0.88-1.01-0.57-3.11,0.23-4.38c0.12,0.38,0.43,1.61,0.65,0.69
		c0.88-1.01-0.65-2.03-0.23-3.66l-0.73,0.4c0.45-0.72-0.42-2.39,0.32-2.23c-0.26-0.54,0.24-1.92-0.47-1.74
		c0.6-2.67-0.36-6.49,0.91-8.14c-0.12-0.38,0-1.34-0.36-1.14c-0.4,0.64,0.28,0.89,0.01,1.12c-0.02-0.34-0.22-0.42-0.31-0.45
		c0.16-0.83,0.21-1.48,0.8-0.7c0.22-0.92-0.08-1.4-0.4-1.94c-0.16-0.27-0.33-0.55-0.44-0.92c-0.03-0.09-0.05-0.19-0.07-0.29
		c-0.02-0.1-0.03-0.19-0.04-0.4c-0.02-0.36-0.01-0.77,0.02-1.22c0.29,0.22,0.41-0.02,0.36-1.05c-0.17-0.71-0.34-1.47-0.5-2.28
		c0.12-2.34,0.67-0.74,1.17-0.39c-0.01-0.21-0.03-0.43-0.04-0.65c0.88-0.05,1.8-0.09,2.05-0.39c0.6,0.21,1.14,0.42,1.64,0.63
		c-1.13-0.45,0.78-0.3,1.29-0.42l-0.5,0.12c0.23,0.21,1.53,0.08,1.9,0.02c-0.07-0.15-0.3-0.26-0.66-0.34c-0.46-0.08-1-0.13-1.4-0.18
		c0.28-0.11,0.67-0.15,1.1-0.2c0.5-0.05,0.68-0.1,0.98-0.23c-0.18,0.49,1.32,0.35,1.97,0.4c0.74,0.11,0.83-0.44,1.05-0.42
		c0.02,0.25,1.21,0.04,0.63,0.4c-0.25,0.08-0.58-0.25-0.99-0.02c0.49,0.19,0.43,0.63,1.44,0.31c0.76-0.24-0.2-0.96,1.25-0.66
		c-0.38,0.12-0.45,0.32-0.74,0.49l1.36,0.25l0.06-0.44c0.18,0.11,0.06,0.15,0.14,0.21c0.4-0.47,2.07-0.14,2.38-0.67
		c0.68-0.05,1.44,0.31,2.09,0.36l-0.13,0.04c0.8,0.26,1.86,0.09,2.53-0.21l-0.04,0.1c0.44,0.04,1.47-0.04,2.01-0.3
		c1.1,0.34,0.37,1.68,1.59,1.12c1.12-0.02,1.75-0.82,1.3-1.1c1,0.15,2.08,0.04,3.13-0.01c1.01-0.06,2.29-0.07,2.51,0.28
		c0.08-0.18-0.02-0.29,0.17-0.4c0.35,0.05,0.69,0.03,0.98-0.01c-0.05-0.44-0.11-0.84-0.09-1.17c0.01-0.09,0.02-0.17,0.04-0.25
		c0.02-0.1,0.04-0.11,0.08-0.4c0.07-0.46,0.17-0.9,0.33-1.32c0.19,0.86,0.44,0.06,0.7,0.04c-0.4-0.71,0.41-0.85-0.27-1.1
		c-0.4,0.07-0.6,0-0.76,0.83c-0.22-1.76-0.22-4.43,0.16-5.41c-0.19,0.49-0.31,0.11-0.43-0.27c0.64,0.13,0.74-1.17,0.51-2.15
		l-0.39-0.14l0.4-0.64c-0.12-0.38-0.82-0.42-0.44-1.39c0.15-0.05,0.3-0.11,0.42-0.29c-0.32-1.02-0.86-2.45-0.53-3.55l0.57-0.9
		c-0.06-0.47-0.41-1.26-0.57-0.43c0.34-1.88,0.39-3.09,0.88-3.69c-0.19-0.52-0.36-1.08-0.49-1.66c-0.07-0.29-0.13-0.59-0.19-0.9
		l-0.08-0.46c-0.02-0.25-0.05-0.51-0.07-0.76c-0.18-2.14-0.28-4.55-0.32-6.92c2.56-0.05,5.2-0.04,7.58-0.01l-0.19,0.29
		c0.24,0.03,0.34,0.05,0.41,0.06c0.08,0.01,0.15,0,0.21-0.02c0.11-0.03,0.16-0.1,0.21-0.17c0.09-0.14,0.15-0.28,0.5-0.18
		c-0.33,0.28,0.77,0.61-0.02,0.95c1.45,0.31,1.86-0.51,2.81-0.64c0.14-0.38-0.76,0.25-0.57-0.24c0.16-0.14,2,0.3,2.23-0.28
		c0.36,0.23,0.08,0.66-0.12,0.89l0.88-0.28c1.08,0.68-2.46,1.21-1.33,2.05l0.82-0.09c0.78,0.61-2.16,0.69-0.11,0.9
		c0.89-0.29,1.65-1.13,0.86-1.39c1.85-0.16,0.86-1.39,2.84-1.34c0.54,0.34-1.59,0.08-1.21,0.56c0.94,0.47,1.88-0.26,2.71-0.1
		c-0.92-0.22-0.14-0.81,0.46-0.91c1.01,0.27-0.66,0.55,0.78,0.61c0.24-0.34,1.55-0.59,0.41-0.82c0.52-0.76,1.49,0.21,2.27-0.38
		c0.47,0.53-1.47,1.24,0.1,1.51c-0.25-0.52,1.94-0.7,1.11-1.47c0.62,0.15,0.68,0.56,0.23,0.87c0.88,0.32,2.14-0.94,2.43,0.08
		l0.3-0.53c0.28,0.17,0.67,0.3,1.12,0.59c0.78,0.01,2.5-0.71,2.43,0.08c0.25-0.08,2.02-0.05,1.34-0.6c-1.1-0.34-1.27,0.4-1.88-0.34
		c0.78,0.61,1.59-0.08,2.23-0.28l0.1,0.31c0.38-0.12,1.25-0.05,1.49-0.39c-0.29,0.18-0.14,0.39,0.16,0.46l0.4-0.47
		c1.54-0.23,0.36,0.82,1.86,0.69l-1.14,0.36c0.25-0.08,0.76,0.36,1.48,0.21c0.07-0.11,0.15-0.22,0.25-0.33
		c0.05-0.06,0.08-0.11,0.15-0.17l0.26-0.17c0.38-0.23,0.75-0.45,1-0.6c1.58-0.17,0.71,0.4,2,0.12l-1.87,0.44
		c-0.16,0.07,0.15,0.25,0.69,0.4c0.55,0.16,1.31,0.3,2.24,0.29c0.63-0.07,1.54-0.27,2.12-0.47c0.57-0.2,0.78-0.42-0.19-0.53
		c0.74,0,1.55,0.12,1.55,0.29c-0.04,0.14-0.09,0.2-0.14,0.14c-0.02,0.05-0.04,0.06-0.07,0.07c-0.05,0.02-0.12,0.05-0.2,0.07
		c0.06-0.01,0.12-0.01,0.14-0.01c0.08,0.91,0.19,0.73,0.32,0.5c0.13-0.22,0.27-0.49,0.4,0.43c-0.28,1.12-0.69,3.92-1.11,5.36
		c-0.24-0.59-0.48-1.12-0.72-1.59l-0.01,1.14c-0.29-0.65-0.4-0.4-0.51-0.13c-0.11,0.29-0.23,0.61-0.53,0.33
		c-0.05,0.34-0.02,0.68,0.04,1.04c0.03,0.17,0.07,0.37,0.11,0.52c0.04,0.14,0.08,0.27,0.12,0.4c0.97-1.53,1.32,1.72,2.21,1.27
		c0.24,2.1-2.15,1.31-0.77,3.51c0.18-0.28,0.63,0.29,0.69-0.11c-0.04-0.14-0.06-0.31-0.04-0.54c0.05,0.28,0.06,0.44,0.04,0.54
		c0.17,0.67,0.78,0.62,0.48,1.89c-0.36-1.14-0.9,1.22-1.42-0.42c0.29,0.11,0.22-0.92,0.14-1.17c-0.34,0.54-0.89-0.11-0.89,1.23
		c0.09,0.82,0.1,1.93,0.56,1.77c0.51-0.03-0.05-1.25,0.46-0.72c0.18,1.63-0.59,1.9,0.3,2.57c-0.07-1.03,0.45-1.28,0.8-1.27l0.21,1.2
		l-0.34-0.23c-0.24,1.91,0.61,0.57,0.52,2.42l-0.66,0.87c-0.57-0.44,0.25-2.7-0.68-2.37c-0.04,1.21,0.43,1.61,0.19,2.74
		c-0.08-0.25-0.1-0.6-0.19-0.85c-0.03,0.43-1.27,0.86-0.54,2.58c0.28,0.89,0.33,0.23,0.68,0.26c0.11,1.94,0.46,2.52,0.52,3.76
		c-0.68-0.26-0.07,2.2-0.76,0.83c0.4-0.63,0.36-3.44-0.29-4.12c-0.81,0.71,0.11-1.52-0.7-1.94c-0.02,1.55-0.81,1.48-1.33,1.73
		c-0.04,0.43,0.18,0.85,0.26,1.11c0.49,0.18,0.48-0.38,0.99-0.41c-0.13,1.73,0.14,3.4,0.62,4.36c-0.24,0.58-0.73,0.4-0.78-0.29
		c0.07,1.02,0.09,2.13,0.07,3.12c-0.02,0.65-0.07,1.3-0.14,1.99c0.56-0.92,0.43,0.02,0.53,0.24c0.09-0.02,0.17-0.05,0.24-0.1
		c-0.18,0.26-0.31,0.54-0.65,0.8c1.22-0.35-0.43,0.44,0.61,0.44c0.64-0.17,1.25-0.33,1.79-0.46c0.22-0.06,0.64-0.12,1.03-0.17
		c0.39-0.05,0.77-0.09,1.15-0.13c1.89,0.59,4.79,0.01,6.48-0.01c0.88,0.32,0.28,1.02,1.24,1.15c1.12-0.01-0.83-0.76,0.83-0.44
		l-0.16,0.14c0.5-0.16,3.05,0.48,3.55-0.54l-0.51,0.77c0.31,0.07,0.6-0.11,0.86-0.19c0.01,0.25,0.37,0.48-0.13,0.64
		c0.14,0.07,0.29,0.12,0.43,0.15h1.17c0.55-0.09,1.12-0.25,1.68-0.26l-0.72-0.45c1.91-0.36,3.19,0.09,5.04-0.07l-0.05,0.44l1.1-0.27
		c-0.22,0.36,0.43,0.6,0.99,0.47l-0.33,0.13h4.71v19.96c0.05,0.52,0.12,1.04,0.21,1.54c0.02,0.22-0.08,0.26-0.21,0.29v3.68
		C302.61,285.29,302.67,286.7,302.67,288.17z M197.75,279.92l0.29,0.11l-0.15,0.62L197.75,279.92z M270.3,222.37
		c0.06,0.12,0.1,0.24,0.15,0.37c-0.37-0.02-0.51-0.07-1,0.01C268.8,222.61,269.64,222.4,270.3,222.37z M273.9,229.89
		c0.01,0.16,0.03,0.33,0.04,0.5c0.02,0.14,0.03,0.2,0.05,0.29c0.07,0.35,0.11,0.61-0.11,0.48c-0.01-0.18-0.08-0.45-0.1-0.73
		c-0.02-0.51,0-1,0.16-1.34C273.89,229.28,273.89,229.57,273.9,229.89z M274.08,246.52c-0.16,0.06-0.23-0.2-0.37-0.36
		C273.95,245.58,274.09,245.74,274.08,246.52z M273.04,245.69c-0.01-0.47,0.12-0.74,0.26-0.97c0.01-0.07,0.03-0.13,0.08-0.13
		c-0.03,0.04-0.05,0.09-0.08,0.13C273.25,245.03,273.44,245.84,273.04,245.69z M272.99,255.59c-0.02,0.07-0.02,0.13,0.01,0.15
		c0.13-0.08,0.25-0.16,0.4-0.21c-0.25,0.21-0.36,0.24-0.4,0.21c-0.2,0.13-0.39,0.28-0.53,0.46c-0.03,0.04-0.06,0.08-0.09,0.12
		c0.06-0.05,0.11-0.11,0.14-0.2c-0.01-0.01-0.03-0.02-0.04-0.03c0.2-0.69,0.74-1.22,1.08-1.32c-0.05,0.18-0.35,0.25-0.52,0.45
		C273.25,255.18,273.12,255.35,272.99,255.59z M273.44,255.95c-0.16,0.03-0.23,0.18-0.39,0.32c-0.08,0.1-0.1-0.13-0.1-0.19
		C273.14,256.06,273.43,255.78,273.44,255.95z M272.5,252.85c0.15,0.05,0.28,0.46,0.38,0.98c0.02,0.11,0.05,0.3,0.07,0.35l0.05,0.13
		c0.03,0.09,0.05,0.16,0.06,0.23c-0.09-0.12-0.19-0.22-0.28-0.42L272.5,252.85z M219.7,192.2c4.05-0.4,8.1-0.82,12.18-1.24
		c24.04,1.51,48.02-2.65,71.31,0.5c5.63-1.06,11.56-0.39,17.65,0.44C274.62,191.98,249.77,192.17,219.7,192.2z M347.05,191.85
		c0.8-0.15,1.55-0.18,2.22,0C348.53,191.85,347.79,191.85,347.05,191.85z M354.13,191.84c1.22-0.91,2.33-1.76,3.04-0.81l0.38-0.8
		c2.82-0.23,0.33,0.91,2.51,1.23c0.82-0.1,0.31-1.46,2.02-1c0.11,0.95,0.74,1.29,1.58,1.38
		C360.41,191.84,357.23,191.84,354.13,191.84z M365.14,191.84c0.95-0.07,1.94-0.17,2.71,0
		C366.94,191.84,366.05,191.84,365.14,191.84z"/>
	<path class="st0" d="M177.37,171.22c-0.78,1.33,0.48,2.56,0.96,3.66c0.04,0.31,0.09,0.62,0.13,0.93c-0.06,0.25-0.21,0.5-0.52,0.73
		l-0.12-0.18c-0.46,0.59,0.27,1.06,0.96,1.48c0.22,1.37,0.44,2.61,0.63,3.61c0.02,0.11,0.06,0.22,0.1,0.32
		c0.02,0.21,0.13,0.43,0.28,0.63c0.2,0.32,0.45,0.59,0.75,0.81c0.2,0.28,0.29,0.62,0.07,1.25c-0.4-0.19-0.21,0.16-0.1,0.54
		c0.05,0.18,0.08,0.37-0.07,0.48c-0.15,0.11-0.5,0.16-1.16-0.1c0.24,0.34,1.33,0.92,2.37,0.87c1.05-0.03,1.77-0.55,1.49-1
		c-0.03-0.55,0.09-1.1,0.05-1.59c0-0.02-0.01-0.04-0.01-0.06l17.54-3.82c1.5-0.33,2.46-1.79,2.18-3.3c-0.41-2.2-0.75-4.46-1.01-6.55
		c-0.33-2.72,1.38-5.27,4.02-5.98c5.55-1.49,11.88-2.7,18.63-3.61c-2.2,0.5-4.42,1.03-6.66,1.56c0.11-0.09,0.12-0.29,0.24-0.39
		c-0.35,0.29-0.7,0.78-1.14,0.8c-0.14-0.13,0.07-0.32,0.19-0.41c-1.89-0.82-4.78,1.66-5.99,1.03c-0.45,0.21-0.55,0.72-0.21,0.99
		c-1.44,0.42-2.91,0.85-4.39,1.28c-0.41,0.12-0.61,0.2-0.89,0.34c-0.26,0.13-0.5,0.3-0.72,0.48c-0.44,0.37-0.79,0.84-1.02,1.34
		c-0.23,0.51-0.34,1.07-0.33,1.61c0.01,0.28,0.04,0.51,0.11,0.82l0.27,1.13c0.41,1.62,0.82,3.24,1.23,4.83
		c0.1,0.44,0.19,0.87,0.22,1.29c-0.16,0.45-0.48,0.45-0.84,0.25c0.35,1.82-0.71,3.79-2.46,4.69l1.3-0.45
		c0.7,0.11,1.64-0.7,2.16-1.82c0.58-1.12,0.67-2.4,1.07-3.22c-0.1-0.26-0.21-0.52-0.29-0.77c-0.08-0.24-0.16-0.48-0.23-0.7
		c-0.04-0.11-0.07-0.21-0.11-0.31c-0.03-0.07-0.06-0.1-0.09-0.15c-0.13-0.18-0.29-0.31-0.56-0.36c-0.1-1.08-0.22-2.16-0.37-3.24
		l-0.11-0.81l-0.06-0.4l-0.03-0.19l0-0.1c-0.01-0.26-0.01-0.52,0.05-0.77c0.11-0.5,0.36-0.99,0.74-1.35
		c0.19-0.18,0.4-0.34,0.64-0.47c0.12-0.07,0.24-0.11,0.37-0.17l0.79-0.23c2.13-0.61,4.26-1.25,6.44-1.73
		c2.17-0.55,4.38-0.95,6.6-1.3c1.92-1.31,4.27-1.47,6.7-1.57c2.44-0.01,4.98,0.09,7.45-0.42c0.04,0.06,0.04,0.14,0.01,0.19
		c1.59-0.58,3.96-1.04,5.93-0.89l1.61-0.89c5.94,0.5,11.87,0.55,17.84,0.71c5.96,0.13,11.96,0.45,17.82,1.51
		c1.66,0.27,3.29,0.52,4.88,0.89c1.58,0.37,3.18,0.63,4.7,1.07c1.53,0.42,3.06,0.76,4.54,1.22c0.74,0.23,1.48,0.45,2.21,0.67
		l1.1,0.33l0.55,0.16c0.1,0.04,0.17,0.06,0.25,0.1c0.63,0.29,1.13,0.83,1.36,1.48c0.11,0.35,0.19,0.62,0.16,1.08
		c-0.07,0.77-0.14,1.54-0.22,2.32c-0.06,0.78-0.11,1.56-0.16,2.34l-0.06,1.26c-0.06,0.71-0.13,1.34-0.08,1.95
		c0.08,1.21,0.6,2.38,1.47,3.2c0.11,0.11,0.24,0.19,0.36,0.29c-0.07,0.03-0.14,0.09-0.22,0.23l0.25-0.2
		c0.81,0.63,1.8,0.96,2.82,1.02c0.09,0.01,0.18,0.01,0.28,0.02c-0.07,0.15,0.01,0.27-0.38,0.26c0.02,0.02-0.03,0.01-0.1,0.01
		c0.03,0.01,0.06,0.01,0.09,0.02c0.58,0.09,1.15,0.18,1.71,0.27c0.46,0.08,0.92,0.17,1.37,0.27c0.9,0.2,1.78,0.43,2.65,0.65
		c0.95,0.25,1.88,0.48,2.83,0.68c-0.04,0.16-0.08,0.32-0.13,0.44c-0.02,0.21,0.08,0.17,0.23-0.42c0.77,0.16,1.55,0.3,2.34,0.38
		l-0.05,0.18c1.14,0.05,2.28,0.15,3.42,0.29c0.57,0.07,1.14,0.15,1.71,0.24c0.64,0.09,1.51,0.3,2.22,0.33
		c1.49,0.11,3.01-0.65,3.82-1.92c0.42-0.63,0.6-1.36,0.74-2.11l0.36-1.95c0.81-4.61,1.41-9.26,0.74-13.7
		c0.13-2.67,0.04-5.46-0.51-8.26c-0.55-2.79-1.59-5.61-3.4-7.98c-0.89-1.19-2-2.21-3.21-3.07c-1.24-0.83-2.57-1.48-3.9-2
		c-2.64-1.14-5.37-2-8.06-2.79l0.14-0.35c-4.39-1-8.58-2.35-12.85-3.55c-4.26-1.21-8.6-2.22-13.1-2.45
		c-4.54-0.98-9.33-0.85-14.09-0.58c-1.78,0.1-3.55,0.21-5.32,0.28c-2.57-0.08-5.15-0.11-7.73-0.11c-0.36-0.03-0.71-0.06-1.07-0.1
		c-2.83-0.9-6.09-0.33-9.28,0.32c-3.28,0.14-6.55,0.33-9.77,0.59c-9.32-1.54-18.27,0.57-26.88,3.8c-7.38,1.57-14.02,3.5-19.49,5.76
		c-8.19,3.4-9.75,11.94-9.72,18.86c-0.53,2.46-0.92,5.1-0.46,7.61L177.37,171.22z M296.36,162.41c-0.02,0.08-0.04,0.17-0.05,0.27
		l-0.41-0.4C296.05,162.33,296.2,162.37,296.36,162.41z M295.01,162.03c-1.88,0.39-3.3-0.27-4.87-0.92
		c-0.43-0.19-0.86-0.38-1.31-0.57C290.97,160.99,293.04,161.49,295.01,162.03z M284.4,159.72c0.18,0.03,0.35,0.06,0.53,0.09
		c-0.23,0.02-0.46,0.03-0.7,0.07L284.4,159.72z M283.6,159.59c-0.89,0.03-1.75-0.07-2.37-0.37
		C282.03,159.34,282.82,159.46,283.6,159.59z"/>
</g>
</svg>
