<svg id="Layer_4" data-name="Layer 4" xmlns="http://www.w3.org/2000/svg" viewBox="0 0 427.71 469.43"><defs><style>.cls-1{fill:#8c3712;}</style></defs><path class="cls-1" d="M358.27,403.91a.64.64,0,0,0,.25-.71c.45-1.64,2.49-3.07-.69-4.34l-.64,1.2c-1.07-1.2-.81-.6-1.2-1.5-4.15-.16-4.71-1.9-7.69-2.62,0,0,.06.07,0,.13-2,1.44-4.85.59-6.47.38l-.65-.66c-1-1.4-4.73,2.72-3.46.33-4.23.29-8.76.44-13.42.51l-7.06.06-7.82,0c-1,.45-3.81.43-5.93.52a11.45,11.45,0,0,0-.36,2.58c0,.55.27.67.81.33a7.31,7.31,0,0,0-2,2.84c-.18.36-.36.74-.53,1.15-.09.18-.19.47-.26.58l-.2.39c-.26.52-.51,1.07-.74,1.62a38.4,38.4,0,0,0-1.92,5.8.49.49,0,0,1-.16-.67c-3.75,4.27.85,6.4-3.38,10.23,2,1.26-2.8,8.18-.91,11.42-.63.45-1.11.53-1.45.22-.27,1-.56,2.08-.84,3.13l-.45,1.58-.23.79,0,.1c-.15.25-.3.4-.42.42s-.35-.46-.36-.63l0,.64c.05,1.25,0,1.41-.11,1.28a3.84,3.84,0,0,1-.18-.83c0-.28-.06-.41-.22-.41a5.85,5.85,0,0,1-1.2,0v-.14a.24.24,0,0,0,0-.09l-.05-.21-.21-.9c-.15-.61-.31-1.26-.47-1.94-.33-1.35-.71-2.81-1.16-4.3s-1-3-1.57-4.48c-.3-.75-.62-1.48-1-2.19l-.55-1.09c-.3-.65-.61-1.29-.91-1.9l.68.86c-1.9-4.81-4-10.08-5.94-14.85A107.06,107.06,0,0,0,272,397.28c-.67,2.69-1.19,5.06-1.58,7.23-.8-1.69-1.73-.57-2.67,1.3-.24.47-.48,1-.73,1.53l-.77,1.77c-.58,1.36-1.18,2.76-1.87,4.15-.63,2.73-1.45,5.75-2.38,9l-.18.61c-.06.2-.06.22-.09.34l-.15.59q-.07.28-.15.6l-.08.3c0,.08-.08.27-.05.2l.26-.29a.82.82,0,0,1,.2-.14h0v.08l0,.19-.05.41c-.09.82-.19,1.63-.27,2.38a.34.34,0,0,0-.12.09c-.12-1.64-.22-1.56-.38-1.76s-.31-.54,0-1.94c-.27.45-.75.28-1.33-.26,0-.06-.06,0-.13-.15l-.27-.44-.53-.88-1.05-1.8c-.7-1.2-1.39-2.43-2.06-3.67-1.36-2.48-2.68-5-4-7.62l-1.89-3.93q-1.42-3-2.83-6.08l-6.36-.08-4-.15q-4-.18-8-.46c-5.33-.37-10.58-.86-15.64-1.44l.3-.12c-2.73,1-5.88,3.1-8.66,4.35-.27-.15-.24-.44.34-.44-3.85.35-7.47-1.33-11.32-1,0-.28,0-.28.65-.56-3.61.79-7.48-1.34-11.74,0l-.25-.46-2.71.67c.06-.49.15-1.16,1-1.27-15.88-.14-32,.52-48.2,1.22-8.2.35-16.44.72-24.68,1-4.13.13-8.25.25-12.38.33l-6.18.09-8.73.05-.73,4.47-.2-2.21L79,408.26a2.93,2.93,0,0,0,0,.73l0,.51.08,1.11a1.38,1.38,0,0,1-.46-.69,12.41,12.41,0,0,0-.79,3c-.15,1.06-.24,2.29-.33,3.72s-.2,3-.34,4.58a32.88,32.88,0,0,1-.53,4c0-.12-.11-1.69-.17-2.56a15.34,15.34,0,0,0-.25-2.2,16.38,16.38,0,0,1-.15,3.56c-.1.37-.22,0-.32-.3a7.35,7.35,0,0,0-.36-2.21,46.07,46.07,0,0,0-.22,4.81c0-.84-.08-4,0-4.87a31.15,31.15,0,0,1-2.27-6.19c-.42-1.44-.84-3-1.25-4.62l-2.18-8.93-6.15-.39L58.91,401l-4.65-.36c-2.11-.16-4.23-.32-6.32-.43l-1.75.2-.21,0s-.08,0-.1,0v.13l0,.55.08,1.07.3,4c.08,1.29.21,2.56.29,3.8.1,1,.19,1.94.29,2.91.38,3.74.72,7.54,1.21,11.34a92.59,92.59,0,0,0,2.09,11.31,49.2,49.2,0,0,0,4.06,10.61l-.58.12c4.13,8.73,8.75,17.53,15.61,24.86a49.74,49.74,0,0,0,11.77,9.36,44.51,44.51,0,0,0,14.17,5.17l.78.2.42.1h1.94l2.77,0c1.79,0,3.51-.09,5.23-.17,3.43-.15,6.87-.33,11-.35l.21.73c13.85-2.78,29.11,2.51,43.55-.56l-1,1c2.11-1.46,8,.31,7.95-1.7h1.2l1.28.4c.45-.16.88-.28,1.32-.4H188a43.61,43.61,0,0,0,10.78,0h1.32l-.47.37c.92-.14,1.9-.27,2.87-.37h6l.42.07c-.37.09-.2.28-1,.44,10,2.48,21.17-.26,31.74-.16l-1.2,1.17c5.11-1.37,14.48-.1,21.19-.73l-.41.55,3.4-.77.09,1.1c8.74.08,17-.88,25.49-1l-.44,1c7.93-1.79,16.88,0,25.27-.75l-.56.35c15.46.28,30-.52,45-1.27h45.2C388.42,477.07,355.19,450.69,358.27,403.91Zm-6.06-3.13v0h-2.91A14.11,14.11,0,0,1,352.21,400.78ZM340.52,400l.42-.79c3.12-.22.37.9,2.78,1.22.9-.1.34-1.44,2.23-1,.12.95.83,1.27,1.77,1.36H337.16C338.51,399.9,339.74,399.06,340.52,400Zm-8.73.8h-2.47A6.61,6.61,0,0,1,331.79,400.8Zm-59.58,8.38c1.27,2.47,2.74,5.43,4.4,8.91,1.4,4.28,2.82,8.33,4,11.52,1.25,3.38,2.56,6.74,3.9,10.08l1.8,4.38L288,448l3,7c1.09-5,2-9.11,3.22-13.27.36-1.24.73-2.48,1.09-3.72.42-1.43.86-2.84,1.32-4.25.91-2.83,1.89-5.62,3-8.38a51,51,0,0,1,2.78-12.14c.68-2,1.45-4.05,2.24-6.1l.23-.59-13.54,53.57-19.07-50.21-.88,2.59Zm-30.55-6.6,1,.15-25.38.17C225.91,402,234.49,401.17,241.66,402.58Zm-51.31.5-20.21.13C176.92,402.89,183.67,402.77,190.35,403.08Z" transform="translate(-45.88 -17.25)"/><path class="cls-1" d="M180.42,398.13H181A2.88,2.88,0,0,0,180.42,398.13Z" transform="translate(-45.88 -17.25)"/><path class="cls-1" d="M348.3,395.94c-.08-.22-.73-.17-1.07-.22C347.63,395.79,348,395.85,348.3,395.94Z" transform="translate(-45.88 -17.25)"/><path class="cls-1" d="M472.42,90.21l1.17.41a5.57,5.57,0,0,1-.7-3.49,12.16,12.16,0,0,0-.27-3.9l.56.11-.87-1.13,1.1-.12a17.84,17.84,0,0,0-.88-4.44c-.42-1.44-.87-2.86-1.22-4.31h1a7.41,7.41,0,0,1-1.58-4.16,10.55,10.55,0,0,0-1.12-4.36l.39.1c-.22-.92-.47-1.82-.74-2.7s-.69-1.72-1.06-2.55a33.84,33.84,0,0,0-2.64-4.76,24.54,24.54,0,0,0-1.6-2.19c-.42-.53-.83-1.07-1.25-1.59C455.2,38.89,442.11,29.93,420,29.7a2.78,2.78,0,0,0-2.42-.77l.93.79a5.08,5.08,0,0,1-1.51-.35c-.85,1.22-2.46.58-3.6,1.2a.17.17,0,0,1,.11.06c.93,1.3-.26,1.81-.7,2.23l-.7-.09c-1.41-.29,1.69,2.71-.26,1.26a34.37,34.37,0,0,1-1.57,4.53c-.6,1.54-1.31,3.08-1.94,4.62.65.79-1.06,2.32.83,2.33a4.48,4.48,0,0,0-3.84,3c-.16-.1-.34-.21-.22-.32-3.06.74,1.47,2.84-2.09,3.29,2,1-1.74,2.63.42,4.42a2.39,2.39,0,0,1-1.33-.26c-.52,1.42-1.28,2.84-2,4.24s-1.35,2.74-1.79,3.95c1.17,2.65-2.37,4.87-.29,7.42a17.73,17.73,0,0,0-1.69,2.54,5.18,5.18,0,0,0-.5,3.35l-.27-.29c-.45,2.43-1.06,5.45.3,7.46-2.68.16-2.39,1.32-3.42,2.2a8.07,8.07,0,0,1,.3,3.54,16,16,0,0,0,.24,4.16c-1.24.18.17,2.12-1.57,2A21.27,21.27,0,0,1,392,99a21.63,21.63,0,0,1,.31,2.89,26.88,26.88,0,0,1-.4,5.85c-.15,1-.3,2-.51,3L391,113l-.48,2.51c-.24,3-3.24,8.76,1.44,8.08l-.3.11a22.38,22.38,0,0,0,4.09-1.89c1.3-.75,2.39-1.54,3.21-2.12a.31.31,0,0,1-.3.42,4.94,4.94,0,0,1,2.63.63,2.84,2.84,0,0,0,1.94.61c0,.29,0,.29-.25.56,1.28-.73,2.53,1.49,4.06.2l.07.46,1-.6c0,.47-.09,1.15-.4,1.24a82.23,82.23,0,0,0,10.54.11l5.55-.3,8.57-.23.57-5.38.51-4.52c.25-2.25.58-4.48,1-6.68l.47.51-.59-2.41a.82.82,0,0,1,.51.32c1-1.8.79-3.83.77-5.8.62,3.19.62,6.56,2.52,9.49l-.58.06a20.81,20.81,0,0,1,1.69,5.46,61.64,61.64,0,0,1,.7,6.26c1.54.19,3.18.39,4.91.55.92.08,1.61.14,2.37.17s1.5.06,2.25,0c2.83.35,4.77-.27,7.62-.19l0,.73a6.56,6.56,0,0,1,3.71-.69,13.64,13.64,0,0,1,1.88.31l2.09.5a25.66,25.66,0,0,0,4.9.76h.3c.08,0,.25.06.23-.09s.08-.4.11-.61a10.84,10.84,0,0,0,.12-1.29,9.7,9.7,0,0,0-.24-2.67c.28.3.55.61.82.93a2.73,2.73,0,0,1-.19-2.34c.11-.63.09-1.14-.84-1.32,0-.13,0-.27.07-.4l.46-.38c-.12-.17-.22-.34-.32-.51.27-1.63.54-3.5.8-5.56a5.22,5.22,0,0,0,.41-3.69c0-.16,0-.31,0-.47l.35.2c-.1-.33-.2-.68-.27-1,.06-.69.11-1.39.17-2.1a.75.75,0,0,1,.07-.12c.09.13.27.09.42.36,1.39-1.64,1.39-3.52,1.13-5.41A33.19,33.19,0,0,1,472.42,90.21ZM418.31,31.57q-.22.41-.48.9A1.55,1.55,0,0,1,418.31,31.57Zm-1.71,2.49c.06-.33-1.23-.76-.53-1.15.85.4,1.26.33,1.49.08-.47.92-1,2-1.63,3.27-.61-.82-1.17-1.57-.2-1.4l-.64-.48C415.37,33.3,416,34.67,416.6,34.06ZM415.11,38l-.35.74A.82.82,0,0,1,415.11,38ZM401.16,73.45c.54-2.24.9-4.54,1.38-6.79A49.12,49.12,0,0,1,404.4,60a22,22,0,0,1,3.43-6c-.17-2.33,1.18-4.23,2.81-6l.09-.09a225.58,225.58,0,0,0-11.47,36.89c-.06-1.57-.13-3.16-.13-4.74A38.59,38.59,0,0,0,401.16,73.45Zm-6.55,44.07-.11-.45c-.07-.31-.13-.63-.19-1a14.36,14.36,0,0,1-.17-2.24,10.76,10.76,0,0,1,.26-2.34,5.28,5.28,0,0,1,.84-1.9l.17-.32c-.27,2.77-.48,5.57-.63,8.43h.33l-.18,0C394.6,117.88,394.66,117.66,394.61,117.52Zm9.83.58,7,.27A26,26,0,0,1,404.44,118.1Z" transform="translate(-45.88 -17.25)"/><path class="cls-1" d="M407.67,123.24l-.21,0A.32.32,0,0,0,407.67,123.24Z" transform="translate(-45.88 -17.25)"/><path class="cls-1" d="M413,30.81a1.87,1.87,0,0,1,.38-.24C413.13,30.49,413.07,30.72,413,30.81Z" transform="translate(-45.88 -17.25)"/><path class="cls-1" d="M285,248.75h-.33A.88.88,0,0,0,285,248.75Z" transform="translate(-45.88 -17.25)"/><path class="cls-1" d="M123.34,254.91a4.69,4.69,0,0,1-.6-.2C122.79,254.93,123.15,254.87,123.34,254.91Z" transform="translate(-45.88 -17.25)"/><path class="cls-1" d="M271,117.21h-.28A.53.53,0,0,0,271,117.21Z" transform="translate(-45.88 -17.25)"/><path class="cls-1" d="M135.59,123.46a2.48,2.48,0,0,1-.5-.2C135.13,123.48,135.43,123.42,135.59,123.46Z" transform="translate(-45.88 -17.25)"/><path class="cls-1" d="M262.17,158.27h-.33A.88.88,0,0,0,262.17,158.27Z" transform="translate(-45.88 -17.25)"/><path class="cls-1" d="M100.52,164.43a3.52,3.52,0,0,1-.6-.2C100,164.45,100.33,164.39,100.52,164.43Z" transform="translate(-45.88 -17.25)"/><path class="cls-1" d="M270.13,201.9h-.33A.73.73,0,0,0,270.13,201.9Z" transform="translate(-45.88 -17.25)"/><path class="cls-1" d="M108.48,208.06a4.69,4.69,0,0,1-.6-.2C107.93,208.08,108.29,208,108.48,208.06Z" transform="translate(-45.88 -17.25)"/><path class="cls-1" d="M61.79,184.18c0-.29-.1-.58-.14-.87A5.87,5.87,0,0,0,61.79,184.18Z" transform="translate(-45.88 -17.25)"/><path class="cls-1" d="M437.47,353c-.36-3.33-.5-6.74-.86-10.15a144.26,144.26,0,0,0-2.77-20.37l.51.84a262.7,262.7,0,0,0-10.3-42.11c-2.87-8.69-6.1-17.24-9.6-25.74-1.78-4.72-3.66-9.49-5.69-14.34,0,0-53.9-86-2.74-208.43,1-.22,1.6-.55,1.38-1,.75-1.63,4.05-3-1-4.37l-1.05,1.18c-1.69-1.23-1.29-.63-1.89-1.53-6.65-.3-7.5-2.05-12.26-2.87.05,0,.09.07,0,.13-3.29,1.37-7.78.43-10.36.18l-1-.69c-1.54-1.43-7.62,2.57-5.55.22-13.53.32-29,0-44.14-.29-2.14.87-11.57-.31-8.3,1.51-3.75-2.07-15-2.8-19.16-2.81.16-.18.35-.39,1-.3-8.05-2.75-9.65,2.2-17.18-1.12-1.23,2.21-13.77-1-18.12,1.56-.92-.52-1.23-1-.88-1.36-13.66-.33-28.74-1.43-40.3-1.76-9.92,1.76-23.9-1.37-32.45,1.17-7-.72-18.4-2.07-28.25-1.18l1-.31c-11.09-.06-24.95-.2-32.59,1.35-3.22-2.66-8-2.23-12.8-3.16a137.57,137.57,0,0,1-15.38.7l-9.31.15c-1.55,0-3.09.09-4.6.16l-2.23.11c-1.25,0-2.49.06-3.65.13a6.74,6.74,0,0,0-1.65-.31c-.33,0-.7-.06-1.08-.07l-.3,0c-.08,0-.11.15-.17.23l-.33.51c-.87,1.42-1.86,3.14-2.72,4.87l-.84,1.67c-.24.46-.48.89-.71,1.25-.48.72-.92,1.17-1.38,1.12C75,35.54,72.41,43.72,70,52.21s-4.5,17.28-6.36,26.2-3.41,18-4.64,27c-.69,4.49-1.1,9-1.65,13.4-.36,4.43-.89,8.82-1.12,13.13l-.12-.5a61.12,61.12,0,0,0,2.09,7c.9,2.38,1.82,4.75,2.53,7-.14.45-.43.41-.46-.53a75.54,75.54,0,0,1,0,9.15c-.06,1.51-.12,3-.12,4.56a35.89,35.89,0,0,0,.41,4.59c-.29,0-.29,0-.68-1,.73,2.87.64,5.92.8,9.09A34.79,34.79,0,0,0,62.32,181l-.39.46,1.41,4.22c-.5,0-1.21,0-1.55-1.51a289.85,289.85,0,0,0,9,38.66l1.5,4.88.75,2.44.84,2.42,3.37,9.66c2.39,6.38,5,12.72,7.33,18.95,4.7,12.61,9.07,25.44,13,38.41A384.19,384.19,0,0,1,107.32,339l-.91-1.84,1.47,5,1.39,5.06c-.3,0-.52-.47-.74-.94.65,6.64,1.74,13.29,2.56,19.92.41,3.32.74,6.63.89,9.91,0,1.64.15,3.28.07,4.89,0,.8,0,1.61-.08,2.41a11.69,11.69,0,0,1-.08,1.19l-.14,1.28c-.07,0-.13-.27-.21-.43a4,4,0,0,0-.27-.5c-.18-.27-.4-.33-.64.54a38.24,38.24,0,0,1-.29,5.38c-.17,1.65-.39,3.22-.64,4.77l-.1.57v.08h.47l1.08,0,2.09.11,4,.23,1.93.09,1.81.06a17,17,0,0,0,2.16-.06,8.37,8.37,0,0,0,3.88-1.35c.45.15.76.88-.23,1.14,27-1.13,54.67-1.12,81.85-.65a193.91,193.91,0,0,1,20.59-1.45c3.51-.09,7.05-.13,10.6-.15h9.62l2.21,4.07q1.48,2.67,2.95,5.34c2.33,4.18,4.64,8.21,6.75,11.64,1.13-2.82,2.18-5.54,3.12-8.14l.25.87q1.86-4.68,3.76-9.44l1.65-4q.9-2.1,1.81-4.22c5.6,12.29,11.36,26.69,18.55,44.12q2.08-7.89,4.16-15.76,1-3.86,2-7.69l1.71-7c.57-2.11,1.08-4.1,1.56-6,.19-.81.39-1.61.58-2.38s.34-1.49.5-2.2l10.55-.28c3.78-.1,7.69-.19,12.08-.2l.33.73A136.23,136.23,0,0,1,344,393c3.41.08,6.86.23,10.32.4,3.71.19,6.31.32,8.81.55-.17,1-.34,1.95-.46,2.88l-.37,2.83c-.07.61-.15,1.21-.2,1.82l-.1,1.84-.15,3.66c0,1.23.05,2.45.09,3.67s.08,2.43.26,3.64a50.45,50.45,0,0,0,1.26,7.15l-1.17-1.5a11.61,11.61,0,0,1,1,3.63c.25,1.46.52,3.05.77,4.48.48,2.53,1.1,4.51,2,4.28.15.64.32,1.27.49,1.89s.12,1.35.18,2c.31.6.63,1.18.94,1.76a68.62,68.62,0,0,0,12.47,22.78,49.72,49.72,0,0,0,4.09,4.91,40,40,0,0,0,8.46,6.73c.57.41,1.14.8,1.69,1.17-.27,0-.54-.06-.81-.11,1.26.7,2.58,1.39,3.91,2.06a61,61,0,0,0,8.87,4.36l.55.28c-.58-.12-.31.19-1.57-.14a27.16,27.16,0,0,0,2.47,1.28c.44.2.89.39,1.35.58l.71.27.37.14c.11,0,.26.13.33,0,.6-.81,1.22-1.68,1.83-2.59.3-.45.62-.91.92-1.39l.87-1.4c1-1.62,1.91-3.29,2.76-5a103.15,103.15,0,0,0,4.55-10.68c2.67-7.33,4.73-14.88,6.89-22.19l.58,2.18c.23-2.08.81-4.5,1.38-7.17.3-1.34.64-2.73,1-4.15s.67-2.91,1-4.41l.54-2.25.47-2.28c.31-1.52.62-3,.92-4.54.51-3,1-5.94,1.2-8.63l.45.73-.07-5.52H437c.25-1.75.41-3.49.55-5.22s.27-3.45.4-5.16c.12-3.44.28-6.83.27-10.22,0-6.79-.22-13.51-.57-20.34l1,.68C438.13,359.62,437.86,356.34,437.47,353ZM140,122.86a94,94,0,0,1,12.76-1.17c.57-.94,3.35-.07,2.32-1.78,1.18,2,4.47,2.3,5.67,2.17,0,.19-.08.4-.27.34,2.46,2.48,2.67-2.52,5,.54.24-2.25,4,.53,5.15-2.15a1.87,1.87,0,0,1,.32,1.33c4-.13,8.37.47,11.73.42,2.77-2.09,7,.57,9.31-2.25,2.07.48,5.42,1.46,8.21.24l-.26.35c3.21-.31,7.22-.63,9.34-2.43,1.07,2.55,2.43,2,3.86,2.73,2.09-1.3,6.44-1.14,9.66-2.38.56,1.17,2.68-.63,2.92,1.09,9-3.76,20.41-3.11,30.32-1l-.14.13c1.23-1,2.6-3.18,3.84-4.47.13.15.13.44-.14.44,1.77-.4,3.52,1.23,5.29.83,0,.28,0,.28-.28.57,1.64-.85,3.53,1.23,5.45-.2l.13.45,1.23-.7c0,.48,0,1.16-.42,1.28,15.29-.18,30.91-3.84,46.6-4.13l-.56.57,3-1.11a.75.75,0,0,1-.29.57c3.94.8,7.91-1,11.71-.93,0,.28-.55.86,0,1.15,2.73-1.69,4.6,1.83,5.86-1.49a1.13,1.13,0,0,1,0,1.15c.88-.16,1.75-.31,2.64-.44l1.32-.19c.27,0,.27-.06.41-.08l.33-.07c.88-.17,1.88-.3,2.87-.39.07,1.09.09,2.3.05,3.45l-.06,3.27v.32l0,.2,0,.4-.08.76a8.23,8.23,0,0,1,1.06,2.47,7.24,7.24,0,0,1-2.58.61l-.78.06-.88,0-2.22.1a26.74,26.74,0,0,0-8.74,1.48v-.59c-8.72,2.46-18.18.69-27.3,1.52-3.8-.06-6.33.75-10.15,1l-.12-.73c-6.3,3.08-13.61-1.88-20.17,1.49l.42-1c-.92,1.5-3.73-.14-3.61,1.87l-.56,0-.61-.37c-.2.16-.39.29-.59.43l-7.49.34a9.46,9.46,0,0,0-5,.23l-.61,0,.2-.39c-.42.16-.87.31-1.31.44l-2.78.12a1.17,1.17,0,0,1-.2-.06c.16-.1.08-.28.42-.46-4.76-2.27-9.8.7-14.7.83l.5-1.19c-2.3,1.48-6.71.4-9.79,1.17l.16-.55-1.54.84-.09-1.1c-4.05.11-7.82,1.23-11.77,1.54l.16-1c-3.59,1.94-7.82.32-11.68,1.28l.25-.37c-7.18,0-13.91,1.16-20.79,2.23l-51.39,2.34-.3-14.66a3.23,3.23,0,0,0,.37.37l.25-1.21c.55,1.17.4.58.62,1.47,1.93.07,2.27,1.79,3.69,2.45a.17.17,0,0,1,0-.13c.88-1.47,2.23-.68,3-.51l.33.65C138.9,124.64,140.45,120.45,140,122.86ZM288.19,257.51l-.72-.38a7.91,7.91,0,0,1-.71.43l-8.95.34a13.36,13.36,0,0,0-6,.23l-.73,0,.25-.38c-.51.16-1.05.31-1.58.43l-3.32.13-.24-.07c.2-.1.1-.28.52-.46-5.64-2.27-11.71.7-17.56.83l.62-1.19c-2.77,1.47-8,.39-11.7,1.16l.21-.56-1.85.85-.1-1.11c-4.83.11-9.35,1.24-14.06,1.54l.2-1c-4.32,1.94-9.34.32-14,1.27l.31-.37c-8.57,0-16.61,1.15-24.84,2.21L117.2,264l-.27-12.29a3.21,3.21,0,0,0,.43.33l.3-1.2c.64,1.17.48.58.72,1.47,2.31.07,2.68,1.79,4.36,2.45a.14.14,0,0,1,0-.13c1.07-1.47,2.66-.68,3.56-.51l.39.65c.59,1.37,2.51-2.82,1.9-.4a131.74,131.74,0,0,1,15.25-1.17c.69-.94,4-.07,2.79-1.78,1.39,1.95,5.3,2.31,6.74,2.18-.05.18-.1.4-.33.33,2.9,2.48,3.23-2.51,6,.55.33-2.25,4.8.53,6.19-2.15a1.63,1.63,0,0,1,.36,1.33c4.73-.13,10,.48,14,.43,3.35-2.09,8.31.58,11.15-2.24,2.46.48,6.44,1.46,9.8.25l-.32.34c3.83-.3,8.61-.62,11.18-2.42,1.23,2.55,2.87,2,4.56,2.73,2.51-1.29,7.7-1.14,11.56-2.37.65,1.17,3.21-.63,3.47,1.1,10.82-3.77,24.4-3.1,36.19-1l-.17.13c1.48-1,3.15-3.18,4.65-4.47.16.14.15.43-.17.43,2.12-.4,4.18,1.23,6.3.83,0,.29,0,.29-.34.58,2-.85,4.19,1.23,6.5-.2l.15.45,1.47-.7c0,.48,0,1.16-.52,1.28,18.25-.17,36.94-3.82,55.67-4.09l-.67.57,3.61-1.12a.74.74,0,0,1-.35.58c4.69.8,9.45-1,14-.93,0,.28-.68.86,0,1.15,3.29-1.69,5.46,1.83,7-1.48a1,1,0,0,1,0,1.15c3-.46,6-.81,9-1.05l3.68-.27c.82-.06,1.64-.09,2.44-.1,0,.92,0,1.84-.07,2.72l0,.65,0,1.19c0,.47-.07.84-.1,1.23a9.64,9.64,0,0,1,1.07,2.77,10.87,10.87,0,0,1-3.18.61l-1,.07-1.32.06-2.64.09A38.07,38.07,0,0,0,361.6,254l0-.59c-10.45,2.46-21.7.68-32.59,1.5-4.54-.06-7.58.75-12.13.95l-.14-.72c-7.56,3.07-16.2-1.9-24.08,1.47l.51-1c-1.11,1.5-4.44-.15-4.33,1.86ZM136.18,164c.33-2.25,4.8.53,6.18-2.15a1.61,1.61,0,0,1,.37,1.33c4.73-.13,10,.48,14,.43,3.35-2.08,8.31.58,11.15-2.24,2.45.48,6.44,1.46,9.79.25l-.31.34c3.83-.3,8.61-.62,11.18-2.42,1.23,2.55,2.87,2,4.56,2.73,2.51-1.29,7.69-1.13,11.56-2.37.64,1.17,3.2-.63,3.47,1.1,10.82-3.77,24.4-3.1,36.19-1l-.17.13c1.48-1,3.15-3.18,4.65-4.47a.24.24,0,0,1-.18.44c2.13-.41,4.19,1.22,6.31.83,0,.28,0,.28-.34.57,2-.85,4.18,1.23,6.5-.2l.14.45,1.48-.7c0,.49,0,1.16-.52,1.28,18.25-.17,36.94-3.81,55.66-4.09l-.67.57,3.62-1.11a.73.73,0,0,1-.35.57c4.68.8,9.45-1,14-.93,0,.28-.68.86,0,1.15,3.29-1.69,5.46,1.83,7-1.48a1,1,0,0,1,0,1.15c3-.46,6-.8,9-1l3.68-.27c.82-.05,1.64-.09,2.44-.1,0,.92,0,1.84-.07,2.72l0,.65,0,1.19c0,.47-.07.84-.1,1.23a9.59,9.59,0,0,1,1.07,2.78,11.24,11.24,0,0,1-3.18.6l-1,.07-1.32.06-2.64.09a38.07,38.07,0,0,0-10.45,1.48l0-.59c-10.45,2.46-21.7.68-32.59,1.5-4.54-.06-7.58.75-12.13,1l-.14-.73c-7.56,3.07-16.2-1.9-24.08,1.47l.51-1c-1.11,1.5-4.44-.14-4.33,1.87l-.67,0-.72-.37c-.24.16-.48.29-.71.43l-8.95.33a13.36,13.36,0,0,0-6,.23l-.73,0,.24-.38c-.5.16-1,.31-1.57.44l-3.32.12-.24-.07c.2-.1.1-.28.51-.46-5.63-2.27-11.7.7-17.55.83L227,167c-2.78,1.47-8,.39-11.7,1.16l.2-.56-1.85.85-.09-1.1c-4.84.1-9.35,1.23-14.06,1.54l.2-1c-4.32,1.94-9.34.32-14,1.27l.3-.36c-8.56,0-16.6,1.14-24.83,2.21l-66.83,2.51-.26-12.29a3.86,3.86,0,0,0,.42.34l.31-1.21c.64,1.17.48.58.72,1.47,2.31.07,2.68,1.79,4.36,2.45a.12.12,0,0,1,0-.13c1.07-1.47,2.66-.68,3.56-.51l.39.65c.59,1.37,2.51-2.82,1.9-.4A134,134,0,0,1,121,162.67c.69-.93,4-.07,2.79-1.77,1.39,1.94,5.29,2.3,6.74,2.17,0,.19-.11.4-.33.34C133.1,165.89,133.44,160.89,136.18,164Zm189.61,33.86-.67.57,3.62-1.12a.75.75,0,0,1-.35.58c4.68.8,9.45-1,14-.93,0,.28-.68.86,0,1.15,3.29-1.69,5.46,1.83,7-1.48a1,1,0,0,1,0,1.15c3-.46,6-.81,9-1l3.68-.27c.82-.06,1.64-.09,2.44-.1,0,.92,0,1.84-.07,2.72l0,.65,0,1.19c0,.47-.07.84-.11,1.23a9.36,9.36,0,0,1,1.08,2.77,10.87,10.87,0,0,1-3.18.61l-1,.07-1.32,0-2.64.1a38.07,38.07,0,0,0-10.45,1.48l0-.59c-10.45,2.45-21.7.68-32.59,1.5-4.54-.06-7.58.74-12.13.95l-.14-.72c-7.56,3.07-16.2-1.9-24.08,1.47l.51-1c-1.11,1.5-4.44-.15-4.34,1.86l-.66,0-.72-.38a6.83,6.83,0,0,1-.72.43l-8.94.34a13.54,13.54,0,0,0-6,.22l-.72,0,.24-.38c-.51.16-1,.31-1.57.43l-3.32.13-.24-.07c.2-.1.1-.28.51-.46-5.63-2.27-11.7.7-17.55.83l.62-1.19c-2.78,1.47-8,.39-11.7,1.16l.2-.56-1.85.85-.09-1.11c-4.84.11-9.35,1.24-14.07,1.54l.21-1c-4.32,1.95-9.34.33-14,1.28l.3-.37c-8.56,0-16.6,1.15-24.83,2.21l-66.83,2.52-.26-12.3a3,3,0,0,0,.42.34l.31-1.2c.64,1.17.48.58.72,1.46,2.31.08,2.68,1.8,4.36,2.46a.12.12,0,0,1,0-.13c1.07-1.47,2.66-.68,3.56-.51l.39.65c.59,1.37,2.51-2.82,1.9-.4A131.74,131.74,0,0,1,129,206.3c.69-.94,4-.07,2.79-1.78,1.39,1.95,5.29,2.31,6.74,2.18-.05.18-.11.4-.33.33,2.89,2.48,3.23-2.52,6,.55.33-2.25,4.8.53,6.18-2.15a1.6,1.6,0,0,1,.37,1.33c4.73-.13,10,.48,14,.43,3.35-2.09,8.31.58,11.15-2.24,2.45.48,6.44,1.46,9.79.25l-.31.34c3.83-.3,8.61-.62,11.18-2.42,1.23,2.55,2.87,2,4.56,2.73,2.51-1.3,7.69-1.14,11.56-2.38.64,1.18,3.2-.62,3.47,1.11,10.82-3.77,24.4-3.11,36.18-1l-.16.13c1.48-1,3.15-3.19,4.65-4.47.15.14.15.43-.18.43,2.13-.4,4.19,1.23,6.31.83,0,.29,0,.29-.34.58,2-.85,4.18,1.23,6.49-.2l.15.45,1.48-.7c0,.48,0,1.16-.52,1.28C288.38,201.73,307.07,198.08,325.79,197.81ZM122,249.88a4.2,4.2,0,0,1-1.68.06Zm6.72-.26c-.71.93-1.36,1.8-1.83.87l-.2.8c-1.72.29-.24-.89-1.58-1.16-.5.12-.14,1.45-1.2,1-.11-.95-.51-1.26-1-1.33Zm4.34-.16a2,2,0,0,1-1.37,0Zm78-2.94c-2.46.48-4.93,1-7.41,1.49-14.77-1-29.31,3.53-43.68.91-3.41,1.16-7.07.62-10.83-.06Zm53.42-2c-4.77,1-9.49,2-13.49.66l-.61-.13ZM107.14,203a4.25,4.25,0,0,1-1.69.06Zm6.72-.26c-.72.93-1.36,1.8-1.83.87l-.2.8c-1.72.29-.24-.89-1.58-1.16-.5.12-.14,1.45-1.21,1-.1-.95-.5-1.26-1-1.33Zm4.34-.16a2,2,0,0,1-1.37,0Zm78-2.94c-2.46.48-4.93,1-7.41,1.49-14.77-1-29.32,3.53-43.68.91-3.41,1.16-7.07.62-10.83-.07Zm39.93-1.35-.62-.13,14.11-.53C244.81,198.64,240.09,199.63,236.09,198.32Zm31.6-45.27a66.63,66.63,0,0,1-11.19.42Zm-26.07,1c-4.77,1-9.49,2-13.49.66l-.61-.13Zm-132.75,5,1.37-.05A2,2,0,0,1,108.87,159Zm-4.8,1-.2.8c-1.72.29-.24-.89-1.58-1.16-.5.12-.14,1.45-1.21,1-.1-.94-.5-1.26-1-1.32l5.85-.23C105.18,160.07,104.54,160.94,104.07,160Zm-6.58-.55,1.69-.06A4.07,4.07,0,0,1,97.49,159.46ZM279.33,244l11.18-.42A66.55,66.55,0,0,1,279.33,244ZM264.46,197.1l11.19-.42A66.63,66.63,0,0,1,264.46,197.1ZM133,118.49l1.4-.06A2.7,2.7,0,0,1,133,118.49ZM188.2,156l-7.41,1.49c-14.77-1-29.31,3.53-43.68.91-3.41,1.16-7.07.63-10.83-.06Zm78-43.63,9.37-.43A46.06,46.06,0,0,1,266.18,112.41Zm-23.76,1.24-.52-.13,11.81-.54C249.73,114,245.79,115,242.42,113.65Zm-39.64,2.86c-12.4-1-24.53,3.55-36.61.94-2.84,1.17-5.91.63-9.07-.06L209,115C206.91,115.51,204.85,116,202.78,116.51Zm-60.26,1.55,1.14,0A1.42,1.42,0,0,1,142.52,118.06Zm-4,1-.16.8c-1.44.29-.21-.89-1.35-1.16-.41.12-.09,1.45-1,1-.1-.94-.44-1.25-.88-1.32l4.9-.23C139.44,119.1,138.91,120,138.51,119ZM397.64,29.1l-4.92-.1A32.63,32.63,0,0,1,397.64,29.1Zm-19-1.17.68-.78c5-.13.57.91,4.42,1.3,1.46-.07.58-1.43,3.6-.92.17.93,1.24,1.29,2.69,1.42l-16.79-.33C375.46,27.76,377.44,27,378.67,27.93Zm-14,.51-3.95-.07A16.58,16.58,0,0,1,364.68,28.44Zm-81.56-2.09c10-.84,20.47,0,31.24,1.09L135.24,23.87c7.21-.24,14.43-.5,21.7-.77C199.44,25.49,242,22.37,283.12,26.35ZM65.8,86c.13-.48.27-.95.4-1.43a269.86,269.86,0,0,0-3.89,39.67v-.08C61.85,110.48,62.5,96.82,65.8,86Zm-1.34,81.92c1.14,9.47,2.76,19.33,5,29.58-.41-1.68-.82-3.36-1.2-5A215.62,215.62,0,0,1,64.46,167.88Z" transform="translate(-45.88 -17.25)"/><path class="cls-1" d="M391.19,24.11c-.12-.22-1.16-.19-1.71-.25C390.13,23.93,390.66,24,391.19,24.11Z" transform="translate(-45.88 -17.25)"/></svg>