<?xml version="1.0" encoding="utf-8"?>
<!-- Generator: Adobe Illustrator 26.0.2, SVG Export Plug-In . SVG Version: 6.00 Build 0)  -->
<svg version="1.1" id="Layer_1" xmlns="http://www.w3.org/2000/svg" xmlns:xlink="http://www.w3.org/1999/xlink" x="0px" y="0px"
	 viewBox="0 0 500 500" style="enable-background:new 0 0 500 500;" xml:space="preserve">
<style type="text/css">
	.st0{fill:#8C3712;}
</style>
<g>
	<g>
		<path class="st0" d="M133.8,110.7c0.4-0.4,0.7-0.9,0.7-1.4C134.3,109.8,133.9,110.4,133.8,110.7z"/>
	</g>
	<g>
		<path class="st0" d="M223.1,35.1c0.2-0.1,0.3-0.3,0.5-0.4c-0.1,0-0.2,0.1-0.3,0.1L223.1,35.1z"/>
	</g>
	<g>
		<path class="st0" d="M223.3,34.8l0.5-1.1C222.6,34.8,222.8,34.9,223.3,34.8z"/>
	</g>
	<g>
		<path class="st0" d="M215.3,105.9c-0.1,0.1-0.3,0.2-0.4,0.3C215.1,106.1,215.3,106,215.3,105.9z"/>
	</g>
	<g>
		<path class="st0" d="M223.2,104.4c0.7,0,1.2,0,1.8-0.1l0.1-0.1C224.8,104,223.7,104.3,223.2,104.4z"/>
	</g>
	<g>
		<path class="st0" d="M220,103.8l1.6-0.2C221,103.6,220.5,103.7,220,103.8z"/>
	</g>
	<g>
		<path class="st0" d="M213.6,106.8c0.5-0.2,0.9-0.4,1.3-0.6C214.2,106.4,213.1,106.5,213.6,106.8z"/>
	</g>
	<g>
		<path class="st0" d="M134.5,109c0,0.1,0,0.3,0,0.4C134.6,109.1,134.7,108.9,134.5,109z"/>
	</g>
	<g>
		<path class="st0" d="M265.4,27.2c1,0.5,2,1,3.1,1.5C266.3,27.2,265.5,27,265.4,27.2z"/>
	</g>
	<g>
		<path class="st0" d="M160.2,89.1c-0.4,0.3-0.8,0.6-1.3,1C159.5,89.7,159.9,89.4,160.2,89.1z"/>
	</g>
	<g>
		<path class="st0" d="M192.5,105.9c0.1-0.1,0.1-0.1,0.2-0.2l-0.3,0C192.5,105.8,192.5,105.9,192.5,105.9z"/>
	</g>
	<g>
		<path class="st0" d="M133.1,121.4c0,0.9,1.2,1.4,1.6,1.7c0.3-0.8,0.9-1.7-0.4-0.6l0.6-2.8c0.2-0.2,0.5-0.5,0.6-0.7
			c0.4-0.4,0.6-0.8,0.6-1.2c1.5-0.3,3.2-0.1,1.9,0.8c3.1-2.1,5-2.7,6.7-3.2c1.7-0.5,3.4-0.9,6.6-2.2c-1.7,0.8-0.6,1.7-4.1,2.2
			c1.8,0.5,4.6-0.4,7.7-1.5c3.2-1.1,6.8-2.3,10-2.4l2.2-1.9c3.7-1,4.2,0.3,1.6,1.3c6.5-0.4,9.8-1.7,14.7-2.5
			c0.3,0.1,0.2,0.3-0.3,0.4c2.2-0.3,4.5-0.6,6.7-0.9c0.7-0.4,3.2-1.4,2.5-2.3c-0.8,0.9-2.2,1.5-6.2,1.5c-1.4-1.7,4.1-0.6,3.6-2.3
			c-2.1,0.7-3.7,1.2-4.8,0.4c1.6-1.2,4.4-0.5,5.1-2.1l-3.2,1c-0.9-0.2-1-0.6-0.9-1c3.4-0.5,6.9-0.9,10.5-1.3
			c-3.1,0.9-3.2,2.4-4.1,3.6c2.8-0.4,5.7-0.8,8.5-1.2c0,1.2-5.3,1.5-6.8,2c-2.4,1.7,4.7,0.5,3.9,1.7c1.1-1,4.5-1.1,6.6-1.7l0.4,0.6
			c4,0.3,6.1-1.4,9.7-1.7c0.3,0.2,0.4,0.3,0.3,0.4c1.2-0.8,2.4-1.7,4.6-2.1l-1.7,0.2c2.8-1.6,9.5-2.8,6.4-4.1
			c1.7-0.1,3.4-0.2,5.1-0.2c0.9,0,1.9,0,2.8,0c-0.9,1.7-2.6,4.2-7.6,4.6l-0.5,0.7c3.8,0.7,10.6-1.7,8-3c3.7-4.1,13.4-0.6,19.8-2.2
			c0.5,1.1-3.1,1.5-4.6,2.3c-1.9,0.1-3.3,0.2-3.5-0.7c-8.3,0.8,1.7,3.3-7.5,3.2c-4.6-0.4,5.5-1.9-1.2-1.8l-4.7,3.1
			c4.1-0.2,7.9-0.8,11.2-1.3c9.2-1.2,17.2-1.2,22.8-0.9c5.6,0.3,8.9,0.8,8.9,0.8c13.6,0.3,27.2,1.1,40.7,2.7
			c6.7,0.8,13.4,1.8,20,3.1c6.6,1.3,13.1,2.9,19.4,4.9c4,1.2,6.6,2.2,8.7,2.8c2.1,0.6,3.8,0.7,6,0.3c-0.3-0.4-0.8-0.8-1.4-1.2
			c-0.6-0.4-1.2-0.8-1.8-1.2c-0.7-0.4-1.2-0.8-1.3-1c3.3,1.6,6.2,3.3,8.6,5.1c-0.5-0.5-10.8-10.5-25.4-23.9
			c-0.2-0.2-0.3-0.4-0.5-0.6l-0.1,0c-0.7-0.6-1.3-1.2-2-1.8c-0.1-0.1-0.1-0.2-0.2-0.3c0,0.1,0.1,0.1,0.1,0.2
			c-4.1-3.7-8.5-7.7-13-11.7c0.3,0.2,0.7,0.6,1.1,1l-3-3.5c-0.2,0.2-0.6,0.2-0.9,0.1c-0.9-0.8-1.8-1.6-2.7-2.4
			c0.5,0,0.7-0.4,0.4-1.1l-6.5-4.3c0.9,0.8,1.9,1.6,2.5,2.3c-1.8-1.5-3.6-3.1-5.4-4.6c-0.6-1-1.4-1.9-2.7-2.3
			c-1.5-1.3-3-2.6-4.6-3.9c0.8,0.4,1.5,0.7,2.2,1.1c-8-4.9-5.8-8.3-13.2-10.4l1.3,1.4c-1.7-1.4-3.4-2.7-5.1-4c1.1,0,2.5,0.5,4,1.1
			l-4.3-2.3l-0.7-2.7c-3.3-1.6-5.3-3.3-8-5.5l0.5,0.2c-2.3-4.2-7.4-4-11-7.5c0.5,0.2,0.3-0.1,1.3,0.2c-1.2-0.7-2.4-1.5-3.6-2.2
			l0.1-0.5c-0.4,1.1-4.3-0.8-6.4-1c-6.9-4-12.6-6.5-16.4-6.5c-8.2,0-24.8,11-43.3,25.7c1.2-1,2.6-2.1,4.5-4.3l-0.4,0.1
			c1.2-2.6,6.4-5.4,8.9-7.5c-0.6,1.4-3.5,3.6-5.3,5.3c1.7-0.9,4.3-2.8,6.7-4.9c2.4-2.1,4.7-4.3,5.6-5.9c1.9-1,6.2-2.8,3.9-0.6
			c3.3-1.9,3.6-2.7,3.9-3.6c0.3-0.8,0.5-1.6,3.6-2.9l0.3,1.3c1.8-0.4,3.5-1,5.1-1.7c1.6-0.7,3.2-1.4,5-1.8c1.8-0.5,3.8-0.4,5.5,0
			c1.7,0.4,3.4,1.2,4.8,2.2l1-1.2c1.1,1.2,3.7,2.9,3.9,3.7c-1.1-0.4-2.2-0.8-3.3-1.1c1,1.2,1.9,1.3,2.9,1.5c1,0.1,2.1,0.3,3.4,1.6
			c0.2-0.4-1.8-2.8-1.6-3.3c-3.4-1.6-6.7-3.2-10.5-4.4c-1-0.3-1.9-0.5-3-0.7c-0.5-0.1-1.1-0.1-1.6-0.2c-0.6,0-1.1,0-1.7,0.1
			c-2.2,0.2-4.1,0.7-5.9,1.4c-3.6,1.3-7,3-10.2,4.9c-3.2,1.9-6.2,4-9,6.4c0.6-0.2,1.2-0.4,1.1,0.1c-1.5,0.6-3.7,2.6-3.8,1.7l0.4-0.4
			c-2.9,2.5-6.8,3-8.7,4.4c-0.6,1.7-6.6,4.5-4.1,4.9l-2.7,0.6c-0.2,1,0.6,1.5-0.4,2.7c-2.1,1.5-2.6,1-1.3-0.7
			c-8.3,5.7-17.2,13.5-24.6,20.6l1.5-2.4c-2.2,1.3-5.8,7-5.6,4c-3.2,3.9-10.6,8.6-9.4,10.5c-3.9,0.6-9.6,7.4-14.5,12.3
			c2.2,0.6-3.8,4.3-4.6,6.2c-1.7-0.4,3.2-5.1,2.6-5.9c-3.7,6.6-15.6,12.3-15.1,17.2c-0.7,0.5-0.8,0.4-0.7,0.1
			c-1,0.9-2.8,1.7-3.9,2.6c-0.1,1,2.2-0.8,0,1.7c-2,1.7-1.7-0.1-2.8,0.3c-0.8,1-1.7,2.2-2.6,3.3l5.6,5.8
			C131,123.3,132.1,122.3,133.1,121.4z M357.7,112.7c0.9,0.3,1.6,0.7,1.2,0.4l-0.8-0.4c0.1-0.1,0.2-0.1,0.4-0.1
			c1.8,0.7,3.6,1.4,5.2,2.2c-1.6,0.1-4.3-0.7-7.8-2C355.8,112.2,356.8,112.4,357.7,112.7z M343.6,107.9c-0.1,0-0.1,0-0.2,0
			c-0.1-0.1-0.2-0.1-0.3-0.1C343.3,107.9,343.4,107.9,343.6,107.9z M305.3,101.6c0.1,0.3,0.5,0.6,1.4,0.8
			c-8.2-2.3-10.1,1.5-15.8,1.9l0.5-1c-4.7-0.2-6.1-0.2-10.2,0.1c-7.5-2.2,6.6,0,4.7-2.4l-2.2,0.3c0.5-0.4,1.1-0.8,1.8-1.3
			C292.2,100.4,298.9,100.9,305.3,101.6z M290.6,46.5c1.4,1.3,2.5,2.6,3,3.6c-3.6-2.8-7-5.4-10.4-7.9c0.3,0.2,0.6,0.4,1.1,0.7
			C283.3,39.8,288.3,46.2,290.6,46.5z M282.2,39.9c1.2,1.7-0.2,1.3,0,1.6c-1.9-1.4-3.7-2.7-5.5-3.9
			C278.3,37.8,279.6,37.6,282.2,39.9z M273.4,35c1.2,0.7,1.5,1.1,1.5,1.4c-0.7-0.5-1.4-0.9-2.1-1.4C273.1,35,273.2,35,273.4,35z
			 M269.4,32.7c0.6,0,1.1-0.1,2.3,1.5c-0.1,0-0.1,0-0.2,0c-0.8-0.5-1.6-1-2.3-1.5C269.3,32.7,269.3,32.7,269.4,32.7z M264.1,99.2
			c-0.7,0.4-1.8,0.6-3.7,0.8c-0.2-0.5-0.5-0.7-1-0.8C261,99.1,262.5,99.2,264.1,99.2z M254.7,99.1c1.1,0,2.3,0,3.4,0
			c-1.5,0.2-3.5,0.9-5.3,0.6C253.8,99.6,254.4,99.4,254.7,99.1z M210.6,100.8c-2.5,0.8-4.9,1.7-6.9,2.6c-0.6-0.9-0.9-1.4-1-1.9
			C205.3,101.2,207.9,101,210.6,100.8z M202.1,50.3c3-1.4,0.2,1.3,0.3,1.9l3.8-3.3c-0.3,1.6-2.1,3-2.7,4.2c-1,0.8-1.9,1.6-2.9,2.4
			C201.3,53.5,199.1,53.1,202.1,50.3z M137,115.8c-0.3,0-0.5,0-0.7-0.1c0.2-0.1,0.5-0.2,0.7-0.3C137.1,115.5,137.1,115.6,137,115.8z
			 M142.2,107.3c0-0.1,0-0.1,0.1-0.2c0.1,0,0.1,0,0.2-0.1C142.4,107.1,142.3,107.2,142.2,107.3z M160.3,110.2
			c-4.9-0.4-10.6,2.6-15.3,4.5c-0.5-0.8,0.9-2.1,1.1-2.9c0.8-0.3,1.5-0.5,2.3-0.7c0,0,0,0,0,0c1-0.2,1.9-0.5,2.7-0.8
			c1-0.3,2-0.6,3-0.8c2.2-0.5,4.4-0.9,6.3-1.6c1.5-0.4,3.1-0.7,4.8-1c0,0-0.1,0-0.1,0.1c0.1,0,0.1-0.1,0.2-0.1
			c0.7-0.1,1.4-0.3,2.2-0.4c0.9,0.1,1.4,0.6,3.1-0.3C169.8,108,163.2,108.5,160.3,110.2z M186.7,66.3l0.8-0.2l2-3.9
			c2.3-1.4,5-3,7.1-3.5c-1.9,1.5-3.7,3.1-5.6,4.7c-0.1-0.2-0.1-0.4-0.2-0.6c-1.9,1.5-1.5,1.6-1.1,1.7c-1,0.8-2,1.7-3,2.5
			C186.4,67,186.3,66.8,186.7,66.3z M178.7,72.3c0.8,0.1-0.9,1.3-1.5,2.1c3.3-1.3,2.3-2.3,3.5-4c2.2-1.7,4.9-3.6,5.6-2.9
			c-7,6-14,12.2-20.5,18.1c-0.1-0.3-0.2-0.6,0-1l-2.6,2.8C165.2,82.4,174,78.3,178.7,72.3z M150.6,99.1l-1.6,0.2
			c5.7-4.6,8.8-10.3,14-15.6c-1.3,1.9-0.6,3.3-2.9,5.4c1.6-1.1,2.2-1.1,2.4-0.8c-7.3,6.7-14,12.9-19.6,18.2
			c-0.2,0.1-0.5,0.3-0.7,0.4c0.1-0.3,0-0.5-0.1-0.5C144.7,106,148.3,99.3,150.6,99.1z M139.5,114.3c-0.4,0.4-0.7,0.8-1.3,1.3
			c-0.1,0-0.3,0.1-0.4,0.1c0.2-0.3,0.4-0.6,0.7-0.9C138.8,114.6,139.2,114.4,139.5,114.3z M137.9,109.5c0.1,0.2-0.1,0.9-0.3,1.5
			c-0.1,0.1-0.2,0.3-0.4,0.5c0.1-0.1,0.2-0.1,0.3-0.1c0,0.1,0,0.3,0,0.4c-0.9,0.8-1.7,1.6-2.5,2.4
			C135.8,112.6,135.7,111.2,137.9,109.5z M134.7,114.3l0,0.1c-0.3,0.3-0.6,0.6-0.9,0.9c0,0-0.1,0-0.1,0
			C134.1,115,134.4,114.6,134.7,114.3z M133.1,116C133.1,116,133.1,116,133.1,116C133,116.1,133,116.1,133.1,116
			C133,116.1,133,116.1,133.1,116z M127.1,121.1c0.9-0.5,2.3-1.9,3.1-2.2c-1.4,1.4-2.3,2.3-2.7,2.6L127.1,121.1l0.4,0.4c0,0,0,0,0,0
			c0,0,0,0,0,0l0.4,0.4c0,0,0,0,0,0L127.1,121.1C127.1,121.1,127.1,121.1,127.1,121.1z M126.5,120.6
			C126.5,120.6,126.5,120.5,126.5,120.6C126.5,120.6,126.5,120.6,126.5,120.6l1.8,1.9c0.1-0.4,0.2-0.6,0.1-0.7l1.3-2.1
			c-0.5,0.7-1,1.4-1.4,2.1c-0.1-0.1-0.3,0-0.6,0.2l-0.4-0.4c0.7-0.7,1.5-1.3,2.4-2l-0.1,0.1c0-0.1,0.1-0.1,0.2-0.2
			c0.5-0.4,1-0.7,1.6-1.1c-0.2,0.6-0.3,1.2-0.7,1.8c-0.4,0.7-1.1,1.3-2.5,2.3L126.5,120.6z"/>
	</g>
	<g>
		<path class="st0" d="M370.5,122.2l-3.4-2.6l0.5,1.3c-0.1,0-0.2,0-0.2,0c-0.6,0.2-0.1,0.7,0.6,1.1c0.7,0.5,1.7,1,2,1.4
			c0.2,0,0-0.7-0.4-1.3c0-0.1-0.1-0.1-0.1-0.2C370.1,122.3,370.7,122.6,370.5,122.2z"/>
	</g>
	<g>
		<path class="st0" d="M257.3,105.1c1.1-0.2,3.1,0.1,4.5,0.6C261.4,104.6,258.1,104.7,257.3,105.1z"/>
	</g>
	<g>
		<path class="st0" d="M314.8,114.6c-0.3,0-0.5-0.1-0.7-0.1C314.3,114.5,314.5,114.6,314.8,114.6z"/>
	</g>
	<g>
		<path class="st0" d="M344.5,120.5c0.2,0,0.4,0.1,0.6,0.1C344.8,120.5,344.6,120.5,344.5,120.5z"/>
	</g>
	<g>
		<path class="st0" d="M401.9,444.5c-2.3,2.3-1.6,0-2-0.9c-0.5,0,0.2-1.3,0.9-2.8c0.2-0.4,0.4-0.8,0.6-1.2c0.1-0.4,0.3-0.8,0.5-1.2
			c0.3-0.7,0.6-1.3,0.8-1.6c-0.8,2.2-0.5,2.2,0,1.8c0.4-0.4,1-1.1,0.5-0.1c0.5,0.1,0.9-0.3,1.4-1.1c2.3-5.3,4-11.8,5.3-19.2
			c-0.2-1.9-0.4-3.9,0.2-5.5v0.7c0.5-0.9,0.8-2.1,1-3.4c-0.3,2.8-0.7,5.6-1.2,8.2c0.2,1.8,0.3,3.4-0.4,4.3l0.3,0.6
			c-0.8,4-0.6,0.4-1.5,3.4c-0.3,1.2,0.7,0.6-0.2,2.9c-0.9,0-1.4,2.4-2.2,4.8c-0.4,1.2-0.8,2.3-1.3,3.1c0,0,0,0.1-0.1,0.1
			c-1,2.4-2.2,4.5-3.4,6.4C401,443.9,401.3,444.1,401.9,444.5c0.1-0.1,0.3-0.3,0.4-0.5l-0.1-1.1c1.3-0.9,0.8-0.8,1.5-1
			c1.4-2.4,2.1-3.8,2.9-5c0.8-1.2,1.5-2.1,2.3-4c0,0-0.1,0.1-0.1,0c0.1-2.8,1.5-6.3,2-8.4l0.6-0.8c0.5-0.6,0.5-2.1,0.4-3.4
			c-0.1-1.3-0.2-2,0.3-1.2c1.7-11,2.4-23.6,2.6-35.9c-0.5-1.8,0.1-9.4-0.9-6.7c1.1-3.1,1.2-12.2,1-15.6c0.1,0.1,0.2,0.3,0.2,0.8
			c1.2-6.6-1.6-7.7-0.2-14c-1.3-0.9-0.3-11.2-2-14.6c0.2-0.8,0.4-1.1,0.7-0.8c-0.9-11.1-1.6-23.2-2.6-32.5
			c-1.9-7.9-1.8-19.3-4.3-25.9c-0.5-5.7-1.2-14.9-3-22.6l0.3,0.8c-0.7-4.5-1.6-9.4-2.4-14c-0.2-1.2-0.5-2.2-0.7-3.4
			c-0.1-0.6-0.2-1.1-0.4-1.7c-0.1-0.4-0.1-0.3-0.1-0.4c0-0.1-0.1-0.2-0.1-0.2l0.1-0.2c0-0.1,0-0.1,0.2-0.4c0.2-0.5,0.5-0.9,0.7-1.4
			c0.4-0.9,0.7-1.8,1-2.5c2.4-1.9,3.7-5.9,5-9.8c0.1-0.8,0.2-1.6,0.3-2.6c0.1-1,0.3-2,0.4-3.1s0.2-2.2,0.3-3.5
			c0.1-1.2,0.1-2.4,0.1-3.7c0.1-2.5-0.1-5.2-0.2-7.8c-0.1-1.3-0.3-2.5-0.4-3.8c-0.2-1.3-0.3-2.4-0.5-3.6c0.2-0.8-0.1-2.6-0.4-4.5
			c-0.1-0.5-0.1-0.9-0.2-1.3c-0.1-0.4-0.1-0.8-0.2-1.2c-0.1-0.7,0-1.2,0.2-1.4c-0.4-1.6-0.8-3.2-1.3-4.8c-0.5-1.6-1-3.2-1.5-4.9
			c-0.2-0.8-0.5-1.6-0.7-2.4c-0.3-0.8-0.5-1.6-0.8-2.4c-0.5-1.7-1.1-3.3-1.5-5c-1.2-3.3-2.3-6.7-3.5-10.1c-0.7-1.7-1.3-3.4-1.9-5.1
			l-1-2.5l-0.2-0.6c0,0-0.1-0.2-0.1-0.3v-0.6l-0.2-0.9c-0.6-2.2-1.8-4.1-3.2-5.5c-1.4-1.5-2.9-2.7-4.6-3.8c-3.2-2.1-6.6-3.8-10-5.3
			c-6.8-2.9-13.7-5.2-20.3-7.1h0.4c-3.6-0.4-7.9-0.1-11.6-0.1c-0.2-0.1-0.2-0.2-0.1-0.2c-4.7-0.8-9-2.3-13.8-2.9
			c0.1-0.2,0.1-0.2,0.9-0.2c-4.7-0.3-9.5-2.1-15.2-2l-0.3-0.3h-3.5c0.1-0.2,0.2-0.6,1.4-0.6c-21.1-2.5-42.8-3.1-64.5-2.8
			c-22,0.3-44,1.7-66,3.9l1.6-0.5c-2.8,0.5-5.6,1-8.5,1.5c0-0.2,0.4-0.3,0.8-0.4c-10.9,0.8-22,3.4-32.4,5.5c0-0.2,1.6-0.8,0-0.7
			c-7.5,2.5-12.6,1.9-15.9,4.9c-0.4,0-0.8-0.3,0-0.7c-5,1.8-10.1,3.7-15,6.3c-2.4,1.4-4.8,2.8-6.9,4.9c-1.1,1-2,2.1-2.8,3.5
			c-0.4,0.7-0.8,1.4-1,2.2c-0.1,0.4-0.2,0.8-0.3,1.2c0,0.2-0.1,0.4-0.1,0.6v0.3l-0.6,1.9l-0.3,1.8l-1.2,4.1
			c-0.8,2.7-1.5,5.5-2.1,8.4c-1.4,5.5-2.5,11.2-3.5,16.8c-0.7,9.2-1.7,18.9-1.4,28.8c0.2,5,0.6,9.9,1.8,14.7c0.6,2.4,1.4,4.8,2.3,7
			c0.3,0.6,0.6,1.1,0.8,1.7l0.4,0.7c0.1,0.1,0.1,0.2,0.2,0.3l-0.1,0.4c-0.2,1.2-0.4,2.3-0.5,3.4l-0.3-0.2c-1,6.1-2.1,12.2-3.4,18.4
			c-0.2,1.2-0.4,2.3-0.6,3.5c-0.7,3.8-1.4,7.6-2,11.4c-0.2,1.3-0.5,2.6-0.7,3.9c-0.6,3.1-1,6.3-1.5,9.5l-1.4,9.5l-0.7,4.8l-0.5,4.8
			c-0.3,3.2-0.6,6.4-0.8,9.5c-0.6,5.2-0.7,9.7-0.8,14.2c-0.1,2.2-0.1,4.5-0.2,6.8c0,1.2-0.1,2.3-0.1,3.6v3.9l-0.4,0.3
			c0.2,3.3,0.3,6.6,0.3,10c0,1.2,0,2.5,0,3.7c0,1.6,0,3.1,0,4.7c0,3.2-0.1,6.3-0.1,9.5c0,4.8,0.1,9.5,0.4,14.3
			c0.1,2.3,0.4,4.8,0.6,7.1c0.3,2.3,0.6,4.7,1,7l-0.7-1.3c0.3,0.7,0.4,1.8,0.6,2.9c0.2,1.2,0.3,2.4,0.4,3.6c0.2,1.8,0.4,3.2,0.8,3.5
			c0.1,1,0.2,2,0.3,2.9l0,0.4c0,0.1,0.1,0.3,0.1,0.4c1.3,10.8,2.7,19.4,3.9,25.5c0.3,2.1,0.8,4.2,1.3,6.5c0.6,2.9,1,4.5,1,4.5
			c-0.2,0.1-0.3,0.2-0.4,0.3c0.1-0.2,0.2-0.3,0.2-0.4c-0.7,0.6-1.5,1.3-2.3,2c-0.1,0.1-0.2,0.1-0.2,0.2c-2.5,2.1-4.4,4.2-5.7,6.1
			c0.1-0.3,0-0.3,0.4-1c-2.2,2.4-3.9,5.6-4.2,9.2c-0.1,0.9-0.1,1.8,0,2.7c0.1,0.9,0.3,1.8,0.7,2.8c0.1,0.3,0.2,0.5,0.3,0.8
			c0.1,0.1,0.1,0.3,0.2,0.3l0.4,0.2c0.5,0.2,1,0.4,1.5,0.6c0.8,0.3,1.6,0.6,2.4,0.9c3.3,1.2,6.5,2.4,9.9,3.4c1.7,0.5,3.3,1,5,1.6
			c0.8,0.3,1.7,0.5,2.4,0.8c0.9,0.2,1.7,0.5,2.5,0.7l-1.7,0.2c1.7,0.3,3.6,0.7,5.7,1.3c2.1,0.5,4.5,1.3,6.9,1.8
			c4.9,1.1,9.8,2.4,14.2,3l-0.6,0.2l4.4,0.4v0.6c1.4,0.3,2.8,0.5,4.2,0.8c1.4,0.2,2.7,0.4,4.1,0.6c2.7,0.4,5.4,0.7,8.2,1.1
			c2.7,0.3,5.4,0.5,8.2,0.8c2.7,0.2,5.4,0.5,8.2,0.7l-0.6,0.5c5.2-0.1,10.6,0.5,16.1,0.9c2.7,0.2,5.5,0.4,8.3,0.6
			c2.7,0.1,5.5,0.2,8.3,0.2l-0.8,0.2c6.9,0.4,13.6,0.4,20.3,0.5c6.7-0.1,13.3-0.1,19.9-0.4c4.2-0.1,8.5-0.3,12.7-0.5
			C339,484.6,415,470.9,415,470.9C418.1,457.2,405.3,446.9,401.9,444.5z M225.5,485.4c0.1,0,0.3-0.1,0.8,0H225.5z M214.6,372.3
			l14.3,29l-6.8,3.4l-14.3-29l-24.5,12.1l20.2,40.9l-6.8,3.4l-20.2-40.9l-41.6,20.5l-3.4-6.8l41.6-20.5l-12.7-25.8l-30.5,15
			l-3.4-6.8l30.5-15l-14.7-29.8l6.8-3.4l14.7,29.8l24.5-12.1l-20.5-41.7l6.8-3.4l20.5,41.7l41.5-20.5l3.3,6.8l-41.5,20.5l12.7,25.8
			l30.4-15l3.4,6.8L214.6,372.3z M281,485.6c0.2,0,0.3-0.1,0.5-0.1C281.3,485.5,281.2,485.6,281,485.6z M284.2,485.4
			C284.2,485.4,284.2,485.4,284.2,485.4l0.2,0C284.3,485.4,284.3,485.4,284.2,485.4z M404.5,201l-0.2-3.4c-0.2-2.2-0.4-4.6-0.7-6.8
			c-0.4-2.2-0.6-4.5-1.1-6.7c-0.5-2.2-0.9-4.5-1.4-6.7l-1.5-6.7c-0.6-2.2-1.2-4.4-1.8-6.6c-0.3-1.1-0.6-2.2-1-3.3l-1-3.3l-1-3.3
			l-1.1-3.3l-1.1-3.3l-0.5-1.6l-0.3-0.9c-0.1-0.3-0.2-0.6-0.2-0.9c0-2.3-1.2-4.5-2.7-6.2c-0.3-0.3-0.6-0.6-0.9-0.9
			c-3.8-3.5-10.4-6.7-19.2-9.7c2.6,0.8,5.2,1.6,7.7,2.6c4.4,1.8,8.6,4,11.6,7c2.5,2.3,3.8,4.6,3.8,7c16.8,43.2,14.9,67.7,9.1,81.4
			c-0.7,1.9-1.5,3.7-2.6,5.5l-0.4,0.8l-0.2,0.4l-0.1,0.2c0,0.1,0,0.1,0,0.2l0.4,1.7l0.7,3.4c0.5,2.2,1,4.6,1.4,6.8
			c2.3,17,5,34,7.3,50.9c2.2,16.9,4,33.7,4.1,50.4c1,7.7,1.1,15.7,0.8,24c0.3,14.5-0.1,28.2-1.6,40.2c0.2-1.3,0.2-2.8,0.2-4.4
			c0-3.2-0.2-6.7,0.6-9.8l-0.4,0.6c0.3-8.9,0.9-17.9,1.2-26.6c-0.9-52.3-10.8-114.2-14.8-137.8c1.2-1.8,2.4-3.9,3.4-6.4
			c0.9-2.4,1.6-4.9,2.1-7.5c0.3-1.2,0.4-2.2,0.6-3.4l0.3-1.7c0.1-0.6,0.1-1.2,0.2-1.8c0.1-1.2,0.2-2.2,0.3-3.4v-3.4
			C404.6,203.3,404.6,202.2,404.5,201z M399.6,447c-0.1-0.1-0.2-0.3-0.3-0.4c0.5,0.2,1.2,0.6,1.8,0.9
			C400.6,447.3,400.1,447.1,399.6,447z M407.3,452.3c-0.4-0.8-1.4-1.2-2.3-1.7c-1.1-0.4-2.1-0.8-2.8-1.9c1.8,0.9,3.5,1.8,5.2,3
			C407.4,452,407.2,452,407.3,452.3z M408.2,453.7c0.1-0.5,0.6,0.1,1.1,0.9c0.5,0.8,1.1,1.6,1.5,1.8
			C410.3,456.2,409.3,455.7,408.2,453.7z"/>
	</g>
	<g>
		
			<rect x="172.2" y="347.6" transform="matrix(0.8969 -0.4422 0.4422 0.8969 -140.9283 119.4935)" class="st0" width="27.3" height="28.8"/>
	</g>
	<g>
		<path class="st0" d="M409.6,431.4c-0.2,0.5-0.4,0.9-0.6,1.4C409.2,432.6,409.5,431.9,409.6,431.4z"/>
	</g>
</g>
</svg>
