<?xml version="1.0" encoding="utf-8"?>
<!-- Generator: Adobe Illustrator 26.0.3, SVG Export Plug-In . SVG Version: 6.00 Build 0)  -->
<svg version="1.1" id="Layer_1" xmlns="http://www.w3.org/2000/svg" xmlns:xlink="http://www.w3.org/1999/xlink" x="0px" y="0px"
	 viewBox="0 0 500 500" style="enable-background:new 0 0 500 500;" xml:space="preserve">
<style type="text/css">
	.st0{fill:#8C3712;}
</style>
<path class="st0" d="M446.8,435.3c-0.1-1.9-0.1-2.5-1.1-2.5c-0.1,0-0.1,0-0.2,0v-15l1.2,0.6l-0.3-5.6l-0.9,0
	c0.1-4.6,0.1-10.8,0.1-17.4c0-9.6,0-20.5,0.2-28.2c0-0.7-0.1-1.4-0.1-2.2c-0.1-0.9-0.1-1.9-0.2-2.5v-25.4l0.1-7.6l-0.1,0V306
	c0.1-0.1,0.3-0.3,0.3-0.6l0.1-0.2l-0.2-6.3c0.2-0.4,0.2-0.9,0.2-1.3l0-0.4l-0.1-0.2c-0.1-0.3-0.2-1.1-0.3-2.7l0-10.5
	c0-0.5,0.1-1.1,0.1-1.6l0-0.1l0-0.1c0-0.6-0.1-1.1-0.1-1.5v-63.2h38.4L411.7,76l-0.3-0.5h-21.1c-0.3,0-0.6-0.1-0.8-0.1l1.2-1
	l-3.3,0.3c-1.8,0.2-3.9,0.2-6.3,0.2c-0.6,0-1.1,0-1.7,0c-0.6,0-1.2-0.1-1.9-0.1c-0.4,0-0.9-0.1-1.3-0.1c-0.1,0-0.2,0-0.3,0
	c0-0.3,0-0.5,0-0.8c0-0.3,0-0.3,0-0.5l0.1-0.2l0-1.3c0.1-1.7,0.1-3.6,0.1-5.4c0-3,0-6-0.2-9c0.1-0.2,0.3-0.4,0.3-0.8l0-0.1l0-0.1
	c-0.2-1.6-0.3-3.4-0.4-5.9v-1.4l0.3,1.2V35.3h-14c-1.8,0-3.5,0-5.2-0.1c-1.7,0-3.3-0.1-4.9,0c-1.7-0.1-3.4-0.1-5.2-0.1
	c-1.7,0-3.4,0-5.2-0.1c-0.9,0-1.8,0-2.7,0c-2.2-0.1-4.6-0.1-7-0.1c-1.5,0-2.9-0.1-4.5-0.1h-1v1c0,1.1,0,2.3,0,3.7
	c0,1.6-0.1,3.4-0.1,5.3v7.3l0.2-0.8c0,0.1,0,0.3,0,0.4l0,0.1l0,0.1c0.1,0.6,0.1,1.1,0.3,1.5c0,1.4,0,2.8,0,4.4v16.3
	c-0.1,0-0.2,0-0.3,0l-1.2,0c-1.2-0.1-2-0.2-2.6-0.3l-0.2,0c-2.9,0-3.8,0-4.1,0.5c-0.4,0-0.9,0-1.5,0l-2.2-0.3l-2.1,0.4
	c-0.4,0-0.7,0-1,0v-0.3c0-1.1-1.1-1.1-2.1-1.1v0.6c-4.3-0.2-10.8-0.1-15.6,0c-2.4,0-4.5,0.1-5.5,0l0,0.3c-7,0.1-14.3,0.1-21.5,0.1
	c-14,0-28.6,0-41,0.4l0,0.2c-7.6,0.2-10.5,0.1-14,0c-3.2-0.1-6.8-0.2-14.5-0.1l0-0.1c-3,0.2-7.1,0.3-11.5,0.3
	c-0.5-0.2-1.4-0.3-3-0.4c-0.3,0-0.7,0-1.1-0.1l0-0.3c-11.3,0.3-11.7,0.3-13.6,0.6c-1.1,0.1-2.5,0.3-6.5,0.6l-2.7-0.4l-0.1,0
	c-0.8,0.1-1.4,0.1-2,0.2c-2,0.2-3.5,0.3-8.1,0.4c-0.1-0.1-0.2-0.1-0.4-0.2l0-0.8c-9.1-0.4-16-0.2-21.5-0.1
	c-5.7,0.2-10.2,0.3-14.5-0.3l-0.1,0l-0.1,0c-1.7,0.2-2.7,0.3-2.7,1.4c0,0,0,0,0,0.1c-0.5,0-1,0-1.5-0.1c-1.1-0.1-2.2-0.2-3.5-0.2
	h-0.6l-0.6,0.9c-0.2,0.4-0.5,0.8-0.7,1.3l-0.5,0.8c-0.2,0.2-0.3,0.4-0.4,0.6c0,0.1-0.1,0.2-0.1,0.2c-0.7,0.9-1.4,2.1-2.1,3.5
	c-1.2,1.9-2.4,4.2-4.3,7.8l-0.1-0.1c-1.3,2.2-2.3,4.4-3.5,6.8c-1.4,2.8-2.8,5.8-4.7,9l-0.1,0.2c-0.3,0.8-0.6,1.6-1,2.4l-0.3-0.2
	c-1,1.6-2.4,4.5-3.6,7.1c-0.6,1.3-1.3,2.7-1.7,3.5l-0.3-0.1c-0.9,3-2.7,6.4-4.8,10.2c-1.4,2.6-3,5.5-4.4,8.7l-0.1-0.6l-1.5,3.1
	c-0.2,0.4-0.5,1-0.8,1.7c-0.1,0.2-0.2,0.4-0.3,0.6l-0.4-0.2c-1.8,4-3.8,7.7-5.8,11.3c-1.7,3.1-3.5,6.3-5.1,9.7l0.9,0.4
	c-1.2,2.1-2,3.4-2.9,4.7c-1.7,2.5-3.5,5.4-7.9,14.2l0,0c-0.3,0.7-0.7,1.3-0.9,1.8l0.2,0.1c-1.1,2.1-2.2,3.9-2.9,5.2
	c-2.6,5.1-3.2,6.2-2.8,6.7c-0.8,1.5-1.4,2.9-2.1,4.6c-0.5,1.3-1.1,2.7-1.9,4.5l-0.5-0.2l-0.4,0.8c-0.4,0.8-0.8,1.5-1.1,2.1
	c-0.4,0.8-0.8,1.5-1.1,2.1c-0.2,0.3-0.3,0.7-0.4,0.9c-0.1,0.2-0.2,0.4-0.3,0.6c-0.1,0.2-0.2,0.4-0.3,0.6c-0.2,0.4-0.4,0.7-0.5,1.1
	l-0.1,0.2v1.6c0,0.3,0,0.6,0.1,0.9c0,0.2,0,0.4,0.1,0.6c0,0.1,0,0.1,0,0.1l0.7,3.4l2.4-0.5c0.2,0,0.3-0.1,0.5-0.1
	c0.5-0.1,0.9-0.2,2.6-0.3l0,0.7l0.5,0l-2.3,0.7l8.3-0.4c4.3-0.2,7.1-0.3,10.1-0.3h6.4v2.6c0,0.8,0,1.5-0.1,2.3l0,5.1
	c0,1.9,0,3.7,0.1,5.3c0,1.2,0,2.2,0,3h0.3l0.4,10l-0.4,0c0,0.9,0.1,1.7,0.1,2.5l-0.8,0v0c0,0,0,0,0,0l0.4,14.8
	c-0.1,0.5-0.2,1.6-0.3,3.2c-0.1,0.9-0.2,2.1-0.2,2.5l-0.1,0c-0.1,3.8,0.1,8.4,0.2,13.2c0.2,4.4,0.3,8.8,0.3,13.2l-0.6,0
	c-0.1,4.1-0.1,4.7,0.5,5c0,0.4,0.1,1,0.1,1.9c0,0.5,0,1.2,0.1,1.9c0,2.7-0.1,5.4-0.1,8.1c-0.1,7.2-0.3,14.6,0.1,23.5l-0.7,6.9l0,0.1
	c0.1,3,0.1,3.7,1.1,3.8c0,0.7,0,1.6,0.1,2.7c0,0.5,0,0.9,0,1.3c-0.1,0-0.1-0.1-0.2-0.1c-0.2-0.1-0.8-0.3-1.3,0.3l-0.3,0.3v0.4
	c0,1.5,0,3.1,0,4.7c0,1.2,0,2.3,0,3.4l1.1,0c0.2,2.4,0.4,5.4,0.5,8.6c-0.1,0-0.2,0-0.3,0c-1,0-1.1,0.5-1.4,4l0,0.5l0.3,0.2
	c0.5,1.4,0.5,9.3,0.5,15.2c0,11.2,0.2,14.8,0.7,16.1l-0.1,1.7l-0.3,0c-0.4,5.2-0.1,7.2,0.2,9.4c0.2,1.4,0.4,2.9,0.5,5.4l-0.9,2.1
	v11.2L61,434l0.3,8.8l-0.2,0c0,0.9,0,1.7,0,2.3l0.1,11.6c-0.1,0.3-0.1,0.6-0.1,0.8v0.2l0.1,0.2l0,0.5h0c0,0.4,0.1,0.8,0.1,1.2
	c0.1,1,0.2,2.1,0.3,3.3v1.4c0,0.3,0,0.7,0.1,1c0,0.3,0,0.5,0.1,0.9c0,0.2,0,0.5,0.1,0.7l-0.7,0c-0.1,1-0.2,2-0.3,2.9l-0.1,1l1,0.1
	c2.3,0.2,4.5,0.3,6.4,0.3c0.6,0,1.2,0,1.7,0c0.6,0,1.2-0.1,2-0.1c1.5-0.1,3.5-0.2,6.6-0.2l0,0.5c3.2,0.5,6.7,0.6,11.1,0.7
	c2.8,0.1,6,0.1,9.6,0.3l0.1-1.5c0.5,0,1,0,1.6-0.1c0.4,0.2,0.9,0.3,2.1,0.3l0,0.5l5.1,0.4l2.2-0.9c0,0,0,0,0.1,0l-0.4,0.6l1.9-0.1
	c4.3-0.1,5.6-0.3,7.1-0.5c0.8-0.1,1.6-0.2,2.9-0.3c6.7,0.1,8.5,0.5,10,0.9l0.3,0.1l0.2,0c4.3,0,4.8,0,4.9-0.9c0.3,0,0.6,0,0.9,0
	c10,0.2,17,0,28.3-0.4c0.3,0.5,1,0.6,1.3,0.6l0.1,0l6.1-0.5c0.6,0,0.7,0,0.7,0c-0.3-0.1-0.7-0.5-0.7-1c0,0,0,0,0,0
	c0.3,0,0.6,0,0.7,0l0,1.2c0,0,0.1,0,0.1,0c2.2-0.1,2.7-0.2,3.2-0.4c0.4-0.1,0.8-0.3,5.2-0.4l0.3-0.1c0.9-0.3,5.3-0.1,7.1,0
	c1.9,0.1,4,0.2,6.3,0.3c0.5,0,1,0,1.5,0.1l8.1,0v-1c0-1.5,0-3.1-0.1-4.6V463c0,0,0,0,0-0.1c0.2-0.1,0.4-0.4,0.5-0.7l0-0.1l-0.1-3.3
	c-0.3-9.5-0.3-9.5-0.9-17.7l-0.1-2l0.4-9.5l-0.8,0c0,0,0-0.1,0-0.1l1.1,0.1c0.1-1.4,0.2-3.6,0.3-6.4l-0.2,0c0-0.1,0-0.2,0-0.4
	l-0.6-0.1c0-0.3,0-0.7,0-1c0-0.1,0-0.3,0-0.4c0.1-0.1,0.1-0.2,0.2-0.4c0.1-0.4,0.1-0.9,0-1.9c0-0.5-0.1-1.2-0.1-2l0.7-3.1l-0.3-0.8
	l0.4-16.3c-0.2-3.1-0.4-6.1-0.6-9.2c-0.1-2-0.3-4-0.4-6.1l0.5,0c0-1.3,0.1-2.1,0.1-2.6l0.4,0l-0.6-16.7c0.4-0.6,0.4-1.9,0.5-5
	c0-1.1,0.1-2.4,0.1-3.7l0.4-8.6c2.4,0,5.6-0.4,6.4-0.5c1.9-0.2,3.8-0.4,6.1-0.4l0,0.2c0.7,0,1.5-0.1,2.4-0.1v0l1.6,0l0,0
	c3,0,5.9,0,7.9,0l0,0.3c0.4,0,31.2,0.2,41.5-0.5l0.1,0.9l7.9-0.9l0.2,1.4c4.9-0.5,7.7-0.5,11-0.4l6.4,0.2l-0.5-0.2h2.4
	c0.3,0,0.6,0,0.9,0c0,0.1,0,0.2,0.1,0.3l0.6,2.3c0,0,0,0,0,0c0,0.5,0,0.9-0.1,1.4l-0.1,2.2c-0.1,1.4-0.2,3.4-0.4,6.6c0,0,0,0,0,0
	l0.8,0c0.2,0.8,0.4,2.2,0.5,4.2l-1.2,0.1c0,0.1,0,0.2,0,0.4l0.9,10.7c-0.4,0.5-0.8,1.7-1.1,4.5l0.8,0.1l-0.8,0.1c0.1,0.4,0,4.1,0,7
	c0,3.2,0,6.4,0,8l0.3,0c0.1,3.7,0.4,6.3,0.6,8.7c-0.8,0-1.1,0.9-1.3,1.7l0,0.2c-0.1,5.1,0.1,5.7,0.2,6.3c0.1,0.3,0.2,0.7,0.1,4.9
	l0,0.1l0,0.1c0.1,0.6,0.3,1,0.6,1.2c-0.2,0.9-0.3,2.2-0.3,4l0,0.1l0.2,0.9c0.3,1.5,0.7,3.7,1.1,6.6l-1.3,0c-0.1,1.7-0.2,2.5-0.2,3
	l-0.7,0l-0.2,22.6l0.5-0.6c0.1,1.4,0.2,3.3,0.3,4.7c0.1,1.9,0.2,3.8,0.2,5c0,0.3,0,0.7,0.1,1.1c0,0.2,0,0.3,0.1,0.5
	c0,0.1,0,0.1,0,0.1l0,0.2c0,0.1,0,0.2,0.1,0.3c0,0.3,0.2,1,0.9,1.1l0.2,0v2c0,0,0,0-0.1,0l-0.6-0.2l-0.7,0.7v0.4
	c0,0.2,0,0.6,0.1,1.2l0.2,0.9l0.9-0.1c1.1-0.1,2.9-0.1,4.8-0.1c0.7,0,1.4,0,2.2,0c0.9,0,1.9,0,2.8-0.1l0,0.4c3.4,0.1,6.2,0,9.2-0.2
	c3.7-0.2,7.5-0.4,12.8,0c1.4,0,3.4,0.2,5.2,0.3c3.9,0.3,4.9,0.4,5.5,0l2.1-1.4l-2.5-0.4c-0.8-0.1-1.4-0.3-1.9-0.4h4.5l-0.5,0.3h7
	l-0.1-0.3h3.2c-0.1,0.1-0.1,0.3-0.1,0.5c0,1,1.1,1.2,1.8,1.3l0.5,0.1l0,0c0.2,0,0.4,0,0.7,0.1c0.7,0,1.7,0.1,3.3,0.1l0-0.7
	c0.3,0,0.5,0,0.6,0.1c0.4,0.5,1.4,0.5,5.2,0.4l0.2,0l0.2-0.1c0.5-0.2,2.6-0.2,6.4-0.2c1,0,1.7,0,2-0.4c1.1,0,2,0,3.1,0.1
	c1.9,0,4,0.1,7.6,0.1l0.1-1.4c0.1,0,0.2-0.1,0.4-0.1c0,0.1,0.1,0.2,0.1,0.3c0,0.4-0.3,0.8-0.5,0.9c0.4-0.2,2.8-0.6,7.5-0.9h8.3
	c0.3,0,0.5,0.1,0.7,0.1l0.1,0c7.3,0,13,0.1,18.4,0.2c1.3,0,2.7,0,4,0c4.3,0.1,8.6,0,13.7,0.1c0.4,0.1,1,0.1,1.8,0.1
	c0.5,0,1.1,0,1.8,0.1l1,0.1l0-1c0-1,0.1-1.8,0.1-2.2l0.3,0c0-0.3,0-0.7-0.1-1c0-0.3,0-0.6,0-0.9c0-0.3,0-0.6,0-0.9
	c0-0.1,0-0.2,0-0.2c0.5-0.3,0.6-1.1,0.7-2.1l0-0.4l-0.2-0.2c-0.2-0.9-0.3-5.4-0.4-9c-0.1-2.6-0.2-5.2-0.3-7.4c0.9-0.1,1-0.9,1-2
	c0-0.7,0-1.8,0-3.5l0-0.1l-0.1-0.2C447,437.9,446.9,436.2,446.8,435.3z M61.3,432.7L61.3,432.7c0.1,0.3,0,0.6,0,0.8l-0.2,0
	L61.3,432.7z M206.2,348.1c0-0.4,0-0.7,0-1.1c0-0.6,0-1.4,0-2.2c0.3,0,0.5,0,0.8,0L206.2,348.1z M445.3,466.1c0,0-0.1,0-0.1,0
	c0,0,0,0,0-0.1l0.6,0C445.6,466.1,445.4,466.1,445.3,466.1z"/>
</svg>
