<?xml version="1.0" encoding="utf-8"?>
<!-- Generator: Adobe Illustrator 26.2.1, SVG Export Plug-In . SVG Version: 6.00 Build 0)  -->
<svg version="1.1" id="a" xmlns="http://www.w3.org/2000/svg" xmlns:xlink="http://www.w3.org/1999/xlink" x="0px" y="0px"
	 viewBox="0 0 380.1 369.4" style="enable-background:new 0 0 380.1 369.4;" xml:space="preserve">
<style type="text/css">
	.st0{fill:#8C3712;}
</style>
<path class="st0" d="M250.2,341.6c-0.7-1.7-0.5-5.3-1.1-7.9c0.7-0.4-0.3-2.2,0.7-2.3c-1.9-7.5-1.2-16.7,0.2-24.6l0.1,0.1
	c-0.5-1-1.7-2.2-2.4-3.3c0.1-0.1,0.2-0.1,0.2,0.1c-0.2-1.5,0.8-2.8,0.6-4.3c0.1,0,0.2,0.1,0.3,0.2c-0.4-1.4,0.8-2.8,0-4.4l0.3-0.1
	l-0.4-1c0.3,0,0.8,0.1,0.7,0.6c0.3-12.5-1.3-25.4-1.1-38.2l0.3,0.5l-0.5-2.5c0.2,0,0.2,0.1,0.3,0.2c0.5-3.2-0.4-6.4-0.2-9.5
	c0.2,0,0.5,0.5,0.6,0.1c-0.9-2.3,1.1-3.7-0.7-4.8c0.1-0.1,0.5-0.2,0.6,0.1c-0.3-3.2-0.4-6.4-0.5-9.6c0-1.6,0-3.2,0-4.8
	c0.1-1.8,0.1-3.6,0.2-5.3c-0.3-1.2-0.4-2.3-0.6-3.4c-1.7,0.2-3.3,0.2-4.8,0.3c-1.2,0-2.4,0-3.6,0c-2.4,0-4.8,0.1-7.1,0.6v-0.3
	c-7.2,1.1-14.8-0.1-22.2,0.1c-1.2-0.1-2.2,0-3.4,0c-1.1,0.1-2.3,0.1-3.5,0.2c0,0.5,0.1,1.2,0.1,1.9l-0.4-0.1c0.4,1.8,0.5,3,0.5,4.4
	s-0.2,2.7-0.4,4.1c-0.3,2.8-0.6,5.6,0.2,8.3l-0.6-0.4c0.8,0.8-0.2,3,0.9,3v0.4l-0.2,0.5c0.1,0.2,0.1,0.3,0.2,0.5v6.1
	c-0.2,1.2-0.3,2.6,0,4.1v0.5l-0.2-0.2c0.1,0.4,0.1,0.7,0.2,1.1v2.2c0,0.1,0,0.1,0,0.2c-0.1-0.1-0.1-0.1-0.2-0.4
	c-1.4,3.8,0.1,8,0.1,12l-0.6-0.5c0.8,1.9,0.1,5.5,0.4,8l-0.3-0.1l0.4,1.3h-0.6c0,3.3,0.5,6.4,0.6,9.6l-0.6-0.2c1,3,0,6.4,0.4,9.5
	L203,294c-0.2,5.8,0.3,11.3,0.7,16.9v53.6c-0.2,0.9-0.9,1.7,0.3,2.4l0.2-0.7c0.4,0.7,0.3,0.3,0.4,0.8c1.6,0.1,1.8,1,2.9,1.5v-0.1
	c0.8-0.8,1.8-0.3,2.4-0.2l0.2,0.4c0.4,0.8,1.8-1.5,1.3-0.2c3.2-0.3,6.8-0.3,10.4-0.3c0.5-0.5,2.7,0,1.9-0.9c0.9,1.1,3.5,1.4,4.5,1.4
	c0,0.1-0.1,0.2-0.2,0.2c1.9,1.4,2.3-1.3,4.1,0.4c0.3-1.2,3.2,0.4,4.3-1.1c0.2,0.3,0.3,0.5,0.2,0.8c1.6,0,3.3,0.1,4.9,0.3
	c0.4,0,0.8,0.1,1.2,0.1h0.3h0.5h1.1c1.5,0,3,0.1,4.4,0.1c0.3-0.1,0.5-0.1,0.8-0.2c-0.2-1.3-0.2-2.4-0.2-3.6c0-0.6,0-1.2,0-1.8
	c0-0.5,0-1.1,0.1-1.6c0.1-1.3,0-2.5-0.7-3.4c0.3-1.7,0.9-4.3,0.3-6.7l0.2,0.2c-0.1-2.6-0.2-5.9-1.1-7.7
	C250.1,343.9,249.8,342.8,250.2,341.6L250.2,341.6z M206,365.9h1.1C206.8,365.9,206.3,366,206,365.9z M210.5,366.3l-0.2,0.4
	c-1.2,0.1-0.1-0.5-1.1-0.7c-0.3,0.1-0.1,0.8-0.8,0.5c-0.1-0.5-0.3-0.7-0.7-0.8h4C211.2,366.4,210.8,366.8,210.5,366.3L210.5,366.3z
	 M213.8,365.9h0.9C214.4,365.9,214,366,213.8,365.9z M246.7,290.6c0.1,2.6,0.2,5.1,0,7.6V290.6z M246.7,308.4
	c0.4,3.3,0.9,6.5,0.1,9.2c0,0.1-0.1,0.3-0.1,0.4V308.4z M243.3,366.8c-1.2,0-2.3,0-3.5,0c-2.3-0.1-4.6-0.3-6.8-0.7
	c-2.4,0.6-4.8,0.2-7.4-0.3h21.1v-21.1c0.2,1.7,0.4,3.4,0.7,5.1c-0.2,2.7-0.2,5.4-0.2,8c0.1,3,0.2,5.9,0.3,8.8
	C246.1,366.8,244.7,366.8,243.3,366.8L243.3,366.8z M156.6,210.5c-1.1,0.1-2.2,0.1-3.2,0.1h-1.5h-1.4c-1,0-1.9-0.1-2.9-0.1
	c-3.9-0.1-7.8-0.4-11.6-0.3c-3.2-0.1-5.4,0.2-8.6,0.3l-0.1-0.4c-5.4,1.6-11.3-1.4-17,0.3l0.4-0.6c-0.8,0.8-3.1-0.2-3.1,0.9h-0.5
	l-0.5-0.2c-0.2,0.1-0.3,0.1-0.5,0.2h-6.3c-1.3-0.2-2.7-0.3-4.2,0h-0.5l0.2-0.2c-0.4,0.1-0.8,0.1-1.2,0.2h-2.2c-0.1,0-0.2,0-0.2,0
	c0.1-0.1,0.1-0.1,0.4-0.2c-3.9-1.4-8.2,0.1-12.4,0.1l0.5-0.6c-2,0.8-5.7,0.1-8.3,0.4l0.2-0.3l-1.3,0.4v-0.6c-3.4,0-6.6,0.5-9.9,0.6
	l0.2-0.6c-3.1,1-6.6,0-9.9,0.4l0.2-0.2c-4.2-0.1-8.1,0.1-12.1,0.3c-1.8,0.1-3.7,0.2-5.6,0.4H27L4.3,255.1c-0.4-0.2-0.8-0.2-1.3,0.3
	l0.6,0.4C2.8,256,3.2,256,2.7,256c-0.5,1.6-1.5,1.7-2.1,2.9h0.1c0.7,1,0.1,2.1-0.1,2.8L0.2,262c-0.8,0.4,1.5,2,0.2,1.5
	c0.4,3.6,1.3,7.8,3.3,11.3c0.7,0.3,1.6,2.7,1.9,1.4c-0.2,0.7,0.1,1.7,0.6,2.7c0.5,0.9,1.2,1.7,1.6,2.1c-0.1,0-0.2,0.1-0.3-0.1
	c0.3,1.3,1,1.5,1.7,1.7s1.3,0.4,1.6,1.7c0.5-0.4,1.2,0.2,2,0.9c0.8,0.6,1.7,1.2,2.6,0.9c0.1,0.4,0,0.6-0.2,0.8
	c0.7,0.4,1.6,1,2.5,1.4c0.9,0.5,1.8,0.9,2.7,1.2c1.8,0.7,3.4,1.2,4.9,1.5c2.7-0.5,5.9,1.5,8.2,0.2c1.7,0.5,4.5,1.4,6.9,1l-0.2,0.2
	c2.7,0.1,6.1,0.3,8-0.5c0.7,1.5,1.9,1.3,3.1,1.8c1.9-0.6,5.6-0.2,8.4-0.9c0.5,0.6,2.3-0.4,2.5,0.6c4-1.1,8.2-1.9,12.7-2.6
	s8.9-1.3,13.2-1.9L88,289c0.9-0.8,1.7-2.3,2.5-3.3c0.1,0,0.2,0.2-0.1,0.3c1.4-0.7,3-0.2,4.4-0.9c0,0.1,0,0.2-0.1,0.4
	c1.2-0.9,3-0.3,4.3-1.5l0.2,0.2l0.9-0.7c0.1,0.3,0.2,0.6-0.1,0.8c3-1,6-2.2,9-3.6c3.1-1.5,6-3.2,8.8-5.1c5.6-3.9,10.7-8.4,15.6-13
	l-0.1,0.6c0.5-0.7,1-1.5,1.5-2.2c0.1,0.1,0.1,0.3,0,0.4c2.7-2,4.3-5.3,6.4-7.8c0.1,0.1,0.1,0.7,0.5,0.4c0.4-1.2,1.2-1.8,1.8-2.4
	c0.6-0.6,1-1.1,0.6-2.1c0.1-0.1,0.5,0.1,0.5,0.4c3.2-5.9,6.3-12.1,8.9-18.3c0.2-2.9,1.1-5.7,1.9-8.6c0.4-1.4,0.8-2.9,1-4.4
	c0.1-0.7,0.2-1.5,0.3-2.2l0.1-1.2c0-0.4,0-0.8,0-1.2h0.3c0-0.5,0.1-1,0.1-1.5v-0.7v-0.4v-0.2C156.7,210.7,156.8,210.5,156.6,210.5
	L156.6,210.5z M2.5,262.4l-0.4-0.2c-0.1-1.3,0.5-0.1,0.7-1.1c0-0.4-0.8-0.2-0.5-0.9c0.5,0,0.7-0.2,0.8-0.6c-0.2,1.2-0.3,2.6-0.2,4.1
	C2.4,263.2,2,262.7,2.5,262.4L2.5,262.4z M3.1,265.8c0,0.3,0.1,0.6,0.1,0.9C3.1,266.4,3,266.1,3.1,265.8z M3.3,259
	c0-0.1,0-0.2,0-0.3c0-0.3,0.1-0.7,0.2-0.9C3.4,258.2,3.3,258.6,3.3,259L3.3,259z M42.6,290.2c-5.1-0.8-10.3-0.9-15.5-1.6
	c-2.6-0.4-5.2-0.8-7.6-1.8c-1.2-0.5-2.4-1.2-3.4-1.9c-1-0.7-2.1-1.6-2.9-2.5c-2.3-0.9-4-3-5.3-5.3c0,0,0-0.1-0.1-0.1
	c3.1,4,7,6.2,9,7.5c2.7,1.6,7,3.6,22.4,4.8c3.1,0.2,6,0.5,8.6,0.6C46,290,44.3,290.1,42.6,290.2L42.6,290.2z M84.9,286.1
	c-3.1,1.4-6.2,2.6-9.1,2.3c-0.2,0-0.3,0-0.4,0c3.5-0.7,6.7-1.5,9.6-2.4C85,286.1,85,286.1,84.9,286.1L84.9,286.1z M95.1,282.7
	c0.7-0.2,1.4-0.5,2.1-0.8c1.9-0.7,3.6-1.3,5.3-2C100,281,97.6,281.9,95.1,282.7z M380.1,196.8c0-1.1,0-2.2-0.1-3.3c0-1-0.1-2-0.1-3
	c-0.2-3.9-0.4-7.8-0.7-11.7c-0.2-3.3-0.5-6.6-0.7-9.9V75.3c0.1-9.9-1.8-17.8-3.5-23c0.8-0.2,1.5-0.7,1.8-2.1h-1.5
	c1.1-1.3,0.5-0.9,1.4-1.5c-1-3.3,0.8-4.5,0.6-7.3l-0.1,0.1c-2.3-0.9-2.4-3.5-2.9-4.9l0.4-0.9c0.5-0.8-0.7-1.3-1.7-1.7
	c-1-0.3-1.7-0.5-0.2-0.8c-2.3-3-4.8-6.1-7.7-9.1c-2.9-3-6-5.7-9.4-8.1c-0.8,0.1-2.1-0.8-3.1-1.4c-1.1-0.6-1.9-0.8-1.7,0.6
	c-0.2-1.6-1.6-3.3-3.3-4.6c-1.7-1.4-3.7-2.3-4.8-2.7c0.2-0.2,0.4-0.4,0.7-0.2c-1.6-2.3-3.2-2-4.6-1.8c-1.5,0.2-2.8,0.5-4.5-1.9
	c-0.6,1.3-2.5,0.7-4.6,0.2s-4.5-0.7-5.7,0.8c-0.5-0.6-0.6-1.2-0.4-1.7c-7-0.4-14.6-1.5-20.5-1.8C298,4,291,0.4,286.6,3.6
	c-3.5-0.8-9.3-2.3-14.3-1l0.5-0.4c-5.6,0.1-12.6,0.1-16.5,2.2c-1.6-3.2-4-2.6-6.4-3.7c-3.8,1.4-11.3,0.9-17,2.1
	c-0.9-1.5-4.7,0.5-5-1.6c-16,3.9-35.8,2.2-52.8-1.1l0.2-0.2c-2.2,1.1-4.8,3.7-7.1,5.2c-0.2-0.2-0.2-0.5,0.3-0.5
	c-1.6,0.2-3.1-0.3-4.6-0.7c-0.8-0.2-1.5-0.4-2.3-0.6c-0.2,0-0.4-0.1-0.6-0.1c-0.3,0-0.6,0-0.9-0.1c-0.6,0-1.2,0-1.8,0
	c0-0.3-0.1-0.3,0.7-0.7c-2.2,0.5-4.6,0-7.5-0.4c-1.4-0.2-2.9-0.3-4.3-0.4s-2.7,0.1-3.5,0.5l-1.1-0.6c-0.9,0.2-1.7,0.5-2.4,0.8
	c-0.9-0.6-2.1-1.4-1.2-1.5c-3-0.1-6-0.1-9.1-0.2c-1.7,0-3.3,0-5-0.1h-0.6c-0.2,0-0.5,0-0.6,0l-0.8,0.1l-0.8,0.1l-1,0.1
	c5.6,3.9,11.1,7.9,16.7,11.9c5.5,3.8,9.3,7.2,12.9,10.9l1.6,1.6l1.4,1.5c0.9,1,1.9,2.1,2.7,3.1c1.8,2.1,3.5,4.4,5.1,6.7
	c3.2,4.6,5.9,9.7,8,14.9c0.5,1.3,1,2.7,1.4,4c0.2,0.7,0.4,1.3,0.6,2c0.1,0.3,0.1,0.4,0.1,0.6l0.1,1c0.2,2.9,0.5,5.9,0.6,8.8
	l-0.7-0.9l1.6,5.2c-0.4,0-0.6-0.2-0.7-0.5c-0.4,3.4,0.1,6.8,0.7,10.2c0.5,3.4,1.3,6.8,1.3,10.1c-0.3,0-1.1-1-1.4,0
	c2.2,4.8-2.1,7.9,1.9,10.2c-0.2,0.2-1.1,0.4-1.4-0.1c1.8,13.5,1.9,27.4,1.1,41.1c3.4,11.5-0.3,24.1,1.9,36.1l-0.7-0.1
	c0.4,3.9,0.4,7.8,0.3,11.7c-0.1,1-0.1,2-0.2,2.9c-0.1,1-0.2,2.1-0.3,3.1c-0.1,1.1-0.2,2.1-0.3,3.2l-0.2,1.6l-0.1,0.8v0.2v0.1v0.1
	h0.4c4.2,0.2,8.5,0.4,12.7,0.5c4,0.1,8,0.2,12,0.1c6.6,0.3,11.1-0.6,17.7-0.6l0.2,0.9c11.2-3.4,23.5,3.1,35.2-0.7l-0.8,1.2
	c1.7-1.8,6.5,0.4,6.4-2.1h1l1,0.5c0.3-0.2,0.7-0.3,1-0.5H275c2.7,0.4,5.6,0.7,8.8,0h1l-0.4,0.5c0.8-0.2,1.5-0.3,2.3-0.5h4.9
	c0.1,0,0.2,0.1,0.3,0.1c-0.3,0.1-0.2,0.3-0.8,0.5c8.1,3,17.1-0.3,25.6-0.2l-1,1.4c4.1-1.7,11.7-0.1,17.1-0.9l-0.3,0.7l2.7-0.9
	l0.1,1.4c7.1,0.1,13.7-1.1,20.6-1.2l-0.4,1.2c3.2-1.1,6.6-1.1,10.1-0.9c1.8,0.1,3.4,0.2,5.2,0.2c2,0,4.1,0,5.9-0.2
	c-0.1,0.1-0.2,0.3-0.2,0.4c1.2,0,2.3,0,3.4,0.1C380.2,201.6,380.2,199.2,380.1,196.8L380.1,196.8z M140.5,7.1h0.3l2.3-0.1
	c1.6-0.1,3.3-0.1,5.1-0.1c2.9,0,5.9,0.1,8.8,0.4C151.5,7.2,146,7.2,140.5,7.1L140.5,7.1z M178.6,7.5c7-0.9,14-1.8,19.7,0.1
	c0.3,0.1,0.6,0.1,0.9,0.2C192.5,7.7,185.6,7.6,178.6,7.5L178.6,7.5z M267.4,7.3c10.7,1.1,21.5,0.6,32.1,0.3
	c5.3-0.1,10.6-0.2,15.9,0.1c2.6,0.1,5.3,0.4,7.9,0.7c2.6,0.4,5.3,1,7.8,1.9c5.1-0.4,10.3,2.1,14.5,5.3c0.1,0.1,0.2,0.1,0.2,0.2
	c-1.8-0.9-3.2-1.5-4.1-1.9c-8.2-3.3-15.3-3.8-18.5-3.9c-8.1-0.4-31.9-0.9-66.9-1.5C260.1,8.2,263.8,7.7,267.4,7.3z M250,113.5
	c0.6-0.5,1.1-1,1.6-1.5c1.7-1.7,3.3-3.4,5-5.1C254.8,109.4,252.5,111.7,250,113.5L250,113.5z M261.5,96c0,0.1,0,0.1,0,0.2V96
	L261.5,96l0.1-0.1l0.3-0.1l0.6-0.2c0.4-0.1,0.9-0.2,1.4-0.3c1-0.2,2-0.4,3-0.4c1.9-0.1,3.6,0.1,5.2,0.9c0.2,0.1,0.3,0.1,0.5,0.2
	H261.5L261.5,96z M314.1,122c0.1-8.7,0.2-17.3,0.3-26h-9.9c2-0.5,4.1-1,6.8-1.5c1.4,0.2,2.8,0.3,4.2,0.4c-0.2,3.1-0.1,6,0.1,9
	c0.2,2.6,0.4,5.3,0.6,7.9s0.2,5.2,0,7.8c0,0.7-0.1,1.3-0.2,1.9c-0.1,0.7-0.1,1.2-0.2,1.8c-0.1,1.2-0.2,2.4-0.1,3.7
	c1,1,1.7,2,2.3,3.2c0.6,1.2,1.2,2.4,2.1,3.8c0,0.1,0.1,0.1,0.1,0.2C316.4,131.4,314.1,127,314.1,122L314.1,122z M332.2,137.6
	c0.4-0.2,0.8-0.2,1.1,0H332.2z M335.7,137.6c0.6-1.1,1.1-2.1,1.5-1l0.2-1c1.4-0.3,0.2,1.1,1.2,1.5c0.4-0.1,0.1-1.8,1-1.2
	c0,1.2,0.4,1.6,0.8,1.7H335.7L335.7,137.6z M341.2,137.6c0.5-0.1,1-0.2,1.4,0H341.2z M345.7,137.5c0-0.8-0.1-1.6-0.8-2.4l-0.3,1.5
	c-0.5-1.5-0.4-0.7-0.5-1.8c-1.9-0.2-2.1-2.3-3.4-3.2v0.2c-0.9,1.8-2.2,0.7-2.9,0.5l-0.3-0.8c-0.4-1.7-2.1,3.3-1.5,0.4
	c-1.9,0.4-3.9,0.5-6,0.6h-1.2c-0.4,0-0.7-0.1-1.1-0.1c-0.7-0.1-1.4-0.3-2.1-0.6c-0.4,0.5-0.9,0.1-1.4,0.1c-0.4-0.1-0.8-0.1-1.1,1
	c0.1-0.6,0.1-1.2,0.1-1.7s-0.1-1-0.3-1.4c-0.1-0.4-0.3-0.7-0.4-1s-0.3-0.5-0.4-0.6c0.2-0.1,0.4-0.3,0.4-0.1c0.4-0.8,0.4-1.1,0.2-1.2
	c-0.2-0.1-0.6-0.1-0.9-0.1c-0.4,0-0.8,0-0.8-0.2c-0.1-0.2,0.1-0.6,0.9-1.3c-0.6,0.2-1,0.2-1.1,0c-0.2-0.2-0.2-0.5-0.2-0.8
	s0-0.7-0.2-0.9c-0.2-0.3-0.6-0.5-1.4-0.6c0.6-0.2,1.1-0.3,1.6-0.3c0-0.2,0-0.6,0-1c0.2,0.3,0,0.5,0,0.8c-0.1,0.3,0,0.6,0.9,0.4
	c-0.1,0.1-0.4,0.3-0.6,0.3c1.6,1.9,3.5,3.3,5.8,3.9c0.5-0.3,1-0.6,1.4-0.7s0.8-0.1,1.2-0.1c0.8,0,1.6,0.1,2.4-0.6v0.3
	c2-1.1,4.1,0.1,6.2-0.2c0.9,0.1,1.4-0.2,2.3-0.3v0.4c1.5-1.6,3,1.4,4.6-0.3l-0.1,0.6c0.2-0.8,0.8,0.2,0.8-0.9h0.1l0.1,0.2
	c0-0.1,0.1-0.2,0.1-0.2h1.1c0.2,0,0.4,0,0.6,0c0.4,0.2,0.8,0.2,1.1-0.2c0,0,0.1,0,0.1-0.1v0.2c0.1-0.1,0.1-0.2,0.2-0.3
	c0.2-0.1,0.4-0.2,0.6-0.3c0,0,0,0,0.1,0c0,0.1,0.1,0.1,0,0.3c0.8,0.3,1.4-0.1,1.7-0.7c0.3-0.6,0.3-1.3,0.6-1.8l0.5,0.4
	c-0.2-0.4,0-0.8,0.1-1.2c0.2-0.4,0.3-0.9,0.2-1.3l0.3,0.1c-0.1-0.2-0.3-0.3-0.4-0.4h0.6c0-0.9-0.5-1.8-0.6-2.7l0.6,0.1
	c-1-0.8,0-1.8-0.4-2.7l0.2,0.1c0.2-1.6-0.3-3.2-0.7-4.7v-6.8c0-3-2.4-5.4-5.3-5.4c0-0.4,0-0.7-0.2-1.1l-0.1,0.7
	c-0.1-0.7-0.1-0.3-0.1-0.8c-0.4-0.1-0.5-1.1-0.8-1.4v0.1c-0.2,0.8-0.5,0.3-0.7,0.2l-0.1-0.4c-0.1-0.8-0.5,1.5-0.4,0.2
	c-0.9,0.3-1.9,0.3-2.9,0.3c-0.1,0.5-0.8-0.1-0.5,0.9c-0.2-1.1-1-1.4-1.3-1.3c0-0.1,0-0.2,0.1-0.2c-0.5-1.4-0.6,1.3-1.1-0.4
	c-0.1,1.2-0.9-0.4-1.2,1.1c-0.1-0.3-0.1-0.5-0.1-0.8c-0.9,0-1.9-0.5-2.6-0.5c-0.6,1.1-1.6-0.5-2.1,1c-0.5-0.3-1.2-0.9-1.9-0.3
	l0.1-0.2c-0.7,0.1-1.6,0.2-2.1,1.1c-0.2-1.4-0.5-1.2-0.8-1.6c-0.1,0.2-0.3,0.3-0.4,0.4c-0.2,0.1-0.5,0.2-0.8,0.2
	c-0.6,0.2-1.2,0.4-1.7,0.8c-0.4-0.6-0.7,0.6-1.2-0.3c-1.1,1.5-2,2.7-2.9,4.1c-0.5,0.7-0.9,1.4-1.3,2.2c-0.1,0.1-0.1,0.3-0.2,0.4
	c0-0.1-0.1-0.2-0.1-0.2c0.3-1.5,0.8-3.5,1.1-5.8c0.3-2.3,0.5-4.8,0.2-6.8c-0.9,0.1-1.8,0.2-2.6,0.4l0.8-0.4c-3,0.1-6.3,0.2-9.2,0.5
	c-0.8,0.1-1.5,0.2-2.2,0.3c-0.3,0.1-0.7,0.1-1,0.2c-0.1,0-0.4,0.1-0.4,0.1l-0.3,0.1c-0.7,0.3-1.4,0.7-1.9,1.2
	c-0.9-3.2-2.2-2.5-3.6-3.6c-2.1,1.5-6.2,1-9.4,2.4c-0.5-1.5-2.6,0.6-2.8-1.5c-4.1,1.9-8.7,2.6-13.3,2.5c-2.3-0.1-4.7-0.3-7-0.7
	l-0.9-0.2c-0.1,0-0.4-0.1-0.6-0.1l-0.7-0.1c-1-0.1-2-0.3-3-0.4c-2.2-0.3-4.4-0.6-6.6-0.9c-0.5,1.1-1,2.2-1.5,3.2l-0.1-0.4
	c0.2,1.6,0.6,3.5,1.1,5c0.3,0.8,0.6,1.5,0.9,2.2c0.3,0.5,0.6,0.9,0.8,1.3c-0.2,0-0.5-0.1-0.4-0.3c-0.2,0.8-0.8,1.3-1.6,1.8
	c-0.7,0.4-1.4,0.8-1.7,1.6c-0.3-0.2-0.3-0.2-0.4-0.6c0,0.8-0.7,1.2-1.4,1.5s-1.3,0.8-1.3,1.9l-0.5-0.3l-0.1,1.3
	c-0.4-0.4-1-1.1-0.8-1.4c-2.1,1.9-4.4,3.7-7,5.1s-5.6,2.5-8.7,3c-3.1,0.5-6.4,0.3-9.6-0.6c-3.2-0.9-6.2-2.6-8.5-4.9l0.8-0.2
	l-1.4-0.4c-0.5-0.1-0.9-0.3-1.3-0.5c0.3-0.2,0.5-0.3,0.7-0.3c-0.3-0.8-0.8-1.4-1.3-2.1s-1.1-1.2-1.6-1.8c-0.6-0.6-1.2-1.2-1.6-1.9
	c-0.5-0.7-0.9-1.4-1.1-2.2c0.3-0.1,1.1,0.1,1.3-0.5c-0.6-0.4-0.9-0.8-1-1.3s0.1-1,0.2-1.4c0.2-0.8,0.1-1.4-1.9-1.7
	c0.2-0.1,1-0.4,1.4-0.2c-1.2-3-1.5-6.5-0.9-9.8s2.2-6.4,4.3-8.9c0.1-3.3,2.3-5.8,4.8-7.6c2.6-1.9,5.3-3.1,7.9-5.4l0.2,0.7
	c3.5-2.4,8.1-2.7,12.4-1.8c0.5,0.1,1.1,0.2,1.6,0.4l1.5,0.5c1,0.4,2,0.8,2.9,1.3c1.9,0.9,3.7,2,5.6,3.1c0.6,0.6,1.3,1.1,1.9,1.5
	c0.6,0.5,1.2,0.9,1.8,1.3c0.6,0.5,1.2,0.9,1.8,1.4c0.6,0.6,1.1,1.2,1.7,1.9l-0.7,0.6c1.9,0.9,3.1,2.5,3.6,4.4
	c0.1,0.5,0.3,0.9,0.4,1.5l0.3,1.8c0.2,1.2,0.3,2.7,0.5,4c0,0.2,0.3,0.1,0.4,0.2l0.5,0.1c0.4,0,0.7,0.1,1.1,0.1c0.8,0,1.6,0,2.4,0
	c0.8-0.1,1.6-0.2,2.4-0.4c0.7-0.2,1.3-0.4,1.9-0.8l-0.5,1.2c0.9-1.8,3.6,0.4,3.5-2.1h0.5l0.6,0.5c0.2-0.2,0.4-0.3,0.6-0.5h7.2
	c1.5,0.4,3.1,0.7,4.9,0h0.6l-0.2,0.5c0.4-0.2,0.9-0.3,1.3-0.5h2.7c0.1,0,0.1,0.1,0.2,0.1c-0.2,0.1-0.1,0.3-0.4,0.5
	c4.5,3,9.5-0.3,14.2-0.2l-0.5,1.4c2.3-1.7,6.5-0.1,9.5-0.9l-0.2,0.7l1.5-0.9v1.3c3.9,0.1,7.6-1.1,11.4-1.2l-0.2,1.2
	c3.5-2.2,7.5,0,11.3-0.9l-0.2,0.4c4.8,0.2,9.3-0.2,13.9-0.7l3.4-0.4l1.7-0.2c0.3-0.1,0.7-0.1,1-0.1c2.4,0.3,4.3,2.3,4.3,4.8v1.4
	c0,10.8,0,21.5,0.1,32.3C360.8,130.4,354.1,137.3,345.7,137.5L345.7,137.5z M320.7,121.2c0-0.3,0.1-0.7,0.1-1c0,0.1,0,0.1,0,0.2
	c0.1,0.3,0.2,0.5,0.2,0.8C321,121.2,320.8,121.2,320.7,121.2L320.7,121.2z M321.2,104.8L321.2,104.8c0-0.2-0.1-0.2-0.1-0.3
	c0.1,0,0.2,0.1,0.3,0.1h-0.2C321.2,104.7,321.2,104.8,321.2,104.8L321.2,104.8z M322.4,103.3c-0.5-0.8-0.6-2.1,0.5-2.5
	c0,0,0.1,0,0.1-0.1c-0.4,0.7-0.6,1.5-0.6,2.4V103.3L322.4,103.3z M322.4,106.2v2.1C322.3,107.6,322.2,106.9,322.4,106.2z
	 M329.2,97.8c0.5-0.2,0.9-0.4,1.4-0.7c2.8,0.9,5.6-1.3,8.3,0.4c0.6-0.6,1.3-0.2,2,0.3L329.2,97.8L329.2,97.8z M344,97.8
	c0.1-0.1,0.2-0.1,0.3,0H344z M344.8,97.8c0.1-0.5,0.3-1,0.4-0.4V97c0.3-0.1,0,0.5,0.3,0.7c0.1-0.1,0-0.8,0.2-0.6
	c0,0.5,0.1,0.7,0.2,0.8L344.8,97.8L344.8,97.8z M346.1,97.8c0.1,0,0.2-0.1,0.3,0H346.1z M363.9,30.6c0.6,0.5,1.1,1,1.3,1.7
	C364.8,31.7,364.4,31.2,363.9,30.6z M373.1,46.8c-0.3-0.8-0.6-1.5-0.9-2.3c0.1,0.2,0.2,0.3,0.3,0.5C372.7,45.6,373,46.2,373.1,46.8
	L373.1,46.8z M369.9,37.6l1-0.2c1.5,2.2-0.8,0.8-0.2,2.7c0.4,0.6,1.7-0.5,1.9,1.1c-1,0.6-1.1,1.2-0.9,1.9c-1-2.3-2.3-4.8-4-7.4
	C369.1,36.1,370.5,36.5,369.9,37.6L369.9,37.6z M164.3,158.6c-0.7-1-0.5-3.1-1.1-4.7c0.7-0.2-0.3-1.3,0.7-1.4
	c-0.4-0.9-0.7-1.9-0.9-3c0-2.4,0.1-4.9,0.1-7.3c0.2-1.4,0.6-2.9,1-4.2c-0.2-0.2-0.6-0.5-0.9-0.8c0-2.2,0.1-4.4,0.1-6.6
	c0.1,0,0.3,0.1,0.3,0.2c0.1-2.5,0-5.1-0.2-7.6l0.1-8.9c0-4.6,0.1-15.9,0.2-31.6c0.1-12.4,0.1-18.7-1.1-24c-0.7-3.1-3.4-13.8-11.7-25
	c0.4-0.1,0.5-0.6-0.1-2l-0.9-0.1c-0.1-1.2-0.2-0.8-0.1-1.4c-1.2-1.6-1.8-2.6-2.3-3.5s-0.8-1.8-1.7-3v0.1c-2-0.8-3.7-3-4.9-4.1
	c-0.1-0.2-0.2-0.5-0.3-0.7c-0.1-0.6-1.3-1-2.2-1.3s-1.5-0.4-0.6-0.6c-3.4-2.3-7.3-4.6-11.4-6.5s-8.5-3.5-13-4.7
	c-0.7,0.1-2.4-0.4-3.7-0.6c-1.3-0.2-2.3-0.3-1.4,0.4c-1-0.8-3.2-1.5-5.5-2c-2.2-0.5-4.6-0.8-5.9-0.8c0.1-0.1,0.2-0.2,0.6-0.2
	c-2.5-0.7-4-0.3-5.5,0c-1.4,0.4-2.8,0.7-5.3,0.1c-0.3,0.7-2.4,0.9-4.8,1.3C79.6,4.5,77,5.3,76,6.4c-0.6-0.1-0.9-0.2-0.8-0.5
	c-4,1.4-8.1,3.4-11.7,5.5c-0.9,0.5-1.8,1-2.7,1.6c-0.9,0.5-1.8,1.1-2.6,1.6c-1.7,1.1-3.2,2.2-4.6,3.3c-2,2.3-4.8,4.7-7.3,7.2
	s-4.8,4.9-5.9,7.3c-1.5,1.5-3.5,3.4-5.5,5.9c-1.9,2.4-3.7,5.3-4.8,8.2l0.1-0.6c-1.5,3.1-2.9,6.8-3.7,10.3c-0.8,3.5-1.1,6.8-0.9,9.2
	c-0.8,0.9-1.2,2.1-1.5,3.4c-0.2,1.3-0.4,2.8-0.7,4.2c0.4,4.4,0,13.3,0.5,20c-0.7,1,0.2,5.5-0.8,5.8c1.6,18.7,1.1,41.8,0,61.8
	l-0.1-0.3c0.6,2.6,1.8,5.6,2.5,8.2c-0.1,0.3-0.2,0.2-0.2-0.3c0.2,3.6-0.7,7.1-0.4,10.7c-0.1,0-0.2-0.2-0.3-0.6
	c0.5,3.4-0.6,7.1,0.2,11.1l-0.2,0.2l0.4,2.6c-0.3-0.1-0.6-0.1-0.7-1c0,1.8,0,3.6,0.1,5.4c0.1,2.9,0.1,5.8,0.2,8.8
	c3.8,0,7.5,0,11.3-0.1c3.7,0,7.5-0.1,11.2-0.1c0-2.2,0-4.4,0.1-6.7v-4.1c0-2.8,0-5.5,0-8.3c0-5.5,0-11.1,0-16.6
	c0-11.1,0.2-22.2,0.5-33.4l0.3,1.2l-0.4-6.2c0.2,0,0.2,0.3,0.3,0.6c0.7-7.9,0-16.2,0.3-23.9c0.2,0,0.4,1.2,0.6,0.1
	c-0.7-5.7,1.3-9.1-0.4-12.1c0.1-0.3,0.5-0.4,0.6,0.2c-0.1-8-0.1-16,0.1-24.1c0.3-7.8,2.9-15.5,7.4-21.7c2.9-5.8,8.2-10.7,14.3-14
	c3.1-1.7,6.3-3,9.7-3.9c3.3-1,6.8-1.5,10.2-2l-0.1,0.3c4.4-0.4,9-0.7,13.6-0.1c4.6,0.5,9.1,1.8,13.2,3.9c8.3,4.1,15.2,11,19.8,18.9
	c1.8,3.3,3.1,6.3,4.2,9.3c1.1,3,1.9,6.2,2.3,10l-0.4,0.2c0.3,2.7,0.4,5.6,0.5,8.4c0,1.4,0,2.8-0.1,4.3c0,0.8-0.1,1.7-0.1,2.5
	c-0.3,0-0.6,0-0.9,0c-8.3,1.6-17.6,0.2-26.3,1.4v-0.3c-11.2,1.1-23.1-0.1-34.7,0.2c-4.8-0.1-8.1,0.2-12.9,0.3l0.1-0.6
	c-2.3,0.4-4.8,0.5-7.2,0.4c-1.2,0-2.5-0.1-3.7-0.2c-1.5-0.1-3-0.2-4.5-0.3c-0.2,4.7-0.4,8.1,0.4,11.7l-0.5-0.6
	c0.8,1.2-0.2,4.7,0.9,4.7v0.7l-0.2,0.8c0.1,0.3,0.2,0.5,0.2,0.8v9.5c-0.2,1.9-0.3,4,0,6.3v0.8l-0.2-0.3c0.1,0.6,0.2,1.1,0.2,1.7v3.5
	c0,0.1,0,0.2,0,0.2c0-0.2-0.2-0.1-0.2-0.6c-1.4,5.9,0.1,12.5,0.1,18.7l-0.7-0.7c0.8,3,0,8.5,0.4,12.5l-0.3-0.2l0.4,2l-0.6,0.1
	c0,5.1,0.5,10,0.6,15l-0.6-0.3c1,4.7,0,9.9,0.4,14.9l-0.2-0.3c0,1.4,0,2.9,0,4.3c0,1.6,0,3.3,0,4.8c1.4,0,2.8-0.1,4.2-0.1
	c1.2,0,2.3-0.1,3.5-0.1c2.3-0.1,4.7-0.2,7-0.3c1.3-0.1,2.7-0.1,4-0.2h71.3c0,1.6,0,3.1,0,4.7c2.1,0,4.2,0.1,6.3,0.1
	c1.9,0,3.9,0,5.7-0.1l-0.5,0.2c2.8,0,5.6,0,8.2,0c0-2.3,0-4.6,0-6.9c0.1-0.1,0.2-0.2,0.2-0.3h-0.1c-0.1,0-0.1-0.1-0.1-0.1
	c0-0.4,0-0.9,0-1.4l0.3-0.1c0.4-0.1,0-0.4-0.3-0.6v-0.2h0.1c-0.1-0.4-0.1-0.7-0.1-1.1c0-1,0-2,0-3c0-1.5,0-2.9-0.1-4.4
	c0.2-0.6,0.3-1.2,0.3-1.5c0.1,0,0.2,0.1,0.2,0.1c1.4-1.1-1.3-1.3,0.4-2.4c-1.2-0.2,0.3-1.9-1-2.5v-0.1c0.2-0.1,0.5-0.1,0.7-0.1
	c0-1.9,0.5-4,0.5-5.6c-1.1-1.4,0.5-3.3-1-4.5c0.3-1,0.9-2.6,0.3-3.9l0.2,0.1c-0.1-1.4-0.2-3.1-0.9-4.2V160
	C164.1,159.9,163.9,159.2,164.3,158.6L164.3,158.6z M26.2,133.3c0-0.3,0-0.7,0.1-1c0,7.5,0.1,15.5,0.2,24
	C26,148.1,25.5,140.1,26.2,133.3L26.2,133.3z M26.9,182c0.1,6,0.2,12.1,0.4,18.4C27,194.3,26.8,188.1,26.9,182z M85.1,6.4
	C74.9,8.2,68,12.5,63,15.6C54.9,20.7,49.8,26,45.8,30.4c-4.9,5.3-9.8,10.5-13.5,18.4c-2.9,6.2-4,11.8-4.5,16.4
	c0.1-0.8,0.1-1.7,0.2-2.5c0.4-3.4,1-6.7,2-10c2.3-5.9,5.7-11.4,9.7-16.2c2-2.4,4.1-4.8,6.2-7.1s4.2-4.6,6.5-6.8s4.7-4.1,7.3-5.9
	s5.2-3.4,8-4.9c2.7-1.5,5.6-2.8,8.6-3.7s6-1.6,9-1.9c2.8-0.8,5.8-1.1,8.8-1c3.1,0.1,6.1,0.5,9.2,1.2c0.1,0,0.2,0.1,0.4,0.1
	C99.1,5.8,92.9,5.1,85.1,6.4L85.1,6.4z M129.4,14.9c0.8,0.4,1.5,0.7,2,1.2C130.8,15.7,130.1,15.3,129.4,14.9z M135.7,18.9
	c1.3,0.3,2.6,0.7,2.8,1.6l0.6-0.1c2.4,1.8,0,0.6,1.6,2.2c0.7,0.5,0.8-0.4,2,1c-0.3,0.5,0.1,1,0.7,1.7
	C141.2,23.3,138.7,21.1,135.7,18.9L135.7,18.9z M61.8,103.2L61.8,103.2L62,103L61.8,103.2z M143.6,102.9c0,0.3,0.1,0.6,0.1,0.9
	c-0.1-0.3-0.3-0.6-0.4-0.9H143.6L143.6,102.9z M111.5,102.8l-0.7,0.3l3.9-0.5c0,0.2-0.2,0.2-0.4,0.3c4.9,0.5,10.1-0.4,14.9-0.2
	c0,0.2-0.8,0.5-0.1,0.6c3.6-0.9,5.7,1.1,7.5-0.7c0.2,0.1,0.3,0.5-0.1,0.6c2.1-0.1,4.1-0.2,6.2-0.3h0.5c0.1,0.3,0.1,0.5,0.1,0.8
	c0.1,0.5,0.1,0.9,0.1,1.3c0,0.9,0,1.8,0,2.7v0.6c0,0.2,0,0.4,0,0.7c0,0.4,0.1,0.8,0.1,1c0,0,0,0,0,0.1c-0.4,0-0.9,0.1-1.3,0.1
	c0,1,0.1,1.9,0.1,2.8v2.7l-0.1,1.9c0,0.8-0.1,1.5-0.1,2.3c-0.4,0.4-0.7,0.7-1.4,0.4c-0.1,0.8-0.8,1.3-1.7,1.9
	c-0.4,0.3-0.9,0.6-1.2,1c-0.1,0.1-0.2,0.2-0.2,0.3l-0.1,0.2c0,0.2,0,0.3,0,0.5c-0.3-0.1-0.5-0.3-0.6-0.5c-1.7,1.3-3.8,2.3-5.2,3.4
	c-0.5,1.8-3.2,1.9-3.3,3.8c-1,0.4-2.8,1-3.6,2.4v-0.2c-1.3,1.1-2.9,2.5-3.2,3.9c-1.3-0.8-1.7-0.1-2.5-0.1c-0.5,1.2-2.4,2.5-3.4,4
	c-0.6-0.4-0.9,1.1-1.6,0.4c-0.2,0.3-0.4,0.6-0.6,0.9l-0.2,0.2v0.1v0.2c-0.1,0.3-0.2,0.6-0.5,0.8c-0.2,0-0.3-0.1-0.5-0.2l-0.3-0.2
	l-0.1-0.1l-0.2-0.2c-0.8-0.6-1.5-1.3-2.2-2c-1.4-1.4-2.8-3-3.9-4.6c-0.8,0-2.1,0.4-3,0.5c0-0.1,0.1-0.2,0.2-0.1
	c-0.8-0.4-0.9-1.7-1.8-2.2c0.1-0.1,0.2-0.1,0.3-0.1c-1-0.2-0.9-1.7-2.2-1.8l0.1-0.2l-0.7-0.1c0.2-0.2,0.4-0.5,0.6-0.4
	c-6.1-5.2-13.6-9.1-19.9-14.4l0.4-0.1l-1.6-0.6c0.1-0.1,0.2-0.1,0.3-0.1c-1.3-1.7-3.5-2.3-5-3.7c0.1-0.1,0.5-0.2,0.4-0.5
	c-1.7-0.2-1.2-2.4-2.9-1.4c0-0.1,0.2-0.5,0.4-0.5c-1.5-0.9-2.9-1.8-4.3-2.9l-0.1-3.7v-0.1C81.7,103.5,96.6,102.6,111.5,102.8
	L111.5,102.8z M143.5,147.1c-0.1-0.2-0.1-0.4-0.2-0.6c-0.1-0.2-0.1-0.4-0.1-0.5L143.5,147.1L143.5,147.1z M142.6,122.4
	C142.6,122.4,142.7,122.4,142.6,122.4C142.9,122.4,143.1,122.4,142.6,122.4z M142.7,123L123,138.4c0.7-0.8,1.4-1.7,2.2-2.6
	c2.8-1.7,5.2-3.9,7.6-6.1c1.2-1.1,2.4-2.1,3.7-3.1c0.6-0.5,1.3-0.9,2-1.3l1.1-0.6c0.4-0.2,0.8-0.4,1.1-0.5c0.5-0.7,1.2-1.3,1.8-1.8
	C142.6,122.6,142.7,122.8,142.7,123L142.7,123z M109.4,143.3l-4.8-3.9c1.9,1,3.8,1.9,4.7,3.6C109.3,143.1,109.3,143.2,109.4,143.3
	L109.4,143.3z M99.4,135.3l-3.9-3.1C96.9,133.2,98.2,134.2,99.4,135.3z M64.3,120.8C64.3,120.8,64.4,120.9,64.3,120.8L64.3,120.8
	C64.4,120.9,64.4,120.9,64.3,120.8C64.3,120.9,64.3,120.8,64.3,120.8z M64.3,123.7c0.1-0.1,0.2-0.1,0.3-0.2c0,0.2,0,0.4,0,0.7
	l-0.3,0.4C64.3,124.5,64.3,123.7,64.3,123.7z M64.3,186.9v-13.1c0.2,2.6,0.4,5.3,0.7,7.9l-0.1,2.4l-0.1,2.2c2.8,0.1,6.5,0,9.9-0.1
	c3.5-0.1,6.9-0.2,10.4-0.3c6.9-0.2,13.7-0.2,20.5,0.6c3.7-0.6,7.5-0.2,11.5,0.3L64.3,186.9L64.3,186.9z M134.1,186.9
	c0.5-0.1,1-0.1,1.4,0H134.1z M143.9,186.9L143.9,186.9C144,186.8,144,186.8,143.9,186.9L143.9,186.9z M144,186.3
	C144,186.3,143.9,186.3,144,186.3c-0.3,0.2-0.5,0.4-0.7,0.6h-4.5c0.8-0.5,1.5-1,2-0.4l0.2-0.4c1.8-0.1,0.2,0.5,1.6,0.7
	C143.1,186.7,142.8,186,144,186.3C143.9,186.2,144,186.2,144,186.3L144,186.3L144,186.3z M144.1,157.2c-0.2,0.3-0.3,0.6,0,1v0.1
	h-0.2c0.1,0.1,0.1,0.2,0.2,0.3v0.5c0,0,0,0,0,0.1c-0.1,0-0.1,0-0.2-0.1c-1.4,0.9,0.1,2,0.1,3l-0.6-0.1c0.8,0.5,0.1,1.4,0.4,2h-0.3
	l0.4,0.3h-0.6c0,0.8,0.5,1.6,0.6,2.4h-0.6c1,0.8,0,1.6,0.4,2.4l-0.2-0.1c-0.2,1.5,0.3,2.8,0.7,4.2v11.5c-0.9,0.1-1.9-0.1-2.5-0.2
	l-0.4-0.4c-0.6-0.8-2.8,1.5-2,0.2c-5,0.3-10.7,0.3-16.2,0.3c-0.8,0.5-4.3-0.1-3,0.9c-1.4-1.1-5.5-1.4-7.1-1.4
	c0.1-0.1,0.1-0.2,0.4-0.2c-3-1.4-3.5,1.3-6.3-0.4c-0.4,1.2-5.1-0.4-6.7,1.1c-0.3-0.3-0.5-0.5-0.3-0.8c-5,0-10.6-0.5-14.8-0.5
	c-3.6,1.1-8.8-0.5-11.9,1c-1.1-0.1-2.5-0.3-4-0.4c-0.4,0-0.8-0.1-1.2-0.1c-0.1,0-0.1,0-0.2-0.1c-0.1,0-0.2,0-0.3,0.1
	c0,0-0.1-0.1-0.2-0.1l0.2-0.1v-0.2v-0.1v-0.2v-0.8c0-1.1-0.1-2.2-0.2-3.3c-0.2-2.1-0.4-4.1-0.9-5.5c1.4-1.2,1.2-3,1.6-4.7
	c-0.7-2.7-0.5-8.2-1.1-12.4c0.7-0.6-0.3-3.4,0.7-3.6c-0.5-3.2-0.8-6.6-1-10.1c-0.1-1.8-0.1-3.5-0.1-5.3c0-0.9,0-1.8,0-2.7v-0.6
	c0.1,0.1,0.2,0.2,0.3,0.4c0.3,0.5,0.8,1.2,1,1.3c0.3,0.5,0.2-0.2,0.4,0l0.4,0.9c-0.2-0.7-0.2-0.9-0.1-0.7c0.1,0.1,0.2,0.2,0.3,0.4
	l0.1,0.1l0.1,0.1l0.1,0.2c0.3,0.5,0.6,0.7-0.2-1.3l0.6,1.2c-0.8-1.7,0.2,0-0.9-2.2l0,0l0.2,0.4c-0.1-0.2-0.2-0.3-0.2-0.5v-0.5
	c0.2,0.2,0.3,0.3,0-0.4v-0.1l0.2,0.4c-0.1-0.2-0.2-0.3-0.2-0.4V133c0,0,0,0,0,0.1l0.2,0.4c0.7,0.9,0.7,0.6,0.4,0.1
	c-0.2-0.5-0.6-1.2-0.5-1.3l0.7,0.9c-0.8-1.2-0.1-0.6-0.4-1.3l0.3,0.4l-0.4-0.6l0.6,0.6c0-0.3-0.5-1.2-0.6-1.5l0.6,0.5
	c-0.5-0.6-0.5-0.7-0.4-0.8s0.2-0.2,0-0.5l0.2,0.1c0.1-0.4-0.1-0.9-0.3-1.3c-0.1-0.2-0.2-0.4-0.4-0.6v-4.7c0.6,0.4,1.1,0.7,1.7,1.2
	l-0.2,0.3c3.6,0.9,4.7,5.5,8.5,6.4l-0.5,0.3c0.9-0.3,1.4,1.4,2.1,0.5l0.2,0.2l0.1,0.4c0.1,0,0.3,0,0.4,0l3.1,2.5
	c0.5,0.7,1.1,1.3,2.1,1.6l0.2,0.2l-0.2,0.1c0.2,0.1,0.5,0.2,0.7,0.3l1.1,0.9l0.1,0.1c-0.1,0-0.1,0.1-0.3,0.1
	c1.1,2.6,4.1,3.1,6.1,4.8l-0.6,0.3c1.4,0.2,2.8,2.2,4.3,2.9l-0.3,0.2l0.9,0.2l-0.4,0.5c1.6,1.4,3.5,2.2,5.2,3.4l-0.4,0.4
	c2.1,0.4,3.2,2.6,5.1,3.5l-0.2,0.1c0.9,0.8,1.9,1.5,2.8,2.2c0.5,0.4,1.1,0.8,1.6,1.1l1.6,1.1c1.2-1.1,2.2-2,3.1-2.9l25.7-20
	c-0.2,0.4-0.6,0.7-0.9,1.1h-0.1c0.5,0.2,1.7,0.4,2.4,0.5h-0.2c0.2,0.2-0.8,0.4-0.6,0.7c-0.1,0-0.2,0-0.3,0c0.4,0.2-0.8,0.4,0,0.7
	h-0.3l0.4,0.2c-0.3,0-0.8,0-0.7-0.1c-0.1,0.9,0.1,1.9,0.5,2.9l0.1,0.3c-0.2,0-0.4,0.1-0.5,0.1h0.1c0.8,0.1,0.3,0.2,0.2,0.2h-0.4
	c-0.8,0,1.5,0.2,0.2,0.1c0.3,0.3,0.3,0.7,0.3,1.1c0.4,0.1,0.1,0.2,0.7,0.2l0,0c-0.9,0.1-1.1,0.4-1.1,0.5c-0.1,0-0.2,0-0.2,0
	c-1.4,0.2,1.3,0.2-0.4,0.4c1.2,0-0.4,0.3,1.1,0.4c-0.3,0-0.5,0-0.8,0c0,0.2-0.1,0.4-0.3,0.5l-0.2,0.2c-0.1,0-0.1,0.3-0.1,0.4
	c0.5,0.2,0.4,0.5,0.4,0.8c-0.1,0.3-0.1,0.6,0.7,0.6c-0.3,0.4-0.9,1.2-0.3,1.4h-0.2c0.1,0.5,0.2,1.1,1.1,0.7
	c-1.4,1.1-1.1,1.2-1.6,1.8c0.7-0.2,0.5,0.7,1.1,0.6c-0.7,0.8,0.3,0.1-0.7,1.2c0.9-0.3,1.2-0.1,1.1,0.8c-0.1,0.8-0.6,2.4-1.3,4.5
	l-0.1,0.1c0.5-0.7,1.7-2.7,2.4-3.9c-0.1,0.2-0.2,0.5-0.2,0.4c0.2-0.2-0.8,1.9-0.6,1.8c-0.1,0.2-0.2,0.4-0.3,0.6
	c0.4-0.7-0.8,2.1,0,0.8l-0.3,0.6l0.4-0.6c-0.3,0.6-0.6,1.4-0.7,1.5c0,0.2,0,0.3,0,0.4c0.8-0.6,1.9-2.1,2.8-3.4L144.1,157.2
	L144.1,157.2z M144.1,152.4L144.1,152.4c-0.4,0.5-0.9,0.7-0.1-0.8l0.1-0.2V152.4z M144.1,148.6c-0.2,0-0.4-0.1-0.7-0.2
	c0.3-0.5,0.2-0.8,0.1-1.2l0.5-0.9L144.1,148.6L144.1,148.6z M144.1,139.7c-0.1-0.4-0.2-0.8,0-1.2V139.7z M144.1,136.8
	c-0.4-0.5-0.9-1.1-0.1-1.5c0,0,0.1,0,0.1-0.1V136.8z M144.4,26.3c0.2,0.2,0.4,0.3,0.5,0.5c0.6,0.5,1.1,1.1,1.5,1.6
	C145.8,27.7,145.1,27,144.4,26.3L144.4,26.3z M214.9,95.2c0.1,0.3,0.2,0.7,0.4,1c0.1,0.2,0.2,0.3,0.3,0.5c-0.3-0.7-0.5-1.5-0.7-2.2
	C214.8,94.7,214.9,95,214.9,95.2L214.9,95.2z M224.1,73c-0.9,0-1.6,0.2-2.3,0.6s-1.3,0.9-1.8,1.6c-1.1,1.2-1.8,2.6-3.1,3.7
	c-0.1,0.6-0.2,1.1-0.2,1.7c2.1-3.8,5.5-6.7,9.6-8.2h-0.1C225.3,72.1,224.4,72.2,224.1,73L224.1,73z M214.3,88.4l-0.1,0.1
	c-0.4,0.4-0.6,0.8-0.5,1.3s0.3,1,0.6,1.4l0,0c-0.1-0.6-0.1-1.1-0.1-1.7C214.2,89.3,214.3,88.9,214.3,88.4L214.3,88.4z M231.3,70.4
	c-0.2-0.2-0.1,0.5-0.2,0.6c-0.3-0.2,0-0.8-0.4-0.6v0.4c-0.2-0.5-0.2,0-0.3,0.5c0.4-0.1,0.8-0.1,1.2-0.1
	C231.5,71.1,231.4,70.9,231.3,70.4L231.3,70.4z M229.5,71.4c0.1,0,0.2,0,0.3,0C229.7,71.3,229.6,71.3,229.5,71.4z M231.8,71.2
	c0.1,0,0.2,0,0.4,0C232,71,231.9,71.1,231.8,71.2z M208,368.7c-0.1,0-0.3-0.1-0.4-0.1C207.6,368.7,207.8,368.7,208,368.7z
	 M0.3,259.4c0.1-0.2,0.1-0.3,0.2-0.4C0.4,259,0.4,259.3,0.3,259.4z M377.1,40.4c0.1,0.4,0.1,0.7,0.1,1
	C377.5,41.2,377.2,40.7,377.1,40.4z M24.3,191.1v-0.6C24.3,190.8,24.3,191,24.3,191.1z M145.6,23.8c0-0.1-0.4-0.6-0.7-0.8
	C145.2,23.2,145.4,23.5,145.6,23.8z M340.2,131.4c0.2,0.1,0.3,0.2,0.5,0.3C340.7,131.4,340.4,131.4,340.2,131.4z M139.1,1
	c0.3,0,0.6,0,1,0C139.6,1,139.3,1,139.1,1z M345.9,94.9L346,95C346,94.9,345.9,95,345.9,94.9z M251.9,86.8c-0.2-0.5-0.4-0.9-0.6-1.4
	l0.6-0.1c-0.6-0.3-0.7-0.8-0.8-1.3s-0.1-1-0.5-1.4h0.2c-0.6-1.8-1.9-3.1-3.3-4.2c-3.4-4.3-8.6-7.1-14.5-7.2c0-0.4,0-0.7-0.2-1.1
	l-0.1,0.7c-0.1-0.7-0.1-0.3-0.1-0.8c-0.5-0.1-0.6-1-1-1.4v0.1c-0.2,0.8-0.6,0.3-0.8,0.3l-0.1-0.4c-0.2-0.8-0.4,1.6-0.4,0.2
	c-0.5,0.2-1.1,0.4-1.7,0.6c-0.6,0.2-1.2,0.3-1.8,0.5c0,0.5-0.9,0.3-0.3,1.1c-0.6-0.9-1.6-0.9-1.9-0.7c0-0.1-0.1-0.2,0-0.2
	c-1.2-1-0.1,1.5-1.5,0.2c0.2,0.6-0.1,0.6-0.4,0.7s-0.6,0.2-0.4,1c-0.2-0.2-0.4-0.4-0.4-0.6c-1,0.5-2.3,1-3.1,1.6
	c0,0.7-0.4,0.9-0.8,1.2c-0.4,0.3-0.8,0.6-0.4,1.4c-0.3,0.1-0.8,0.2-1.1,0.5c-0.4,0.2-0.6,0.6-0.6,1.1l-0.1-0.2
	c-0.5,0.8-1,1.9-0.5,2.8c-1.4-0.5-1.3,0-1.9,0.2c0.2,0.4,0.1,0.9-0.1,1.4c-0.1,0.5-0.2,1.1,0,1.6c-0.7-0.1,0,0.8-0.9,0.6
	c0.3,0.8,0.4,1.5,0.4,2.2c0.1,0.7,0,1.4-0.1,2.1s-0.3,1.4-0.5,2.2c-0.2,0.7-0.5,1.5-0.7,2.2h-0.1c0.6,0.3,1.8,0.6,2.5,0.8h-0.2
	c0.1,0.2,0,0.5-0.2,0.8c-0.1,0.3-0.3,0.5-0.1,0.8c-0.1,0-0.2,0-0.3,0c0.5,0.3-0.5,1.2,0.4,1.5l-0.2,0.1l0.5,0.2
	c-0.3,0.1-0.8,0.2-0.7,0c0.5,2.2,1.9,4.1,3.5,5.6c1.6,1.6,3.3,2.8,5,4.2l-0.3,0.2l1,0.1c-0.1,0.1-0.2,0.2-0.2,0.2
	c0.6,1,2,0.8,2.9,1.4c-0.1,0.1-0.4,0.3-0.3,0.6c1-0.4,0.7,1.6,1.8,0c0,0.1-0.1,0.5-0.2,0.6c1.1,0.1,2.2,0.2,3.2,0.5
	c1.1,0.1,2.1,0.4,3.2,0.6c0.9-0.7,1.8-0.9,2.7-0.9c0.5,0,0.9-0.1,1.4-0.2s0.9-0.4,1.2-0.8l0.1,0.3c1-0.8,2-1.2,3.2-1.5
	c0.6-0.2,1.1-0.3,1.7-0.6c0.5-0.3,1.1-0.5,1.5-0.9c0.9-0.5,1.2-1.2,1.9-1.8l0.3,0.3c0.1-1.1,0.9-1.5,1.7-1.9
	c0.4-0.2,0.8-0.5,1.1-0.8s0.4-0.8,0.3-1.4l0.4,0.4c-0.6-0.6,0.7-0.7-0.3-1.3l0.1-0.1h0.3c-0.1-0.1-0.1-0.2-0.1-0.2
	c0.3-0.6,0.6-1.1,0.8-1.7c0.3-0.3,0.6-0.6,0.4-1.2c0-0.1,0-0.1,0.1-0.2l0.2,0.1c0-0.1-0.1-0.2-0.1-0.4c0.1-0.2,0.1-0.4,0.2-0.7
	c0,0,0,0,0.1-0.1c0,0.1,0.1,0.1,0.2,0.2c0.8-0.4,1-1.1,0.8-1.7c-0.1-0.7-0.3-1.3-0.3-2l0.6,0.2c-0.7-0.7,0.1-1.7-0.4-2.5h0.3
	l-0.4-0.4l0.6-0.1C252.4,87.8,252.2,87.3,251.9,86.8L251.9,86.8z M214.3,91.3c-0.2-0.5-0.5-1-0.6-1.4c-0.1-0.5,0.1-0.9,0.5-1.3
	l0.1-0.1c0,0.4-0.1,0.8-0.1,1.3S214.2,90.8,214.3,91.3C214.3,91.4,214.3,91.3,214.3,91.3L214.3,91.3z M215.3,96.2
	c-0.2-0.3-0.3-0.7-0.4-1c-0.1-0.2-0.1-0.5-0.1-0.8c0.2,0.8,0.4,1.5,0.7,2.2C215.5,96.5,215.4,96.4,215.3,96.2L215.3,96.2z
	 M216.6,80.6c0.1-0.6,0.1-1.1,0.2-1.7c1.3-1,2-2.5,3.1-3.7c0.5-0.6,1.1-1.2,1.8-1.6s1.5-0.7,2.3-0.6c0.4-0.8,1.2-0.9,2.1-0.7h0.1
	C222.1,73.9,218.7,76.8,216.6,80.6L216.6,80.6z M229.5,71.4c0.1-0.1,0.2-0.1,0.3,0C229.7,71.4,229.6,71.4,229.5,71.4z M230.4,71.3
	c0.1-0.5,0.2-1,0.3-0.5v-0.4c0.4-0.2,0.1,0.5,0.4,0.6c0.1-0.1,0-0.8,0.2-0.6c0.1,0.5,0.1,0.7,0.3,0.7
	C231.2,71.2,230.8,71.2,230.4,71.3L230.4,71.3z M231.8,71.2c0.1,0,0.2-0.1,0.4,0C232,71.1,231.9,71.1,231.8,71.2z M231.3,68.3
	l0.1,0.1C231.5,68.3,231.4,68.4,231.3,68.3z M164.1,138.1L164.1,138.1L164.1,138.1L164.1,138.1z M163.6,195.8l-0.1,0.2
	C163.6,196,163.6,195.8,163.6,195.8z M105.7,136.1C105.7,136.1,105.8,136.1,105.7,136.1L105.7,136.1z M141.3,159.9L141.3,159.9
	C141.2,159.9,141.2,159.9,141.3,159.9z M141.2,142.3h0.1C141.2,142.3,141.2,142.3,141.2,142.3z"/>
</svg>
