<?xml version="1.0" encoding="utf-8"?>
<!-- Generator: Adobe Illustrator 26.1.0, SVG Export Plug-In . SVG Version: 6.00 Build 0)  -->
<svg version="1.1" id="Layer_1" xmlns="http://www.w3.org/2000/svg" xmlns:xlink="http://www.w3.org/1999/xlink" x="0px" y="0px"
	 viewBox="0 0 50 50" style="enable-background:new 0 0 50 50;" xml:space="preserve">
<style type="text/css">
	.st0{fill:#8C3712;}
</style>
<g>
	<path class="st0" d="M37.2,36.41c0-0.63-0.01-1.26-0.12-1.87l0.07,0.01c-0.25-2.59,0.11-5.32-0.09-7.96l0.08-0.02
		c-0.31-1.36,0.28-2.86-0.06-4.29l0.11,0.1c-0.16-0.21,0.03-0.77-0.19-0.78c-0.01-0.07,0.01-0.19,0.04-0.25
		c-0.14-0.83,0.05-2.07-0.04-2.91l0.04,0.05c-0.05-0.26-0.05-0.65-0.03-0.91c0.01,0.04,0.03,0.02,0.05,0.09
		c0.28-0.99-0.03-2.08-0.02-3.12l0.13,0.12c-0.15-0.5-0.01-1.42-0.08-2.09l0.06,0.04l-0.09-0.33l0.12-0.01
		c0-0.29-0.01-0.76-0.03-1.07c-0.59,0.03-1.17,0.07-1.75,0.09l0.04-0.11c-0.78,0.2-1.66,0-2.49,0.08l0.06-0.04
		c-3.39,0.22-15.63,0.02-18.99,0.21l0.13,0.06c-0.13,0.11-0.07,0.08-0.17,0.12c-0.02,0.41-0.21,0.46-0.29,0.76
		c0.19,0.15,0.07,0.49,0.06,0.64c-0.31,0.08,0.22,0.52-0.04,0.4c0.07,0.83,0.06,1.79,0.07,2.72c0.1,0.13-0.01,0.71,0.19,0.51
		c-0.22,0.23-0.28,0.92-0.27,1.18c-0.02-0.01-0.04-0.02-0.04-0.06c-0.29,0.5,0.27,0.59-0.09,1.06c0.25,0.07-0.08,0.85,0.21,1.11
		c-0.06,0.06-0.1,0.08-0.15,0.06c-0.01,1.55-0.24,3.07,0.1,4.47c-0.06,0.43-0.19,1.13-0.07,1.74l-0.04-0.06
		c0.02,0.68,0.03,1.53,0.22,2c-0.29,0.2-0.23,0.5-0.32,0.79c0.13,0.46,0.09,1.37,0.22,2.07c-0.13,0.11,0.06,0.57-0.14,0.61
		c0.44,2.18,0.14,4.64-0.04,6.88c-0.04,0.02,1.54-0.08,1.18,0.03c0.48-0.04,0.76,0.15,1.16,0.12c0,0.03,0,0.03-0.06,0.06
		c0.36-0.09,0.74,0.15,1.16,0l0.02,0.05l0.27-0.07c-0.01,0.06-0.02,0.16-0.16,0.14c3.26,0.06,6.62-0.27,9.97-0.22l-0.12,0.06
		l0.65-0.11c0,0.03-0.03,0.05-0.07,0.06c0.83,0.11,1.68-0.07,2.49-0.04c0,0.03-0.13,0.09-0.01,0.13c0.6-0.17,0.96,0.23,1.26-0.14
		c0.03,0.02,0.05,0.1-0.01,0.13c1.95-0.21,4,0.06,5.96-0.17C37.19,37.57,37.2,37.04,37.2,36.41z M35.5,36.59
		c-0.02-0.02-0.03-0.03-0.06-0.05l-0.06,0.13c-0.09-0.13-0.07-0.07-0.1-0.17c-0.36-0.02-0.41-0.21-0.67-0.29
		c-0.13,0.18-0.43,0.08-0.56,0.06c-0.07-0.31-0.45,0.22-0.36-0.04c-0.73,0.07-1.57,0.06-2.39,0.07c-0.11,0.1-0.63-0.01-0.45,0.19
		c-0.2-0.22-0.81-0.28-1.04-0.27c0.01-0.02,0.02-0.04,0.05-0.04c-0.44-0.29-0.52,0.27-0.93-0.09c-0.06,0.25-0.75-0.08-0.98,0.21
		c-0.05-0.06-0.07-0.1-0.05-0.15c-1.36-0.01-2.71-0.24-3.93,0.1c-0.38-0.06-1-0.19-1.53-0.07l0.05-0.04
		c-0.6,0.02-1.35,0.03-1.76,0.22c-0.18-0.29-0.44-0.23-0.7-0.32c-0.4,0.13-1.21,0.09-1.82,0.22c-0.09-0.13-0.5,0.06-0.54-0.14
		c-0.44,0.1-1.22,0.18-1.56,0.22c-0.02-1.09,0.1-2.23,0.26-3.28c-0.11-0.23-0.33-0.49-0.46-0.73c0.02-0.02,0.05-0.02,0.05,0.03
		c-0.04-0.33,0.15-0.65,0.12-0.98c0.03,0,0.03,0,0.06,0.06c-0.09-0.31,0.15-0.65,0-1.02l0.05-0.02l-0.07-0.23
		c0.06,0.01,0.16,0.01,0.14,0.14c0.06-2.87-0.27-5.82-0.22-8.77l0.06,0.11l-0.11-0.57c0.03,0,0.05,0.03,0.06,0.06
		c0.11-0.73-0.07-1.48-0.04-2.19c0.03,0,0.09,0.11,0.13,0.01c-0.17-0.52,0.23-0.84-0.14-1.1c0.02-0.02,0.1-0.04,0.13,0.01
		c-0.21-1.59,0.07-3.28-0.17-4.76c0.95-0.14,2.06,0.04,3.01-0.18L19,13.01c2.27-0.25,4.67,0.11,7-0.09L26.02,13
		c1.2-0.31,2.52,0.28,3.77-0.06l-0.09,0.11c0.18-0.16,0.68,0.03,0.68-0.19c0.06-0.01,0.17,0.01,0.22,0.04
		c0.72-0.14,1.82,0.05,2.56-0.04l-0.04,0.04c0.23-0.05,0.57-0.05,0.8-0.03c-0.03,0.01-0.02,0.03-0.08,0.05
		c0.51,0.16,1.01,0.13,1.54,0.06c0.04,0.26,0.08,0.6,0.08,0.97l-0.13-0.1c0.15,0.44,0.01,1.25,0.08,1.83l-0.06-0.04l0.09,0.29
		l-0.12,0.01c-0.01,0.76,0.1,1.47,0.11,2.21l-0.11-0.04c0.2,0.69,0,1.46,0.08,2.19l-0.04-0.05C35.48,22.96,35.54,33.7,35.5,36.59z"
		/>
	<path class="st0" d="M34.66,14.65l-0.31-0.36h-0.06c-0.14-0.12-0.76-0.31-0.84-0.51c-0.36-0.09-0.66,0.17-0.99,0.04l0.04-0.06
		c-0.44,0.11-1.18-0.13-1.82,0.11c-0.12-0.14-0.54,0-0.73-0.14c-0.13,0.06-0.26,0.04-0.32,0.14c-2.77-0.12-5.41,0.22-8.25,0.09
		c-0.01-0.01,0-0.02,0-0.03c-1.44,0.26-3.05,0.04-4.54,0.05c0.14,4.16-0.45,8.38,0.06,12.47c-0.03,0-0.04,0.02-0.05-0.05
		c0.05,0.76-0.04,1.47,0.01,2.18h-0.03c0.16,2.3,0.13,4.52,0.21,6.79c1.78,0,3.71-0.03,5.51-0.08l-0.01,0.06
		c4.01,0.15,8-0.06,12.02-0.01c-0.09-0.6-0.09-2.09-0.08-2.7c0.48-4.21-0.39-11.15,0.14-15.43l-0.07,0.04
		c0.22-0.35-0.28-0.76,0.03-1.05l0.01,0.04c0.08-0.1-0.02-0.21-0.11-0.32C34.57,15.79,34.34,14.59,34.66,14.65z"/>
	<path class="st0" d="M28.26,39.29h-0.02c-0.05-0.04-0.25-0.1-0.28-0.16c-0.12-0.03-0.22,0.05-0.33,0.01l0.01-0.02
		c-0.14,0.03-0.39-0.04-0.6,0.04c-0.04-0.04-0.18,0-0.24-0.04c-0.04,0.02-0.09,0.01-0.1,0.04c-0.92-0.04-1.79,0.07-2.72,0.03
		c0,0,0-0.01,0-0.01c-0.48,0.08-1.01,0.01-1.5,0.02c0.05,1.32-0.15,2.66,0.02,3.95c-0.01,0-0.01,0.01-0.02-0.02
		c0.02,0.24-0.01,0.46,0,0.69h-0.01c0.05,0.73,0.04,1.43,0.07,2.15c0.59,0,1.23-0.01,1.82-0.03l0,0.02c1.32,0.05,2.64-0.02,3.97,0
		c-0.03-0.19-0.03-0.66-0.03-0.86c0.16-1.34-0.13-3.54,0.05-4.89l-0.02,0.01c0.07-0.11-0.09-0.24,0.01-0.33l0,0.01
		c0.03-0.03-0.01-0.07-0.03-0.1c0.02-0.04-0.05-0.42,0.05-0.4L28.26,39.29z"/>
	<path class="st0" d="M22.5,9.35c-0.01,0-0.01,0-0.02-0.01c0.02,0.12-0.01,0.23,0,0.34h-0.01c0.05,0.36,0.04,0.71,0.07,1.06
		c0.59,0,1.23,0,1.82-0.01l0,0.01c1.32,0.02,2.64-0.01,3.97,0c0.04-0.84-0.09-1.98,0.02-2.83l-0.02,0.01
		c0.07-0.05-0.09-0.12,0.01-0.16l0,0.01c0.03-0.02-0.01-0.03-0.03-0.05c0,0-2.9-2.03-5.86,0.08C22.51,8.43,22.34,8.71,22.5,9.35z"/>
</g>
</svg>
