<?xml version="1.0" encoding="UTF-8"?><svg id="a" xmlns="http://www.w3.org/2000/svg" viewBox="0 0 317.93 449.77"><defs><style>.b{fill:#8c3712;}</style></defs><path class="b" d="M211.53,2.41c.35-.57-.07-1.1-2.87-1.57l-1.08,.94c-1.85-.86-1.4-.42-2.08-1.09-7.13,.25-8.22-.85-13.47-.67,.04,0,.08,.02,.06,.06,.03,0,.05,.02,.07,.03-.03,0-.06,0-.09,.01-1.66,.87-3.73,1.27-5.7,1.7s-3.91,.61-5.28,.94l-1.22-.18c-.96-.25-2.85,.74-4.2,1.67-1.36,.91-2.28,1.57-1.53,.35-6.93,2.57-14.13,5.93-21.09,10.12-6.97,4.17-13.63,9.26-19.58,14.93-.29,.52-1.02,1.32-1.87,2.2l-2.57,2.82c-.4,.45-.77,.86-1.07,1.22-.28,.37-.5,.68-.61,.92-.22,.46-.06,.57,.77,.12-.95,.52-2.18,1.47-3.55,2.66-1.31,1.23-2.74,2.74-4.11,4.3-1.3,1.62-2.64,3.24-3.69,4.77s-1.95,2.9-2.53,3.87c-.04-.22-.07-.47,.36-1.05-1.59,1.62-2.55,3.14-3.3,4.48-.73,1.36-1.1,2.64-1.51,3.86-.21,.62-.4,1.22-.65,1.84-.22,.63-.45,1.27-.76,1.93-.6,1.33-1.55,2.72-2.84,4.46,.27,.46,.03,1.57-.48,3.02-.51,1.47-1.15,3.36-1.89,5.32-.67,2-1.29,4.12-1.73,6.05-.35,1.95-.52,3.71-.28,4.95-.6,.92-.96,1.2-1.19,.77-1.5,7.36-2.42,15.23-2.5,22.86,.04,1.91,.07,3.8,.11,5.65l.06,2.77,.27,2.71c.19,1.79,.37,3.54,.55,5.23,.05,.42,.08,.85,.15,1.26l.23,1.23,.47,2.4c.46,1.3,.87,2.68,1.25,4.11,.17,.72,.42,1.44,.66,2.16l.69,2.21c.45,1.5,.89,3.02,1.32,4.57,.49,1.53,1.07,3.02,1.6,4.53,.56,1.5,1.07,3,1.66,4.44,.66,1.41,1.33,2.78,2.01,4.08s1.33,2.55,2.07,3.67c.78,1.1,1.57,2.09,2.38,2.97,1.61,3.5,4.16,7.87,7.22,12.38,.82,1.09,1.66,2.19,2.5,3.3l1.3,1.65c.43,.56,.87,1.11,1.37,1.6,1.95,2.03,3.89,4.06,5.94,5.83-.32-.18-.64-.35-.92-.56,1.08,1.08,2.28,2.09,3.45,3.18,1.19,1.06,2.37,2.18,3.63,3.22,1.3,.99,2.6,1.99,3.9,2.97,1.31,.97,2.56,2,3.94,2.8,1.35,.83,2.68,1.65,3.96,2.45,.65,.39,1.28,.76,1.91,1.13,.65,.34,1.29,.64,1.92,.95,2.52,1.18,4.78,2.26,6.77,2.89,1.16,1.63,3,2.93,5.12,4.17,.53,.3,1.07,.64,1.63,.9l1.75,.79,1.78,.82,.9,.43c.1,.04,.15,.07,.16,.1h.01c.04-.06,.1-.09,.18-.12,.08,0,.13,.04,.19,.12l.02,.03v.22l.05,.79c.02,.53,.04,1.08,.07,1.63,.04,1.11,.07,2.26,.11,3.43,.06,2.36,.12,4.84,.18,7.36l.05,1.89,.02,.84,.03,.19,.12,.85-.98,.18c-1.37,.09-2.68,.17-3.95,.24-1.83-.91-9.86,.38-10.48-.94-.72,.05-1.46,.11-2.2,.16l-2.34,.16c-1.25,.04-2.52,.08-3.81,.12,.04-1.34,.08-2.68-.11-3.84l.42,.18-.59-1.5,.84-.04c.06-3.85-.67-7.45-.76-11.23h0l.76,.2c-.61-1.92-.67-3.58-.6-5.6l-3.48-.17c-.61-.02-1.21-.03-1.82,0-.58,.02-1.05,.06-1.57,.15l.25-.26c-6.74-.21-13.1,.39-19.59,.96H59.79s-.1,0-.15,0c-.02,0-.03,0-.05,0-1.23-.21-2.3-1.07-3.26,.31l.91,.28c-.91,.47-.45,.36-1.13,.53-.12,1.83-1.44,2.07-2,3.38h.02s.04-.02,.08,0c1.09,.9,.44,2.13,.28,2.85l-.51,.28c-1.06,.43,2.07,2.08,.25,1.53,.45,3.72,.43,7.98,.45,12.14,.3,.25,.32,.86,.37,1.42-2.93,0-5.85,.01-8.77,.02l-11.43-.03,2.11-.41-11.16,.74c.06-.22,.59-.33,1.12-.43-3.93-.21-7.89-.25-11.88-.23l-5.97,.09c-2.79,.05-5.57,.1-8.33,.16,.09,4.03,.17,8.04,.24,12,.06,3.18,.09,6.32,.05,9.42-.22-.07-.64-2.16-.88-.22,1.19,10.25-1.55,16.47,.93,21.61-.12,.48-.67,.8-.87-.24,.82,28.53,.77,57.84,.37,86.59,2.24,23.95,.22,50.71,2,75.58l-.45-.13,.21,4.61,.16,5.26c2.04-.05,4.1-.1,6.15-.15,1.85-.03,3.7-.07,5.56-.1,3.72-.05,7.45-.08,11.2-.08,7.5,0,15.06,.07,22.65,.17,15.17,.19,30.44,.45,45.55,.31,13.86,.18,23.22-.35,37.15-.38l.35,.56c11.3-1.02,23.15-.62,35.14-.19,6,.22,12.02,.44,18.03,.5,3,.03,6.01,0,8.99-.07l2.24-.07,2.32-.1c1.8-.08,3.53-.17,5.13-.28-.08-1.07-.16-2.12-.22-3.18,.25,.73,.51,1.57,.75,2.47-.29-1.44-.41-3.12-.46-4.92-.05-1.55-.02-3.23-.02-4.75,0-2.54-.07-4.64-.69-4.82v-39.95h8.8c1.87-.07,3.79-.18,5.78-.35l-.98,.35h1.63c4.91-.3,10.22-.49,13.75-.09-.22,.02-.32,.05-.42,.09-.19,.07-.35,.16-1.2,.24,4.71,.51,8.73,.72,15.23,.78,.02-2,.02-4.06,0-6.06-.03-1.64-.06-3.29-.09-4.94-.08-3.31-.21-6.63-.33-9.96-.25-6.66-.51-13.32-.49-19.87l.89,2.02c-1.04-8.65-.07-24.51-.55-35.88l.42,.69-.59-5.75,.84-.15c.06-14.79-.67-28.71-.76-43.15l.07,.15h.03l.76,.76c-1.35-13.43,.02-28.58-.57-42.8l.26,.96c0-4.51,.03-8.97,.04-13.4v-4.11s-.03-.13,.05-.13l1.22-.47,5.86-2.25c8.07-3.57,15.6-8.06,22.52-13.31,5.17-4.05,9.98-8.54,14.37-13.44,18.03-19.29,29.07-45.2,29.07-73.68,0-59.11-47.51-107.1-106.4-107.93h0ZM57.83,216.6h0c0,.06,0,.11,0,.16v4.67c-.68-.59-1.33-1.14-.61-1.48l-.61-.19c-.18-1.38,.68-.17,.93-1.22-.08-.4-1.1-.16-.75-.99,.73-.05,.98-.37,1.04-.79v-.58c.02,.14,.03,.27,.02,.4,0,.09,0,.09,0,.02h0Zm55.89-4.11l-.04-.03c.1-.04,.16-.04,.04,.03Zm-5.15,30.41s.05-.06,.06-.09c.2,.3,.37,.62,.52,.95h-.02c-.7-.11-1.33-.04-.56-.86h0Zm-5.78-3.27c1.21,0,2.36,.3,3.36,.86,.1,.05,.19,.11,.28,.17-.31,.14-.61,.32-.89,.51-.2-.76-.92-.54-1.44-.33-.56,.2-.9,.31-1.44-.88-.22,.77-.46,.31-.83-.25h0c.31-.05,.64-.07,.97-.07h0Zm-2.5,.45c.12,.41,.23,.8,.23,.87-.02-.02-.05-.07-.09-.16l.17,.45c-.04,.21-.27-.63-.46-.81,0,.09,.43,1.01,.22,.72-.28-.59-.42-.82-.49-.89,.14-.07,.28-.13,.42-.18h0Zm-.87,.41c.25,.45,.5,.87,.77,1.24l-.42-.81c.47,.78,.24,.38,.58,.98,.18,.04,.79,1.22,1.08,1.68l-.04-.09c-.42-1.01-.08-.45,0-.31l.21,.46c.28,.69-.16-.55-.23-.77,.03,.06,.09,.21,.2,.51,0-.49,.24-.54,.46-.61-.1-.68,.19,.03-.09-1.27,.33,1.48,.5,1.85,.55,1.79,0,.14,.02,.3,0,.24,.14,.98,.11,.52,.12,.12,0-.4,.03-.74,.12,.45,0-1.7,.14,.54,.23-1.46,0,.38,0,.72-.03,1.02,.18,.05,.24,.67,.31,.76,.19-.72,.23-.54,.25-.43,.03,.11,.06,.15,.44-.81-.03,.45-.28,1.27,.15,.57l-.12,.22c.16-.06,.31-.09,1.12-1.12-1.01,1.69-.77,1.39-1.1,1.93,.59-.7,.56-.39,1.22-.91-.61,.67,.37-.19-.56,.76,1.03-.79,1.58-.76,1.63-.44,.06,.33-.43,.95-1.27,1.46,.72-.25,2.16-.73,3.04-.93-.1,.04-.26,.1-.3,.1,.22,.08-.94,.54-.68,.57-.14,.04-.28,.07-.42,.1,.59-.04-.98,.41,.03,.29l-.34,.08,.49-.03c-.35,.07-.84,.15-.94,.15-.14,.34,.31,.59,.74,1.07,.44,.45,.73,1.12,.37,1.51l-.36-.21c.2,.16,.39,.32,.59,.5-.2-.1-.28-.16-.37-.22-.37-.06-.33,.08-.22,.28,.11,.21,.25,.46,.1,.51-.17-.13-.49-.4-.7-.52,.43,.41,.08,.24-.13,.14-.2-.1-.27-.13,.53,.62-.17-.14-.45-.38-.55-.48,.35,.88-.2,1.26-.79,1.15,.41,1.08,.16,1.25-.08,1.36-.26,.09-.48,.13-.53,1.05l-.12-.43c-.14,.86-.62,.91-1.02,.76-.43-.15-.79-.5-1.17-.37-.28-.23-.58,.28-.92,.22l.12-.55c-.52,.97-.73,.4-.82-.12-.12-.52-.09-1-.9-.1l.4-.65c-.62,.93-.11-.39-.95,.99-.04,.07-.08,.14-.13,.22l.09-.25s-.08-.04-.11-.07c-.19-.12-.37-.25-.54-.39,.06-.33,.08-.59-.4-.35-.04,.02-.09,.05-.14,.08l.12-.11s-.06-.04-.09-.07c-.17,.05-.26,.01-.17-.18,0-.02,.03-.05,.05-.08,.06-.04,.16-.14,.26-.21,.55-.81,.4-.88,.06-.87-.32,0-.89,.14-.97-.08l.76-.44c-.98,.39-.35-.42-.87-.43l.38-.17-.59,.14,.76-.35c-.06-.26-.72-.31-.98-.57l.7-.18c-.68,.04-.73-.14-.67-.32,.08-.19,.24-.37-.08-.5h.27c.11-.42-.15-.76-.48-1.2-.13-.18-.28-.39-.42-.6,.34-2.16,1.67-3.99,3.51-5.02h0Zm-15.03,61.14s-.08,.11-.12,.16c-.11-.79-.16-1.59-.16-2.41,0-.2,0-.4,0-.6,.02,.04,.05,.09,.07,.13,.25,.5,.59,.96,.69,1.4,.12,.44-.03,.86-.49,1.32Zm.65-7.53c-.04,.63-.23,1.21-.59,1.77,.16-.82,.38-1.62,.65-2.4,0,.22-.03,.43-.06,.63Zm2.06,15.23c.52,.27,1.06,.5,1.61,.68,.19,.77,.71,1.31,1.25,1.8,.62,.42,1.23,.81,1.92,1.09,.33,.15,.66,.3,.95,.48,.32,.15,.62,.32,.9,.53,.54,.45,1.06,.93,1.46,1.81,.93-.45,1.37,.22,1.92,1.04-4.16-1.22-7.69-3.89-10.01-7.43Zm33.47-10.08l-.42-.04c.21,.12,.39,.24,.59,.37h-.84c-.05,.46,.09,.92,.25,1.39,.14,.47,.25,.96,.24,1.44v.03h-.03l-.74-.17c.63,.54,.48,1.01,.27,1.44-.21,.44-.52,.82-.4,1.35l-.23-.15c-.26,.52-.41,1.06-.6,1.59-.16,.55-.25,1.12-.41,1.68-.12,.53-.23,1.08-.41,1.63h0c-3.14,4.44-8.21,7.41-14.01,7.66-.02-.51-.08-.99-.28-1.43l-.02,.91c-.17-.91-.11-.45-.19-1.13-.45-.12-.45-1.43-.8-1.98v.1c-.25,1.1-.52,.43-.66,.26l-.05-.51c-.04-1.07-.53,2.04-.32,.23-.81,.44-1.73,.26-2.61,.11-.27,.64-.66-.23-.79,1.11,.14-1.53-.34-2.04-.58-2.09,.06-.13,.12-.28,.14-.22,.11-1.01-.15-.62-.41-.29s-.53,.61-.26-.58c-.74,1.54-.43-.81-1.53,.88,.12-.36,.26-.67,.42-.93-.34-.16-.59-.54-.82-.87l-.33-.48c-.1-.17-.2-.3-.3-.41-.65,.44-.83,.12-1.01-.17-.17-.29-.36-.51-1.25,.08-.04-.59,.23-1.64-.77-1.49l.22-.13c-.48-.4-1.02-.92-2.35-.61,1.56-1.24,1.1-1.24,1.51-1.78-1.03,.13-1.11-.75-2.15-1.01,.81-.43-.55-.37,.68-.86-.37-.09-.7-.22-1-.38-.27-.17-.49-.36-.67-.59-.19-.22-.32-.46-.43-.71-.08-.25-.12-.53-.12-.8s0-.55,.09-.83,.21-.56,.35-.82c.26-.54,.71-1.03,1.22-1.46-.74-.26-2.27-.68-3.11-1.07,.12-.02,.33,0,.32,.07-.18-.44,1.16-.61,.98-1.02,.14,.03,.28,.07,.41,.14-.54-.48,1.17-.47,.27-1.09l.34,.07-.41-.37c.35,.11,.84,.24,.9,.34,.58-1.35,.7-2.89,1.2-4.48,.48-1.58,1.31-3.24,2.75-4.19l.16,.39c.02-.32,.04-.65,.07-.98,.13,.18,.17,.28,.21,.38,.56,.05,.8-.3,1.07-.67,.26-.37,.48-.85,.9-.95,.1,.19,.19,.62,.39,.78,0-.66,.39-.42,.66-.29,.27,.12,.43,.12,.08-1.09,.07,.1,.3,.6,.33,.81,1.18-1.39,3.03-1.79,4.71-1.53,.3-.58,.67-.89,1.06-1.06,.39-.18,.85-.18,1.23-.17,.4,0,.8,.07,1.21,0,.41-.05,.84-.25,1.3-.6l-.08,.44c.57-.28,1.14-.4,1.69-.32,.54,.1,1.07,.27,1.56,.55,.48,.29,.95,.6,1.41,.91,.44,.33,.91,.61,1.42,.8,.66,.64,1.47,.5,2.21,1.07l-.32,.45c1.28-.39,1.58,.62,1.84,1.46,.21,.93,.38,1.7,1.76,1.68l-.67,.36c1.03-.46,.32,.81,1.54-.01,.04,.04,.06,.08,.08,.12h0c-.05,.09-.1,.18-.15,.26,.11-.02,.21-.03,.3-.03,.34,.54,.65,1.09,.92,1.66-.06,.43-.02,.81,.49,1.05,.02,.06,.04,.11,.06,.16l-.24,.05c.12,.05,.23,.11,.33,.18,.09,.24,.18,.47,.25,.71,.05,.16,.04,.17,0,.02-.08-.02-.21,.05-.35,0-.68,.82-.53,1.32-.12,1.82,.44,.49,.99,1.01,1.05,1.6h-.9c1.15,.41,.21,1.55,.72,2.25h-.01Zm12.94-84.46c.07-.03,.17-.06,.25-.06-.04,.06-.12,.09-.25,.06ZM174.3,8.34c.99-.69,1.94-1.38,2.83-1.85,.89-.46,1.74-.66,2.48-.5l.52-.77c2.55-.82,2.75-.68,2.81-.46,.06,.22,0,.51,2.01,.17,1.49-.4,.32-1.23,3.56-1.57,.29,.58,1.23,.68,2.48,.58,.63-.06,1.33-.17,2.07-.31s1.55-.23,2.33-.37c1.72-.31,3.45-.52,4.7-.43-9.04,.82-17.77,2.75-26.03,5.67l.24-.16Zm-39.7,113.88c.28,.98,.56,1.96,.8,2.92,.33,.95,.64,1.88,.88,2.8,.5,1.84,.7,3.64,.74,5.36,0,.28,.02,.56,.04,.84-1.26-4.15-2.19-8.45-2.73-12.87,.09,.32,.18,.64,.27,.95h0Zm6.34,72.24c-8.59-7.4-16.17-15.93-22.36-25.37-6.2-9.43-11-19.79-14.05-30.65-1.51-5.43-2.64-10.96-3.24-16.54-.46-2.78-.44-5.6-.6-8.39l-.09-2.1c-.04-.7-.06-1.4-.02-2.1l.13-4.2c.34-5.58,1.08-11.11,2.3-16.52,1.28-5.4,2.99-10.65,5.13-15.7,1.46-4.99,3.6-9.91,6.26-14.65,2.71-4.71,5.98-9.22,9.59-13.48,.71-.84,1.43-1.67,2.18-2.48-15.11,18.57-24.16,42.25-24.16,68.05,0,41.34,23.25,77.25,57.39,95.37-6.46-3.1-12.66-6.85-18.46-11.24h0Zm52.21-8.27c-15.68-3.53-29.55-11.91-39.92-23.47,.41,.36,.82,.71,1.23,1.06,.63,.58,1.35,1.06,2.04,1.56l2.08,1.5c4.19,4.67,9.53,8.17,15.11,10.78l2.05,1.04,2.12,.9,2.09,.93c.69,.31,1.37,.67,2.08,.93,1.42,.56,2.81,1.15,4.19,1.82l1.04,.5,1.06,.44c.7,.3,1.4,.63,2.09,.97,2.89,.07,5.64,1.1,8.6,2.13-1.98-.29-3.94-.65-5.86-1.09h0Zm23.74,1.56c.55-.7,1.04-1.3,1.44-.66l.13-.62c1.43-.35,.25,.67,1.41,.76,.41-.14,.02-1.11,.94-.89,.12,.53,.35,.77,.65,.86-1.5,.23-3.03,.42-4.57,.55Zm58.07-35.34h-.01c.03-.1,.05-.15,.05-.01-.01,0-.02,0-.03,0h0Zm9.93-40.09c.6,1.86,.5,3.86,.31,5.86-.3,2-.81,3.97-.76,5.98l-.22-.3c-.15,1.24-.51,2.43-.74,3.63-.25,1.19-.49,2.39-.71,3.58-.3,1.17-.6,2.34-.9,3.5-.31,1.16-.53,2.36-.9,3.5-.69,2.24-1.42,4.48-2.27,6.71-1.46,3.04-3.12,5.98-4.95,8.78-.05,.07-.09,.15-.14,.22-10.59,16.02-27.06,27.81-46.33,32.29-.08-.48-.36-.89-1.11-1.17l-.1,.95c-.68-.78-.47-.36-.78-.99-1.92,.27-2.41-1-3.82-1.31,.02,.02,.04,.05,.02,.1-.74,1.22-2.12,.76-2.86,.68l-.35-.47c-.54-1-1.93,2.28-1.53,.41-3.77,.81-8.22,.86-12.5,.54-.66,.66-3.28-.38-2.48,1.04-.93-1.6-3.99-2.45-5.16-2.63,.07-.13,.15-.28,.32-.19-.93-1.18-1.65-.86-2.4-.62-.73,.26-1.44,.39-2.17-1.05-.37,.78-1.28,.39-2.29,.02-1.02-.38-2.14-.72-3.01-.02-.13-.45-.11-.8,.08-1.06-.9-.34-1.81-.72-2.71-1.12-.9-.41-1.82-.76-2.65-1.29-1.68-.98-3.31-1.89-4.72-2.63-1.54-.02-2.92-1.01-4.28-1.9l-1.02-.65c-.32-.22-.66-.43-.99-.6-.67-.33-1.38-.52-2.17-.43l-1.18-1.26-.68-.69c-.22-.25-.46-.52-.7-.76-.98-1.02-2.11-1.95-3.45-2.51l.37-.02c-.65-.45-1.25-1.01-1.88-1.56-.64-.55-1.29-1.09-1.95-1.57-.66-.5-1.35-.92-1.97-1.33s-1.23-.72-1.83-.92c.85-2.02-.32-2.76-.72-4.16-1.93-1.1-4.34-4.53-6.61-6.87,.53-.89-1.74-2.04-.67-2.85-.78-.83-1.54-1.73-2.27-2.68-.7-.96-1.5-1.93-2.02-3.04-1.12-2.19-2.29-4.49-2.9-6.99-.34-1.23-.67-2.48-.94-3.74-.18-1.28-.32-2.55-.44-3.82-.34-2.51-.09-5.06,.04-7.43h0c-.95-1.1-2.48-2.36-3.44-3.57,.09-.11,.25-.13,.31,.02-.13-.85,.1-1.69,.31-2.51,.22-.87,.44-1.72,.37-2.6,.14,0,.28,.11,.42,.3-.27-.83,0-1.68,.24-2.56s.49-1.78,.05-2.79l.35-.08-.39-1.28c.36,.07,.88,.15,.92,.56,.46-3.62,.99-7.25,1.76-10.87,.8-3.7,1.81-7.4,3.09-11.04,1.29-3.64,2.93-7.19,4.88-10.57s4.24-6.6,6.91-9.47l-.06,.7c.46-.93,.95-1.85,1.49-2.75,.15,.17,.13,.34,.1,.52,.81-.57,1.5-1.24,2.19-1.93,.69-.67,1.35-1.41,2-2.15,1.34-1.43,2.63-2.92,4.2-3.99,.12,.18-.07,.86,.49,.72,.71-1.35,1.87-1.67,2.76-2.03,.9-.36,1.54-.74,1.45-2.14,.18,.03,.55,.44,.42,.76,5.97-4.94,13.46-8.31,21.08-9.93,2.85-1.92,6.31-2.72,9.79-3.12,1.74-.25,3.51-.33,5.25-.57,.87-.11,1.75-.18,2.62-.33,.87-.14,1.74-.34,2.6-.52l-.04,.45c4.47-.75,9.17-.26,13.69,.83,4.55,1.09,8.94,2.74,13.29,4.3,1.77,.75,3.24,1.41,4.76,1.95l2.27,.97c.78,.33,1.58,.72,2.43,1.21l-.2,.53c3.37,.66,6.03,3.04,8.49,5.46,2.49,2.45,4.72,5.05,7.97,6.59l-.87,.21c1.49-.08,2.42,2.89,3.54,1.79,.06-.06,.13-.13,.19-.22,.06,.2,.11,.4,.17,.61,.3,.33,.6,.67,.9,1,1.59,1.84,3.1,3.76,4.53,5.75,1.06,1.51,2.08,3.05,3.04,4.64h.01c.15,.14,.3,.29,.45,.43l-.21-.03c.24,.39,.47,.79,.7,1.18,.58,.72,1.07,1.48,1.21,2.2,.03,.1,.04,.2,.05,.3-.14-.13-.22,0-.5-.24,.12,1.28,.49,2.44,.95,3.57,.43,1.15,1.05,2.23,1.64,3.35,.58,1.12,1.26,2.21,1.82,3.36,.54,1.15,1.11,2.3,1.42,3.51l-1-.28c1.67,2.01,1.91,6.51,2.82,9.54l-.44-.12c.28,.49,.59,.98,.85,1.48l-.82,.17c.53,4,1.49,7.78,1.57,11.78l-.75-.22h0Zm1.03,21.17c0-.08,.01-.2,.03-.28,.04,.06,.04,.15-.03,.28Zm22.13,20.73s.06-.08,.08-.11c-.12,.35-.2,.53-.08,.11Z"/></svg>