<svg xmlns="http://www.w3.org/2000/svg" viewBox="0 0 247.49 89.43"><defs><style>.cls-1{fill:#333331;}</style></defs><g id="Layer_2" data-name="Layer 2"><g id="Layer_1-2" data-name="Layer 1"><path class="cls-1" d="M13.32,65.23a9.7,9.7,0,0,1-1.5.13A7.94,7.94,0,0,1,7.24,64a11.88,11.88,0,0,1-3.57-4.12,28.6,28.6,0,0,1-2.43-6.66A45.25,45.25,0,0,1,0,41.66V23.22Q0,10.5,4.31,4.31,7.34,0,11.91,0a8.84,8.84,0,0,1,7.64,4.31q4.18,6.19,4.18,21v15.8a56.56,56.56,0,0,1-.89,10.82,28.88,28.88,0,0,1-2.48,7.62A15.75,15.75,0,0,1,17.84,63a26.94,26.94,0,0,1,3.46,6.78,7.48,7.48,0,0,0,1,2.07,2.57,2.57,0,0,0,1.23.84l.47.21.09.21c0,.17-.17.34-.51.52a7.05,7.05,0,0,1-3.38.72,5.83,5.83,0,0,1-4.46-1.86C14.62,71.23,13.8,68.81,13.32,65.23Zm1.24-5.38V5.12a5.26,5.26,0,0,0-.81-3.2A2.11,2.11,0,0,0,12,1.11a2.15,2.15,0,0,0-1.84.94,6.43,6.43,0,0,0-.94,3.84v54.6a5.22,5.22,0,0,1,2.95-1.15,6.5,6.5,0,0,1,2.05.38ZM9.22,61.3A3.4,3.4,0,0,0,10,63.65a2.5,2.5,0,0,0,1.86.77A3.62,3.62,0,0,0,13.32,64a4.87,4.87,0,0,0-1.13-2.3,2.43,2.43,0,0,0-1.69-.6A6.36,6.36,0,0,0,9.22,61.3Z"/><path class="cls-1" d="M29.5,85.86a19,19,0,0,0-2.43,2.08c-.83.83-1.34,1.25-1.53,1.25a.2.2,0,0,1-.17-.11.89.89,0,0,1-.07-.45v-22a.32.32,0,0,1,.09-.23.3.3,0,0,1,.2-.08.42.42,0,0,1,.33.21,1.07,1.07,0,0,1,.25.7v1.51a43.31,43.31,0,0,0,1.36,10c.91,3.73,2.1,6.4,3.57,8a3.32,3.32,0,0,0,2.52,1.19,3.56,3.56,0,0,0,2.86-1.56,7.55,7.55,0,0,0,1.22-4.72,20.16,20.16,0,0,0-1.12-6.38,115.66,115.66,0,0,0-6.52-14.37,65.76,65.76,0,0,1-4-8.92,17.92,17.92,0,0,1-.86-5.34c0-3.44.81-6.12,2.43-8.06a7.12,7.12,0,0,1,5.55-2.91c1.77,0,3.37.94,4.79,2.84a20.43,20.43,0,0,0,3.39-2.35c.37-.33.62-.49.74-.49a.21.21,0,0,1,.14.07,1.29,1.29,0,0,1,.07.49v19a1,1,0,0,1-.18.63.34.34,0,0,1-.28.14.34.34,0,0,1-.31-.17,18.11,18.11,0,0,1-.42-2.53q-1.44-10.9-3.81-14.44a3.92,3.92,0,0,0-3.18-2A2.92,2.92,0,0,0,31.81,38a5.42,5.42,0,0,0-1,3.51q0,4.17,4.77,13.7l3.09,6.2a63.06,63.06,0,0,1,4.24,10.19,25.42,25.42,0,0,1,1,6.74q0,5.19-2.56,8.14a7.73,7.73,0,0,1-6,2.94A6.71,6.71,0,0,1,29.5,85.86Z"/><g id="Header"><path class="cls-1" d="M86,43a6.19,6.19,0,0,1-1,.08,5.12,5.12,0,0,1-2.92-.86,7.63,7.63,0,0,1-2.26-2.62,18.5,18.5,0,0,1-1.55-4.23A29.11,29.11,0,0,1,77.57,28V16.25q0-8.09,2.74-12a5.75,5.75,0,0,1,4.84-2.75A5.62,5.62,0,0,1,90,4.23q2.67,3.93,2.67,13.35v10a35.13,35.13,0,0,1-.58,6.88,18.42,18.42,0,0,1-1.57,4.85,10.35,10.35,0,0,1-1.6,2.17,17.11,17.11,0,0,1,2.2,4.32,4.73,4.73,0,0,0,.65,1.31,1.63,1.63,0,0,0,.79.53l.29.14.06.13q0,.16-.33.33a4.38,4.38,0,0,1-2.14.46,3.71,3.71,0,0,1-2.84-1.18Q86.51,46.38,86,43Zm.79-3.42V4.74a3.34,3.34,0,0,0-.52-2,1.34,1.34,0,0,0-1.11-.51,1.37,1.37,0,0,0-1.17.6,4.16,4.16,0,0,0-.59,2.44V39.94a3.37,3.37,0,0,1,1.87-.73,4,4,0,0,1,1.3.25Zm-3.39.92a2.08,2.08,0,0,0,.5,1.49,1.55,1.55,0,0,0,1.18.49A2.36,2.36,0,0,0,86,42.2a3.16,3.16,0,0,0-.72-1.47,1.54,1.54,0,0,0-1.07-.38A4,4,0,0,0,83.44,40.46Z"/><path class="cls-1" d="M96.81,14.3h-1c-.17-.11-.25-.21-.25-.32a.48.48,0,0,1,.24-.36h5.89V40.87a.57.57,0,0,0,.63.65c.41,0,.81-.29,1.22-.87a5.67,5.67,0,0,0,1-3.31v-23h-1.06a.29.29,0,0,1-.21-.08.45.45,0,0,1-.06-.26.44.44,0,0,1,.06-.25.26.26,0,0,1,.21-.09h5.91V42.06h.93a.33.33,0,0,1,.23.09.35.35,0,0,1,.09.25.31.31,0,0,1-.32.34h-5.78V40.57a6,6,0,0,1-1.79,1.94,4.09,4.09,0,0,1-2.16.56,3.72,3.72,0,0,1-2.77-1,3.54,3.54,0,0,1-.94-2.59Z"/><path class="cls-1" d="M115.08,16.49a5.87,5.87,0,0,1,.74-.2,3.07,3.07,0,0,1,.65-.07,2.42,2.42,0,0,1,1.83.79,2.85,2.85,0,0,1,.75,2.06,2.9,2.9,0,0,1-.76,2.09,2.7,2.7,0,0,1-2,.79,2.61,2.61,0,0,1-2-.8,3.43,3.43,0,0,1-.73-2.38,5.06,5.06,0,0,1,1.76-3.91,7.35,7.35,0,0,1,5-1.57,6.52,6.52,0,0,1,4.23,1.1,3.55,3.55,0,0,1,1.28,2.81V40.65a1.06,1.06,0,0,0,.22.67.62.62,0,0,0,.46.25c.46,0,.92-.48,1.39-1.43.12-.29.25-.44.38-.44l.32.3a2.85,2.85,0,0,1-1.22,2,4.34,4.34,0,0,1-2.93,1.06,3.44,3.44,0,0,1-2.27-.68A4.42,4.42,0,0,1,121,40a9.11,9.11,0,0,1-2.19,2.46,4,4,0,0,1-2.21.61,3.32,3.32,0,0,1-2.38-.8,2.82,2.82,0,0,1-.82-2.11V29.93a3.52,3.52,0,0,1,.72-2.44c.47-.53,1.89-1.18,4.24-2A21,21,0,0,0,121,24.45V16.63a2.68,2.68,0,0,0-.64-1.9,2.2,2.2,0,0,0-1.67-.68A3.78,3.78,0,0,0,115.08,16.49Zm5.87,8.8a5.09,5.09,0,0,0-2.24,1.36,3.63,3.63,0,0,0-.51,2.17V40.3a1.37,1.37,0,0,0,.21.84.6.6,0,0,0,.5.27c.29,0,.62-.31,1-.92A7.76,7.76,0,0,0,121,36.36Z"/><path class="cls-1" d="M136.84,1.92V28.71l5.37-11a4.1,4.1,0,0,0,.49-1.77,1.64,1.64,0,0,0-.32-1,1.46,1.46,0,0,0-.9-.51l-1-.08a.31.31,0,0,1-.16-.3.4.4,0,0,1,.09-.27.3.3,0,0,1,.26-.11h6a.3.3,0,0,1,.26.11.41.41,0,0,1,.1.27.38.38,0,0,1-.11.3l-.82,0a3.21,3.21,0,0,0-.84.16,2.75,2.75,0,0,0-1.14,1,27.88,27.88,0,0,0-1.3,2.52l-2.73,5.49L146,42.06h.92a.4.4,0,0,1,.27.09.33.33,0,0,1,.11.25l-.08.24a.47.47,0,0,1-.3.1h-7.1a.36.36,0,0,1-.26-.09.34.34,0,0,1-.1-.25.33.33,0,0,1,.36-.34h1.33l-4.3-13.35V42.06h1.08c.2.12.3.24.3.34s-.1.22-.3.34h-7a.37.37,0,0,1-.26-.09.33.33,0,0,1-.09-.25.3.3,0,0,1,.11-.25.36.36,0,0,1,.24-.09h1V2.6h-1a.33.33,0,0,1-.23-.1.32.32,0,0,1-.09-.23.37.37,0,0,1,.09-.26.32.32,0,0,1,.23-.09Z"/><path class="cls-1" d="M153.58,28.27v10.1a6,6,0,0,0,.54,3.12,1.53,1.53,0,0,0,1.33.57,3.37,3.37,0,0,0,2.72-1.71,14.35,14.35,0,0,0,2.11-7.84,7.29,7.29,0,0,1,.15-1.85.39.39,0,0,1,.34-.22.34.34,0,0,1,.3.17,2.36,2.36,0,0,1,.14,1,17.65,17.65,0,0,1-1.7,8.13c-1.13,2.2-2.66,3.3-4.57,3.3a5.27,5.27,0,0,1-4.46-2.54q-1.75-2.53-1.76-11v-4q0-6.48,2.39-9.85a5,5,0,0,1,4.12-2.39q2.88,0,4.44,3.07a16.29,16.29,0,0,1,1.56,7.46v4.45Zm2.79-.73V16a2.74,2.74,0,0,0-.43-1.68,1,1,0,0,0-.88-.41,1.34,1.34,0,0,0-1,.51,2.42,2.42,0,0,0-.44,1.58V27.54Z"/><path class="cls-1" d="M165,14.3h-1.14a.34.34,0,0,1-.26-.1.32.32,0,0,1-.09-.24.33.33,0,0,1,.09-.25.37.37,0,0,1,.26-.09h5.92V17.2A8.9,8.9,0,0,1,171.47,14a2.47,2.47,0,0,1,1.7-.73,2.83,2.83,0,0,1,2.2,1.22,6.2,6.2,0,0,1,1.24,4,4.92,4.92,0,0,1-.82,3.08,2.38,2.38,0,0,1-1.84,1,1.63,1.63,0,0,1-1.35-.7,4.38,4.38,0,0,1-.74-2.72,6.07,6.07,0,0,1,1-3.34,2.79,2.79,0,0,0,.51-1.11.55.55,0,0,0-.19-.42.65.65,0,0,0-.46-.18,1.38,1.38,0,0,0-1,.49,7.45,7.45,0,0,0-1.41,3,17.51,17.51,0,0,0-.62,4.85V42.06h1.38a.41.41,0,0,1,.3.11.31.31,0,0,1,.11.23l-.08.24a.6.6,0,0,1-.33.1h-7.3a.32.32,0,0,1-.23-.09.34.34,0,0,1-.1-.25.36.36,0,0,1,.1-.25.32.32,0,0,1,.23-.09H165Z"/><path class="cls-1" d="M180.49,14.3h-1.27a.59.59,0,0,1-.38-.11.36.36,0,0,1-.14-.27.56.56,0,0,1,.25-.41A12.87,12.87,0,0,0,182.29,10a21.71,21.71,0,0,0,1.83-4.07,10,10,0,0,0,.61-2.33l.05-1.25a.25.25,0,0,1,.23-.13.33.33,0,0,1,.25.08.27.27,0,0,1,.09.22v11.1h4a.51.51,0,0,1,.34.1.31.31,0,0,1,.12.24.27.27,0,0,1-.11.23.56.56,0,0,1-.35.11h-4V39.59a2.88,2.88,0,0,0,.32,1.6.73.73,0,0,0,.65.33,2,2,0,0,0,1.62-1.06A8.83,8.83,0,0,0,189,35.63v-4a1,1,0,0,1,.17-.6.33.33,0,0,1,.27-.14.36.36,0,0,1,.27.14,1,1,0,0,1,.16.6v3q0,4.59-1.46,6.49a4.4,4.4,0,0,1-3.62,1.9,3.67,3.67,0,0,1-3-1.12,6.24,6.24,0,0,1-1.31-4.24Z"/><path class="cls-1" d="M192.86,30.17V24.85q0-6.37,2.15-9.36a4.75,4.75,0,0,1,4-2.2q3.07,0,4.71,3.23a18.85,18.85,0,0,1,1.65,8.55V31q0,6.91-2.12,9.94a4.73,4.73,0,0,1-4,2.17,5,5,0,0,1-2.67-.76,6.59,6.59,0,0,1-2.19-2.75,14.59,14.59,0,0,1-1.23-5.26C193,32.11,192.86,30.73,192.86,30.17Zm7.66-13.38a3.74,3.74,0,0,0-.45-2.13,1.25,1.25,0,0,0-1-.61,1.19,1.19,0,0,0-.92.5,2.44,2.44,0,0,0-.4,1.54v22.8a6,6,0,0,0,.48,2.9,1.21,1.21,0,0,0,1,.54,1.08,1.08,0,0,0,1-.47,4.09,4.09,0,0,0,.34-2Z"/><path class="cls-1" d="M208,14.3h-.62l-.17-.08a.45.45,0,0,1-.08-.26c0-.11.08-.22.25-.34h6.76c.16.12.25.23.25.34s-.09.21-.25.34h-1.38l2.59,20.19,2.37-14.22-.79-6h-.68a.24.24,0,0,1-.21-.1A.43.43,0,0,1,216,14a.44.44,0,0,1,.06-.25.26.26,0,0,1,.21-.09h6.87a.28.28,0,0,1,.22.09.33.33,0,0,1,.08.25.32.32,0,0,1-.08.24.25.25,0,0,1-.22.1h-1.46l2.67,19.89,2.78-16.91a7.2,7.2,0,0,0,.14-1.27A1.6,1.6,0,0,0,227,15a2.71,2.71,0,0,0-1.19-.66.7.7,0,0,1-.26-.12.26.26,0,0,1-.07-.2c0-.08.11-.21.32-.36h3.81l.14.08.05.3a.78.78,0,0,1,0,.19.44.44,0,0,1-.17.11q-1.51.54-2.12,4.47L224,41.08a4.5,4.5,0,0,1-.37,1.5.57.57,0,0,1-.46.16h-2a.41.41,0,0,1-.34-.22,4.46,4.46,0,0,1-.31-1.36L218,22.22,215.34,39.4a11.9,11.9,0,0,1-.73,3.1.49.49,0,0,1-.46.24h-2a.48.48,0,0,1-.41-.24c-.05-.11-.2-1.14-.43-3.1Z"/><path class="cls-1" d="M233.81,14.3h-1.17l-.16-.06a.41.41,0,0,1-.08-.28c0-.11.08-.22.24-.34h5.94v2.22a6.38,6.38,0,0,1,1.88-2,4.21,4.21,0,0,1,2.22-.56,3.07,3.07,0,0,1,2.47.87,5.38,5.38,0,0,1,1.06,3.59V42.06h.92a.33.33,0,0,1,.36.34.3.3,0,0,1-.1.25.36.36,0,0,1-.26.09h-6.29a.32.32,0,0,1-.23-.09.3.3,0,0,1-.1-.25.35.35,0,0,1,.09-.25.33.33,0,0,1,.23-.09h.52V16.63a2.08,2.08,0,0,0-.21-1.13.7.7,0,0,0-.59-.28,1.44,1.44,0,0,0-1.21.79,7.22,7.22,0,0,0-.76,3.83V42.06h.68c.18.12.27.24.27.34s-.09.22-.27.34h-6.62c-.18-.12-.27-.23-.27-.34s.09-.22.27-.34h1.17Z"/><path class="cls-1" d="M93,84.67a14.1,14.1,0,0,0-1.89,1.62c-.64.64-1,1-1.18,1a.19.19,0,0,1-.14-.08.85.85,0,0,1,0-.35v-17a.24.24,0,0,1,.07-.18.25.25,0,0,1,.16-.06.31.31,0,0,1,.25.16.84.84,0,0,1,.2.54V71.4a33.27,33.27,0,0,0,1,7.73,14.28,14.28,0,0,0,2.76,6.19,2.56,2.56,0,0,0,2,.93A2.78,2.78,0,0,0,98.42,85a5.87,5.87,0,0,0,1-3.65,15.56,15.56,0,0,0-.87-4.94,89.2,89.2,0,0,0-5-11.13,52.46,52.46,0,0,1-3.11-6.91,14,14,0,0,1-.66-4.14A9.47,9.47,0,0,1,91.56,48a5.52,5.52,0,0,1,4.29-2.25A4.65,4.65,0,0,1,99.56,48a14.7,14.7,0,0,0,2.63-1.81c.29-.26.48-.38.57-.38a.14.14,0,0,1,.11,0,.88.88,0,0,1,0,.38V61a.83.83,0,0,1-.13.49.28.28,0,0,1-.22.11.26.26,0,0,1-.24-.14,13.63,13.63,0,0,1-.33-1.95q-1.11-8.44-3-11.19a3,3,0,0,0-2.46-1.57,2.26,2.26,0,0,0-1.78.92,4.18,4.18,0,0,0-.76,2.72q0,3.22,3.69,10.61l2.39,4.8a48.33,48.33,0,0,1,3.28,7.89,19.34,19.34,0,0,1,.82,5.22,9.29,9.29,0,0,1-2,6.3,6,6,0,0,1-4.65,2.28A5.18,5.18,0,0,1,93,84.67Z"/><path class="cls-1" d="M108.06,58.59h-1.27a.59.59,0,0,1-.38-.11.33.33,0,0,1-.14-.27.58.58,0,0,1,.25-.41,12.87,12.87,0,0,0,3.34-3.51,21.71,21.71,0,0,0,1.83-4.07,10,10,0,0,0,.61-2.33l0-1.25a.25.25,0,0,1,.23-.13.37.37,0,0,1,.25.08.28.28,0,0,1,.09.22v11.1h4a.51.51,0,0,1,.34.1.31.31,0,0,1,.12.24.27.27,0,0,1-.11.23.56.56,0,0,1-.35.11h-4V83.88a2.82,2.82,0,0,0,.33,1.61.72.72,0,0,0,.64.32,2,2,0,0,0,1.62-1.06,8.83,8.83,0,0,0,1-4.83V76a1,1,0,0,1,.17-.6.32.32,0,0,1,.27-.13.35.35,0,0,1,.27.13,1.07,1.07,0,0,1,.16.6v3c0,3.06-.49,5.22-1.45,6.49a4.4,4.4,0,0,1-3.63,1.9,3.67,3.67,0,0,1-3-1.12A6.21,6.21,0,0,1,108.06,82Z"/><path class="cls-1" d="M120.43,74.47V69.15q0-6.39,2.15-9.37a4.77,4.77,0,0,1,4-2.2q3.07,0,4.71,3.23A18.91,18.91,0,0,1,133,69.36v5.89q0,6.93-2.12,9.94a4.73,4.73,0,0,1-4.05,2.17,5,5,0,0,1-2.67-.76,6.53,6.53,0,0,1-2.18-2.74,14.43,14.43,0,0,1-1.24-5.27C120.52,76.4,120.43,75,120.43,74.47Zm7.66-13.39a3.74,3.74,0,0,0-.45-2.13,1.28,1.28,0,0,0-1-.61,1.19,1.19,0,0,0-.92.5,2.51,2.51,0,0,0-.4,1.54v22.8a6,6,0,0,0,.48,2.9,1.22,1.22,0,0,0,1,.55,1.09,1.09,0,0,0,1-.48,4.09,4.09,0,0,0,.34-2.05Z"/><path class="cls-1" d="M136.73,58.59h-1.14a.37.37,0,0,1-.26-.09.37.37,0,0,1-.09-.25.33.33,0,0,1,.09-.25.37.37,0,0,1,.26-.09h5.92v3.58a8.74,8.74,0,0,1,1.72-3.17,2.5,2.5,0,0,1,1.7-.74,2.82,2.82,0,0,1,2.2,1.22,6.2,6.2,0,0,1,1.25,4,4.92,4.92,0,0,1-.83,3.08,2.36,2.36,0,0,1-1.83,1,1.64,1.64,0,0,1-1.36-.7,4.38,4.38,0,0,1-.73-2.72,6.06,6.06,0,0,1,1-3.34,2.79,2.79,0,0,0,.51-1.11.55.55,0,0,0-.19-.42.63.63,0,0,0-.46-.18,1.38,1.38,0,0,0-1,.49,7.53,7.53,0,0,0-1.41,3,17.51,17.51,0,0,0-.62,4.85V86.35h1.38a.41.41,0,0,1,.3.11.33.33,0,0,1,.11.23l-.08.24a.6.6,0,0,1-.33.1h-7.3a.32.32,0,0,1-.23-.09.33.33,0,0,1-.09-.25.32.32,0,0,1,.09-.24.29.29,0,0,1,.23-.1h1.14Z"/><path class="cls-1" d="M151.78,58.59h-1.06a.37.37,0,0,1-.26-.09.37.37,0,0,1-.09-.25.33.33,0,0,1,.09-.25.37.37,0,0,1,.26-.09h5.92V86.35h1.17a.32.32,0,0,1,.25.1.33.33,0,0,1,.1.27.27.27,0,0,1-.1.22.36.36,0,0,1-.26.09h-7.08c-.18-.12-.27-.23-.27-.34s.09-.23.27-.34h1.06Zm-.38-9.86a2.89,2.89,0,0,1,2.82-2.85,2.86,2.86,0,0,1,2.07.83,2.73,2.73,0,0,1,.84,2,2.87,2.87,0,0,1-2.88,2.88,2.74,2.74,0,0,1-2-.84A2.78,2.78,0,0,1,151.4,48.73Z"/><path class="cls-1" d="M165.15,72.57V82.66a6,6,0,0,0,.54,3.12,1.53,1.53,0,0,0,1.33.57,3.36,3.36,0,0,0,2.72-1.71,14.33,14.33,0,0,0,2.11-7.84A7.29,7.29,0,0,1,172,75a.38.38,0,0,1,.34-.21.33.33,0,0,1,.3.16,2.36,2.36,0,0,1,.14,1,17.65,17.65,0,0,1-1.7,8.13c-1.13,2.2-2.66,3.3-4.57,3.3a5.25,5.25,0,0,1-4.45-2.54q-1.77-2.53-1.77-11v-4q0-6.48,2.39-9.85a5,5,0,0,1,4.13-2.39c1.91,0,3.39,1,4.43,3.07a16.29,16.29,0,0,1,1.56,7.46v4.46Zm2.8-.74V60.27a2.81,2.81,0,0,0-.43-1.68,1,1,0,0,0-.89-.41,1.32,1.32,0,0,0-1,.52,2.37,2.37,0,0,0-.44,1.57V71.83Z"/><path class="cls-1" d="M178.28,85.21A7.66,7.66,0,0,0,177,86.63c-.37.48-.64.73-.82.73a.29.29,0,0,1-.19-.08.37.37,0,0,1-.08-.25V74.33A.38.38,0,0,1,176,74a.32.32,0,0,1,.23-.09.28.28,0,0,1,.24.11,2.8,2.8,0,0,1,.14.86,28.25,28.25,0,0,0,1.79,8.78c.69,1.7,1.5,2.55,2.44,2.55a1.66,1.66,0,0,0,1.28-.7,3,3,0,0,0,.57-2,13.48,13.48,0,0,0-.64-3.65,58.46,58.46,0,0,0-2.69-6.68,57.46,57.46,0,0,1-2.63-6.53,12.79,12.79,0,0,1-.58-3.53,5.84,5.84,0,0,1,1.37-4,4.14,4.14,0,0,1,3.19-1.55,4.48,4.48,0,0,1,3.14,1.5A11.12,11.12,0,0,0,185.12,58c.3-.28.51-.42.62-.42a.31.31,0,0,1,.19.06.41.41,0,0,1,.08.24V69.34a.4.4,0,0,1-.11.29.3.3,0,0,1-.24.11.28.28,0,0,1-.25-.13,2.66,2.66,0,0,1-.13-.82,29.73,29.73,0,0,0-1.52-8.12c-.56-1.44-1.3-2.16-2.2-2.16a1.66,1.66,0,0,0-1.28.57,2.22,2.22,0,0,0-.51,1.54q0,2.48,3.23,8.93a47.34,47.34,0,0,1,3,6.84,15.71,15.71,0,0,1,.78,4.51,6.91,6.91,0,0,1-1.52,4.71,4.57,4.57,0,0,1-3.52,1.75,3.37,3.37,0,0,1-1.81-.48A5.73,5.73,0,0,1,178.28,85.21Z"/></g></g></g></svg>