<svg xmlns="http://www.w3.org/2000/svg" viewBox="0 0 43.98 89.43"><defs><style>.cls-1{fill:ivory;}</style></defs><g id="Layer_2" data-name="Layer 2"><g id="Layer_1-2" data-name="Layer 1"><path class="cls-1" d="M13.32,65.23a9.7,9.7,0,0,1-1.5.13A7.94,7.94,0,0,1,7.24,64a11.88,11.88,0,0,1-3.57-4.12,28.6,28.6,0,0,1-2.43-6.66A45.25,45.25,0,0,1,0,41.66V23.22Q0,10.5,4.31,4.31,7.34,0,11.91,0a8.84,8.84,0,0,1,7.64,4.31q4.18,6.19,4.18,21v15.8a56.56,56.56,0,0,1-.89,10.82,28.88,28.88,0,0,1-2.48,7.62A15.75,15.75,0,0,1,17.84,63a26.94,26.94,0,0,1,3.46,6.78,7.48,7.48,0,0,0,1,2.07,2.57,2.57,0,0,0,1.23.84l.47.21.09.21c0,.17-.17.34-.51.52a7.05,7.05,0,0,1-3.38.72,5.83,5.83,0,0,1-4.46-1.86C14.62,71.23,13.8,68.81,13.32,65.23Zm1.24-5.38V5.12a5.26,5.26,0,0,0-.81-3.2A2.11,2.11,0,0,0,12,1.11a2.15,2.15,0,0,0-1.84.94,6.43,6.43,0,0,0-.94,3.84v54.6a5.22,5.22,0,0,1,2.95-1.15,6.5,6.5,0,0,1,2.05.38ZM9.22,61.3A3.4,3.4,0,0,0,10,63.65a2.5,2.5,0,0,0,1.86.77A3.62,3.62,0,0,0,13.32,64a4.87,4.87,0,0,0-1.13-2.3,2.43,2.43,0,0,0-1.69-.6A6.36,6.36,0,0,0,9.22,61.3Z"/><path class="cls-1" d="M29.5,85.86a19,19,0,0,0-2.43,2.08c-.83.83-1.34,1.25-1.53,1.25a.2.2,0,0,1-.17-.11.89.89,0,0,1-.07-.45v-22a.32.32,0,0,1,.09-.23.3.3,0,0,1,.2-.08.42.42,0,0,1,.33.21,1.07,1.07,0,0,1,.25.7v1.51a43.31,43.31,0,0,0,1.36,10c.91,3.73,2.1,6.4,3.57,8a3.32,3.32,0,0,0,2.52,1.19,3.56,3.56,0,0,0,2.86-1.56,7.55,7.55,0,0,0,1.22-4.72,20.16,20.16,0,0,0-1.12-6.38,115.66,115.66,0,0,0-6.52-14.37,65.76,65.76,0,0,1-4-8.92,17.92,17.92,0,0,1-.86-5.34c0-3.44.81-6.12,2.43-8.06a7.12,7.12,0,0,1,5.55-2.91c1.77,0,3.37.94,4.79,2.84a20.43,20.43,0,0,0,3.39-2.35c.37-.33.62-.49.74-.49a.21.21,0,0,1,.14.07,1.29,1.29,0,0,1,.07.49v19a1,1,0,0,1-.18.63.34.34,0,0,1-.28.14.34.34,0,0,1-.31-.17,18.11,18.11,0,0,1-.42-2.53q-1.44-10.9-3.81-14.44a3.92,3.92,0,0,0-3.18-2A2.92,2.92,0,0,0,31.81,38a5.42,5.42,0,0,0-1,3.51q0,4.17,4.77,13.7l3.09,6.2a63.06,63.06,0,0,1,4.24,10.19,25.42,25.42,0,0,1,1,6.74q0,5.19-2.56,8.14a7.73,7.73,0,0,1-6,2.94A6.71,6.71,0,0,1,29.5,85.86Z"/></g></g></svg>