<?xml version="1.0" encoding="utf-8"?>
<!-- Generator: Adobe Illustrator 26.2.1, SVG Export Plug-In . SVG Version: 6.00 Build 0)  -->
<svg version="1.1" id="Layer_1" xmlns="http://www.w3.org/2000/svg" xmlns:xlink="http://www.w3.org/1999/xlink" x="0px" y="0px"
	 viewBox="0 0 500 500" style="enable-background:new 0 0 500 500;" xml:space="preserve">
<style type="text/css">
	.st0{fill:#FFFEF1;}
</style>
<g>
	<g>
		<g>
			<path class="st0" d="M296,178.1c0.1,0.1,0.1,0.2,0,0.3c2.3-0.4,0.3-2.4,2.7-2.6c-0.8-0.9,2.1-2.2,1.3-3.8c0.3,0,0.6,0.1,0.7,0.2
				c2.9-4.5,6.4-8.1,7.4-13.1c1-1.1,2.7-2.9,3.1-5l0.1,0.3c1-2.1,2.1-5,1.7-6.8c1.6-0.2,1.7-1.2,2.4-2c0-2.7,1.3-6.5,1.3-9.3
				c0.5-0.6,0.6-1.5,0.7-2.2c-0.7,0-1.3,0-0.9-0.5c-8.2,1.2-16.5,1.6-24.5-0.1c-0.9,0.6-1.8,1.7-2.7,2.3c-0.1-0.1-0.1-0.2,0-0.2
				c-1.2,0.1-2.4-0.8-3.6-0.6c0-0.2,0-0.2,0.2-0.3c-1.2,0.4-2.5-0.8-3.8,0l-0.1-0.2l-0.9,0.4c0-0.3,0-0.7,0.4-0.7
				c-10.8-0.2-21.8,1.7-32.8,1.5l0.4-0.3l-2.1,0.6c0-0.2,0.1-0.2,0.2-0.3c-2.7-0.5-5.6,0.4-8.2,0.3c0-0.2,0.4-0.5,0-0.6
				c-2,0.9-3.2-1.1-4.2,0.7c-0.1-0.1-0.1-0.5,0-0.6c-10.4,0.9-20.8,0.3-31.2,1.9l0-0.3c-4.2,0.8-8.6,0.5-12.9,0.3
				c0.9,5,2.5,9.4,4.7,13.8l-0.4,0.2c3.2,3.6,2.8,9.5,6.9,12.5l-0.6,0c0.3,0,0.6,0.3,0.8,0.6c0,0,0,0.1,0.1,0.1c0,0,0,0,0,0
				c0.1,0.1,0.1,0.2,0.2,0.3c0,0,0.1,0.1,0.1,0.1c0,0,0.1,0.1,0.1,0.1c0,0,0,0,0,0.1c0,0,0,0.1,0.1,0.1c0.1,0.1,0.2,0.2,0.3,0.2
				c0,0,0,0,0,0c0,0,0,0,0.1,0c0.1,0,0.2,0,0.4-0.1c0.1,0,0.1-0.1,0.2-0.1c0,0.1,0,0.3,0,0.5c0,0.1,0,0.1,0,0.2c0,0,0,0.1,0,0.1
				c0,0.1,0,0.1,0,0.2c0.1,0.1,0.3,0.1,0.4,0.2c1.9,1.1,2.5,3.3,3.6,5.2c0.4,0.6,0.9,1.2,1.5,1.8c0.2,0.2,0.4,0.3,0.7,0.5
				c0,0-0.1,0-0.2,0l-0.2,0c0.1,0.1,0.2,0.1,0.3,0.2c0,0,0,0,0.1,0c0,0,0,0,0,0c0,0,0.1,0.1,0.2,0.1c0,0,0.1,0,0.1,0.1
				c0.2,0.2,0.4,0.3,0.5,0.5c0.1,0.1,0.2,0.2,0.2,0.2c0.1,0.1,0.2,0.2,0.2,0.2c0.1,0.1,0.1,0.2,0.2,0.3c0,0.1,0.1,0.2,0.1,0.3
				c0.1,0.1,0.1,0.2,0.1,0.3c-0.1-0.1-0.2,0-0.4-0.1c1.1,3.4,4.7,5.1,7.1,7.6l-0.7,0.2c1.7,0.7,3.5,3.2,5.4,4.4l-0.3,0.1l1.1,0.4
				l-0.4,0.5c2.1,1.9,4.5,3.3,6.6,5.1l-0.5,0.3c2.6,1,4,3.7,6.4,5.2l-0.3,0c4.7,4.8,11,8.2,14.2,14.2c-0.1-0.1-0.2,0-0.4-0.1
				c0.3,0.2,0.7,0.3,0.8,0.6c-0.1,0.2-0.2,0.1-0.3,0c0,0.2,0,0.5,0.1,0.7c0.4,0.6,0.8,1,1.1,1.4h0c0.7,0.6,1.3,0.8,2,0.4
				c0,0,0.1-0.1,0.1-0.1c0,0,0.1-0.1,0.2-0.1c1.2-0.9,2.7-3.2,5.3-7c0,0,0,0,0,0c2-2.5,3.4-3.6,5.2-5.1c2.9-2.8,5.8-5.6,8.7-8.5
				c1.7-1.9,3.1-3.6,5.2-5.6l0,0c0.1,0.1,0.2,0.2,0.4,0.3c0,0,0,0,0.1,0c0.1,0,0.2,0,0.2,0.1c0,0,0,0,0.1,0c0.1,0,0.2,0,0.4,0
				l-0.3-0.6c0.7,0.2,0.4,0.1,0.8,0.3c1-0.8,1.8-0.2,2.8-0.6c-0.3-1,1-1.3,1.4-1.5c1.3,1,0.5-1.9,1.1-0.7c2-2.1,4.7-3.8,7-5.9
				c0-0.7,1.8-1.6,0.7-1.9C293.5,180.4,295.5,178.8,296,178.1z M301.4,136.6c0.2,0.1,0.4,0.1,0.6,0.1c-2.9,0-5.8,0-8.7,0
				c-0.6,0.1-1.1,0.2-1.7,0.3C294.9,136.5,298.5,135.6,301.4,136.6z M289.3,137.3c-0.1,0-0.2,0-0.4,0
				C289.1,137.3,289.2,137.3,289.3,137.3z M291.4,137.1c-0.2,0-0.4,0.1-0.6,0.1C291,137.1,291.2,137.1,291.4,137.1z M290.3,137.2
				c-0.2,0-0.3,0-0.4,0C290,137.2,290.2,137.2,290.3,137.2z M287.1,137.2c0.1,0,0.1,0,0.2,0C287.3,137.3,287.2,137.3,287.1,137.2z
				 M288,137.3c0.1,0,0.2,0,0.3,0C288.2,137.3,288.1,137.3,288,137.3z M286.4,137.1c-0.3-0.1-0.6-0.1-0.9-0.2
				C285.8,137,286.1,137.1,286.4,137.1z M278.9,188.9c0,0,0.1,0,0.1,0C279,188.9,279,188.9,278.9,188.9z M278.7,188.8
				c0,0,0.1,0.1,0.1,0.1C278.7,188.8,278.7,188.8,278.7,188.8z M279.2,188.9C279.2,188.9,279.2,188.9,279.2,188.9
				C279.2,188.9,279.2,188.9,279.2,188.9z M279.3,188.8c0.2-0.2,0.4-0.4,0.7-0.6c0.1-0.2,0.3-0.3,0.4-0.4
				C280.1,188.1,279.7,188.6,279.3,188.8z M282.5,186.7l0.2,0.4c-0.7,0.7-0.4-0.3-1.1,0c-0.2,0.2,0.4,0.7-0.2,0.9
				c-0.4-0.4-0.7-0.4-0.9-0.2c1-0.8,1.8-1.5,2.6-2.2c0-0.3,0-0.6,0.1-0.8C283,185.6,283.2,186.9,282.5,186.7z M283.2,184.7
				C283.2,184.7,283.2,184.7,283.2,184.7C283.2,184.7,283.2,184.7,283.2,184.7z M284.6,184.5c0.2-0.1,0.3-0.2,0.5-0.4
				C284.9,184.3,284.8,184.5,284.6,184.5z M292.8,177.2c7.5-8.1,13.9-19.2,17.9-29.4C307.6,159,301.3,169.7,292.8,177.2z"/>
		</g>
		<g>
			<path class="st0" d="M313,177.2c0.1-0.2,0.2-0.4,0.4-0.6c0,0,0,0,0,0c8-12.1,14-21.4,16.9-35.9c3-9.7,5-20.5,6.2-30.9h3.9V64.4
				h-5.7c-56.5,2.4-116.7-1.2-173.5,0.2c0.4,14.7,1,29.5,0.7,44.2c4.5,0.3,3.5-1.4,4.3,3.3c1.1,8.1,2,16.3,4.5,24.1
				c2.6,16.3,10.1,31,20.3,43.9l-0.3,0.1c0.4,0.5,0.8,1,1.1,1.5c2.9,3.2,6,6.2,9.4,9.2c5,4.1,10.5,7.9,15.3,12.2
				c3.9,3.6,7.9,7.2,11.1,11.4c3.3,5.4,10,8.5,12.1,14.6c0.2,10.5-11.2,17.2-17.4,24.4c-20.8,18.9-42.2,32.4-48,62.3l-0.1-0.1
				c-2.7,10.5-5.2,20.6-6.3,31.6c0.1-1,0-0.7-0.2-0.8c-0.2,2.2-0.3,4.4-0.5,6.4c-0.9,0-1.8,0-2.7,0.1c0,0,0.2,0,0.3,0
				c-0.7,0-1.6,0.1-2.2,0.1c0.1,0,0.1,0,0.2,0.1c0.7,13.7,0.7,27.3,0.8,41c58.1,0.5,117.5,1.4,175.3,1c-0.1-3-0.2-6.3-0.4-9.1
				c0-0.1-0.1-0.3,0-0.7c0,0.2,0,0.5,0,0.7c0,0.1,0.1,0.1,0.2,0c-0.4-11.2,0.6-22.2,0.4-33.3c-1.5,0-0.6,0.1-5.2,0.3
				c-3.5-27.1-9.2-56.4-29.7-76.1c-3.2-1.8-8.8-7.2-11.6-9.9c-6.5-3.8-12.4-9-17.8-14.3c-0.5-0.5,1,0.7,0.1-0.6
				c-2.3-3-1.1-0.1-3.5-2.8l0.7,0.2c-3.2-4.4-7.3-6.4-10.2-11.3c1.4,1.3-0.1-0.9,0.7-0.5c10,13.8,23.2,24.8,37.4,34
				c14.6,14.4,24.1,27.6,29.2,49c0.9-2.2,4.8,17.3,4.4,18.7c0.1,0.2,0.1,0.4,0,0.1c0,0,0-0.1,0-0.1c-1-2.3,0.1,1.5,0.5,2.6
				c0,0,0,0,0,0.1c0,0,0,0,0,0c-2.8-20.3-5.8-36.3-19.5-56.8c-5.5-13.3-67.3-47.9-48.8-61.7c-0.2-0.5,0.1-1.3-0.1-1.8
				c-0.8-0.7,3.6-4.8,4-5.2c-2.6,3.4,1.3,0.4,0,1.8c0.3,0.2,0.7,0.2,1.2-0.1c0.9-1,1.7-2,2.6-2.9c0.8-1,1.5-2,2.1-2.5
				c2.5-2.8,5-5.6,7.8-8.2c0.8-1.4,1.6-2.8,2.9-3.3l-0.4,0.4c0.8-0.3,1.6-0.7,2.3-1.3c0.3-0.3,0.7-0.5,1-0.8
				c2.9-2.5,5.7-6.4,9.1-7.7l-0.7,0C303.4,187.9,308.5,182.8,313,177.2z M285.4,188.9c-0.1,0.1-0.2,0.1-0.2,0.2
				c-5.2,4.5-10.1,8.5-15,13.4c-4.4,4.6-8.8,9.9-13.2,15.7c-0.1-0.1-0.2-0.2-0.4-0.2c-0.2-0.1-0.5,0-0.9,0.1l0.3,0.6
				c-0.8,0-0.5,0.1-1-0.1c-1.2,1.4-2.1,1-3.2,1.8c0.2,0.7-0.3,1.4-0.7,1.4c-0.1-0.1-0.1-0.2-0.2-0.3c-0.2-0.6,0,1,0,1.2
				c0-0.1,0-0.3-0.1-0.6c-0.1,0.2-0.2,0.5-0.2,0.8c-0.9-1.4-2.5-3.3-3.5-4.7c-0.8-0.1-1.9-2.5-2.1-1.2c0.2-1.5-1.4-4-2.2-4.9
				c0.1,0,0.2-0.1,0.3,0.1c-0.2-2.6-2.7-1.2-2.6-3.9c-1.1,0.5-2.1-3.2-4-3.1c0-0.4,0.2-0.6,0.4-0.7c-4.5-5.3-8.7-10.9-14.7-13.7
				c-1.3-1.5-3.4-4-5.9-5l0.3,0c-2.4-1.7-5.1-3.9-7.2-4.6c0.4-1.6-0.7-2.3-1.2-3.5c-1.9-1-4.4-4-6.7-5.9c0.2-0.8-1.8-1.7-1.1-2.5
				c-6.9-5.5-11.3-15.3-13.1-23.8c0,0,0.1,0.1,0.1,0.1c0,0-0.1-0.1-0.1-0.1c-1-0.9-2.4-1.6-3.4-2.5c0-0.1,0.1-0.2,0.2,0
				c-0.7-1.5-0.3-3.2-0.9-4.6c0.2,0,0.2,0,0.4,0.2c-0.9-1.3-0.1-3.2-1.3-4.8l0.2-0.2l-0.6-1c0.2,0,0.6-0.1,0.8,0.2
				c-1.4-6.7-2.5-13.9-3.7-20.7c-0.3-0.4,1-0.2,1.1-0.3c5-0.3,10.8-0.4,16-0.3l-0.5,0.3l2.9-0.5c0,0.2-0.2,0.2-0.3,0.3
				c3.6,0.5,7.4-0.4,10.9-0.2c0,0.2-0.5,0.5-0.1,0.6c2.6-0.9,4.2,1.1,5.5-0.7c0.1,0.1,0.2,0.5-0.1,0.6c13.8-0.9,27.5-0.2,41.3-1.7
				l0,0.3c11.3-1.3,23.3,0.5,34.9-0.4l0.1,0.4c6-1.5,12.5,1.4,18.8-0.3l-0.4,0.6c0.1,0,0.1-0.1,0.2-0.1c0,0,0,0,0.1,0
				c0.1,0,0.2-0.1,0.3-0.1c0,0,0.1,0,0.2,0c0,0,0.1,0,0.1,0c0,0,0.1,0,0.2,0c0,0,0.1,0,0.1,0c0.2,0,0.8,0,1,0c0.1,0,0.3,0,0.4,0
				c0,0,0.1,0,0.1,0c0,0,0.1,0,0.1,0c0,0,0.1,0,0.1,0c0,0,0.1,0,0.1,0c0,0,0.1,0,0.1,0c0.1,0,0.1-0.1,0.2-0.1c0,0,0,0,0,0
				c0,0,0-0.1,0-0.1c0,0,0-0.1,0.1-0.2c0-0.1,0-0.2,0-0.3c0.1,0,0.3,0.1,0.5,0.2c0.1,0,0.2,0.1,0.2,0.1c0.1,0,0.2,0.1,0.3,0.1
				c3.2-1.6,6.8,0,10.1,0c0.1,0,0.3,0,0.4,0h0v0c0,0,0,0,0,0c0.1,0.1,0.1,0.2,0.1,0.4c0,0.2,0,0.5,0,0.7v0.2c0,0.1,0,0.2,0,0.3
				c0,0.1,0,0.1,0,0.2c0,0,0,0,0,0c-0.1-0.1-0.2-0.1-0.3-0.1c0,0.1,0,0.3,0,0.4c0,0.1,0,0.3,0,0.4c0,0.2,0,0.4,0,0.5c0,0,0,0,0,0
				c0,0,0,0.1,0,0.1c0,0.8-0.1,1.7-0.3,2.4c0-0.2-0.1-0.1-0.2-0.4c-0.3,0.8-0.6,1.6-0.7,2.4l0.8-0.7l-0.1,0.8
				c-0.4,0-0.6-0.1-0.7-0.1c-0.8,3.6-0.4,7.5-1.1,11.1l-0.5-0.6c0.4,2.3-1.1,6.1-1.6,8.9l-0.2-0.2c0,0.5,0,1,0,1.5l-0.6-0.1
				c-1.1,3.6-1.8,7.1-3.1,10.5l-0.4-0.4c-0.4,3.5-2.9,6.6-4.2,10l-0.1-0.3c-4.3,7.9-9,15.3-14.8,22.1c0-0.2,0-0.3,0-0.5
				c-0.2,0.5-0.2,1-0.6,1.4c-0.2,0-0.1-0.3,0-0.4c-0.5,0.2-0.9,0.5-1.4,1c0,0-0.1,0.1-0.1,0.1C291.3,184.3,288.3,186.9,285.4,188.9z
				 M275.5,266.2c-0.4-0.3-0.7-0.5-0.9-0.8C274.9,265.6,275.2,265.9,275.5,266.2z M272.1,264.5l0.7-0.3c-0.1,0.8,0,0.5-0.2,1
				c1.3,1.3,0.8,2.2,1.6,3.4c1.1-0.3,2,1.1,2.5,1.6c-0.4,1.7,2.6,0.4,1.4,1.2c3.3,1.9,6.6,4.1,9.8,6.6c0.8,0,2.4,2,2.3,0.7
				c0.1,1.5,2.2,3.6,3,4.3c-0.1,0-0.2,0.1-0.3,0c0.6,2.5,2.8,0.7,3,3.4c1.1-0.7,2.2,2.8,4.1,2.7c0,0.4-0.2,0.6-0.4,0.7
				c4.5,5,6.9,10.6,11.2,15.2c0.6,1.8,1.2,4.7,2.7,6.9l-0.3-0.2c1.2,2.6,2.4,6,3.8,7.7c-1.1,1.2-0.5,2.4-0.7,3.7
				c1.1,1.7,1.8,5.7,3,8.5c-0.6,0.6,0.7,2.4-0.2,2.7c1.8,4.7,2.9,9.9,2.5,15c0,0,0,0.1,0,0.1l-0.2,0c-2.6-0.5-5.2-0.7-7.8-1.1
				c-1.2,0.5-2.5,1.7-3.6,2.3c-0.1-0.1-0.1-0.2,0.1-0.2c-1.7,0.2-3.2-0.8-4.9-0.6c0-0.2,0-0.2,0.3-0.3c-1.6,0.4-3.2-0.8-5.1,0
				l-0.1-0.3l-1.2,0.4c0-0.3,0.1-0.7,0.5-0.7c-14.2-0.3-28.9,1.4-43.6,1.1l0.5-0.3l-2.8,0.5c0-0.2,0.1-0.2,0.3-0.3
				c-3.6-0.6-7.4,0.4-10.9,0.2c0-0.2,0.6-0.5,0.1-0.6c-2.6,0.9-4.2-1.1-5.5,0.7c-0.1-0.1-0.2-0.5,0.1-0.6
				c-13.8,0.9-27.5,0.2-41.4,1.7l0-0.3c-6.1,0.8-12.4,0.4-18.6,0.2c-2,0.7,0.8-12.1,0.8-14.1l0.4,0c-0.4-6.3,4.1-12,4.2-18.3
				l0.4,0.6c0-0.1-0.1-0.2-0.1-0.2c0,0,0,0,0-0.1c0-0.1,0-0.3,0-0.4c0,0,0-0.1,0-0.1c0-0.1,0-0.1,0-0.1c0,0,0-0.1,0-0.2
				c0-0.1,0.1-0.3,0.1-0.4c0,0,0-0.1,0-0.1c0-0.1,0.1-0.2,0.1-0.3c0,0,0,0,0-0.1c0-0.1,0-0.1,0.1-0.2c0,0,0-0.1,0-0.1
				c0-0.1,0-0.1,0-0.2c0-0.1,0-0.2,0.1-0.3c0,0,0-0.1,0-0.1c0,0,0-0.1,0-0.1c0,0,0-0.1,0-0.1c0,0,0-0.1,0-0.1c0,0,0,0,0-0.1
				c0-0.1-0.1-0.1-0.1-0.1c0,0,0,0-0.1,0c0,0-0.1,0-0.1-0.1c-0.1,0-0.1,0-0.2,0l0.4-0.4l0,0v0l0.4-0.4c0-0.2,0-0.4,0-0.6
				c-0.1-2.4,1.3-4.5,2.5-6.4c0,0,0,0,0,0c0.7-1.2,1.4-2.4,1.8-3.7c0.2-0.4,0.3-0.9,0.4-1.3c0,0.1,0.1,0.3,0.2,0.5
				c0.1-0.3,0.2-0.6,0.3-1c0.1-0.3,0.2-0.6,0.3-0.9c0.1-0.2,0.2-0.4,0.3-0.6c0.1-0.1,0.1-0.2,0.2-0.3c0.1-0.1,0.2-0.3,0.3-0.4
				c0.1-0.2,0.2-0.3,0.4-0.4c0,0.2,0.1,0.1,0,0.5c3.4-3,4.9-7.7,8-11.1l0.2,0.8c0.9-2.2,4.2-4.6,6-6.8l0.1,0.3l0.8-1.3l0.4,0.4
				c2.8-2.5,5.2-5.1,8.1-7.4l0.2,0.6c2.1-2.9,5.9-4.1,8.6-6.7l-0.1,0.3c6-4.1,10.2-10.2,14.2-16.1c-0.3,0.5-0.6,1-1,1.4
				c2.6-3.2,5.9-7.6,8.9-12c1.9-2.9,3.8-6,5.4-8.9c1.3,3.3,5.8,9.8,8.7,13.6c4,5.4,8.6,11.3,13.1,16.1c0,0,0,0-0.1,0
				C271.9,263.6,271.9,263.9,272.1,264.5z M275.8,266.4C275.8,266.4,275.8,266.4,275.8,266.4C275.8,266.4,275.8,266.4,275.8,266.4z
				 M317.4,314.4c0,0.1,0.1,0.2,0.1,0.3C317.5,314.6,317.4,314.5,317.4,314.4z M318.2,316.4c0.1,0.2,0.1,0.3,0.2,0.5
				C318.4,316.8,318.3,316.6,318.2,316.4z M319.1,318.5c0.1,0.2,0.2,0.4,0.3,0.7C319.2,319,319.1,318.8,319.1,318.5z M319.8,320.7
				c0.1,0.3,0.2,0.6,0.3,0.8C320,321.2,319.9,321,319.8,320.7z M320.6,322.9c0.1,0.3,0.2,0.7,0.3,1
				C320.8,323.5,320.7,323.2,320.6,322.9z M321.2,325.1c0.1,0.4,0.2,0.8,0.3,1.2C321.5,325.9,321.3,325.5,321.2,325.1z M311.3,351.6
				c-0.4,0-0.8,0-1.2,0C310.5,351.6,310.9,351.6,311.3,351.6z M300.9,351.5c-0.5,0-1,0-1.6,0C299.8,351.5,300.4,351.5,300.9,351.5z
				 M251.8,223.7c0.2-0.5,0.3-0.4,0.4-0.2c0.1,0.2,0.2,0.4,0.5,0c0.2-0.3-0.5-0.7,0.1-1.1c0.5,0.3,0.8,0.1,1.1-0.2
				c-1,1.4-1.9,2.6-2.6,3.9c0.2-1.1,0.1-2.1,0.5-1.8L251.8,223.7z M254.2,221.7c0.2-0.4,0.5-0.8,0.8-1.1
				C254.8,221,254.5,221.4,254.2,221.7z M255.1,220.6c0,0,0.1-0.1,0.1-0.1C255.2,220.6,255.2,220.6,255.1,220.6z M255.4,220.5
				C255.4,220.5,255.5,220.5,255.4,220.5C255.5,220.5,255.4,220.5,255.4,220.5z M255.7,220.5C255.8,220.5,255.8,220.5,255.7,220.5
				C255.8,220.5,255.8,220.5,255.7,220.5z M250.4,227.2c-0.2,0.4-0.3,0.9-0.5,1.3c0.1-0.4,0.3-0.8,0.4-1.1c-0.2-0.4-0.5-0.8-0.7-1.2
				C249.9,226.5,250.2,226.8,250.4,227.2C250.4,227.2,250.4,227.2,250.4,227.2z M247.9,224.4c0.4,0.5,0.9,1,1.4,1.4
				C248.8,225.4,248.3,225,247.9,224.4z M249.8,228.6c-0.1,0.2-0.2,0.4-0.2,0.6C249.7,229,249.7,228.8,249.8,228.6z M248.8,231.2
				c0,0,0,0.1,0,0.1C248.8,231.3,248.8,231.2,248.8,231.2z M247.4,223.1c0,0.2,0.1,0.4,0.1,0.6C247.5,223.5,247.4,223.3,247.4,223.1
				z M247.6,223.9c0.1,0.1,0.1,0.2,0.2,0.3C247.7,224.1,247.7,224,247.6,223.9z M248.4,232.3c-0.1,0.1-0.1,0.3-0.2,0.4
				C248.3,232.6,248.3,232.5,248.4,232.3z M247.9,233.5c-0.1,0.2-0.2,0.4-0.2,0.6C247.7,233.9,247.8,233.7,247.9,233.5z
				 M247.3,234.8c-0.1,0.2-0.2,0.4-0.3,0.7C247.1,235.2,247.2,235,247.3,234.8z M244.9,219.5c0.8,1.3,1.6,2.7,2.4,4.1
				C246.5,222.2,245.7,220.8,244.9,219.5z M246.6,236.1c-0.1,0.2-0.2,0.4-0.3,0.6C246.4,236.5,246.5,236.3,246.6,236.1z
				 M240.2,248.5c-0.7,1-1.3,1.9-2,2.9C238.9,250.5,239.6,249.5,240.2,248.5z M261.7,223.2c-1.6,2-1.5,5.3-2,7.4
				C260,228.5,259.1,224.7,261.7,223.2z M261.4,215.8c0.1-0.1,0.1-0.2,0.1-0.3C261.5,215.6,261.4,215.7,261.4,215.8z M261.2,216
				c0.1-0.1,0.1-0.1,0.2-0.2C261.3,215.9,261.3,215.9,261.2,216z M260.9,216.7c-0.1-0.1-0.1-0.2,0-0.2
				C260.9,216.5,260.9,216.6,260.9,216.7z M260.9,216.4C260.9,216.4,260.9,216.4,260.9,216.4C260.9,216.4,260.9,216.4,260.9,216.4z
				 M183.3,145.2C183.3,145.2,183.3,145.2,183.3,145.2C183.3,145.2,183.3,145.2,183.3,145.2z M182.6,143.6c0-0.1-0.1-0.3-0.1-0.4
				C182.5,143.3,182.6,143.4,182.6,143.6z M175.7,111.4c-0.1-0.8-0.2-1.6-0.2-2.4C175.6,109.8,175.7,110.6,175.7,111.4z
				 M178.4,125.7c-0.1-0.3-0.2-0.7-0.2-1C178.2,125,178.3,125.4,178.4,125.7z M177.9,123.6c-0.1-0.5-0.2-1-0.3-1.4
				C177.6,122.6,177.7,123.1,177.9,123.6z M177.3,121.2c-0.1-0.5-0.2-1-0.3-1.5C177.1,120.2,177.2,120.7,177.3,121.2z M176.8,118.8
				c-0.1-0.5-0.2-1-0.3-1.5C176.7,117.8,176.7,118.3,176.8,118.8z M176.4,116.3c-0.1-0.5-0.1-1-0.2-1.4
				C176.3,115.4,176.3,115.8,176.4,116.3z M176,113.9c-0.1-0.5-0.1-1-0.2-1.5C175.9,112.9,176,113.4,176,113.9z M178.8,127.4
				c0.1,0.5,0.3,1.1,0.4,1.6c0.7,2.3,1.1,4.7,1.6,7c-0.1-0.6-0.2-1.3-0.4-1.9C179.8,131.9,179.2,129.7,178.8,127.4z M182,141.6
				C182,141.6,182,141.6,182,141.6C182,141.6,182,141.6,182,141.6z M181.6,139.9c0-0.1-0.1-0.3-0.1-0.4
				C181.5,139.6,181.5,139.8,181.6,139.9z M184,146.8c0.1,0.1,0.1,0.3,0.2,0.4C184.1,147,184.1,146.9,184,146.8z M208.3,182.7
				c14.4,9.6,26.9,21.5,36,35.9c-0.8-1.3-1.7-2.6-2.5-3.9C231.9,202.3,219.2,191.4,208.3,182.7z M304.9,351.6c0.2,0,0.5,0,0.7,0
				C305.4,351.6,305.2,351.6,304.9,351.6z M315.9,351.5c-0.2,0-0.3,0-0.5,0c2.7-0.1,5.3-0.2,8-0.5c0.1-0.7,0.3-1.4,0.4-2.2
				c0,0.9,0.1,1.7,0.1,2.6H315.9z M321.8,327.3c0.1,0.4,0.2,0.9,0.3,1.3C322.1,328.2,321.9,327.8,321.8,327.3z M322.4,329.6
				c0.1,0.5,0.2,1,0.3,1.5C322.6,330.6,322.5,330.1,322.4,329.6z M322.8,331.9c0.1,0.5,0.2,1.1,0.3,1.6
				C323,333,322.9,332.5,322.8,331.9z M323.2,334.3c0.1,0.6,0.2,1.2,0.2,1.8C323.4,335.4,323.3,334.9,323.2,334.3z M323.5,336.6
				c0.1,0.6,0.1,1.3,0.2,1.9C323.7,337.9,323.6,337.3,323.5,336.6z M323.8,339c0.1,0.7,0.1,1.4,0.1,2
				C323.9,340.4,323.8,339.7,323.8,339z M323.8,348.8c0.1-0.8,0.1-1.6,0.1-2.5C323.9,347.1,323.8,348,323.8,348.8z M323.9,346.2
				c0-0.8,0-1.5,0-2.3C324,344.6,324,345.4,323.9,346.2z M323.9,341.4c0,0.7,0,1.4,0,2.2C324,342.9,323.9,342.2,323.9,341.4z
				 M316.5,312.5C316.5,312.5,316.5,312.5,316.5,312.5c-5.9-12.6-14.6-24-24-33.5C303.6,287.7,311.5,299.5,316.5,312.5z
				 M286.2,273.5c-0.1-0.2-0.2-0.4-0.4-0.6C286,273.1,286.1,273.2,286.2,273.5z M282.6,271.4c0.1,0,0.1,0.1,0.2,0.1
				C282.8,271.5,282.7,271.4,282.6,271.4z M283.1,271.6c0.5,0.2,1,0.3,1.5,0.5C284.1,271.9,283.6,271.8,283.1,271.6z M284.8,272.2
				c0.1,0.1,0.2,0.1,0.3,0.2C285,272.3,284.9,272.2,284.8,272.2z M285.4,272.5c0.1,0.1,0.2,0.2,0.3,0.2
				C285.6,272.7,285.5,272.6,285.4,272.5z M282.3,271.2c-0.3-0.1-0.5-0.3-0.7-0.5C281.8,270.9,282.1,271.1,282.3,271.2z
				 M279.7,269.5c0.3,0,0.7-0.1,1,0c-0.9,0-2.3,0.4-2.4-0.5l-0.4,0.2c-1.2-0.7,0.2-0.5-0.6-1.3c-0.3-0.2-0.6,0.5-1.1-0.2
				c0.3-0.4,0.2-0.8-0.1-1.1c0,0,0,0,0,0C277.3,267.7,278.5,268.6,279.7,269.5z M280.9,269.4c0,0-0.1,0-0.1,0
				C280.8,269.4,280.9,269.4,280.9,269.4z M271.7,259.8C271.7,259.8,271.7,259.8,271.7,259.8C271.7,259.8,271.7,259.8,271.7,259.8
				C271.7,259.9,271.7,259.8,271.7,259.8z M261.4,236.1c-0.9-0.7-1.5-1.6-1.6-3.3C260.3,232.5,260.8,235.2,261.4,236.1
				c0.1,0.1,0.2,0.2,0.4,0.3C261.7,236.3,261.5,236.2,261.4,236.1z M263,222.3l0.7-1.4l0.5-0.2L263,222.3z"/>
		</g>
		<g>
			<path class="st0" d="M267.2,318c-1.2-0.6-2.5-1.4-3.9-2.2c-0.1-0.1-0.2-0.1-0.2-0.2c-2.1-1.2-4.1-2.3-6.4-3
				c-1.5-0.3-3-0.4-4.5-0.3c0,0,0,0.1,0,0.1c0-0.1,0-0.2,0-0.3c0,0,0,0,0,0c-0.1-0.4-0.2-0.7-0.4-0.9c0,0-0.1-0.1-0.1-0.1l-0.2,0.7
				c-0.4-0.6-0.3-0.3-0.4-0.8c-1.3,0.1-1.7-0.8-2.8-0.9c-0.2,1-1.4,0.9-1.9,0.9c-0.9-1.4-1,1.7-1.2,0.3c-2.2,1.2-4.8,2.3-7.2,3.5
				c-0.1,0.6-1.9,0.8-1,1.5c-1.1-0.7-3-0.1-3.7,0.2c0-0.1,0-0.2,0.1-0.2c-1.9-0.7-1,1.9-3,0.9c0.3,1.2-2.5,0.7-2.5,2.3
				c-0.3-0.2-0.4-0.4-0.5-0.6c-2.2,1-4.8,1.7-6.7,2.5c-1.2,1.7-4.1,1.2-4.9,3.2c-1.3,0.2-3.4,0.3-4.8,1.5l0.1-0.2
				c-1.8,0.8-4.1,1.7-5,3c-1-1.2-1.7-0.7-2.6-0.9c-1.3,1.1-3.7,1.6-5.3,2.4c-0.4-0.6-1.6,0.6-1.9-0.3c-2.9,1.6-6.2,2.7-9.4,3.8
				c-2.3,5.6-4.4,8.4-7,13.2c0.1,0.5,0.5,0.8,0.9,1c1.2-0.4,2.3-0.9,3.1-1.2c0,0.1-0.2,0.2-0.4,0.2c1.7-0.2,2.4,0.7,4.2,0.5
				c-0.1,0.2-0.1,0.2-0.4,0.3c1.4-0.6,3,0.7,4.2-0.1l0,0.3l0.8-0.3c0,0.3-0.1,0.6-0.3,0.7c9.7,1,19.4-1.6,29.1-1.5l-0.3,0.3l1.9-0.6
				c0,0.2-0.1,0.2-0.2,0.3c2.4,0.5,4.9-0.5,7.3-0.3c0,0.2-0.4,0.5,0,0.6c1.7-0.9,2.8,1.1,3.7-0.7c0.1,0.1,0.1,0.5,0,0.6
				c9.2-1,18.3-0.2,27.5-1.5l0,0.3c7.6-1.1,15.6,1,23.3-0.1l0.1,0.4c4-1.6,8.4,1.2,12.5-0.6l-0.3,0.6c0.2-0.3,0.6-0.4,1-0.4
				c0.4,0,0.8,0,1-0.2c0,0,0.1,0,0.1-0.1c0,0,0-0.1,0-0.1c0.1-0.2,0-0.3,0-0.5c0.1,0.1,0.2,0.1,0.4,0.2l0.1,0.1l0.2,0.1
				c0.1-0.1,0.2-0.2,0.3-0.2h0c1.7-1,3.6-0.3,5.4-0.1c0.8,0,1.5-0.1,2.3-0.2c0.2-0.1,0.3-0.1,0.5-0.2c0,0-0.1,0.1-0.1,0.2l-0.1,0.1
				l-0.1,0.1c0.1,0,0.1,0,0.2,0c0,0,0.1,0,0.1,0c0,0,0.1,0,0.1,0c0,0,0,0,0,0c0.7-0.2,1.6-0.4,2.3-0.2c-0.1,0,0,0.1-0.3,0.3
				c2.5,1,5.4,0.1,7.8-0.3c-0.1-0.2-0.4-0.4-0.5-0.6c-0.2-0.2,0-0.6,0.1-0.8c0.5,0.4,0.8,0.8,1.1,1.1c0-0.1,0-0.3,0.1-0.5
				c-0.4-0.5-0.7-0.9-1.1-1.4c-0.2-1.7-0.1-3.8-0.9-5.3l0.3,0c-0.2-0.3-0.5-0.6-0.8-0.8l0.5-0.3c-1-2.9-4.5-3.2-7-2.9l0.2-0.6
				c-2.4,1-4.5-1.2-6.8-1.5l0.2-0.1c-2.5-1-5-1.8-7.5-2.7c-1.6-0.5-3.1-0.9-4.7-1.3c0,0,0,0-0.1,0c-1.6-0.4-3.2-0.8-4.8-1.3
				c0.1,0,0.2-0.2,0.3-0.2c-0.3,0.1-0.8,0.3-1.1,0.2c0-0.1,0.2-0.2,0.3-0.2c-0.2-0.2-0.4-0.4-0.6-0.5c-0.4-0.1-0.7-0.2-1.1-0.3
				c0,0,0,0,0.1,0C278,322.5,272.7,321,267.2,318z M250.9,314.4c-0.1,0-0.2,0-0.4-0.1C250.7,314.3,250.8,314.4,250.9,314.4z
				 M252.2,312.6c0,0.1,0,0.1,0,0.2C252.1,312.7,252.1,312.7,252.2,312.6z M252,313.2c0-0.1,0-0.1,0.1-0.2
				C252.1,313.1,252,313.2,252,313.2z M251.8,313.8c0,0.1-0.1,0.1-0.2,0.2C251.7,313.9,251.7,313.8,251.8,313.8z M252,313.4
				c0,0.1-0.1,0.2-0.1,0.2C251.9,313.6,251.9,313.5,252,313.4z M251.5,314.1c-0.1,0.1-0.1,0.1-0.2,0.1
				C251.4,314.2,251.5,314.1,251.5,314.1z M251.1,314.3c0.1,0,0.1,0,0.2-0.1C251.2,314.3,251.1,314.3,251.1,314.3z M246.7,312.8
				l0-0.5c0.8-0.4,0.3,0.4,1,0.3c0.2-0.1-0.2-0.8,0.5-0.7c0.6,1.6,2.3-0.9,2.6,1c0-0.3-0.1-0.5-0.2-0.6c-1.5,0.2-3,0.6-4.5,1.1
				C246.1,313,246.3,312.5,246.7,312.8z M231,320c2-1.7,4.7-2,7.3-2.5c-0.8,0.2-1.6,0.3-2.3,0.5c-2.3,1.1-4.5,2.2-6.7,3.1
				c-5.2,2.8-12.3,5.7-19.8,8.2c-0.3,0.1-0.5,0.2-0.8,0.4C216.1,326.2,223.3,322.2,231,320z M239,317.3c-0.1,0-0.2,0-0.3,0.1
				C238.8,317.3,238.9,317.3,239,317.3z M207.2,330.2c-0.3,0.1-0.7,0.3-1,0.4C206.6,330.5,206.9,330.4,207.2,330.2z M204.7,331.3
				c-0.4,0.2-0.7,0.3-1.1,0.4C203.9,331.6,204.3,331.5,204.7,331.3z M199.4,333.3c-0.5,0.2-1.1,0.3-1.6,0.5
				C198.4,333.6,198.9,333.4,199.4,333.3z M202.1,332.4c-0.4,0.2-0.9,0.3-1.3,0.5C201.2,332.7,201.6,332.5,202.1,332.4z
				 M196.8,334.1c-0.6,0.2-1.3,0.3-1.9,0.5C195.5,334.4,196.2,334.2,196.8,334.1z M191.3,335.2c-0.9,0.1-1.9,0.2-2.9,0.3
				C189.4,335.4,190.3,335.3,191.3,335.2z M194.1,334.7c-0.8,0.2-1.5,0.3-2.3,0.4C192.5,335,193.3,334.9,194.1,334.7z M187.7,336.3
				c-0.9,2.3-1.9,4.6-2.8,6.9C185.4,340.7,186.2,338.3,187.7,336.3z M184.8,343.3c-0.1,0.6-0.3,1.2-0.4,1.8
				C184.6,344.5,184.7,343.9,184.8,343.3z M185,345.1c0.6,0.1,1.3,0.2,1.9,0.2C186.3,345.2,185.6,345.2,185,345.1z M187.2,345.3
				c0.6,0,1.2,0.1,1.9,0.1c1.1,0,2.2,0,3.3,0C190.7,345.5,189,345.5,187.2,345.3z M193.5,345.4c0.2,0,0.5,0,0.7,0
				C194,345.4,193.8,345.4,193.5,345.4z M195.4,345.3c0.2,0,0.4,0,0.6,0C195.8,345.3,195.6,345.3,195.4,345.3z M199.9,345
				c0.4,0,0.8-0.1,1.2-0.1C200.7,344.9,200.3,345,199.9,345z M201.9,344.8c0.8-0.1,1.6-0.1,2.5-0.2
				C203.5,344.7,202.7,344.8,201.9,344.8z M204.7,344.6c0.3,0,0.6,0,1-0.1C205.4,344.6,205,344.6,204.7,344.6z M206.6,344.5
				c0.3,0,0.6,0,0.8,0C207.2,344.5,206.9,344.5,206.6,344.5z"/>
		</g>
	</g>
</g>
</svg>
