<?xml version="1.0" encoding="utf-8"?>
<!-- Generator: Adobe Illustrator 26.2.1, SVG Export Plug-In . SVG Version: 6.00 Build 0)  -->
<svg version="1.1" id="tree_2_outlined" xmlns="http://www.w3.org/2000/svg" xmlns:xlink="http://www.w3.org/1999/xlink" x="0px"
	 y="0px" viewBox="0 0 500 500" style="enable-background:new 0 0 500 500;" xml:space="preserve">
<style type="text/css">
	.st0{fill:#8C3712;}
</style>
<path class="st0" d="M426.1,229.3c0.9-0.1,1.5-0.8,1.4-3.1c-0.6-0.1-1.1-0.2-1.7-0.3c0.7-2,0.2-1.4,1-2.3c-1.2-2.8-1.7-4.6-2-6.3
	s-0.5-3.2-1.6-5.3c0,0.1,0,0.1-0.1,0.1c-1.7-0.7-3-1.9-4.2-3.2s-2.3-2.7-3.1-3.6l-0.2-1.3c-0.1-1.2-1.8-1.5-3.3-1.8
	c-1.4-0.2-2.4-0.4-0.8-1c-3.5-2.5-7.2-5.2-10.9-8c-0.9-0.7-1.9-1.4-2.8-2.2c-0.4-0.3-0.8-0.6-1.1-0.9c-0.3-0.3-0.7-0.5-1-0.8
	l-0.5-0.4l-0.3-0.2l-0.1-0.1l0.1-0.1c0.5-0.3,1-0.6,1.5-1c0.2-0.2,0.5-0.4,0.7-0.6l1.3-1.1c0.2-0.5,0.8-1.3,1.5-2.1s1.6-1.7,2.2-2.5
	c1.3-1.6,2.1-2.9,0.2-2.4c1-0.3,2.2-1,3.5-2.1c0.6-0.5,1.2-1.2,1.8-1.8c0.3-0.3,0.6-0.7,0.9-1c0.3-0.4,0.6-0.7,0.8-1.1
	c0.5-0.8,1.1-1.5,1.5-2.4c0.4-0.8,0.9-1.6,1.2-2.4c0.7-1.5,1.2-3,1.5-4c0.2,0.2,0.4,0.5,0.1,1.1c0.7-0.8,1.2-1.7,1.5-2.5
	s0.6-1.6,0.7-2.3s0.1-1.4,0-2.1c0-0.3,0-0.7-0.1-1s-0.1-0.6-0.2-1c-0.3-1.3-0.4-2.4-0.5-3.9c0-0.7,0-1.5,0.2-2.3
	c0.1-0.9,0.3-1.8,0.6-2.9c-1.4-0.4-2-4.1-3.7-7.9c-0.5-0.9-0.9-1.9-1.5-2.8c-0.6-0.9-1.2-1.7-1.8-2.4c-0.7-0.7-1.3-1.3-2-1.8
	s-1.4-0.7-2-0.8c-0.2-1.1-0.1-1.7,0.5-1.8c-5.1-5-11.3-8.6-17.5-11.3c-3.1-1.3-6.4-2.4-9.7-3c-3.2-0.7-6.4-1-9.4-0.9
	c-2,0.5-4.2,0.9-6.4,1.3c-0.9,0.2-1.8,0.3-2.8,0.5c-0.1,0-0.2,0-0.3,0L359,116c-0.1-0.1,0.1,0-0.7-0.7c-1.3-1.1-2.6-2-3.9-2.9
	c-2.7-1.7-5.4-2.8-8-3.1c-2.8-1.8-6.7-4.1-11.3-5.6c-4.6-1.5-9.8-2.3-14.6-1.7l0.9-0.4c-0.8,0-1.7,0-2.5,0c-0.4,0-0.8,0-1.2,0h-0.2
	c-0.2,0-0.5,0.1-0.8,0.2c-0.1-0.2-0.3-0.5-0.5-0.8l-0.1-0.1c0,0-0.1-0.2-0.1-0.3l-0.1-0.3c-0.2-0.4-0.4-0.9-0.6-1.3
	c-0.4-0.8-0.7-1.7-1.2-2.4c-1.6-3.1-3.4-5.8-5.2-7.6c0.4-1,0.4-2.1,0.3-3.1s-0.4-2-0.8-3s-0.9-2-1.5-3c-0.5-1-1.1-2-1.6-3.1
	c-1.3-1.2-3.1-2.7-4.8-4.5c-1-0.8-2-1.7-3-2.7c-0.3-0.2-0.5-0.5-0.8-0.7s-0.6-0.4-0.8-0.7c-0.6-0.4-1.1-0.9-1.7-1.3
	c-4.7-3.6-10.3-6.7-15.4-8.2c-0.4-1-2.6-1.8-4.6-2.4c-2-0.6-3.9-1.2-3.9-2.3c-7.7-1.1-15.8-1.1-24,0.5c-4,0.8-8,2-11.8,3.5
	c-3.9,1.5-7.6,3.3-11.2,5.5c-3.6,2.2-7,4.7-10.1,7.6c-1.6,1.4-3.1,2.9-4.5,4.5l-2.1,2.4c-0.7,0.8-1.3,1.7-2,2.5
	c-2.6,3.4-4.8,7-6.7,10.7c-1,1.9-1.8,3.8-2.6,5.7l-0.1,0.4l-0.1,0.2l0,0H195l-0.2,0.1c-0.1,0-0.2,0-0.3,0l-0.1-0.2
	c0.4,0.4,0.8,1.4,1.3,2.9c0.1,0.7,0,1.3-0.4,1.7c-0.4,0.4-1,0.7-1.9,0.8c-0.2-0.3-0.1-0.6,0.3-0.4c-0.4-0.2-0.8-0.3-1.2-0.5
	l-0.7-0.4l-0.9-0.5c-1.2-0.6-2.5-1.2-3.7-1.9c-1.3-0.5-2.6-1.1-3.9-1.6c-1.4-0.4-2.7-0.7-4.2-0.8c0.1-0.3,0.1-0.4,1.1-0.6
	c-1.4,0.1-2.8-0.1-4.2-0.3c-1.4-0.1-2.9-0.4-4.4-0.6c-1.5-0.1-3-0.3-4.6,0c-0.8,0.1-1.6,0.2-2.4,0.4c-0.8,0.2-1.6,0.5-2.3,0.9
	l-0.5-0.5l-1,0.4l-1,0.5l-1.9,0.9c-0.1-0.6-0.2-1.5,1.2-1.9c-8.3,2-16.1,6.4-22.1,12.7c-3.1,3.2-5.7,6.9-7.8,10.8
	c-2,3.9-3.5,8.1-4.5,12.3s-1.6,8.5-1.6,12.9c0,4.5,0.5,8.8,1.6,13c0.2,1.1,0.6,2.1,0.9,3.1s0.7,2.1,1.1,3.1s0.8,2,1.2,3l0.7,1.5
	l0.4,0.7l0.2,0.4l0.4,0.7l0.3,0.5c0.2,0.4,0.5,0.7,0.8,1.1c0.5,0.7,1.1,1.5,1.8,2.2l0.1,0.1h-0.1h-0.1h-0.3h-0.6
	c-0.4,0-0.8,0.1-1.3,0.1c-0.9,0.1-1.8,0.2-2.7,0.4L125,175c-1,0.2-2,0.4-3,0.7c-2,0.5-4,1.1-5.9,1.8c-7.7,2.8-15,7-21.2,12.4
	c0.3-0.6,0.6-1.2,1-1.7c-2.3,2.4-4.3,4.9-6.2,7.6c-0.2-0.3-0.1-0.7,0.1-1.2c-1.2,1-2.3,2.2-3.3,3.4c-0.5,0.6-1,1.2-1.5,1.8l-0.7,1
	l-0.3,0.5l-0.3,0.4l-0.2,0.2L83,203l-0.7,0.9c-0.5,0.6-1,1.3-1.4,1.9c-0.9,1.3-1.7,2.6-2.5,4c-3.1,5.4-5.4,11.2-7.3,16.9
	c-0.3-0.1-0.4-2.1-1.3-0.6c-0.1,1.1-0.2,2.2-0.4,3.2c-0.1,0.5-0.2,1-0.3,1.5c-0.1,0.5-0.2,0.9-0.3,1.4c-0.2,0.9-0.5,1.8-0.7,2.6
	s-0.4,1.6-0.6,2.4c-0.2,0.8-0.4,1.5-0.4,2.2c-0.1,0.7-0.1,1.4,0,2c0.1,1.3,0.5,2.5,1.6,3.6c-0.2,0.4-1.1,0.7-1.4-0.2l0.2,2.4
	l0.1,1.2l0.2,1.2c0.2,1.6,0.5,3.1,0.8,4.6c0.6,3,1.5,6,2.4,9c1.9,5.9,4.5,11.7,8.1,17s8.3,10.1,14,13.3c2.9,1.6,6,3,9.3,3.7
	c3.3,0.8,6.6,1,9.7,1c2.6-0.5,5-1.1,7.4-1.3c2.4-0.3,4.7-0.3,6.9,0.1c2.2,0.5,4.3,1.5,6.2,2.8c1.9,1.4,3.5,3.1,4.8,5.1
	c1.2,2,2.1,4.3,2.9,6.7c0.7,2.4,1.3,4.9,2,7.5s1.6,5.2,3,7.6s3.3,4.5,5.5,6.1l-0.6,0.4c1.3,1,2.7,1.9,4.2,2.6s3,1.3,4.5,1.7
	c3.1,0.9,6.3,1.3,9.5,1.4c6.4,0.2,12.7-0.6,19.1-1.8c0.2,0,0.4-0.1,0.6-0.2c0.2-0.1,0.4-0.1,0.5-0.2c0.2,0,0.3-0.1,0.6-0.1
	c0.2,0,0.5,0,0.7-0.1c0.9-0.3,1.7-0.5,2.5-0.8c0.8-0.2,1.6-0.4,2.5-0.6c1.7-0.3,3.4-0.6,5-0.7c3.4-0.3,6.8-0.2,10.2,0.2
	c1.7,0.2,3.3,0.5,4.9,1c1.6,0.5,3.1,1,4.4,1.9c2.6,1.7,4.2,4.6,5.2,7.7c0.7,2.6,1.1,5.1,1.3,7.5s0.3,4.8,0.3,7.1
	c0,4.7-0.4,9.5-1.5,15l-0.9,0.1c-0.1,4.8-1.2,9.7-2.8,14.4c-0.8,2.3-1.8,4.7-3,6.9c-0.6,1.1-1.1,2.3-1.7,3.3
	c-0.6,1.1-1.3,2.2-1.9,3.3c-2.7,4.3-5.7,8.3-8.7,12.3c-2.1,2.7-4.1,5.4-6.2,8.2c-0.1,0.1-0.3,0.2-0.4,0.3c-1.6,1.1-3.2,2.3-4.7,3.6
	c-1.6,1.4-3.5,3-5.2,4.7c-3.5,3.3-6.8,6.8-9.5,9.7c3.5-0.1,6.9-0.2,10.1-0.4c11.7,0.3,23.4,0.6,35.1,0.9c16.8,2.6,33.4,3.7,50.1,3.8
	c8.6,0.1,17.1,0,25.7-0.3l6.8-0.2c2.3-0.1,4.6-0.2,6.9-0.3c2-0.1,4.1-0.2,6.1-0.3l2.5-0.2c0.9,0,1.7,0,2.6,0.1
	c-12.3-9.8-39.6-34.1-47.7-69.6c-0.8-3.5-1.8-7.9-2.2-12.9c0.2-1.6,0.5-3.3,0.8-4.9c1.4-6.9,3.6-13.6,6.7-19.9
	c1.6-3.1,3.3-6.3,5.2-9.2c1.6-2.4,3.5-4.8,6-6.4c1.3-0.8,2.8-1.4,4.3-1.6c11.4-1.7,16.4,15.7,28.1,14.9
	c11.1-0.8,11.3-15.7,28.1-25.3c13.8-7.9,18.8-0.7,34.7-7.8c21.4-9.5,30.8-30.6,33.1-36.4C425.7,258.6,431.2,244.7,426.1,229.3z
	 M301.3,239.7l0.1-0.1C301.3,240,301.3,240.1,301.3,239.7z M273.8,294.7c0,0.1-0.1,0.3-0.1,0.4C273.6,295,273.6,294.9,273.8,294.7z
	 M202,97.7c1-3.8,2.3-7.5,4-10.9c3.4-6.9,8.6-12.6,14.4-15.7c0.3-0.2,0.7-0.4,1-0.6c-0.2,0.2-0.4,0.3-0.6,0.5
	c-11,8.6-16.4,19.5-19.1,27.6C201.8,98.4,201.9,98.1,202,97.7z M152.9,105.1c3.8-1.9,8-3.2,12.2-3.8c2.9-0.4,5.8-0.4,8.7-0.2
	c-9.1-0.3-18,1.9-25.6,6.8C149.7,106.8,151.3,105.9,152.9,105.1z M221.6,402.6c0.1-0.1,0.1-0.1,0.2-0.2
	C221.7,402.5,221.7,402.6,221.6,402.6L221.6,402.6z M196.3,441.4c0.3,0,0.7,0,1-0.1c0.1,0,0.3,0,0.4,0L196.3,441.4z M212.7,441.3
	c0.2,0,0.3,0,0.5-0.1c0.3,0,0.7,0,1,0.1H212.7z M316.6,330.8l0.1,0.1C316.4,330.7,316.2,330.6,316.6,330.8z M334.3,300.7
	c1.1-0.8,2.2-1.4,3.2-1.6C336.4,299.6,335.3,300.2,334.3,300.7z M343.9,295.5c1.1-1.9,1.9-3.7,3.4-3.2v-1.1c3.4-2.6,1,0.7,4-0.8
	c1-0.8-0.6-1.7,1.8-2.7c0.8,0.8,1.8,0.6,2.9,0C351.5,290.8,347.4,293.4,343.9,295.5z M357.9,286.2c0.2-0.2,0.4-0.4,0.7-0.6
	c0.9-0.8,1.8-1.6,2.7-2C360.1,284.5,359,285.3,357.9,286.2z M363.3,278.4c-4.5,3.5-6.4,2.2-10.1,3.9c0.1,0,0.1,0,0.1,0.1
	c-1.2,3-4.9,4.3-6.8,5.3l-1.2-0.2c-1-0.4-1.9,1.2-2.5,2.4c-0.7,1.2-1.1,2.1-1.1,0.4c-4.7,3.2-9.9,6.1-15.6,8.7
	c-5.6,2.6-11.9,4.8-18.1,8c-0.6,0.9-3,2.1-4.6,3.3c-1.7,1.1-2.7,2.1-0.9,2.2c-1-0.1-2.4,0.2-3.9,0.8c-0.7,0.3-1.5,0.6-2.3,1
	s-1.5,0.8-2.3,1.3s-1.5,0.9-2.1,1.4c-0.7,0.5-1.3,0.9-1.9,1.4c-1.2,0.9-2.3,1.8-3,2.5c0-0.3-0.1-0.6,0.4-0.9
	c-3.9,1.3-5.1,3.6-6.1,5.7c-0.5,1.1-1,2.1-1.8,3.1s-2,2-3.8,3.1c0.8,1.2-1.2,4-2.7,7.5c-1.6,3.4-2.8,7.6-1.5,9.9
	c-0.8,0.8-1.4,1-1.8,0.6c-1.2,6.7-1.2,13.8-0.3,20.3c0.2,1.4,0.4,2.7,0.6,4c0,0.7,0,1.5,0,2.2c0.3,1,0.6,2.1,1,3.1
	c0.1,0.2,0.1,0.3,0.2,0.5c0.4,1.5,0.7,3,1.1,4.5c0.5,4.9,1.4,9.7,2.8,14.5c1.5,5.4,3.6,10.6,5.9,15.7c2.4,5.1,5.1,10,8.1,14.7
	l1.7,2.7c0.4,0.6,0.8,1.2,1.2,1.7c0.8,1.1,1.6,2.2,2.5,3.3l0.2,0.2h-0.2H294h-1h-2.1h-4.4c-4.1,0-8.3,0.1-12.4,0.1l0,0
	c-0.1,0-0.1,0-0.2,0c-1.2,0-2.5,0-3.7,0c-10.9,0.1-21.8,0-32.6-0.2c-10.1-0.1-19.9-0.3-29.5-0.5c-1.2,0-2.4,0-3.6-0.1h-0.9h-0.4H203
	h-0.6c-0.8-0.1-1.5-0.1-2.3-0.2l-0.1-0.1l-0.3-0.1c-0.2-0.1-0.3-0.2-0.5-0.3c-0.5-0.3-0.5-0.7,0.1-1.1l0.3-0.1
	c-0.4,0.2-1,0.4-1.7,0.7c0.7-0.5,1.4-1,2-1.4c0.4-0.3,0.7-0.6,1.1-0.9c0.2-0.2,0.3-0.3,0.5-0.5l0.3-0.3c0.3-0.3,0.6-0.6,1-1
	c4-4.2,7.7-8.7,11-13.5l0.2,0.1l2.2-3.2c0.4,0.5,0.8,1.2,0,2.1c2-1.9,4-3.8,6.1-5.7c2.7-2.6,5.5-5.3,8.3-8c0.4-3.1,0.8-6.3,1.2-9.4
	c0.3-2.4,0.7-4.9,1.1-7.3c0.4-2.4,0.8-4.9,1.2-7.3l0.7-3.6l0.3-1.8c0.1-0.6,0.2-1.1,0.3-1.6c0.5-2.1,1.2-4.3,2-6.7
	c0.8-2.4,1.7-5,2.3-8.1c0.5-3.1,0.5-6.6-0.5-9.8c-0.9-3.1-2.4-5.9-4.2-8.3c-0.9-1.2-1.9-2.3-3-3.3l-0.9-0.9
	c-0.2-0.2-0.4-0.4-0.6-0.5l-0.6-0.4l-1.7-1.1l-6.5-4c-4.3-2.7-8.6-5.4-12.9-8.1c-8.6-5.4-17.2-10.9-25.6-16.6l1.8,0.4l-8.3-4
	c0.2-0.3,0.7-0.2,1.1-0.1c-9-7.4-20.2-12.3-29.5-18.7c0.2-0.3,2,0.1,0.9-1.1c-1-0.4-1.9-0.8-2.7-1.3c-0.5-0.2-0.8-0.4-1.1-0.7
	c-0.6-0.5-0.9-1-1.1-1.3c-0.2-0.4-0.4-0.6-1-0.8c-0.7-0.2-1.9-0.5-4.5-1c0.2-0.1,2.1,0.1,3,0.3c-2-1-4.4-2.3-6.8-3.7
	c1.7-0.1,3.8-0.1,6.2-0.1l3.7,0.1l3.9,0.1c4.7,0.2,9.5,0.4,14.2,0.7l1.2,0.1l0.9,0.1c0.2,0.2,0.4,0.4,0.6,0.6l0.8,0.9
	c1.7,1.7,3.3,3.4,5,5c4.1,2.7,8.1,5.9,11.9,9.2c1.9,1.7,3.8,3.4,5.7,5.2c1.9,1.8,3.7,3.6,5.5,5.5c3.7,3.7,7.3,7.4,11.1,11
	c0.9,0.9,1.9,1.8,2.9,2.7l1.8,1.5c0.6,0.5,1.2,1,1.8,1.5c2.4,1.9,4.6,3.3,6.8,4l0.1,0.7c0.8,0.2,1.6,0.4,2.4,0.2
	c0.9-0.2,1.6-0.8,2.1-1.6c0.9-1.6,1.1-3.4,1.1-5.2c0-1.8-0.1-3.7-0.4-5.5c-0.2-1.8-0.6-3.7-0.9-5.3c-1.3-6.6-2.7-13.3-4.1-20
	c-1.4-6.7-3.2-13.4-5.4-19.9s-4.7-13-8-19c-2.3-4.9-4.7-8.8-7.3-12.6c-1.1-1.7-2.3-3.3-3.6-5c-1.3-1.8-2.7-3.6-4.2-5.6
	c-0.5-0.4,0.3-0.3,0.7-0.3l1.8,0.9c1.2-0.4,3-0.7,5.1-0.8c1-0.1,2.2-0.1,3.3-0.1c1.2,0,2.3,0,3.5,0s2.5,0.1,3.7,0.1l1.9,0.1l1.7,0.1
	c1.1,0.1,2.1,0.2,3.2,0.3l0.1,0.1v0.2l0.1,0.4l0.2,0.8l0.3,1.6c0.4,2.4,0.8,4.7,1.2,7.1c0.4,2.5,0.8,5,1.2,7.5c0.9,5,2,9.9,3.6,14.7
	l-1.4-1.2c2.2,2.6,1.2,11,3.6,10.6c0.1,0.5,0.2,1.1,0.2,1.6l-0.2,1.8c0.3,0.6,0.5,1.1,0.7,1.7c1.1,7.6,2.2,15.2,3.4,22.2
	c0.1,1.8,0.3,3.6,0.6,5.5c0.3,1.8,0.7,3.6,1.2,5.4c0.3,1.2,0.7,2.3,1.2,3.5c0.2,0.6,0.3,1.2,0.5,1.8c-0.2-0.2-0.4-0.3-0.6-0.5
	c0.4,1,0.9,2.1,1.4,3.2c0,0.1,0.1,0.2,0.1,0.3c0.9,3,2,5.7,3.1,8c0,0.2,0.1,0.3,0.1,0.5c-0.3-0.4-0.3,0-1-0.8c0.4,2,1.3,4,2.5,5.7
	c0.6,0.8,1.3,1.6,2.2,2.1c0.8,0.5,1.9,0.8,2.9,0.5c1-0.2,1.9-0.8,2.6-1.5c0.7-0.7,1.4-1.5,2-2.4c1.2-1.8,2-4,2.7-6.1l0.5-1.6
	c0.1-0.5,0.2-0.9,0.3-1.4c0.2-0.9,0.4-1.9,0.6-2.8c0.1-0.9,0.3-1.9,0.4-2.8l0.3-2.8c0.4-3.7,0.7-7.4,1-11.1c0.4,0.6,0.8,1.2,1.3,1.8
	c-0.5-3.6-0.2-8.6,0.1-13.9c0.1-2.6,0.2-5.4,0.3-8c0-2.3,0-4.4-0.3-6.6c0.2,0.4,0.5,0.7,0.7,1l-0.3-1.5c0.6-0.2,1.4-0.4,2.2-0.6
	l0.9,1.4c1.2,0,2.4,0.1,3.6,0.1c1.3,0,2.4,0,3.7,0c1.3,0,2.6-0.1,3.9-0.1c0.7,0,1.4,0,2-0.1h1h0.3h0.1v0.1l-0.2,0.4
	c-1,1.6-2.1,3.5-3.1,5.4c-0.5,1-1,2-1.5,3.1c-0.5,1.2-1.1,2.4-1.6,3.6l-0.9-1.1c-0.7,2.8-1.5,5.6-2.3,8.4c-0.4,1.4-0.8,2.8-1.2,4.3
	c-0.4,1.6-0.9,3.2-1.3,4.9c-0.8,3.3-1.4,6.7-1.6,9.9c-0.1,1.6,0,3.1,0.1,4.4c0.2,1.4,0.5,2.7,1.2,3.9c-0.2-0.1-0.4-0.2-0.6-0.3
	c0.2,0.4,0.4,0.8,0.7,1.2c0.3,0.3,0.7,0.7,1.2,0.7c1,0.1,1.8-0.3,2.5-0.7c1.5-0.9,2.7-2,4-3.3c2.6-2.6,5.2-6.1,7.5-9.7
	c0.6-0.9,1.1-1.8,1.7-2.6c0.5-0.9,1.1-1.8,1.5-2.5c0.9-1.5,1.8-3.1,2.6-4.7c1.7-3.2,3.2-6.4,4.6-9.6c2.5-5.7,4.7-11.5,6.8-17.4
	c3-7.6,6.1-16.4,9.2-26.5c5.3-0.3,10.7-0.6,16-0.9c-5,6.7-28.7,39.1-30.2,58.9c-0.1,2-0.1,4.2,1.3,5.6c3.6,3.4,13.2-1,43.3-16.7
	c7.2-3.8,13.4-7,18.2-9.5c4.9,0.6,9.7,1.3,14.6,1.9l0.1,0.8C363.7,278.5,364.4,278.9,363.3,278.4z M271.7,352.2
	c0,0.3-0.1,0.6-0.1,0.8C271.5,352.9,271.5,352.6,271.7,352.2z M381.3,124c-10.5-2.9-19.5-1.2-24,0c-4.6-4.3-15.1-12.7-30.6-14.9
	c-5.7-0.8-10.8-0.6-14.9,0c-0.5-2.1-2.2-8.9-6.3-16.8c0.5,0.9,1.1,1.8,1.6,2.7l0.9,1.6l0.8,1.7c0.6,1.1,1.1,2.3,1.6,3.4
	c0.3,0.6,0.5,1.2,0.7,1.7s0.4,1,0.6,1.5c0.4,0.9,0.7,1.9,1.1,2.7h0.2c0.8-0.1,1.6-0.1,2.4-0.1h1.3h1.4c2.1,0,4.2,0.2,6.3,0.4
	c4.2,0.5,8.3,1.4,12.3,2.7c4,1.3,7.8,3,11.4,5.1c1.8,1.1,3.6,2.2,5.3,3.4l1.3,0.9l1.1,0.9l1.9,1.5c1-0.3,1.9-0.5,3-0.8
	c1.3-0.3,2.6-0.5,3.9-0.7c2.6-0.3,5.3-0.5,7.9-0.3c5.3,0.2,10.5,1.5,15.3,3.5c2.4,1,4.7,2.2,6.9,3.6c2.2,1.4,4.3,3,6.2,4.8
	c1.9,1.8,3.5,3.9,4.8,6.2c0.7,1.1,1.2,2.3,1.7,3.5c0.3,0.6,0.4,1.2,0.6,1.8s0.4,1.2,0.5,1.9c1.8,3.7,2.2,8.2,1.4,12.4
	c-0.7,4.2-2.5,8.3-4.9,11.9c-0.3,0.5-0.7,0.9-1,1.4c5-8.5,6.5-17.9,3.8-26C402.9,130.9,385.9,125.3,381.3,124z M398.7,198.5
	c1.1,0.6,2,1.3,2.7,2.1C400.5,200,399.6,199.2,398.7,198.5z M411,208.4c-1.3-1-2.5-2-3.8-3.1c2.2,0.3,4.1,0.6,4.2,2.2l1.1-0.4
	c1.8,1.3,1.7,1.6,1.5,1.9c-0.2,0.3-0.6,0.5,0.5,1.8c1,0.8,1.6-1,3.1,1.4c-0.7,0.9-0.4,1.9,0.3,2.9
	C415.4,212.1,412.9,209.8,411,208.4z M419.5,216.9c0.2,0.2,0.4,0.4,0.5,0.7c0.8,0.9,1.5,1.9,1.8,2.8
	C421.1,219.1,420.3,218,419.5,216.9z"/>
</svg>
