<?xml version="1.0" encoding="UTF-8"?><svg id="a" xmlns="http://www.w3.org/2000/svg" viewBox="0 0 500 500"><defs><style>.b{fill:#8c3712;}</style></defs><path class="b" d="M430.66,213.86c.12-6.04,1.47-6.84,2.04-11.17-.03,.04-.05,.09-.1,.02-.09-.23-.16-.47-.23-.71-.07-.26-.12-.42-.17-.92-.1-.84-.16-1.68-.19-2.52-.07-1.69-.04-3.41,.03-5.12l-5.19-.27c-.47-.17-.97-.35-1.5-.52-.3-.14-.73-.2-1.25-.22-.39-.02-.63,0-1,.07-.68,.12-1.44,.36-2.09,.58l-.88,.29c-.14,.08-.19,.13-.25,.14-.12,.02-.05-.13,.12-.59l-.27,.03-.28-.12s-.03,0-.09-.04l-.75-.42-2-1.14c-1.34-.77-2.7-1.55-4.08-2.35l-8.39-4.93c-5.65-3.39-11.46-6.88-17.19-10.32-2.01-.39-8.95-5.49-7.09-2.77-2.14-3.1-10.67-8.72-13.94-10.63,.2-.05,.42-.11,.9,.25-5.25-5.52-8.42-2.91-13.04-8.58-1.82,.93-10.42-6.95-14.81-7.21-.53-.77-.59-1.22-.17-1.32-10.59-6.45-21.99-14.07-30.93-19.57-1.85-.73-3.77-1.71-5.72-2.82-.02-.01-.03-.02-.05-.03,.19-.48,.36-.97,.52-1.46,1.53-4.59,2.38-9.44,2.56-14.55,.02-.62,.03-1.25,.03-1.88v-.05c0-16.42-7.37-31.12-18.98-40.97,5.21,4.27,9.85,9.8,13.82,15.6,.02,.4-.27,.61-.71,.72,1.16,1.19,2.08,2.57,2.94,4,.8,1.46,1.34,3.04,1.89,4.62,.49,1.6,.73,3.27,1.04,4.91,.18,.82,.18,1.66,.26,2.49l.2,2.48c.58,.19,.49-.74,1.14-.15,.19-1.11-.28-2.06-.7-2.96-.22-.45-.4-.9-.53-1.35-.14-.45-.19-.93-.06-1.45l.57,.14c0-1.47-1.37,0-1.04-1.58,.3-.67,.69-.02,.66-.29-.24-.73-.39-1.48-.62-2.21-.25-.73-.49-1.46-.76-2.18-.27-.72-.58-1.42-.94-2.07-.39-.65-.9-1.23-1.47-1.76,.75-1.09-1.18-3-.8-4.44-.78-.49-1.05-1.23-1.86-1.12l-.86-1.78-1.04-1.68-1.07-1.67-.55-.83-.62-.78c-.83-1.03-1.68-2.06-2.54-3.07-.93-.95-1.89-1.88-2.84-2.81-3.93-3.62-8.34-6.64-12.96-9.3-1.38-.07-2.65-.42-3.87-.95-.31-.13-.61-.27-.91-.42-.31-.12-.63-.26-.94-.4-.63-.28-1.25-.59-1.88-.92-.64-.31-1.26-.69-1.92-.98l-1.01-.41-.51-.2-.25-.12c-.63-.3-1.11-.47-2-.44,.08-.06,.18-.12,.28-.16-.54,.09-1.17,.13-1.8,.11l-.47-.02c-.12,0-.05-.03-.02-.06l.11-.09,.52-.43,.84-.71c-.1-.11-.18-.26-.23-.44-.06-.15-.11-.32-.15-.52,.22-.25,.41-.48,.59-.77,.08-.1,.2-.34,.31-.55s.21-.43,.31-.65c.38-.89,.64-1.83,.78-2.8,.11-.85,.12-1.73,.04-2.61v-.04c-.1-1.09-.35-2.17-.75-3.2-1.46-3.78-4.73-6.6-8.37-7.95-3.67-1.37-7.7-1.42-11.43-.27-3.71,1.15-7.15,3.59-9.26,7.21-1.5,2.69-2.06,5.87-1.53,8.9,.14,.76,.33,1.51,.6,2.23,.21,.59,.22,.64,.31,.85,.16,.36,.34,.64,.54,.86,.1,.12,.22,.21,.32,.29l-.62,.06c-.4,.04-.76,.07-1.09,.14-.42,.1-.26,.04-1.87,.52-.62,.16-1.21,.41-1.8,.66l-1.77,.74c-4.66,2.07-9.03,4.99-12.5,8.99-.11-.18-.29-.2-.02-.51-.41,.38-.83,.73-1.25,1.07l-1.2,1.09c-.8,.7-1.62,1.37-2.43,2.04-.77,.7-1.5,1.44-2.23,2.19-.72,.75-1.43,1.52-1.96,2.43l-.16-.15c-2.69,4.53-5.45,9.06-7.63,13.91-.53,1.21-1.11,2.41-1.47,3.68-.39,1.26-.83,2.49-1.11,3.76-.24,1.28-.45,2.55-.6,3.81-.1,.62-.09,1.26-.08,1.89,0,.63,.03,1.26,.07,1.88-.1,.73-.25,1.47-.32,2.22l-.13,2.27-.12,2.3c-.02,.77,0,1.55,.02,2.33,.11,3.12,.51,6.3,1.24,9.42,.37,1.63,.9,3.44,1.48,5.06,.13,.37,.27,.74,.41,1.11,.11,.31,.23,.61,.35,.92-.28,.19-.55,.38-.82,.57-.57,.41-1.13,.81-1.68,1.2-1.83,.02-7.04,4.71-8.19,3.82-23.24,17.08-54.11,34.65-81.38,48.81-2.91,2.65-5.88,6.26-8.75,9.07-.32,.09-.43-.03-.1-.31-4.58,2.96-9.61,4.53-14.15,7.55-.05-.15,.14-.44,.59-.87-.61,.47-1.25,.9-1.91,1.31l-.5,.3c-.15,.09-.39,.23-.42,.24-.14,.07-.29,.14-.43,.2l-.49-.08s-.33-.03-.5-.05l-.61-.05-2.48-.18-.9-.04-1.07-.03-2.18-.03c-1.46,0-2.94,0-4.36,.07,.06,1.3,.14,2.65,.27,3.97-.12,.12-.24,.25-.36,.39l.25,3.35c.04,.63,.08,.86,.13,1.21l.13,.99c-.22-.05-.5-.11-.71-.42-.1-.16-.19-.38-.24-.69-.01-.11-.03-.21-.04-.34-.01,2.46-.02,4.92-.04,7.41v12.39l16.45-.08,6.32-.07,1.47-.02,.38-.02,.81-.04,.04,.68,.02,.36v.18l.02,.69c.03,1.88,.06,3.76,.1,5.64,.07,3.77,.14,7.54,.21,11.32,.15,7.56,.3,15.15,.44,22.76,.13,7.61,.25,15.23,.38,22.86,.06,6.86,.13,13.73,.19,20.6-3.9,0-7.8-.02-11.7-.03l1.81-.42-2.02,.16-1.01,.08-1.46,.08-5.73,.32,.12,2.2c-.23-.23-.34-.97-.44-1.75-.09,2.03-.15,4.18-.19,6.36l-.04,2.23v2.14c-.02,2.86,.05,5.73,.13,8.59,.09,2.86,.19,5.72,.28,8.55l.06,2.12,.05,2.44c.01,2,.03,3.98,.04,5.96l3.77,.02c-.09,.11-.84,.27-1.33,.44-.48,.17-.67,.34,.6,.46,1.27-.1,2.43-.18,3.53-.23l.69-.03h.25l.11-.03,.45-.03c.6-.02,1.14,.03,1.55,.11-.07,.55-.17,1.04-.24,1.44l-.09,.55v.12l-.03,.31v.66c0,1.74,.26,3.29,1.09,4.74-.12,.41-.69,.69-.89-.21,.84,24.48,.79,49.61,.38,74.27,.18,1.6,.33,3.21,.46,4.85,.13,.96,.24,2.01,.32,3.18-.73,.07-1.52,.12-2.35,.17l-.63,.03-.87,.03-1.9,.05-4.15,.07c-1.65,.01-3.3,.03-4.95,.04,0,6.14,.02,12.35,.02,18.55,.01,2.86,.05,5.72,.11,8.57l.13,4.42c.05,1.73,.12,3.41,.2,5.01l3.4-.17,1.61-.1,1.48-.11-.11,.46c27.62-1.6,56.91,.11,85.54-.21,11.89,.18,19.92-.36,31.86-.38l.3,.57c20.11-2.17,42.26,1.95,63.23-.44l-1.45,.77c3.08-1.14,11.73,.26,11.55-1.34,0-.08-.03-.18-.1-.29l1.73,.29h43.35c.67-.05,1.34-.11,2.02-.18l-.42,.18h3.73c3.02-.17,6.02-.22,8.32,0,.25,.02,.49,.05,.72,.08-.54,.07-.29,.21-1.39,.34,14.54,1.93,30.73-.2,46.07-.13l-1.74,.91c7.42-1.06,21.02-.07,30.77-.56l-.59,.43,4.93-.6,.13,.86c4.06,.02,8.05-.04,11.99-.14,4.21-.12,8.37-.23,12.52-.35-.06-2.5-.12-4.99-.18-7.47-.04-2.21-.07-4.43-.11-6.65l.05-.03,.78,.65c-.41-3.41-.57-6.94-.62-10.55-.02-1.8-.02-3.62,0-5.46,.03-2.09,.06-4.19,.09-6.29-6.13-.1-11.2-.19-15.27,.06l.92-.27h-.82c.01-1.58,.02-3.15,.03-4.71v-5.65c-.03-3.75-.06-7.48-.09-11.18-.09-7.41-.24-14.75-.42-22.08-.16-6.48-.34-12.94-.51-19.46v-30.47h10.35v-34.6h-20.16v-91.13h22.97c.1,.08,.21,.1,.33,.03,1.28,.65,2.39,3.62,3.38-1l-.93-.93c.93-1.56,.46-1.18,1.16-1.74h0Zm-52.07,3.97c-.93,.26-.46,.2-1.16,.29-.12,1.01-1.47,1.15-2.04,1.88h.1c1.11,.5,.45,1.18,.29,1.58l-.52,.16c-1.08,.24,2.12,1.15,.26,.85,.46,2.06,.44,4.43,.46,6.73,.71,.32-.07,1.76,1.3,1.26-1.55,.58-1.94,2.29-1.89,2.93-.14-.02-.31-.05-.25-.15-2.01,1.24,1.86,1.46-.6,2.62,1.74,.18-.56,2.1,1.49,2.76-.39,.14-.74,.19-1.04,.14-.04,2.08-.67,4.39-.74,6.15,1.52,1.51-.69,3.65,1.41,4.94-.45,1.07-1.32,2.81-.48,4.31l-.26-.15c.12,1.69,.23,3.8,1.56,4.96-2.02,.5-1.61,1.23-2.26,1.96,.93,1.13,.66,3.41,1.51,5.13-.93,.26,.39,1.42-.96,1.51,2.61,4.83,1.7,10.8-.28,15.95l-.1-.07c.74,.67,2.38,1.44,3.34,2.12-.1,.06-.27,.06-.32-.02,.18,.92-1.08,1.78-.84,2.7-.15,0-.29-.05-.44-.16,.6,.88-1.08,1.82-.03,2.87l-.36,.06,.5,.66c-.39-.02-.93-.04-.98-.26-.13,2.77,.04,5.59,.33,8.42l.23,2.16,.12,1.08c.02,.16,.04,.4,.06,.51l.06,.2c.17,.56,.33,1.28,.47,2.1-.47,.12-1.06,.21-1.7,.26l-.49,.03h-.81c-.63,.02-1.25,0-1.87-.02l.3-.42-1.61,.76c0-.23,.09-.34,.16-.44-2.05-.76-4.18,.5-6.17,.31,0-.22,.31-.65,.03-.9-1.48,1.22-2.38-1.58-3.12,.95-.07-.12-.12-.69,.03-.89-2.06,.42-4.14,.62-6.23,.66-.52,.01-1.04,.01-1.57,0l-.78-.02h-.39l-.32-.03c-.54-.05-1.05-.13-1.48-.23-.5,.36-1.04,.61-1.58,.79-.47-.52-.4-1.82-.4-2.9,0-.23,0-.7-.02-1.07-.02-.39-.05-.78-.11-1.16-.11-.77-.33-1.54-.71-2.3l.46,.02c-1.6-4.64,.11-9.57-.21-14.38,.18-2-.36-3.35-.38-5.36l.57-.05c-2.17-3.38,1.95-7.1-.44-10.63l.77,.24c-1.11-.51,.2-1.9-1.24-1.94-.11,0-.24,0-.39,.02l.39-.39v-.45c-1.44-1.47-.45-2.8,0-4.31v-2.16c-.06-.19-.16-.39-.28-.6l.28,.11v-.4c-.26-.65-.38-1.33-.02-1.79l.02,.02c.07,.06,.2,.05,.32,.21,1.93-2.44-.2-5.16-.13-7.74l.91,.29c-1.06-1.25-.07-3.53-.56-5.17l.43,.1-.6-.83,.86-.02c.06-2.13-.68-4.14-.78-6.22h.07l.78,.12c-1.38-1.94,.02-4.12-.58-6.17l.27,.14c.15-2.5-.08-4.9-.42-7.3-.17-1.21-.37-2.37-.56-3.6,0-.02-.01-.05-.01-.07v-3.58h30.7c-.09,.05-.17,.1-.26,.17l.93,.16h0Zm-30.74-.82l.05,.03s-.05,.04-.05-.03Zm-48.65-109.95h.01s-.02,.03-.03,.05c-.06,.1-.11,.2-.16,.31,.03-.14,.03-.33,.18-.36Zm1.14,16.65c.15,.08,.31,.17,.46,.26,16.54,9.63,32.87,19.31,48.23,30.03,8.04,3.93,15.81,9.21,23.72,14.73l-71.09-42.97-1.02-.62h-.01l-5.26-3.17-.03-.03-.57-.34-6.12-3.68h-.01l-38.55-23.29-15.92,9.62c5.28-3.54,10.59-7.08,15.92-10.64l.85,.47,6.45,4.11,6.14,3.82c4.11,2.52,8.24,5.01,12.38,7.46,6.42,3.82,12.89,7.55,19.33,11.28,1.7,.98,3.4,1.97,5.1,2.96Zm25.71,32.7c-4.26-1.85-8.5-3.65-11.15-6.59-.15-.15-.31-.29-.46-.43l11.61,7.02h0Zm-43.69-26.28c-2.15-.93-4.32-1.86-6.48-2.83-.25-.18-.5-.36-.76-.54-.93-.66-1.87-1.3-2.82-1.91-2.79-1.81-5.66-3.46-8.56-5.06-.34-.19-.67-.38-1.01-.56-.03-.02-.07-.04-.1-.06-.14-.07-.27-.14-.41-.22-2.08-1.14-4.16-2.27-6.23-3.4-1.12-.62-2.22-1.24-3.32-1.88l-1.38-.81-1.18-.73c-.57,.33-1.14,.64-1.74,.95l-1.14,.6-.82,.41-.39,.2c-1.62,.8-3.27,1.54-4.97,2.19-.25,.25-.5,.48-.77,.71-1.92,1.64-4.27,2.75-6.76,3.75h0l-1.38,.54,3.22-1.96,.63-.38,.97-.58,2.91-1.77,10.25-6.22,32.25,19.56h0Zm-3.88-72.82l.02,.04c-.1,0-.16-.04-.02-.04Zm-42.39-18.23c.04,.16,.2,.12,.27,.44,.62-.95,1.12-1.8,1.59-2.67,.51-.85,.96-1.75,1.58-2.61,1.17-1.71,2.87-3.43,5.01-4.08-.03,.2-.07,.39-.1,.58-3.83,2.05-6.39,5.74-6.39,10.02,0,3.82,2.04,7.09,5.31,9.13-2.14,.32-4.25,.76-6.3,1.33-.04-.16-.25-.37-.65-.64,.52,.09,1.09,.19,1.72,.28,.24-.66,.59-.96,1.21-1.17,.15-.05,.33-.09,.52-.12,.03,0,.15,0,.1-.03l-.11-.07-.2-.14c-.25-.19-.44-.39-.62-.62-.23-.28-.42-.62-.65-1.02-.11-.21-.21-.42-.31-.66-.11-.24-.24-.5-.38-.77-.3-.54-.6-1.16-.89-1.73s-.6-1.17-.97-1.84c.18,.08,.35,.16,.54,.24-.32-.61-.57-1.33-.64-2.03-.03-.7,.03-1.37,.36-1.82h0Zm-2.6,27.2c.83-.04,1.65-.18,2.46-.38h0c1.59-.66,3.24-1.23,4.94-1.68,.02-.01,.04-.02,.06-.02,.83-.31,1.67-.61,2.53-.86,1.74-.66,3.55-.94,5.3-1.14,.87-.11,1.73,.02,2.55,.13,.7,.12,1.37,.27,1.99,.54,.11,.04,.21,.09,.32,.14,5.9,2.37,11.07,4.57,16.21,7.31,1.33,.62,2.51,1.47,3.81,2.2,.66,.35,1.23,.82,1.85,1.23l1.86,1.27,1.76,1.43c.59,.49,1.23,.94,1.76,1.5,1.09,1.08,2.31,2.12,3.28,3.36,2.53,5.19,4.91,10.4,6.02,16.1,.36,1.41,.42,2.85,.55,4.28,.15,1.43,.11,2.87-.02,4.3-.14,1.43-.4,2.84-.8,4.21-.1,.33-.22,.71-.32,.99-.04,.1-.08,.2-.12,.31-.07,.17-.15,.34-.22,.52-.12,.28-.26,.57-.41,.88-2.42-1.35-4.76-2.47-6.92-3.09-5.24-3.69-13.63-9.78-21.7-13.67l.87,.23c-3.5-2.05-7.28-4.28-11.02-6.48-1.42,.89-2.84,1.77-4.24,2.65l-2.44,1.58c-1.49,.98-2.93,1.95-4.29,2.9-2.72,1.9-5.1,3.7-6.86,5.28-3.59-.19-7.1,2.41-11.16,4.1-2.37,1.92-6.06,4.35-10.15,6.99-.1-.33-.19-.67-.28-1-.15-.52-.27-1.04-.37-1.56-.21-1.09-.34-2.19-.41-3.3-.14-2.21,0-4.41,.33-6.57,.6-4.33,1.73-8.46,3.13-12.61,2.32-4.33,4.5-8.86,7.71-12.99,3.16-4.09,7.43-7.68,12.43-9.08h0Zm-19.1,67.29c-1.33,.98-.52-.5-1.75-.08-.37,.31,.41,1.05-.62,1.26-.39-.55-.8-.62-1.21-.49l-.99,.6c.33-.25,.66-.49,.99-.6l.88-.53,3.79-2.21c-.26,.95-.48,1.83-1.21,1.41l.12,.64h0Zm-16.8-30.56c0,.57,0,1.14,.03,1.7-.34-1.04-.52-2.13-.56-3.23-.05-1.53-.11-3.1,.17-4.64,.36-3.12,1.08-6.15,1.11-9.35l.43,.16c.12-1,.3-2,.51-3,.21-1,.62-1.94,.98-2.91,.68-1.95,1.79-3.73,2.86-5.51,2.33-3.47,5.02-6.67,7.81-9.7,.63-.58,1.15-1.18,1.68-1.7,.55-.52,1.05-1.03,1.55-1.55s1-1.05,1.54-1.59c.58-.49,1.19-1,1.89-1.52l.41,.41c.42-.64,.91-1.24,1.46-1.75,.58-.47,1.21-.89,1.87-1.27,.66-.38,1.35-.72,2.05-1.04,.73-.26,1.48-.5,2.21-.74,.09-.03,.19-.06,.28-.09-16.83,9.06-28.28,26.86-28.28,47.32h0Zm7.77,34.54c.06,.14,.13,.26,.24,.37,.25,.28,.65,.45,1.31,.44l-.19-.97c.96,.5,.61,.18,1.14,.67,1.93-1.02,2.88-.02,4.5-.34-.03-.02-.05-.03-.06-.08,.34-1.52,1.96-1.69,2.77-1.98l.56,.27c1,.67,1.07-3.07,1.45-1.14,3.62-2.62,7.96-5.31,12.21-7.89,.23-.97,3.29-1.92,1.66-2.52,1.86,.69,5.23-.9,6.37-1.66,.03,.15,.07,.32-.15,.39,3.32,.34,1.74-3.24,5.15-2.42-.56-1.69,4.17-1.88,4.32-4.36,.46,.17,.73,.42,.8,.74l1.25-.72,.63-.35c.2-.11,.49-.27,.45-.23,.14-.02,.25-.02,.32,.02,.06,.09,.1,.18,.12,.25v.05l.02,.02,.08,.07,.8,.56c1.05,.74,2.03,1.41,2.96,2,3.57,.38,6.38,4.68,9.86,4.33,1.75,1.58,4.51,4.28,7.71,5.24l-.4,.06c3.18,1.79,7.14,4.06,9.96,4.22-.1,2.28,1.47,2.72,2.51,4.07,2.61,.4,6.61,3.19,10.24,4.37,0,1.09,2.83,1.25,2.29,2.5,10.26,3.15,20.8,10.59,29.29,18.03,1.6,.07,3.77-.43,5.45-.49,.05,.15-.04,.31-.23,.24,1.8,.87,2.74,2.92,4.57,3.74-.09,.12-.26,.19-.52,.2,1.94,.47,2.81,2.96,5.27,3.23l-.08,.37,1.48,.31c-.21,.3-.53,.72-.95,.56,4.81,3.07,9.82,5.91,14.92,8.69l1.36,.57,1.68,.74c.76,.34,1.61,.74,2.53,1.19,.16,.08,.33,.16,.49,.24,.09,.05,.18,.09,.27,.13,.37,.19,.75,.38,1.13,.57-1.69,.28-4.9,.46-8.23,.35l.16-.11,.08-.11c.05-.07,.1-.14,.14-.21l-.19,.09c-.07,.03-.27,.06-.4,.09l-.87,.19-1.73,.38c.02-.23,.18-.34,.35-.44-2.67-.46-5.39-.18-8.08,.07-.08,0-.16,0-.24,.02-1.69,.16-3.36,.29-4.99,.22,.02-.22,.67-.65,.07-.9-3.19,1.22-5.12-1.58-6.72,.95-.15-.12-.25-.69,.08-.89-8.87,.84-17.98,.79-26.92,.38-7.44,2.29-15.76,.22-23.49,2.04l.04-.46c-10.01,1.6-20.63-.11-31,.21-3-.13-5.33,.1-7.93,.25-1.13,.07-2.31,.13-3.62,.14l-.06-.3-.05-.27c-.46,.14-.93,.25-1.4,.34-.99,.19-1.99,.29-3.01,.31-6.04,.14-12.41-2.13-18.51-.21l.52-.77c-1.07,1.09-3.97-.14-4.17,1.14-.02,.06-.02,.12-.02,.19h-.61l-.39-.18-.3-.14c-.11,.06-.22,.11-.32,.15-.13,.07-.25,.13-.37,.17h-8.46c-1.78-.28-3.67-.45-5.79,0-.26,.05-.52,.12-.79,.19l.16-.19,.26-.3c-.5,.11-1.03,.22-1.56,.3h-3.08c-.09-.02-.17-.04-.25-.07,.19-.07,.1-.21,.5-.34-5.27-1.93-11.14,.2-16.7,.13l.63-.91c-2.69,1.06-7.62,.07-11.15,.56l.21-.43-1.79,.6-.05-.86c-4.6-.06-8.93,.68-13.41,.78v.02h0v-.02l.23-.76c-2.05,.69-4.46,.69-6.23,.58-.94-.05-1.83-.13-2.72-.15-.9-.03-1.83,0-3.04,.15l.74-.27c-2.32-.08-4.69-.04-7.47,.07,2.22-1.51,4.33-3.11,7.09-5.12,.66-.48,1.35-.98,2.08-1.5l65.24-39.45h0Zm113.64,82.48c1.11,.5,.45,1.19,.29,1.58l-.52,.16c-1.08,.24,2.12,1.16,.26,.85,.46,2.07,.44,4.43,.46,6.74,.71,.32-.07,1.77,1.3,1.26-1.55,.58-1.94,2.29-1.89,2.93-.14-.02-.31-.05-.25-.15-2.01,1.24,1.86,1.47-.6,2.63,1.74,.18-.56,2.11,1.49,2.76-.39,.14-.74,.19-1.04,.14-.04,2.09-.67,4.39-.74,6.16,1.52,1.51-.69,3.65,1.41,4.95-.45,1.08-1.32,2.81-.48,4.31l-.26-.15c.12,1.69,.23,3.81,1.56,4.97-2.02,.5-1.61,1.23-2.26,1.96,.93,1.13,.66,3.41,1.51,5.14-.93,.26,.39,1.42-.96,1.51,2.61,4.83,1.7,10.81-.28,15.97l-.1-.07c.74,.67,2.38,1.44,3.34,2.12-.1,.06-.27,.06-.32-.02,.18,.92-1.08,1.78-.84,2.71-.15,0-.29-.05-.44-.16,.6,.88-1.08,1.83-.03,2.87l-.36,.06,.5,.66c-.39-.02-.93-.04-.98-.26-.13,2.76,.04,5.56,.33,8.38l.23,2.15,.12,1.08c.02,.16,.04,.41,.06,.49l.06,.2c.17,.56,.33,1.27,.47,2.09-.47,.12-1.07,.21-1.72,.27l-.5,.03h-.86c-.63,.02-1.27,0-1.9-.02l.3-.42-1.61,.76c0-.23,.09-.34,.16-.44-2.05-.76-4.18,.5-6.18,.31,0-.22,.31-.65,.03-.9-1.48,1.22-2.38-1.58-3.12,.95-.07-.12-.12-.69,.03-.89-2.06,.42-4.15,.62-6.24,.66-.52,.01-1.05,.01-1.57,0l-.78-.02h-.39l-.32-.03c-.55-.05-1.05-.13-1.48-.23-.5,.36-1.04,.61-1.58,.79-.47-.52-.4-1.82-.4-2.9,0-.23,0-.71-.02-1.07-.02-.39-.05-.78-.11-1.16-.11-.77-.33-1.54-.71-2.3l.46,.02c-1.6-4.65,.11-9.58-.21-14.39,.18-2-.36-3.35-.39-5.36l.57-.05c-2.17-3.38,1.95-7.11-.44-10.64l.77,.24c-1.12-.52,.23-1.94-1.28-1.95-.1,0-.22,.01-.35,.02l.35-.35v-.53c-1.34-1.42-.46-2.7,0-4.14,.24-.75,.36-1.54,0-2.42-.06-.16-.14-.32-.24-.48l.24,.09,.25,.1c-.09-.19-.18-.38-.25-.58-.23-.61-.32-1.22,0-1.66,.01-.01,.01-.02,.02-.03,.07,.09,.21,.05,.34,.23,1.93-2.45-.2-5.17-.13-7.75l.91,.29c-1.06-1.25-.07-3.54-.56-5.18l.43,.1-.6-.83,.86-.02c.06-2.14-.68-4.14-.78-6.23l.04-.04h0l.78,.1c-1.38-1.94,.02-4.13-.58-6.18l.27,.14c.14-2.48-.08-4.87-.41-7.25-.17-1.21-.36-2.36-.55-3.57-.01-.09-.03-.18-.04-.27v-3.37h30.92c-.1,.06-.2,.12-.3,.2l.93,.16c-.93,.26-.46,.2-1.16,.29-.12,1-1.43,1.15-2.02,1.85-.01,0-.02,.02-.02,.03h.1Zm-14.55,121.51c-.34,.04-.53,.04-.14-.03,.04,.03,.14,.03,.14,.03Zm-42.15-121.54c1.11,.5,.45,1.18,.29,1.58l-.52,.16c-1.08,.24,2.12,1.15,.26,.85,.46,2.06,.44,4.43,.46,6.73,.71,.32-.07,1.76,1.3,1.26-1.55,.58-1.94,2.29-1.89,2.93-.14-.02-.31-.05-.25-.15-2.01,1.24,1.86,1.46-.6,2.62,1.74,.18-.56,2.1,1.49,2.76-.39,.14-.74,.19-1.04,.14-.04,2.08-.67,4.39-.74,6.15,1.52,1.51-.69,3.65,1.41,4.94-.45,1.07-1.32,2.81-.48,4.31l-.26-.15c.12,1.69,.23,3.8,1.56,4.96-2.02,.5-1.61,1.23-2.26,1.96,.93,1.13,.66,3.41,1.51,5.13-.93,.26,.39,1.42-.96,1.51,2.61,4.83,1.7,10.8-.28,15.95l-.1-.07c.74,.67,2.38,1.44,3.34,2.12-.1,.06-.27,.06-.32-.02,.18,.92-1.08,1.78-.84,2.7-.15,0-.29-.05-.44-.16,.6,.88-1.08,1.82-.03,2.87l-.36,.06,.5,.66c-.39-.02-.93-.04-.98-.26-.13,2.77,.04,5.59,.33,8.42l.23,2.16,.12,1.08c.02,.16,.04,.4,.06,.51l.06,.2c.17,.56,.33,1.28,.47,2.1-.47,.12-1.06,.21-1.7,.26l-.49,.03h-.81c-.63,.02-1.25,0-1.87-.02l.3-.42-1.61,.76c0-.23,.09-.34,.16-.44-2.05-.76-4.18,.5-6.17,.31,0-.22,.31-.65,.03-.9-1.48,1.22-2.38-1.58-3.12,.95-.07-.12-.12-.69,.03-.89-2.06,.42-4.14,.62-6.23,.66-.52,.01-1.04,.01-1.57,0l-.78-.02h-.39l-.32-.03c-.54-.05-1.05-.13-1.48-.23-.5,.36-1.04,.61-1.58,.79-.47-.52-.4-1.82-.4-2.9,0-.23,0-.7-.02-1.07-.02-.39-.05-.78-.11-1.16-.11-.77-.33-1.54-.71-2.3l.46,.02c-1.6-4.64,.11-9.57-.21-14.38,.18-2-.36-3.35-.39-5.36l.57-.05c-2.17-3.38,1.95-7.1-.44-10.63l.77,.24c-1.11-.51,.2-1.9-1.24-1.94v-.37l.23-.23c-.08-.07-.16-.15-.23-.22-1.44-1.47-.45-2.8,0-4.31,.2-.67,.29-1.38,0-2.16-.06-.19-.16-.39-.28-.6l.28,.11,.21,.08c-.08-.16-.15-.32-.21-.48-.26-.65-.38-1.33-.02-1.79l.02,.02c.07,.06,.2,.05,.32,.21,1.93-2.44-.2-5.16-.13-7.74l.91,.29c-1.06-1.25-.07-3.53-.56-5.17l.43,.1-.6-.83,.86-.02c.06-2.13-.68-4.14-.78-6.22h.08l.78,.12c-1.38-1.94,.02-4.12-.58-6.17l.27,.14c.15-2.5-.08-4.9-.42-7.3-.17-1.21-.37-2.37-.56-3.6,0-.05,0-.09-.02-.14v-3.51h30.71c-.09,.05-.17,.1-.26,.17l.93,.16c-.93,.26-.46,.2-1.16,.29-.12,1.01-1.47,1.15-2.04,1.88h.1Zm-25.68,119.15c-.27,.03-.61,.06-.87,.06,.15-.06,.43-.09,.87-.06Zm-1.96-122.14l.05,.03s-.05,.04-.05-.03Zm-25.29,59.64c.05-.1,.09-.19,.13-.29v6.28c-.62-2.13-1.28-4.24-.13-5.99Zm.13,12.37v5.19c-.24-1.75-.31-3.48,0-5.19Zm-.65-67.08l-.62-.1c-.18-.76,.7-.09,.94-.68-.08-.22-1.12-.08-.77-.55,1.9-.08,.62-1.11,1.1-1.63v3.79c-.71-.33-1.39-.63-.65-.83h0Zm-3.07-1.9c1.11,.5,.45,1.18,.29,1.58l-.52,.16c-1.08,.24,2.12,1.15,.26,.85,.46,2.06,.44,4.43,.46,6.73,.71,.32-.07,1.76,1.3,1.26-1.55,.58-1.94,2.29-1.89,2.93-.14-.02-.31-.05-.25-.15-2.01,1.24,1.86,1.46-.6,2.62,1.74,.18-.56,2.1,1.49,2.76-.39,.14-.73,.19-1.04,.14-.04,2.08-.67,4.39-.74,6.15,1.52,1.51-.69,3.65,1.41,4.95-.45,1.07-1.32,2.81-.48,4.31l-.26-.15c.12,1.69,.23,3.8,1.56,4.96-2.02,.5-1.61,1.23-2.26,1.96,.93,1.13,.66,3.41,1.51,5.13-.93,.26,.39,1.42-.96,1.51,2.61,4.83,1.7,10.8-.28,15.95l-.1-.07c.74,.67,2.38,1.44,3.34,2.12-.1,.06-.27,.06-.32-.02,.18,.92-1.08,1.78-.84,2.7-.15,0-.29-.05-.44-.16,.6,.88-1.08,1.82-.03,2.87l-.36,.06,.5,.66c-.39-.02-.93-.04-.98-.26-.13,2.77,.04,5.59,.33,8.42l.23,2.16,.12,1.08c.02,.16,.04,.4,.06,.51l.06,.2c.17,.56,.33,1.28,.47,2.1-.47,.12-1.06,.21-1.7,.26l-.49,.03h-.81c-.63,.02-1.25,0-1.88-.02l.3-.42-1.61,.76c0-.23,.09-.34,.16-.44-2.05-.76-4.18,.5-6.17,.31,0-.22,.31-.65,.03-.9-1.48,1.22-2.38-1.58-3.12,.95-.07-.12-.12-.69,.03-.89-2.06,.42-4.14,.62-6.23,.66-.52,.01-1.04,.01-1.57,0l-.78-.02h-.39l-.32-.03c-.54-.05-1.05-.13-1.48-.23-.5,.36-1.04,.61-1.58,.79-.47-.52-.4-1.82-.4-2.9,0-.23,0-.7-.02-1.07-.02-.39-.05-.78-.11-1.16-.11-.77-.33-1.54-.71-2.3l.46,.02c-1.6-4.64,.11-9.57-.21-14.38,.18-2-.36-3.35-.39-5.36l.57-.05c-2.17-3.38,1.95-7.1-.44-10.63l.77,.24c-1.11-.51,.2-1.9-1.24-1.94v-.37l.23-.23c-.08-.07-.16-.15-.23-.22v-4.31c.2-.67,.29-1.38,0-2.16v-.49l.21,.08c-.07-.16-.15-.32-.21-.48v-1.77c.07,.06,.2,.04,.32,.21,1.93-2.44-.2-5.16-.13-7.74l.91,.29c-1.06-1.25-.07-3.53-.56-5.17l.43,.1-.6-.83,.86-.02c.06-2.13-.68-4.14-.78-6.22l.09-.03h0l.78,.1c-1.38-1.94,.02-4.12-.58-6.17l.27,.14c.15-2.5-.08-4.9-.42-7.29-.17-1.21-.37-2.37-.56-3.6,0-.05,0-.09-.02-.14v-3.52h30.78c-.11,.06-.22,.13-.32,.21l.93,.16c-.93,.26-.46,.2-1.16,.29-.12,.98-1.41,1.14-2,1.83,0,.02-.03,.03-.04,.05h.1Zm-27.65-3.03l.05,.03h0s-.05,.04-.05-.03Zm-3.42,10.58c-.06-.02-.09-.07-.06-.14,.03,.04,.06,.14,.06,.14Zm-24.3,28.83c-.15,0-.29-.05-.44-.16,.6,.88-1.08,1.82-.03,2.87l-.36,.06,.5,.66c-.39-.02-.93-.04-.98-.26-.4,8.04,1.89,16.34,1.56,24.58l-.42-.3,.76,1.61c-.23,0-.34-.09-.44-.16-.76,2.05,.5,4.18,.31,6.17-.22,0-.65-.31-.9-.03,1.22,1.48-1.58,2.38,.95,3.12-.12,.07-.69,.12-.89-.03,.42,2.06,.62,4.14,.66,6.23v1.57l-.02,.78v.39l-.03,.32c-.05,.54-.13,1.05-.23,1.48,.36,.5,.61,1.04,.79,1.58-.52,.47-1.82,.4-2.9,.4-.23,0-.7,0-1.07,.02-.39,.02-.78,.05-1.16,.11-.77,.11-1.54,.33-2.3,.71l.02-.46c-4.64,1.6-9.57-.11-14.38,.21-1.99-.18-3.4,.36-5.2,.39l.18-.57c-1.04,.63-2.21,.73-3.03,.61,.14-1.33,.61-2.73,.83-3.71,.05-.25,.09-.49,.11-.73,.02-.22,0-.61-.04-.91-.09-.64-.3-1.27-.73-1.89l.77,.24c-1.14-.52,.26-1.97-1.34-1.94-.08,0-.18,0-.29,.02l.29-.29v-4.55c.29-.83,.47-1.72,0-2.73-.05-.11-.11-.22-.18-.34l.18,.07v-.63c-.16-.5-.22-1,0-1.39,.02-.04,.05-.09,.08-.13,.07,.09,.21,.05,.34,.23,1.93-2.44-.2-5.16-.13-7.74l.91,.29c-1.06-1.25-.07-3.53-.56-5.17l.43,.1-.6-.83,.86-.02c.06-2.13-.68-4.14-.78-6.22l-.02-.07,.78,.11c-1.38-1.94,.02-4.12-.58-6.17l.27,.14c.22-3.78-.41-7.35-1-11v-34.28c.05,.1,.12,.19,.19,.29l.16-.93c.26,.93,.2,.46,.29,1.16,1.01,.12,1.15,1.47,1.88,2.04h0s-.02-.04-.02-.06l.02,.02s-.01-.03,0-.06c.5-1.11,1.18-.45,1.58-.29l.16,.52c.24,1.08,1.15-2.12,.85-.26,2.06-.46,4.43-.44,6.73-.46,.32-.71,1.76,.07,1.26-1.3,.58,1.55,2.29,1.94,2.93,1.89-.02,.14-.05,.31-.15,.25,1.24,2.01,1.46-1.86,2.62,.6,.18-1.74,2.1,.56,2.76-1.49,.14,.39,.19,.73,.14,1.04,1.04,.02,2.14,.19,3.2,.36l1.54,.24c.33,.05,.82,.09,.96,.12,.08-.66,.28-.6,.3-.5,.06,.09-.07,.21,.6-.35l.54-.41c-.22,.37-.55,.76-.72,.95-.17,.2-.18,.2,.25,.33h-.26l.02,.03,.02,.32,.06,.67c.05,.45,.11,.91,.22,1.36,.21,.88,.57,1.7,1.23,2.28-2.02,.5-1.61,1.23-2.26,1.96,.93,1.13,.66,3.41,1.51,5.13-.93,.26,.39,1.42-.96,1.51,2.61,4.83,1.7,10.8-.28,15.95l-.1-.07c.74,.67,2.38,1.44,3.34,2.12-.1,.06-.27,.06-.32-.02,.18,.92-1.08,1.78-.84,2.7h0Zm-2.03-85h.06c-.09,.09-.14,.14-.06,0Zm-4.05-13.05c.33-.17,.67-.33,1-.51l-30.73,18.56c10.28-6.92,20.43-13.75,29.73-18.05Zm-23.85,90.12l.03-.02c.04,.05,.04,.08-.03,.02Zm-2.3,11.11c-.06-.02-.09-.07-.06-.14,.03,.04,.06,.14,.06,.14Zm149.35,161.34v-33c.24,11.08,.33,22.12,0,33Zm23.7,16.83h-1.93l1.91-.09c-.6-12.55-1.17-25.1-.06-35.49,.03-.35,.05-.71,.08-1.06v36.64h0Zm55.71-62.91v-.07l.03,.27c0-.07-.03-.14-.03-.2h0Zm34.06,62.77v-13.37c.71,2.08,1.4,3.97,.66,5.16l.62,.63c.09,2.35-.09,2.49-.31,2.5-.23,.02-.51-.14-.63,1.6,.08,1.28,1.12-.05,.77,2.39-.15,.17-.22,.32-.22,.44,0,.52,1.25,.65,2.79,.65h-3.68Zm0-21.03v-4.54c.16,1.66,.21,3.2,0,4.54Zm18.94,19.73c-.29-.08-.62-.16-1.01-.24l-.96,.93c-1.61-.93-1.23-.46-1.8-1.16-3.13-.06-4.9-.43-6.46-.85-.78-.22-1.5-.42-2.31-.64-.4-.1-.83-.2-1.29-.29-.15-.02-.15-.04-.19-.07l-.09-.06-.18-.11s0,.05-.02,.1c-.39,.39-1.01,.57-1.53,.62-.05-.39,0-.9,.09-1.31,.04-.21,.09-.39,.13-.55,.04-.38,.08-.89,.11-1.26l.52-.97c1.08-1.48-2.12-7.12-.26-5.22-.46-12.73-.44-27.32-.46-41.54-.25-.71-.32-2.31-.36-3.92l-.06-2.32c-.01-.35-.03-.68-.06-.97-.01-.13-.03-.31-.04-.36-.02-.06-.03-.11-.05-.16-.02-.07-.04-.13-.07-.18-.03-.1-.06-.16-.11-.17-.05-.02-.11,0-.19,.09-.08,.08-.16,.11-.26,.22-.02,0-.03,.02-.04,.03,0-.01,0-.02,.01-.03,.06-.07,.12-.12,.17-.2l.19-.41c.13-.29,.25-.61,.35-.96,.23-.69,.38-1.61,.43-2.55,.12-1.9-.23-4.14-1.1-6.2-.85-2.07-2.2-3.88-3.59-5.25-.67-.72-1.41-1.25-2.05-1.77-.68-.45-1.27-.87-1.79-1.14,.23-.05,.5-.08,1.1,.38-1.72-1.69-3.49-2.6-5.08-3.02-1.59-.46-3-.5-4.35-.45s-2.65,.19-4.15,.27c-1.51,.08-3.22,.09-5.53,.18-.1,.26-.42,.52-.89,.79-.46,.31-1.09,.63-1.82,.99-1.43,.78-3.28,1.82-4.98,3.31-1.7,1.48-3.26,3.41-4.13,5.44-.88,2.02-1.12,4.02-.78,5.34-.53,1.03-.85,1.43-1.15,.98-.04,.65-.09,1.31-.07,1.81,.02,.45,0,.97,.12,1.67-.12,12.03-.65,24.79-.73,34.77,.68,4.17,.62,9.12,.52,14.04-.05,2.46-.1,4.91-.07,7.24l.02,.87v.43l.02,.21v.1c.02,.07,.05,.14,.08,.22l.32,.7c-.04,.13-.11,.31-.25,.52-.22-.05-.43-.09-.62-.15h-.04l-.14-.02-.29-.02-.58-.04-1.2-.08c-1.63-.1-3.38-.2-5.21-.31-1.83-.09-3.73-.16-5.66-.2l-1.13-.02c-.12,0-.25,.02-.4,.04-.03-.1-.06-.19-.11-.31l-.09-.19-.05-.11v-.03l-.03-.15-.03-.33,.13,.45c.04,.08,.09,.06,.13,.09l-.11-7.82c-.05-2.8-.11-5.63-.22-8.36-.21-5.46-.57-10.51-1.23-14.09,2.02-3.08,1.61-7.6,2.26-12.11-.24-1.77-.4-3.99-.52-6.5l-.15-3.96-.12-3.91s.06-.56,.09-.9c.04-.42,.07-.85,.09-1.31,.06-.94-.06-1.92-.14-2.85-.28-1.88-.84-3.72-1.68-5.37-1.72-3.3-4.37-5.81-7.13-7.32-.54-.97-2.99-2.2-5.39-2.82-2.39-.65-4.67-.86-4.97-1.52-5.33,.02-10.83,1.85-15.03,5.6-2.1,1.85-3.86,4.21-4.92,6.95-.13,.34-.27,.68-.39,1.03l-.29,1.07c-.22,.7-.28,1.45-.4,2.18-.08,.72-.08,1.5-.1,2.2,.03,.57,.01,1.19,.19,2.13,.23,10.19,.19,20.72-.04,31.23-.12,5.31-.29,10.61-.5,15.86l-.34,7.82-.09,1.94-.02,.48c0,.13-.02,.36-.02,.36l-.05,.18c-.07,.23-.13,.4-.2,.52-.27-.07-.48-.15-.63-.22l-.11-.06-.97-.06-1.92-.12,.46-.1c-2.06,.37-4.28,.97-6.52,1.59-1.12,.31-2.23,.62-3.33,.93l-1.6,.43c-.34,.14-.73,.27-1.15,.39-.24-.11-.12-.32,.37-.33-.8,.05-1.6,.03-2.31-.03,.06-.77,.15-1.52,.25-2.2l.16-.98,.15-1.65c.2-2.2,.34-4.41,.24-6.68,.15,.03,.29,.36,.44,.99-.6-5.44,1.08-11.25,.03-17.68l.36-.36-.5-4.09c.38,.08,.9,.21,.98,1.52,.08-9.78,.05-19.63-.04-29.72,.13-.85,.1-1.41,.12-1.91,0-.26-.02-.65-.04-1l-.07-1.06c-.09-.7-.23-1.4-.37-2.1-.21-.68-.38-1.37-.65-2.02-1.03-2.63-2.69-4.93-4.69-6.76-4.02-3.67-9.35-5.47-14.54-5.42-5.21,.02-10.5,1.89-14.39,5.59-1.94,1.83-3.53,4.12-4.48,6.7-.27,.63-.4,1.32-.6,1.97-.14,.67-.24,1.36-.33,2.04-.03,.67-.08,1.43-.07,2.01,.03,.53,0,1.11,.17,1.96,0,.01,0,.02,0,.03l.5,31.08,.15,15.76,.03,13.44-3.41-.03,.47-.11c.15-.04,.35-.07,.39-.11,.15-.07,.28-.14,.41-.21l-.27,.05-.14,.02h-.07l-.15,.02-1.24,.09-2.48,.19-4.96,.38c.05-.23,.53-.34,1-.44-1.78-.11-3.57-.17-5.36-.21l-1.49-.03h-1.24l-.35-11.09c-.15-4.57-.26-9.11-.2-13.54,.22,.06,.65,1.92,.9,.2-1.22-9.12,1.58-14.66-.95-19.23,.12-.42,.69-.71,.89,.22-.18-5.48-.32-10.99-.43-16.62,.13-.77,.1-1.32,.1-1.83,0-.59-.08-1.31-.13-1.96-.11-.66-.22-1.32-.38-1.96-.21-.63-.35-1.29-.63-1.89-1-2.46-2.59-4.62-4.51-6.33-3.86-3.45-9.02-5.1-14.05-4.97-5.02,.11-10.1,2.03-13.79,5.69-1.85,1.81-3.31,4.1-4.11,6.64l-.29,.96c-.08,.32-.13,.65-.19,.98-.15,.65-.19,1.32-.23,1.99-.06,.66-.03,1.37,.02,1.99l.09,.94,.09,.71-.09,6.1c.95,8.82,1.15,18.08,1.19,27.46v14.13l.06,7.06,.06,3.15,.09,2.69c-1.56,.08-3.1,.17-4.63,.25-1.92,.1-3.83,.23-5.73,.39l.11-.46-6.15,.29c-1.89,.07-3.8,.14-5.73,.2l-.09-3.44-.06-3.78c-.02-2.59-.03-5.19-.05-7.79,0-5.21,.04-10.46,.1-15.72,.13-10.51,.34-21.08,.4-31.61,.77-4.87-1.36-9.63-4.84-12.67-2.39-2.18-5.16-3.52-7.92-4.13-2.76-.63-5.5-.63-8.13-.13-2.63,.53-5.14,1.62-7.4,3.27-2.22,1.69-4.21,4-5.32,7.01-.22,.03-.45,.07-.65,.11-.1,.55-.23,1.09-.3,1.63-.04,.55-.13,1.1-.12,1.65,.02,1.1-.03,2.07,.25,3.24,.47,9.55-.07,19.47-.47,29.45-.2,5-.36,10.01-.33,14.99,.01,2.49,.07,4.98,.19,7.46,.06,1.24,.14,2.47,.23,3.71l.16,1.85c.06,.62,.12,1.09,.19,1.68-.26-.52-.52-.96-.77-1.34,.41,.84,.49,2.51,.5,4.14-1.6,.01-3.15-.05-4.37,.06-1.14,.09-1.88,.3-1.83,.77h-1.75l-1.98-.32c-.66,.12-1.32,.23-1.97,.32h-8.21v-14.53c.03-.58,.07-1.17,.1-1.76,.29-5.36,.45-11.07-.1-17.54-.03-.37-.06-.73-.1-1.1l.1,.24,.39,.95c-.16-2.03-.31-4.21-.39-6.31s-.1-4.13,0-5.88c.04-.65,.09-1.25,.16-1.81,.07,.56,.21,.3,.34,1.44,.96-7.54,.91-15.51,.63-23.58-.17-4.04-.33-8.1-.5-12.14-.07-2.02-.13-4.04-.2-6.06l-.05-2.99v-2.83c.29,.78,.59,1.44,.9,2-.13-.76-.23-1.66-.31-2.86,.73-.07,1.57-.11,2.49-.15l1.42-.04,1.71-.02c2.35-.02,4.84,0,7.38,.04,5.06,.06,10.26,.13,14.7-.09l-.61,.43,5.12-.6,.13,.86c13.12,.06,25.46-.67,38.26-.78l-.66,.77c11.95-1.38,25.43,.02,38.07-.58l-.86,.27c22.93,.21,44.59-.39,66.7-.97h124.99v94.31h0Zm13.16-90.48c.04,.38,.04,.58-.03,.14,.03-.04,.03-.14,.03-.14Zm16.88-147.05c-.64,.51-.92,1.41-1.03,2.54v-4.82h-10.01c1.97-.69,3.71-1.32,4.82-.59,.19-.21,.43-.41,.7-.62,2.88-.09,2.97,.09,2.83,.31-.14,.23-.38,.51,1.37,.63,.28,0,.51-.06,.68-.13,.29,.36,.92-.24,.64,2.68h0Z"/></svg>